<?xml version="1.0" encoding="UTF-8" standalone="no"?><svg xmlns="http://www.w3.org/2000/svg" xmlns:xlink="http://www.w3.org/1999/xlink" contentScriptType="application/ecmascript" contentStyleType="text/css" height="1108px" preserveAspectRatio="none" style="width:2212px;height:1108px;background:#FFFFFF;" version="1.1" viewBox="0 0 2212 1108" width="2212px" zoomAndPan="magnify"><defs><filter height="300%" id="fbtvz68l6w5jt" width="300%" x="-1" y="-1"><feGaussianBlur result="blurOut" stdDeviation="2.0"/><feColorMatrix in="blurOut" result="blurOut2" type="matrix" values="0 0 0 0 0 0 0 0 0 0 0 0 0 0 0 0 0 0 .4 0"/><feOffset dx="4.0" dy="4.0" in="blurOut2" result="blurOut3"/><feBlend in="SourceGraphic" in2="blurOut3" mode="normal"/></filter></defs><g><ellipse cx="631.1007" cy="31.715" rx="52.6007" ry="14.715" style="stroke:#A80036;stroke-width:1.5;fill:none;"/><text fill="#000000" font-family="sans-serif" font-size="14" lengthAdjust="spacing" textLength="57" x="599.6007" y="35.4626">E: Event</text><ellipse cx="788.1952" cy="31.339" rx="69.6952" ry="16.339" style="stroke:#FF0000;stroke-width:1.5;fill:none;"/><text fill="#FF0000" font-family="sans-serif" font-size="14" lengthAdjust="spacing" textLength="92" x="739.1952" y="35.0866">W: Workshop</text><ellipse cx="944.1079" cy="31.7016" rx="51.1079" ry="14.7016" style="stroke:#FF8C00;stroke-width:1.5;fill:none;"/><text fill="#FF8C00" font-family="sans-serif" font-size="14" lengthAdjust="spacing" textLength="55" x="913.6079" y="35.4492">M: Math</text><ellipse cx="631.1868" cy="142.4374" rx="72.6868" ry="16.9374" style="stroke:#191970;stroke-width:1.5;fill:none;"/><text fill="#191970" font-family="sans-serif" font-size="14" lengthAdjust="spacing" textLength="100" x="578.1868" y="146.1849">A: Assignment</text><ellipse cx="1138.1199" cy="31.6669" rx="106.6199" ry="25.6669" style="stroke:#A80036;stroke-width:1.5;fill:none;"/><text fill="#000000" font-family="sans-serif" font-size="14" font-style="italic" lengthAdjust="spacing" textLength="121" x="1070.6199" y="27.266">«Taha Bouhsine»</text><text fill="#000000" font-family="sans-serif" font-size="14" lengthAdjust="spacing" textLength="137" x="1062.6199" y="43.5629">E0: 30DaysOfML Init</text><line style="stroke:#A80036;stroke-width:1.5;" x1="1236.2418" x2="1208.9457" y1="22.7194" y2="50.0154"/><ellipse cx="1137.9446" cy="142.5288" rx="109.4446" ry="25.5288" style="stroke:#A80036;stroke-width:1.5;fill:none;"/><text fill="#000000" font-family="sans-serif" font-size="14" font-style="italic" lengthAdjust="spacing" textLength="121" x="1070.0576" y="137.9734">«Taha Bouhsine»</text><text fill="#000000" font-family="sans-serif" font-size="14" lengthAdjust="spacing" textLength="142" x="1059.5576" y="154.2702">E1: AI First + ML 101</text><line style="stroke:#A80036;stroke-width:1.5;" x1="1238.6661" x2="1211.7624" y1="133.6294" y2="160.5331"/><ellipse cx="1431.1231" cy="255.0577" rx="92.6231" ry="26.5577" style="stroke:#A80036;stroke-width:1.5;fill:none;"/><text fill="#000000" font-family="sans-serif" font-size="14" font-style="italic" lengthAdjust="spacing" textLength="121" x="1369.8731" y="250.6568">«Taha Bouhsine»</text><text fill="#000000" font-family="sans-serif" font-size="14" lengthAdjust="spacing" textLength="112" x="1374.3731" y="266.9537">E2: Intro to Data</text><line style="stroke:#A80036;stroke-width:1.5;" x1="1516.3637" x2="1486.6533" y1="245.7997" y2="275.5101"/><ellipse cx="601.0406" cy="370.0224" rx="97.5406" ry="26.5224" style="stroke:#A80036;stroke-width:1.5;fill:none;"/><text fill="#000000" font-family="sans-serif" font-size="14" font-style="italic" lengthAdjust="spacing" textLength="127" x="536.5406" y="365.6215">«Said Elhachemy»</text><text fill="#000000" font-family="sans-serif" font-size="14" lengthAdjust="spacing" textLength="119" x="540.5406" y="381.9184">E3: Intro to Colab</text><ellipse cx="845.2352" cy="369.9077" rx="111.2352" ry="25.9077" style="stroke:#A80036;stroke-width:1.5;fill:none;"/><text fill="#000000" font-family="sans-serif" font-size="14" font-style="italic" lengthAdjust="spacing" textLength="132" x="773.7352" y="365.5069">«Lahcen Oussayd»</text><text fill="#000000" font-family="sans-serif" font-size="14" lengthAdjust="spacing" textLength="142" x="768.7352" y="381.8037">E4: Python in Kaggle</text><ellipse cx="1296.9577" cy="492.4915" rx="132.9577" ry="28.9915" style="stroke:#A80036;stroke-width:1.5;fill:none;"/><text fill="#000000" font-family="sans-serif" font-size="14" font-style="italic" lengthAdjust="spacing" textLength="121" x="1231.3378" y="482.8536">«Taha Bouhsine»</text><text fill="#000000" font-family="sans-serif" font-size="14" lengthAdjust="spacing" textLength="229" x="1177.3378" y="499.1505">E5: Supervised Machine Learning</text><line style="stroke:#A80036;stroke-width:1.5;" x1="1419.3182" x2="1389.3481" y1="482.3851" y2="512.3552"/><ellipse cx="1087.0943" cy="616.5189" rx="118.0943" ry="26.0189" style="stroke:#A80036;stroke-width:1.5;fill:none;"/><text fill="#000000" font-family="sans-serif" font-size="14" font-style="italic" lengthAdjust="spacing" textLength="125" x="1017.6529" y="610.9586">«Lahcen Ousayd»</text><text fill="#000000" font-family="sans-serif" font-size="14" lengthAdjust="spacing" textLength="167" x="996.6529" y="627.2555">E5_1: Linear Regression</text><line style="stroke:#A80036;stroke-width:1.5;" x1="1195.7759" x2="1168.7995" y1="607.4487" y2="634.4251"/><ellipse cx="1328.7623" cy="616.7322" rx="88.2623" ry="25.2322" style="stroke:#A80036;stroke-width:1.5;fill:none;"/><text fill="#000000" font-family="sans-serif" font-size="14" font-style="italic" lengthAdjust="spacing" textLength="125" x="1266.2623" y="614.4068">«Lahcen Ousayd»</text><text fill="#000000" font-family="sans-serif" font-size="14" lengthAdjust="spacing" textLength="73" x="1292.2623" y="630.7037">E5_2: SVM</text><line style="stroke:#A80036;stroke-width:1.5;" x1="1409.9898" x2="1381.7865" y1="607.9362" y2="636.1395"/><ellipse cx="1404.8987" cy="739.7506" rx="108.3987" ry="25.7506" style="stroke:#A80036;stroke-width:1.5;fill:none;"/><text fill="#000000" font-family="sans-serif" font-size="14" font-style="italic" lengthAdjust="spacing" textLength="125" x="1335.8987" y="735.3497">«Lahcen Ousayd»</text><text fill="#000000" font-family="sans-serif" font-size="14" lengthAdjust="spacing" textLength="139" x="1328.8987" y="751.6466">E5_3: Decision Tree</text><line style="stroke:#A80036;stroke-width:1.5;" x1="1504.6575" x2="1477.3772" y1="730.7739" y2="758.0543"/><ellipse cx="1004.8965" cy="739.9505" rx="113.8965" ry="25.4505" style="stroke:#A80036;stroke-width:1.5;fill:none;"/><text fill="#000000" font-family="sans-serif" font-size="14" font-style="italic" lengthAdjust="spacing" textLength="124" x="935.3567" y="735.2593">«Oumaima Kaissi»</text><text fill="#000000" font-family="sans-serif" font-size="14" lengthAdjust="spacing" textLength="149" x="922.8567" y="751.5561">E5_4: Random Forest</text><line style="stroke:#A80036;stroke-width:1.5;" x1="1109.715" x2="1083.2216" y1="731.0785" y2="757.5719"/><ellipse cx="1919.9566" cy="616.6928" rx="90.9566" ry="26.6928" style="stroke:#A80036;stroke-width:1.5;fill:none;"/><text fill="#000000" font-family="sans-serif" font-size="14" font-style="italic" lengthAdjust="spacing" textLength="121" x="1859.4566" y="612.292">«Taha Bouhsine»</text><text fill="#000000" font-family="sans-serif" font-size="14" lengthAdjust="spacing" textLength="109" x="1865.4566" y="628.5888">E6: Intro to EDA</text><line style="stroke:#A80036;stroke-width:1.5;" x1="2003.6635" x2="1973.6012" y1="607.3877" y2="637.45"/><ellipse cx="512.064" cy="616.6128" rx="128.564" ry="28.1128" style="stroke:#A80036;stroke-width:1.5;fill:none;"/><text fill="#000000" font-family="sans-serif" font-size="14" font-style="italic" lengthAdjust="spacing" textLength="173" x="420.564" y="612.2119">«Ayoub Bouihrouchane»</text><text fill="#000000" font-family="sans-serif" font-size="14" lengthAdjust="spacing" textLength="181" x="416.564" y="628.5088">E7: Intro to Deep Learning</text><line style="stroke:#A80036;stroke-width:1.5;" x1="630.3809" x2="601.2959" y1="606.8127" y2="635.8977"/><ellipse cx="1207.9269" cy="862.7854" rx="131.9269" ry="28.7854" style="stroke:#FF0000;stroke-width:1.5;fill:none;"/><text fill="#FF0000" font-family="sans-serif" font-size="14" font-style="italic" lengthAdjust="spacing" textLength="144" x="1130.3204" y="854.9916">«Chaimae Elmejgari»</text><text fill="#FF0000" font-family="sans-serif" font-size="14" lengthAdjust="spacing" textLength="217" x="1093.8204" y="871.2885">W1: Supervised ML with sklearn</text><line style="stroke:#FF0000;stroke-width:1.5;" x1="1329.3387" x2="1299.5762" y1="852.7508" y2="882.5132"/><ellipse cx="845.0009" cy="254.7518" rx="115.0009" ry="26.2518" style="stroke:#FF0000;stroke-width:1.5;fill:none;"/><text fill="#FF0000" font-family="sans-serif" font-size="14" font-style="italic" lengthAdjust="spacing" textLength="157" x="766.5009" y="250.9638">«El Bachir Outidrarine»</text><text fill="#FF0000" font-family="sans-serif" font-size="14" lengthAdjust="spacing" textLength="132" x="779.0009" y="267.2607">W2: Intro to Python</text><line style="stroke:#FF0000;stroke-width:1.5;" x1="950.8358" x2="923.341" y1="245.6004" y2="273.0952"/><ellipse cx="1120.2207" cy="370.1441" rx="128.7207" ry="28.1441" style="stroke:#FF0000;stroke-width:1.5;fill:none;"/><text fill="#FF0000" font-family="sans-serif" font-size="14" font-style="italic" lengthAdjust="spacing" textLength="127" x="1051.1407" y="361.9328">«Said Elhachemy»</text><text fill="#FF0000" font-family="sans-serif" font-size="14" lengthAdjust="spacing" textLength="212" x="1008.6407" y="378.2297">W3: Linear Algebra with Numpy</text><line style="stroke:#FF0000;stroke-width:1.5;" x1="1238.6818" x2="1209.5652" y1="360.3331" y2="389.4497"/><ellipse cx="1658.9146" cy="616.2829" rx="134.4146" ry="29.2829" style="stroke:#FF0000;stroke-width:1.5;fill:none;"/><text fill="#FF0000" font-family="sans-serif" font-size="14" font-style="italic" lengthAdjust="spacing" textLength="124" x="1591.8621" y="606.4756">«Oumaima Kaissi»</text><text fill="#FF0000" font-family="sans-serif" font-size="14" lengthAdjust="spacing" textLength="233" x="1537.3621" y="622.7725">W4: Data Preparation with Pandas</text><line style="stroke:#FF0000;stroke-width:1.5;" x1="1782.6157" x2="1752.3521" y1="606.0749" y2="636.3385"/><ellipse cx="769.1797" cy="616.2724" rx="93.6797" ry="26.2724" style="stroke:#FF0000;stroke-width:1.5;fill:none;"/><text fill="#FF0000" font-family="sans-serif" font-size="14" font-style="italic" lengthAdjust="spacing" textLength="127" x="705.6797" y="612.4555">«Said Elhachemy»</text><text fill="#FF0000" font-family="sans-serif" font-size="14" lengthAdjust="spacing" textLength="105" x="716.6797" y="628.7524">W5: Intro to JAX</text><line style="stroke:#FF0000;stroke-width:1.5;" x1="855.3926" x2="826.189" y1="607.1138" y2="636.3175"/><ellipse cx="1707.9172" cy="740.1834" rx="158.9172" ry="34.1834" style="stroke:#FF0000;stroke-width:1.5;fill:none;"/><text fill="#FF0000" font-family="sans-serif" font-size="14" font-style="italic" lengthAdjust="spacing" textLength="98" x="1658.9172" y="726.7332">«Souad Saidi»</text><text fill="#FF0000" font-family="sans-serif" font-size="14" lengthAdjust="spacing" textLength="289" x="1563.4172" y="743.0301">W6: Intro to Data Visualization with Python</text><line style="stroke:#FF0000;stroke-width:1.5;" x1="1854.168" x2="1818.9669" y1="728.2671" y2="763.4682"/><ellipse cx="1827.0817" cy="862.9775" rx="110.5817" ry="25.4775" style="stroke:#FF0000;stroke-width:1.5;fill:none;"/><text fill="#FF0000" font-family="sans-serif" font-size="14" font-style="italic" lengthAdjust="spacing" textLength="121" x="1759.1617" y="858.3428">«Taha Bouhsine»</text><text fill="#FF0000" font-family="sans-serif" font-size="14" lengthAdjust="spacing" textLength="144" x="1747.6617" y="874.6397">W7: EDA with Python</text><line style="stroke:#FF0000;stroke-width:1.5;" x1="1928.8495" x2="1902.0948" y1="854.096" y2="880.8507"/><ellipse cx="492.0016" cy="740.0003" rx="125.5016" ry="27.5003" style="stroke:#FF0000;stroke-width:1.5;fill:none;"/><text fill="#FF0000" font-family="sans-serif" font-size="14" font-style="italic" lengthAdjust="spacing" textLength="173" x="404.7516" y="735.5994">«Ayoub Bouihrouchane»</text><text fill="#FF0000" font-family="sans-serif" font-size="14" lengthAdjust="spacing" textLength="164" x="409.2516" y="751.8963">W8: Intro to TensorFlow</text><line style="stroke:#FF0000;stroke-width:1.5;" x1="607.5001" x2="579.0319" y1="730.4137" y2="758.8819"/><ellipse cx="166.1806" cy="740.1574" rx="117.6806" ry="26.6574" style="stroke:#FF0000;stroke-width:1.5;fill:none;"/><text fill="#FF0000" font-family="sans-serif" font-size="14" font-style="italic" lengthAdjust="spacing" textLength="157" x="87.4306" y="735.7565">«El Bachir Outidrarine»</text><text fill="#FF0000" font-family="sans-serif" font-size="14" lengthAdjust="spacing" textLength="146" x="92.9306" y="752.0534">W9: OOP with Python</text><line style="stroke:#FF0000;stroke-width:1.5;" x1="274.4815" x2="246.6233" y1="730.8646" y2="758.7228"/><ellipse cx="758.9287" cy="740.1061" rx="96.4287" ry="26.6061" style="stroke:#FF0000;stroke-width:1.5;fill:none;"/><text fill="#FF0000" font-family="sans-serif" font-size="14" font-style="italic" lengthAdjust="spacing" textLength="127" x="694.9287" y="735.7052">«Said Elhachemy»</text><text fill="#FF0000" font-family="sans-serif" font-size="14" lengthAdjust="spacing" textLength="117" x="699.9287" y="752.0021">W10: NN with JAX</text><ellipse cx="165.8827" cy="492.3765" rx="159.8827" ry="34.3765" style="stroke:#FF0000;stroke-width:1.5;fill:none;"/><text fill="#FF0000" font-family="sans-serif" font-size="14" font-style="italic" lengthAdjust="spacing" textLength="157" x="87.3827" y="478.9263">«El Bachir Outidrarine»</text><text fill="#FF0000" font-family="sans-serif" font-size="14" lengthAdjust="spacing" textLength="291" x="20.3827" y="495.2232">W11: Functional Programming with Python</text><line style="stroke:#FF0000;stroke-width:1.5;" x1="313.022" x2="277.6263" y1="480.3929" y2="515.7886"/><ellipse cx="1120.2096" cy="255.0419" rx="123.2096" ry="27.0419" style="stroke:#FF8C00;stroke-width:1.5;fill:none;"/><text fill="#FF8C00" font-family="sans-serif" font-size="14" font-style="italic" lengthAdjust="spacing" textLength="153" x="1036.5807" y="250.5685">«El Mahjoub Abakrim»</text><text fill="#FF8C00" font-family="sans-serif" font-size="14" lengthAdjust="spacing" textLength="171" x="1027.5807" y="266.8654">M1: Linear algebra for ML</text><ellipse cx="2089.9399" cy="370.0505" rx="116.4399" ry="26.5505" style="stroke:#FF8C00;stroke-width:1.5;fill:none;"/><text fill="#FF8C00" font-family="sans-serif" font-size="14" font-style="italic" lengthAdjust="spacing" textLength="153" x="2012.4399" y="365.6496">«El Mahjoub Abakrim»</text><text fill="#FF8C00" font-family="sans-serif" font-size="14" lengthAdjust="spacing" textLength="145" x="2016.4399" y="381.9465">M2: Probability for ML</text><ellipse cx="2088.0408" cy="492.5486" rx="113.5408" ry="26.5486" style="stroke:#FF8C00;stroke-width:1.5;fill:none;"/><text fill="#FF8C00" font-family="sans-serif" font-size="14" font-style="italic" lengthAdjust="spacing" textLength="153" x="2011.5408" y="488.347">«El Mahjoub Abakrim»</text><text fill="#FF8C00" font-family="sans-serif" font-size="14" lengthAdjust="spacing" textLength="137" x="2019.5408" y="504.6439">M3: Statistics for ML</text><ellipse cx="473.8854" cy="492.409" rx="112.8854" ry="26.409" style="stroke:#FF8C00;stroke-width:1.5;fill:none;"/><text fill="#FF8C00" font-family="sans-serif" font-size="14" font-style="italic" lengthAdjust="spacing" textLength="153" x="397.3854" y="488.4013">«El Mahjoub Abakrim»</text><text fill="#FF8C00" font-family="sans-serif" font-size="14" lengthAdjust="spacing" textLength="133" x="407.3854" y="504.6982">M5: Calculus for ML</text><ellipse cx="1736.9116" cy="492.3823" rx="129.9116" ry="28.3823" style="stroke:#FF8C00;stroke-width:1.5;fill:none;"/><text fill="#FF8C00" font-family="sans-serif" font-size="14" font-style="italic" lengthAdjust="spacing" textLength="153" x="1654.3624" y="485.9">«El Mahjoub Abakrim»</text><text fill="#FF8C00" font-family="sans-serif" font-size="14" lengthAdjust="spacing" textLength="204" x="1628.8624" y="502.1969">M4: Information Theory for ML</text><ellipse cx="1207.1065" cy="983.2213" rx="144.1065" ry="31.2213" style="stroke:#191970;stroke-width:1.5;fill:none;"/><text fill="#191970" font-family="sans-serif" font-size="14" font-style="italic" lengthAdjust="spacing" textLength="144" x="1131.4295" y="972.1988">«Chaimae Elmejgari»</text><text fill="#191970" font-family="sans-serif" font-size="14" lengthAdjust="spacing" textLength="257" x="1074.9295" y="988.4957">A1: Sklearn Classification Assignment</text><line style="stroke:#191970;stroke-width:1.5;" x1="1339.7271" x2="1307.5108" y1="972.3376" y2="1004.5539"/><a href="http://GDSCUIZ.github.io" target="_top" title="http://GDSCUIZ.github.io" xlink:actuate="onRequest" xlink:href="http://GDSCUIZ.github.io" xlink:show="new" xlink:title="http://GDSCUIZ.github.io" xlink:type="simple"><path d="M1110.5,1074 L1110.5,1099.1328 A0,0 0 0 0 1110.5,1099.1328 L1303.5,1099.1328 A0,0 0 0 0 1303.5,1099.1328 L1303.5,1084 L1293.5,1074 L1211,1074 L1207,1014.18 L1203,1074 L1110.5,1074 A0,0 0 0 0 1110.5,1074 " fill="#FBFB77" filter="url(#fbtvz68l6w5jt)" style="stroke:#A80036;stroke-width:1.0;"/><path d="M1293.5,1074 L1293.5,1084 L1303.5,1084 L1293.5,1074 " fill="#FBFB77" style="stroke:#A80036;stroke-width:1.0;"/><text fill="#000000" font-family="sans-serif" font-size="13" lengthAdjust="spacing" textLength="172" x="1116.5" y="1091.0669">Heart Disease UCI Dataset</text></a><ellipse cx="1526.9539" cy="982.9908" rx="140.4539" ry="30.4908" style="stroke:#191970;stroke-width:1.5;fill:none;"/><text fill="#191970" font-family="sans-serif" font-size="14" font-style="italic" lengthAdjust="spacing" textLength="144" x="1450.0472" y="973.0026">«Chaimae Elmejgari»</text><text fill="#191970" font-family="sans-serif" font-size="14" lengthAdjust="spacing" textLength="247" x="1398.5472" y="989.2995">A2: Sklearn Regression Assignment</text><line style="stroke:#191970;stroke-width:1.5;" x1="1656.213" x2="1624.7326" y1="972.3617" y2="1003.842"/><a href="http://GDSCUIZ.github.io" target="_top" title="http://GDSCUIZ.github.io" xlink:actuate="onRequest" xlink:href="http://GDSCUIZ.github.io" xlink:show="new" xlink:title="http://GDSCUIZ.github.io" xlink:type="simple"><path d="M1445.5,1074 L1445.5,1099.1328 A0,0 0 0 0 1445.5,1099.1328 L1608.5,1099.1328 A0,0 0 0 0 1608.5,1099.1328 L1608.5,1084 L1598.5,1074 L1531,1074 L1527,1013.63 L1523,1074 L1445.5,1074 A0,0 0 0 0 1445.5,1074 " fill="#FBFB77" filter="url(#fbtvz68l6w5jt)" style="stroke:#A80036;stroke-width:1.0;"/><path d="M1598.5,1074 L1598.5,1084 L1608.5,1084 L1598.5,1074 " fill="#FBFB77" style="stroke:#A80036;stroke-width:1.0;"/><text fill="#000000" font-family="sans-serif" font-size="13" lengthAdjust="spacing" textLength="142" x="1451.5" y="1091.0669">House Pricing Dataset</text></a><ellipse cx="1874.1144" cy="982.9229" rx="90.1144" ry="20.4229" style="stroke:#191970;stroke-width:1.5;fill:none;"/><text fill="#191970" font-family="sans-serif" font-size="14" lengthAdjust="spacing" textLength="142" x="1803.1144" y="985.7696">A3: EDA Assignment</text><line style="stroke:#191970;stroke-width:1.5;" x1="1957.0464" x2="1935.7006" y1="975.8035" y2="997.1492"/><a href="http://GDSCUIZ.github.io" target="_top" title="http://GDSCUIZ.github.io" xlink:actuate="onRequest" xlink:href="http://GDSCUIZ.github.io" xlink:show="new" xlink:title="http://GDSCUIZ.github.io" xlink:type="simple"><path d="M1790,1074 L1790,1099.1328 A0,0 0 0 0 1790,1099.1328 L1958,1099.1328 A0,0 0 0 0 1958,1099.1328 L1958,1084 L1948,1074 L1878,1074 L1874,1003.57 L1870,1074 L1790,1074 A0,0 0 0 0 1790,1074 " fill="#FBFB77" filter="url(#fbtvz68l6w5jt)" style="stroke:#A80036;stroke-width:1.0;"/><path d="M1948,1074 L1948,1084 L1958,1084 L1948,1074 " fill="#FBFB77" style="stroke:#A80036;stroke-width:1.0;"/><text fill="#000000" font-family="sans-serif" font-size="13" lengthAdjust="spacing" textLength="147" x="1796" y="1091.0669">EDA on Titanic Dataset</text></a><ellipse cx="491.9756" cy="863.0951" rx="130.9756" ry="28.5951" style="stroke:#191970;stroke-width:1.5;fill:none;"/><text fill="#191970" font-family="sans-serif" font-size="14" font-style="italic" lengthAdjust="spacing" textLength="173" x="398.8877" y="858.3279">«Ayoub Bouihrouchane»</text><text fill="#191970" font-family="sans-serif" font-size="14" lengthAdjust="spacing" textLength="194" x="388.3877" y="874.6248">A4: DNN Regression with TF</text><line style="stroke:#191970;stroke-width:1.5;" x1="612.5118" x2="582.9411" y1="853.1269" y2="882.6976"/><a href="http://GDSCUIZ.github.io" target="_top" title="http://GDSCUIZ.github.io" xlink:actuate="onRequest" xlink:href="http://GDSCUIZ.github.io" xlink:show="new" xlink:title="http://GDSCUIZ.github.io" xlink:type="simple"><path d="M383.5,970.5 L383.5,995.6328 A0,0 0 0 0 383.5,995.6328 L600.5,995.6328 A0,0 0 0 0 600.5,995.6328 L600.5,980.5 L590.5,970.5 L496,970.5 L492,891.67 L488,970.5 L383.5,970.5 A0,0 0 0 0 383.5,970.5 " fill="#FBFB77" filter="url(#fbtvz68l6w5jt)" style="stroke:#A80036;stroke-width:1.0;"/><path d="M590.5,970.5 L590.5,980.5 L600.5,980.5 L590.5,970.5 " fill="#FBFB77" style="stroke:#A80036;stroke-width:1.0;"/><text fill="#000000" font-family="sans-serif" font-size="13" lengthAdjust="spacing" textLength="196" x="389.5" y="987.5669">Regression using DNNs with TF</text></a><ellipse cx="192.9892" cy="862.9978" rx="132.9892" ry="28.9978" style="stroke:#191970;stroke-width:1.5;fill:none;"/><text fill="#191970" font-family="sans-serif" font-size="14" font-style="italic" lengthAdjust="spacing" textLength="173" x="100.2106" y="857.5856">«Ayoub Bouihrouchane»</text><text fill="#191970" font-family="sans-serif" font-size="14" lengthAdjust="spacing" textLength="204" x="84.7106" y="873.8825">A5: DNN Classification with TF</text><line style="stroke:#191970;stroke-width:1.5;" x1="315.3786" x2="285.4022" y1="852.8892" y2="882.8656"/><a href="http://GDSCUIZ.github.io" target="_top" title="http://GDSCUIZ.github.io" xlink:actuate="onRequest" xlink:href="http://GDSCUIZ.github.io" xlink:show="new" xlink:title="http://GDSCUIZ.github.io" xlink:type="simple"><path d="M78,970.5 L78,995.6328 A0,0 0 0 0 78,995.6328 L308,995.6328 A0,0 0 0 0 308,995.6328 L308,980.5 L298,970.5 L197,970.5 L193,892.26 L189,970.5 L78,970.5 A0,0 0 0 0 78,970.5 " fill="#FBFB77" filter="url(#fbtvz68l6w5jt)" style="stroke:#A80036;stroke-width:1.0;"/><path d="M298,970.5 L298,980.5 L308,980.5 L298,970.5 " fill="#FBFB77" style="stroke:#A80036;stroke-width:1.0;"/><text fill="#000000" font-family="sans-serif" font-size="13" lengthAdjust="spacing" textLength="209" x="84" y="987.5669">Classification using DNNs with TF</text></a><ellipse cx="781.0694" cy="862.9139" rx="122.5694" ry="26.9139" style="stroke:#191970;stroke-width:1.5;fill:none;"/><text fill="#191970" font-family="sans-serif" font-size="14" font-style="italic" lengthAdjust="spacing" textLength="127" x="711.2842" y="856.2923">«Said Elhachemy»</text><text fill="#191970" font-family="sans-serif" font-size="14" lengthAdjust="spacing" textLength="187" x="681.2842" y="872.5892">A6: NN Regression with JAX</text><line style="stroke:#191970;stroke-width:1.5;" x1="893.8695" x2="865.9918" y1="853.5317" y2="881.4093"/><a href="http://GDSCUIZ.github.io" target="_top" title="http://GDSCUIZ.github.io" xlink:actuate="onRequest" xlink:href="http://GDSCUIZ.github.io" xlink:show="new" xlink:title="http://GDSCUIZ.github.io" xlink:type="simple"><path d="M666,970.5 L666,995.6328 A0,0 0 0 0 666,995.6328 L896,995.6328 A0,0 0 0 0 896,995.6328 L896,980.5 L886,970.5 L785,970.5 L781,890.19 L777,970.5 L666,970.5 A0,0 0 0 0 666,970.5 " fill="#FBFB77" filter="url(#fbtvz68l6w5jt)" style="stroke:#A80036;stroke-width:1.0;"/><path d="M886,970.5 L886,980.5 L896,980.5 L886,970.5 " fill="#FBFB77" style="stroke:#A80036;stroke-width:1.0;"/><text fill="#000000" font-family="sans-serif" font-size="13" lengthAdjust="spacing" textLength="209" x="672" y="987.5669">Classification using DNNs with TF</text></a><ellipse cx="796.0799" cy="142.2511" rx="57.0799" ry="14.7511" style="stroke:#A80036;stroke-width:1.5;fill:none;"/><text fill="#000000" font-family="sans-serif" font-size="14" lengthAdjust="spacing" textLength="63" x="761.5799" y="145.9987">Required</text><line style="stroke:#A80036;stroke-width:1.5;" x1="848.6103" x2="832.5975" y1="137.1089" y2="153.1217"/><ellipse cx="941.1007" cy="142.715" rx="52.6007" ry="14.715" style="stroke:#A80036;stroke-width:1.5;fill:none;"/><text fill="#000000" font-family="sans-serif" font-size="14" lengthAdjust="spacing" textLength="57" x="909.6007" y="146.4626">Optional</text><!--MD5=[4539802c5b5ff878d82227ed0da0a12b]
link M1 to W3--><path d="M1120,282.21 C1120,298.4 1120,319.3 1120,336.53 " fill="none" id="M1-to-W3" style="stroke:#A80036;stroke-width:1.0;"/><polygon fill="#A80036" points="1120,341.75,1124,332.75,1120,336.75,1116,332.75,1120,341.75" style="stroke:#A80036;stroke-width:1.0;"/><!--MD5=[bf75434361b431fedbb68b84966ff6dc]
link M2 to M3--><path d="M2089.58,396.55 C2089.26,415.33 2088.84,440.91 2088.51,460.8 " fill="none" id="M2-to-M3" style="stroke:#A80036;stroke-width:1.0;"/><polygon fill="#A80036" points="2088.42,465.98,2092.5737,457.0499,2088.5057,460.9807,2084.5749,456.9128,2088.42,465.98" style="stroke:#A80036;stroke-width:1.0;"/><!--MD5=[332361d0d33fb722ee63f974163c734a]
link M3 to E6--><path d="M2054.41,517.9 C2026.3,538.31 1986.24,567.4 1957.17,588.51 " fill="none" id="M3-to-E6" style="stroke:#A80036;stroke-width:1.0;"/><polygon fill="#A80036" points="1952.96,591.56,1962.5904,589.4974,1957.0024,588.6174,1957.8824,583.0294,1952.96,591.56" style="stroke:#A80036;stroke-width:1.0;"/><!--MD5=[94463cc52e7580a6aa8e0892543004cb]
link M4 to E6--><path d="M1776.26,519.67 C1806.99,540.16 1849.54,568.53 1880.37,589.08 " fill="none" id="M4-to-E6" style="stroke:#A80036;stroke-width:1.0;"/><polygon fill="#A80036" points="1884.83,592.05,1879.5603,583.7295,1880.6697,589.2765,1875.1227,590.3859,1884.83,592.05" style="stroke:#A80036;stroke-width:1.0;"/><!--MD5=[a3c19f3fdbe6b6d43ba03dbea8f4ea5b]
link M5 to E7--><path d="M481.97,519.08 C487.78,537.75 495.72,563.22 501.97,583.29 " fill="none" id="M5-to-E7" style="stroke:#A80036;stroke-width:1.0;"/><polygon fill="#A80036" points="503.52,588.26,504.6635,578.4777,502.0335,583.4861,497.0252,580.8561,503.52,588.26" style="stroke:#A80036;stroke-width:1.0;"/><!--MD5=[eafd6081afc775571d539063ef63995e]
link E0 to E1--><path d="M1138,57.23 C1138,73.4 1138,94.61 1138,111.7 " fill="none" id="E0-to-E1" style="stroke:#A80036;stroke-width:1.0;"/><polygon fill="#A80036" points="1138,116.86,1142,107.86,1138,111.86,1134,107.86,1138,116.86" style="stroke:#A80036;stroke-width:1.0;"/><!--MD5=[bd9212629c40eea5af01faf0184da8d5]
link E1 to W2--><path d="M1082.2,164.54 C1032.5,183.29 959.83,210.69 908.04,230.22 " fill="none" id="E1-to-W2" style="stroke:#A80036;stroke-width:1.0;"/><polygon fill="#A80036" points="903.1,232.09,912.9335,232.639,907.7752,230.3172,910.097,225.1588,903.1,232.09" style="stroke:#A80036;stroke-width:1.0;"/><!--MD5=[1f1cd8e6dd4c1b2ca2aaccc9b9bcea6e]
link E1 to E2--><path d="M1193.8,164.54 C1244.63,183.71 1319.47,211.94 1371.44,231.54 " fill="none" id="E1-to-E2" style="stroke:#A80036;stroke-width:1.0;"/><polygon fill="#A80036" points="1376.4,233.41,1369.403,226.4788,1371.7248,231.6372,1366.5665,233.959,1376.4,233.41" style="stroke:#A80036;stroke-width:1.0;"/><!--MD5=[dcad52bbbca2fe8adc741ce38b45dc12]
link E2 to E5--><path d="M1416.66,281.2 C1392.2,324.19 1342.44,411.65 1315.43,459.11 " fill="none" id="E2-to-E5" style="stroke:#A80036;stroke-width:1.0;"/><polygon fill="#A80036" points="1312.89,463.57,1320.8179,457.7263,1315.363,459.2244,1313.8649,453.7695,1312.89,463.57" style="stroke:#A80036;stroke-width:1.0;"/><!--MD5=[e1278bad07730aba396118a76bcefa42]
link E2 to W4--><path d="M1444.24,281.38 C1470.05,330.23 1529.78,440.16 1589,527 C1602.13,546.25 1618.16,566.71 1631.57,583.11 " fill="none" id="E2-to-W4" style="stroke:#A80036;stroke-width:1.0;"/><polygon fill="#A80036" points="1634.92,587.18,1632.2938,577.6877,1631.7445,583.3179,1626.1143,582.7686,1634.92,587.18" style="stroke:#A80036;stroke-width:1.0;"/><!--MD5=[e3e28c1befcf002155aa15e1416b4315]
link E2 to E6--><path d="M1510.33,268.86 C1612.88,289.79 1789.57,341.29 1885,458 C1914.54,494.12 1920.45,549.93 1920.98,584.5 " fill="none" id="E2-to-E6" style="stroke:#A80036;stroke-width:1.0;"/><polygon fill="#A80036" points="1921.02,589.86,1924.9427,580.826,1920.9771,584.8602,1916.943,580.8946,1921.02,589.86" style="stroke:#A80036;stroke-width:1.0;"/><!--MD5=[4931de25dcb70cd4585e7722db9b3a49]
link E3 to E7--><path d="M607.65,396.52 C614.62,428.45 622.25,484.13 604,527 C593.91,550.7 574.03,571.12 555.31,586.35 " fill="none" id="E3-to-E7" style="stroke:#A80036;stroke-width:1.0;"/><polygon fill="#A80036" points="551.09,589.72,560.6233,587.2467,555.0027,586.607,555.6424,580.9864,551.09,589.72" style="stroke:#A80036;stroke-width:1.0;"/><!--MD5=[1215d52114495cf35c63de9a53fffc82]
link E4 to E7--><path d="M813.29,395 C772.47,425.81 699.27,480.82 636,527 C608.43,547.12 577.15,569.44 552.91,586.63 " fill="none" id="E4-to-E7" style="stroke:#A80036;stroke-width:1.0;"/><polygon fill="#A80036" points="548.77,589.57,558.4257,587.6291,552.8493,586.6787,553.7997,581.1023,548.77,589.57" style="stroke:#A80036;stroke-width:1.0;"/><!--MD5=[3a9b96bfbf6b6ad89c494e81751bda47]
link E5 to E7--><path d="M1185.07,508.24 C1057.29,525.44 842.16,555.57 658,587 C642.08,589.72 625.23,592.81 608.85,595.93 " fill="none" id="E5-to-E7" style="stroke:#A80036;stroke-width:1.0;"/><polygon fill="#A80036" points="603.78,596.89,613.3737,599.1174,608.6899,595.9452,611.8621,591.2615,603.78,596.89" style="stroke:#A80036;stroke-width:1.0;"/><!--MD5=[9120cf2e5df3bff93db8f754bbbc09b4]
link E5 to E6--><path d="M1402.31,510.26 C1506.53,527.4 1670.42,555.88 1811,587 C1823.73,589.82 1837.22,593.1 1850.21,596.41 " fill="none" id="E5-to-E6" style="stroke:#A80036;stroke-width:1.0;"/><polygon fill="#A80036" points="1855.35,597.73,1847.6268,591.6183,1850.5069,596.4871,1845.6382,599.3672,1855.35,597.73" style="stroke:#A80036;stroke-width:1.0;"/><!--MD5=[eaef156f3cd26fb09680b4726e423ecd]
link E5 to E5_1--><path d="M1251.69,519.82 C1216.38,540.34 1167.58,568.68 1132.28,589.19 " fill="none" id="E5-to-E5_1" style="stroke:#A80036;stroke-width:1.0;"/><polygon fill="#A80036" points="1127.61,591.91,1137.4015,590.8484,1131.9335,589.3986,1133.3833,583.9307,1127.61,591.91" style="stroke:#A80036;stroke-width:1.0;"/><!--MD5=[d0dc24fee2dc8f962968ad55317b5fa5]
link E5 to E5_2--><path d="M1304.34,521.49 C1309.44,540.95 1316.23,566.81 1321.39,586.49 " fill="none" id="E5-to-E5_2" style="stroke:#A80036;stroke-width:1.0;"/><polygon fill="#A80036" points="1322.67,591.35,1324.2535,581.6293,1321.4003,586.5139,1316.5157,583.6607,1322.67,591.35" style="stroke:#A80036;stroke-width:1.0;"/><!--MD5=[78e5ab5e5a88bc842e043d3721ef22a1]
link E5 to E5_3--><path d="M1358.32,518.46 C1387.13,533.67 1418.66,556.19 1435,587 C1455.72,626.07 1437.45,677.65 1421.73,709.56 " fill="none" id="E5-to-E5_3" style="stroke:#A80036;stroke-width:1.0;"/><polygon fill="#A80036" points="1419.43,714.12,1427.0486,707.8785,1421.6775,709.6536,1419.9024,704.2825,1419.43,714.12" style="stroke:#A80036;stroke-width:1.0;"/><!--MD5=[1486efffb1e6671ca120f881dfc47b10]
link E5 to E5_4--><path d="M1202.4,512.91 C1105.41,533.77 966.58,566.65 951,587 C922.41,624.35 954.58,678.12 980.09,710.68 " fill="none" id="E5-to-E5_4" style="stroke:#A80036;stroke-width:1.0;"/><polygon fill="#A80036" points="983.48,714.94,981.0067,705.4067,980.367,711.0273,974.7464,710.3876,983.48,714.94" style="stroke:#A80036;stroke-width:1.0;"/><!--MD5=[772fd7353b85fcd7ba9781333a809f64]
link E5_1 to W1--><path d="M1101.43,642.41 C1111.47,660 1124.97,684.22 1136,706 C1157.25,747.93 1179.61,797.34 1193.68,829.14 " fill="none" id="E5_1-to-W1" style="stroke:#A80036;stroke-width:1.0;"/><polygon fill="#A80036" points="1195.86,834.09,1195.8915,824.2412,1193.8439,829.5145,1188.5706,827.4669,1195.86,834.09" style="stroke:#A80036;stroke-width:1.0;"/><!--MD5=[3ed41ca9e4a0342bf659649a2d7520a8]
link E5_2 to W1--><path d="M1314.85,641.23 C1304.51,658.88 1290.36,683.67 1279,706 C1257.74,747.79 1235.75,797.24 1221.99,829.08 " fill="none" id="E5_2-to-W1" style="stroke:#A80036;stroke-width:1.0;"/><polygon fill="#A80036" points="1219.85,834.04,1227.0894,827.3623,1221.8316,829.4495,1219.7445,824.1917,1219.85,834.04" style="stroke:#A80036;stroke-width:1.0;"/><!--MD5=[1c20aaf2cd583bc89bf1591f0a44de04]
link E5_3 to W1--><path d="M1366.55,764.62 C1334.83,784.1 1289.67,811.83 1255.66,832.73 " fill="none" id="E5_3-to-W1" style="stroke:#A80036;stroke-width:1.0;"/><polygon fill="#A80036" points="1251.15,835.5,1260.9093,834.1752,1255.4044,832.8731,1256.7064,827.3682,1251.15,835.5" style="stroke:#A80036;stroke-width:1.0;"/><!--MD5=[55ce9eb575be619a41e32fcf1ab5438f]
link E5_4 to W1--><path d="M1043.66,764.04 C1076.36,783.53 1123.4,811.57 1158.78,832.66 " fill="none" id="E5_4-to-W1" style="stroke:#A80036;stroke-width:1.0;"/><polygon fill="#A80036" points="1163.48,835.46,1157.8205,827.3996,1159.1925,832.8875,1153.7046,834.2595,1163.48,835.46" style="stroke:#A80036;stroke-width:1.0;"/><!--MD5=[aad082d993e6b8cee70c7930f5a8138a]
link E6 to A3--><path d="M1931.2,643.08 C1951.27,692.79 1988.3,805.21 1955,892 C1944.64,919 1922.01,942.98 1903.3,959.38 " fill="none" id="E6-to-A3" style="stroke:#A80036;stroke-width:1.0;"/><polygon fill="#A80036" points="1899.13,962.97,1908.555,960.1119,1902.9132,959.7008,1903.3243,954.0589,1899.13,962.97" style="stroke:#A80036;stroke-width:1.0;"/><!--MD5=[afa1024e8ff7de6306129b3a11e360a6]
link E6 to W7--><path d="M1916.91,643 C1912.46,674.7 1902.64,729.97 1884,774 C1875.04,795.17 1861.05,816.87 1849.17,833.43 " fill="none" id="E6-to-W7" style="stroke:#A80036;stroke-width:1.0;"/><polygon fill="#A80036" points="1846.2,837.52,1854.7306,832.5976,1849.1426,833.4776,1848.2626,827.8896,1846.2,837.52" style="stroke:#A80036;stroke-width:1.0;"/><!--MD5=[8d8b3bc6a7e801dd3cc94a5872e3c70f]
link E6 to W6--><path d="M1880.12,640.35 C1848.08,658.72 1802.62,684.77 1766.46,705.49 " fill="none" id="E6-to-W6" style="stroke:#A80036;stroke-width:1.0;"/><polygon fill="#A80036" points="1762.1,707.99,1771.898,706.9908,1766.4395,705.5062,1767.924,700.0477,1762.1,707.99" style="stroke:#A80036;stroke-width:1.0;"/><!--MD5=[1b93dcc689145246fcf276e79ea23317]
link E7 to W8--><path d="M507.51,644.77 C504.48,663.19 500.46,687.58 497.28,706.93 " fill="none" id="E7-to-W8" style="stroke:#A80036;stroke-width:1.0;"/><polygon fill="#A80036" points="496.4,712.24,501.8136,704.0124,497.215,707.3069,493.9206,702.7083,496.4,712.24" style="stroke:#A80036;stroke-width:1.0;"/><!--MD5=[c23aa90e91c7f6a40a1dd01c1f3910ec]
link E7 to W10--><path d="M562.58,642.38 C605.34,663.41 666.27,693.39 708.89,714.35 " fill="none" id="E7-to-W10" style="stroke:#A80036;stroke-width:1.0;"/><polygon fill="#A80036" points="713.48,716.61,707.1609,709.0556,708.9908,714.4083,703.6382,716.2383,713.48,716.61" style="stroke:#A80036;stroke-width:1.0;"/><!--MD5=[814694ad6708beace6ccb2c72ccbdc90]
link W1 to A1--><path d="M1207.76,892.26 C1207.62,908.58 1207.45,929.24 1207.3,946.62 " fill="none" id="W1-to-A1" style="stroke:#A80036;stroke-width:1.0;"/><polygon fill="#A80036" points="1207.26,951.9,1211.337,942.9346,1207.3029,946.9002,1203.3373,942.866,1207.26,951.9" style="stroke:#A80036;stroke-width:1.0;"/><!--MD5=[c17e47e3fec12eb76e7ade644c982c08]
link W1 to A2--><path d="M1273.71,888.31 C1325.85,907.59 1398.73,934.55 1452.93,954.6 " fill="none" id="W1-to-A2" style="stroke:#A80036;stroke-width:1.0;"/><polygon fill="#A80036" points="1457.79,956.4,1450.7491,949.5134,1453.1037,954.6569,1447.9601,957.0115,1457.79,956.4" style="stroke:#A80036;stroke-width:1.0;"/><!--MD5=[196843ca9cb2c2a88bb8126c92104eda]
link W2 to E4--><path d="M845,281.64 C845,298.52 845,320.7 845,338.48 " fill="none" id="W2-to-E4" style="stroke:#A80036;stroke-width:1.0;"/><polygon fill="#A80036" points="845,343.85,849,334.85,845,338.85,841,334.85,845,343.85" style="stroke:#A80036;stroke-width:1.0;"/><!--MD5=[4382496858e9648dc40658832bfff3cc]
link W2 to E3--><path d="M795.33,279 C754.14,298.08 695.73,325.13 653.72,344.58 " fill="none" id="W2-to-E3" style="stroke:#A80036;stroke-width:1.0;"/><polygon fill="#A80036" points="648.94,346.8,658.7878,346.6544,653.4785,344.702,655.431,339.3928,648.94,346.8" style="stroke:#A80036;stroke-width:1.0;"/><!--MD5=[0236886ed49789c9a3d47bba49c12e47]
link W2 to W3--><path d="M899.66,278.46 C944.94,297.07 1009.33,323.52 1056.81,343.04 " fill="none" id="W2-to-W3" style="stroke:#A80036;stroke-width:1.0;"/><polygon fill="#A80036" points="1061.64,345.02,1054.8332,337.9019,1057.0145,343.1213,1051.7952,345.3027,1061.64,345.02" style="stroke:#A80036;stroke-width:1.0;"/><!--MD5=[8303754fdf1c5658650736a053438f4f]
link W2 to W11--><path d="M756.53,272.01 C682.98,286.54 576.15,310.51 486,342 C393.29,374.39 291.33,424.76 227.99,457.94 " fill="none" id="W2-to-W11" style="stroke:#A80036;stroke-width:1.0;"/><polygon fill="#A80036" points="223.5,460.3,233.3275,459.6519,227.9255,457.973,229.6044,452.571,223.5,460.3" style="stroke:#A80036;stroke-width:1.0;"/><!--MD5=[1e6c469c19b15a6f27e64e489a0c264c]
link W3 to W4--><path d="M1224.14,386.47 C1290.63,399.25 1377.15,421.39 1447,458 C1488.89,479.96 1490.35,498.39 1528,527 C1555.06,547.57 1586.6,568.94 1611.94,585.54 " fill="none" id="W3-to-W4" style="stroke:#A80036;stroke-width:1.0;"/><polygon fill="#A80036" points="1616.28,588.37,1610.9446,580.0915,1612.0979,585.6295,1606.5599,586.7828,1616.28,588.37" style="stroke:#A80036;stroke-width:1.0;"/><!--MD5=[5657d537ed350c6c373d77174933bfdd]
link W3 to W5--><path d="M1082.77,396.93 C1015.78,443.6 875.61,541.24 807.62,588.6 " fill="none" id="W3-to-W5" style="stroke:#A80036;stroke-width:1.0;"/><polygon fill="#A80036" points="803.25,591.64,812.9209,589.7761,807.3522,588.7813,808.347,583.2126,803.25,591.64" style="stroke:#A80036;stroke-width:1.0;"/><!--MD5=[75df6429b8904b544b8b21eab9c10104]
link W4 to W6--><path d="M1670.49,645.99 C1677.11,662.4 1685.51,683.24 1692.69,701.03 " fill="none" id="W4-to-W6" style="stroke:#A80036;stroke-width:1.0;"/><polygon fill="#A80036" points="1694.68,705.96,1695.0253,696.1172,1692.8108,701.3226,1687.6054,699.108,1694.68,705.96" style="stroke:#A80036;stroke-width:1.0;"/><!--MD5=[6803e6296375c70b7e04cce72af6c481]
link W5 to W10--><path d="M766.88,643.27 C765.32,662.19 763.2,687.99 761.55,708.04 " fill="none" id="W5-to-W10" style="stroke:#A80036;stroke-width:1.0;"/><polygon fill="#A80036" points="761.12,713.27,765.8515,704.6321,761.534,708.2872,757.879,703.9697,761.12,713.27" style="stroke:#A80036;stroke-width:1.0;"/><!--MD5=[3d2b07e4e19ddc01105b8d17a08f04fe]
link W6 to W7--><path d="M1739.89,773.43 C1758.45,792.3 1781.62,815.86 1799.4,833.93 " fill="none" id="W6-to-W7" style="stroke:#A80036;stroke-width:1.0;"/><polygon fill="#A80036" points="1803.33,837.93,1799.8502,828.7164,1799.816,834.3731,1794.1592,834.3388,1803.33,837.93" style="stroke:#A80036;stroke-width:1.0;"/><!--MD5=[4cceb7990325eb89a0df03a046bb9268]
link W7 to A3--><path d="M1836.74,888.45 C1844.8,908.7 1856.21,937.33 1864.27,957.57 " fill="none" id="W7-to-A3" style="stroke:#A80036;stroke-width:1.0;"/><polygon fill="#A80036" points="1866.14,962.27,1866.5375,952.4292,1864.2954,957.6227,1859.1018,955.3806,1866.14,962.27" style="stroke:#A80036;stroke-width:1.0;"/><!--MD5=[7b8e80f2724c2e3be42c3754e35e1c27]
link W8 to A4--><path d="M492,767.55 C492,785.61 492,809.64 492,828.94 " fill="none" id="W8-to-A4" style="stroke:#A80036;stroke-width:1.0;"/><polygon fill="#A80036" points="492,834.25,496,825.25,492,829.25,488,825.25,492,834.25" style="stroke:#A80036;stroke-width:1.0;"/><!--MD5=[e098774e67f208008bc54a5994c42664]
link W8 to A5--><path d="M434,764.47 C383.8,784.79 311.24,814.15 258.87,835.34 " fill="none" id="W8-to-A5" style="stroke:#A80036;stroke-width:1.0;"/><polygon fill="#A80036" points="254.18,837.24,264.0237,837.5593,258.8125,835.3585,261.0133,830.1473,254.18,837.24" style="stroke:#A80036;stroke-width:1.0;"/><!--MD5=[475a6b0babc82591ea60090ab944e638]
link W11 to W9--><path d="M166,527.12 C166,574.92 166,661.83 166,708.09 " fill="none" id="W11-to-W9" style="stroke:#A80036;stroke-width:1.0;"/><polygon fill="#A80036" points="166,713.26,170,704.26,166,708.26,162,704.26,166,713.26" style="stroke:#A80036;stroke-width:1.0;"/><!--MD5=[5cff1f163ed91e9c16f4162c53e67082]
link W10 to A6--><path d="M763.67,766.66 C767.08,785.46 771.74,811.07 775.37,831.02 " fill="none" id="W10-to-A6" style="stroke:#A80036;stroke-width:1.0;"/><polygon fill="#A80036" points="776.27,835.96,778.6102,826.3932,775.3831,831.0393,770.7371,827.8122,776.27,835.96" style="stroke:#A80036;stroke-width:1.0;"/><!--MD5=[0f2435f98601becdcbcb19efae9347aa]
link E: Event to W: Workshop--><!--MD5=[c7e01f4319e1858fb7eabf2731f6e35b]
link W: Workshop to M: Math--><!--MD5=[41d9513d6a270d3d1ab707bb5fb29dff]
link E: Event to A: Assignment--><!--MD5=[7a9b2ecb8bcc53ccdfc9a5ad337eaf47]
link A: Assignment to Required--><!--MD5=[a9f007f9487967e577345f66b8e0e46c]
link Required to Optional--><!--MD5=[56051b9ab05d2f5e6cabf925b64166c2]
@startuml "MLStart"

skinparam usecase {
BackgroundColor transparent
shadowing false
}

(E: Event)
(W: Workshop) #line:red;text:red
(M: Math) #line:darkorange;text:darkorange
(A: Assignment) #line:MidnightBlue;text:MidnightBlue

(E0: 30DaysOfML Init)/ as E0 <<Taha Bouhsine>>
(E1: AI First + ML 101)/ as E1 <<Taha Bouhsine>>

(E2: Intro to Data)/ as E2 <<Taha Bouhsine>>
(E3: Intro to Colab) as E3 <<Said Elhachemy>>
(E4: Python in Kaggle) as E4 << Lahcen Oussayd >>
(E5: Supervised Machine Learning)/ as E5 <<Taha Bouhsine>>
(E5_1: Linear Regression)/ as E5_1 <<Lahcen Ousayd>>
(E5_2: SVM)/ as E5_2 <<Lahcen Ousayd>>
(E5_3: Decision Tree)/ as E5_3 <<Lahcen Ousayd>>
(E5_4: Random Forest)/ as E5_4 <<Oumaima Kaissi>>
(E6: Intro to EDA)/ as E6 <<Taha Bouhsine>>
(E7: Intro to Deep Learning)/ as E7 << Ayoub Bouihrouchane >>




(W1: Supervised ML with sklearn)/ as W1 << Chaimae Elmejgari>> #line:red;text:red 
(W2: Intro to Python)/ as W2 <<El Bachir Outidrarine>> #line:red;text:red
(W3: Linear Algebra with Numpy)/ as W3 <<Said Elhachemy>> #line:red;text:red
(W4: Data Preparation with Pandas)/ as W4 <<Oumaima Kaissi>> #line:red;text:red
(W5: Intro to JAX)/ as W5 <<Said Elhachemy>> #line:red;text:red
(W6: Intro to Data Visualization with Python)/ as W6 <<Souad Saidi>> #line:red;text:red
(W7: EDA with Python)/ as W7 <<Taha Bouhsine>> #line:red;text:red
(W8: Intro to TensorFlow)/ as W8 << Ayoub Bouihrouchane >> #line:red;text:red 
(W9: OOP with Python)/ as W9 << El Bachir Outidrarine>>#line:red;text:red
(W10: NN with JAX) as W10 <<Said Elhachemy>> #line:red;text:red
(W11: Functional Programming with Python)/ as W11 <<El Bachir Outidrarine>> #line:red;text:red


(M1: Linear algebra for ML) as M1 << El Mahjoub Abakrim >> #line:darkorange;text:darkorange
(M2: Probability for ML) as M2 << El Mahjoub Abakrim >> #line:darkorange;text:darkorange
(M3: Statistics for ML) as M3 << El Mahjoub Abakrim >> #line:darkorange;text:darkorange
(M5: Calculus for ML) as M5 << El Mahjoub Abakrim >> #line:darkorange;text:darkorange 
(M4: Information Theory for ML) as M4 << El Mahjoub Abakrim >> #line:darkorange;text:darkorange

(A1: Sklearn Classification Assignment)/ as A1 <<Chaimae Elmejgari>> #line:MidnightBlue;text:MidnightBlue
note bottom [[http://GDSCUIZ.github.io]]
Heart Disease UCI Dataset
end note

(A2: Sklearn Regression Assignment)/ as A2 <<Chaimae Elmejgari>> #line:MidnightBlue;text:MidnightBlue
note bottom [[http://GDSCUIZ.github.io]]
House Pricing Dataset
end note

(A3: EDA Assignment)/ as A3 #line:MidnightBlue;text:MidnightBlue
note bottom [[http://GDSCUIZ.github.io]]
EDA on Titanic Dataset
end note

(A4: DNN Regression with TF)/ as A4 <<Ayoub Bouihrouchane>> #line:MidnightBlue;text:MidnightBlue
note bottom [[http://GDSCUIZ.github.io]]
Regression using DNNs with TF
end note

(A5: DNN Classification with TF)/ as A5 <<Ayoub Bouihrouchane>> #line:MidnightBlue;text:MidnightBlue
note bottom [[http://GDSCUIZ.github.io]]
Classification using DNNs with TF
end note

(A6: NN Regression with JAX)/ as A6 <<Said Elhachemy>> #line:MidnightBlue;text:MidnightBlue
note bottom [[http://GDSCUIZ.github.io]]
Classification using DNNs with TF
end note

M1 - -> W3

M2 - -> M3

M3 - -> E6
M4 - -> E6

M5 - -> E7

E0 - -> E1

E1 - -> W2
E1 - -> E2

E2 - - -> E5
E2 - -> W4
E2 - - -> E6

E3 - -> E7

E4 - -> E7

E5 - -> E7
E5 - -> E6
E5 - -> E5_1
E5 - -> E5_2
E5 - - -> E5_3
E5 - - -> E5_4
E5_1 - -> W1
E5_2 - -> W1
E5_3 - -> W1
E5_4 - -> W1


E6 - -> A3
E6 - -> W7
E6 - -> W6

E7 - -> W8
E7 - -> W10


W1 - -> A1
W1 - -> A2

W2 - -> E4
W2 - -> E3
W2 - -> W3
W2 - - -> W11

W3 - - -> W4
W3 - -> W5

W4 - -> W6

W5 - -> W10

W6 - -> W7

W7 - -> A3

W8 - -> A4
W8 - -> A5

W11 - - -> W9

W10 - -> A6

(Required)/
(Optional)
@enduml

PlantUML version 1.2022.0(Tue Jan 11 17:16:42 WEST 2022)
(GPL source distribution)
Java Runtime: OpenJDK Runtime Environment
JVM: OpenJDK 64-Bit Server VM
Default Encoding: UTF-8
Language: en
Country: US
--></g></svg>