<?xml version="1.0" encoding="UTF-8" standalone="no"?><svg xmlns="http://www.w3.org/2000/svg" xmlns:xlink="http://www.w3.org/1999/xlink" contentScriptType="application/ecmascript" contentStyleType="text/css" height="1108px" preserveAspectRatio="none" style="width:2210px;height:1108px;background:#FFFFFF;" version="1.1" viewBox="0 0 2210 1108" width="2210px" zoomAndPan="magnify"><defs><filter height="300%" id="f1e868rv0f2glx" width="300%" x="-1" y="-1"><feGaussianBlur result="blurOut" stdDeviation="2.0"/><feColorMatrix in="blurOut" result="blurOut2" type="matrix" values="0 0 0 0 0 0 0 0 0 0 0 0 0 0 0 0 0 0 .4 0"/><feOffset dx="4.0" dy="4.0" in="blurOut2" result="blurOut3"/><feBlend in="SourceGraphic" in2="blurOut3" mode="normal"/></filter></defs><g><ellipse cx="630.1007" cy="31.715" rx="52.6007" ry="14.715" style="stroke:#A80036;stroke-width:1.5;fill:none;"/><text fill="#000000" font-family="sans-serif" font-size="14" lengthAdjust="spacing" textLength="57" x="598.6007" y="35.4626">E: Event</text><ellipse cx="787.1952" cy="31.339" rx="69.6952" ry="16.339" style="stroke:#FF0000;stroke-width:1.5;fill:none;"/><text fill="#FF0000" font-family="sans-serif" font-size="14" lengthAdjust="spacing" textLength="92" x="738.1952" y="35.0866">W: Workshop</text><ellipse cx="943.1079" cy="31.7016" rx="51.1079" ry="14.7016" style="stroke:#FF8C00;stroke-width:1.5;fill:none;"/><text fill="#FF8C00" font-family="sans-serif" font-size="14" lengthAdjust="spacing" textLength="55" x="912.6079" y="35.4492">M: Math</text><ellipse cx="630.1868" cy="142.4374" rx="72.6868" ry="16.9374" style="stroke:#191970;stroke-width:1.5;fill:none;"/><text fill="#191970" font-family="sans-serif" font-size="14" lengthAdjust="spacing" textLength="100" x="577.1868" y="146.1849">A: Assignment</text><ellipse cx="1137.1199" cy="31.6669" rx="106.6199" ry="25.6669" style="stroke:#A80036;stroke-width:1.5;fill:none;"/><text fill="#000000" font-family="sans-serif" font-size="14" font-style="italic" lengthAdjust="spacing" textLength="121" x="1069.6199" y="27.266">«Taha Bouhsine»</text><text fill="#000000" font-family="sans-serif" font-size="14" lengthAdjust="spacing" textLength="137" x="1061.6199" y="43.5629">E0: 30DaysOfML Init</text><line style="stroke:#A80036;stroke-width:1.5;" x1="1235.2418" x2="1207.9457" y1="22.7194" y2="50.0154"/><ellipse cx="1136.9446" cy="142.5288" rx="109.4446" ry="25.5288" style="stroke:#A80036;stroke-width:1.5;fill:none;"/><text fill="#000000" font-family="sans-serif" font-size="14" font-style="italic" lengthAdjust="spacing" textLength="121" x="1069.0576" y="137.9734">«Taha Bouhsine»</text><text fill="#000000" font-family="sans-serif" font-size="14" lengthAdjust="spacing" textLength="142" x="1058.5576" y="154.2702">E1: AI First + ML 101</text><line style="stroke:#A80036;stroke-width:1.5;" x1="1237.6661" x2="1210.7624" y1="133.6294" y2="160.5331"/><ellipse cx="1430.8701" cy="255.021" rx="95.3701" ry="26.521" style="stroke:#A80036;stroke-width:1.5;fill:none;"/><text fill="#000000" font-family="sans-serif" font-size="14" font-style="italic" lengthAdjust="spacing" textLength="128" x="1366.8701" y="250.8576">«Noura Bentaher»</text><text fill="#000000" font-family="sans-serif" font-size="14" lengthAdjust="spacing" textLength="112" x="1374.8701" y="267.1545">E2: Intro to Data</text><line style="stroke:#A80036;stroke-width:1.5;" x1="1518.6388" x2="1489.2309" y1="245.7758" y2="275.1837"/><ellipse cx="599.0406" cy="370.0224" rx="97.5406" ry="26.5224" style="stroke:#A80036;stroke-width:1.5;fill:none;"/><text fill="#000000" font-family="sans-serif" font-size="14" font-style="italic" lengthAdjust="spacing" textLength="127" x="534.5406" y="365.6215">«Said Elhachemy»</text><text fill="#000000" font-family="sans-serif" font-size="14" lengthAdjust="spacing" textLength="119" x="538.5406" y="381.9184">E3: Intro to Colab</text><ellipse cx="843.2352" cy="369.9077" rx="111.2352" ry="25.9077" style="stroke:#A80036;stroke-width:1.5;fill:none;"/><text fill="#000000" font-family="sans-serif" font-size="14" font-style="italic" lengthAdjust="spacing" textLength="132" x="771.7352" y="365.5069">«Lahcen Oussayd»</text><text fill="#000000" font-family="sans-serif" font-size="14" lengthAdjust="spacing" textLength="142" x="766.7352" y="381.8037">E4: Python in Kaggle</text><ellipse cx="1294.9577" cy="492.4915" rx="132.9577" ry="28.9915" style="stroke:#A80036;stroke-width:1.5;fill:none;"/><text fill="#000000" font-family="sans-serif" font-size="14" font-style="italic" lengthAdjust="spacing" textLength="121" x="1229.3378" y="482.8536">«Taha Bouhsine»</text><text fill="#000000" font-family="sans-serif" font-size="14" lengthAdjust="spacing" textLength="229" x="1175.3378" y="499.1505">E5: Supervised Machine Learning</text><line style="stroke:#A80036;stroke-width:1.5;" x1="1417.3182" x2="1387.3481" y1="482.3851" y2="512.3552"/><ellipse cx="1089.0943" cy="616.5189" rx="118.0943" ry="26.0189" style="stroke:#A80036;stroke-width:1.5;fill:none;"/><text fill="#000000" font-family="sans-serif" font-size="14" font-style="italic" lengthAdjust="spacing" textLength="125" x="1019.6529" y="610.9586">«Lahcen Ousayd»</text><text fill="#000000" font-family="sans-serif" font-size="14" lengthAdjust="spacing" textLength="167" x="998.6529" y="627.2555">E5_1: Linear Regression</text><line style="stroke:#A80036;stroke-width:1.5;" x1="1197.7759" x2="1170.7995" y1="607.4487" y2="634.4251"/><ellipse cx="1330.7623" cy="616.7322" rx="88.2623" ry="25.2322" style="stroke:#A80036;stroke-width:1.5;fill:none;"/><text fill="#000000" font-family="sans-serif" font-size="14" font-style="italic" lengthAdjust="spacing" textLength="125" x="1268.2623" y="614.4068">«Lahcen Ousayd»</text><text fill="#000000" font-family="sans-serif" font-size="14" lengthAdjust="spacing" textLength="73" x="1294.2623" y="630.7037">E5_2: SVM</text><line style="stroke:#A80036;stroke-width:1.5;" x1="1411.9898" x2="1383.7865" y1="607.9362" y2="636.1395"/><ellipse cx="1402.8987" cy="739.7506" rx="108.3987" ry="25.7506" style="stroke:#A80036;stroke-width:1.5;fill:none;"/><text fill="#000000" font-family="sans-serif" font-size="14" font-style="italic" lengthAdjust="spacing" textLength="125" x="1333.8987" y="735.3497">«Lahcen Ousayd»</text><text fill="#000000" font-family="sans-serif" font-size="14" lengthAdjust="spacing" textLength="139" x="1326.8987" y="751.6466">E5_3: Decision Tree</text><line style="stroke:#A80036;stroke-width:1.5;" x1="1502.6575" x2="1475.3772" y1="730.7739" y2="758.0543"/><ellipse cx="1002.8965" cy="739.9505" rx="113.8965" ry="25.4505" style="stroke:#A80036;stroke-width:1.5;fill:none;"/><text fill="#000000" font-family="sans-serif" font-size="14" font-style="italic" lengthAdjust="spacing" textLength="124" x="933.3567" y="735.2593">«Oumaima Kaissi»</text><text fill="#000000" font-family="sans-serif" font-size="14" lengthAdjust="spacing" textLength="149" x="920.8567" y="751.5561">E5_4: Random Forest</text><line style="stroke:#A80036;stroke-width:1.5;" x1="1107.715" x2="1081.2216" y1="731.0785" y2="757.5719"/><ellipse cx="1918.1051" cy="616.6554" rx="87.1051" ry="25.6554" style="stroke:#A80036;stroke-width:1.5;fill:none;"/><text fill="#000000" font-family="sans-serif" font-size="14" font-style="italic" lengthAdjust="spacing" textLength="98" x="1863.3551" y="612.2545">«Souad Saidi»</text><text fill="#000000" font-family="sans-serif" font-size="14" lengthAdjust="spacing" textLength="109" x="1857.8551" y="628.5514">E6: Intro to EDA</text><line style="stroke:#A80036;stroke-width:1.5;" x1="1998.2676" x2="1969.3436" y1="607.7119" y2="636.6359"/><ellipse cx="514.064" cy="616.6128" rx="128.564" ry="28.1128" style="stroke:#A80036;stroke-width:1.5;fill:none;"/><text fill="#000000" font-family="sans-serif" font-size="14" font-style="italic" lengthAdjust="spacing" textLength="173" x="422.564" y="612.2119">«Ayoub Bouihrouchane»</text><text fill="#000000" font-family="sans-serif" font-size="14" lengthAdjust="spacing" textLength="181" x="418.564" y="628.5088">E7: Intro to Deep Learning</text><line style="stroke:#A80036;stroke-width:1.5;" x1="632.3809" x2="603.2959" y1="606.8127" y2="635.8977"/><ellipse cx="1205.9269" cy="862.7854" rx="131.9269" ry="28.7854" style="stroke:#FF0000;stroke-width:1.5;fill:none;"/><text fill="#FF0000" font-family="sans-serif" font-size="14" font-style="italic" lengthAdjust="spacing" textLength="144" x="1128.3204" y="854.9916">«Chaimae Elmejgari»</text><text fill="#FF0000" font-family="sans-serif" font-size="14" lengthAdjust="spacing" textLength="217" x="1091.8204" y="871.2885">W1: Supervised ML with sklearn</text><line style="stroke:#FF0000;stroke-width:1.5;" x1="1327.3387" x2="1297.5762" y1="852.7508" y2="882.5132"/><ellipse cx="843.0009" cy="254.7518" rx="115.0009" ry="26.2518" style="stroke:#FF0000;stroke-width:1.5;fill:none;"/><text fill="#FF0000" font-family="sans-serif" font-size="14" font-style="italic" lengthAdjust="spacing" textLength="157" x="764.5009" y="250.9638">«El Bachir Outidrarine»</text><text fill="#FF0000" font-family="sans-serif" font-size="14" lengthAdjust="spacing" textLength="132" x="777.0009" y="267.2607">W2: Intro to Python</text><line style="stroke:#FF0000;stroke-width:1.5;" x1="948.8358" x2="921.341" y1="245.6004" y2="273.0952"/><ellipse cx="1118.2207" cy="370.1441" rx="128.7207" ry="28.1441" style="stroke:#FF0000;stroke-width:1.5;fill:none;"/><text fill="#FF0000" font-family="sans-serif" font-size="14" font-style="italic" lengthAdjust="spacing" textLength="127" x="1049.1407" y="361.9328">«Said Elhachemy»</text><text fill="#FF0000" font-family="sans-serif" font-size="14" lengthAdjust="spacing" textLength="212" x="1006.6407" y="378.2297">W3: Linear Algebra with Numpy</text><line style="stroke:#FF0000;stroke-width:1.5;" x1="1236.6818" x2="1207.5652" y1="360.3331" y2="389.4497"/><ellipse cx="1660.9146" cy="616.2829" rx="134.4146" ry="29.2829" style="stroke:#FF0000;stroke-width:1.5;fill:none;"/><text fill="#FF0000" font-family="sans-serif" font-size="14" font-style="italic" lengthAdjust="spacing" textLength="124" x="1593.8621" y="606.4756">«Oumaima Kaissi»</text><text fill="#FF0000" font-family="sans-serif" font-size="14" lengthAdjust="spacing" textLength="233" x="1539.3621" y="622.7725">W4: Data Preparation with Pandas</text><line style="stroke:#FF0000;stroke-width:1.5;" x1="1784.6157" x2="1754.3521" y1="606.0749" y2="636.3385"/><ellipse cx="771.1797" cy="616.2724" rx="93.6797" ry="26.2724" style="stroke:#FF0000;stroke-width:1.5;fill:none;"/><text fill="#FF0000" font-family="sans-serif" font-size="14" font-style="italic" lengthAdjust="spacing" textLength="127" x="707.6797" y="612.4555">«Said Elhachemy»</text><text fill="#FF0000" font-family="sans-serif" font-size="14" lengthAdjust="spacing" textLength="105" x="718.6797" y="628.7524">W5: Intro to JAX</text><line style="stroke:#FF0000;stroke-width:1.5;" x1="857.3926" x2="828.189" y1="607.1138" y2="636.3175"/><ellipse cx="1705.9172" cy="740.1834" rx="158.9172" ry="34.1834" style="stroke:#FF0000;stroke-width:1.5;fill:none;"/><text fill="#FF0000" font-family="sans-serif" font-size="14" font-style="italic" lengthAdjust="spacing" textLength="98" x="1656.9172" y="726.7332">«Souad Saidi»</text><text fill="#FF0000" font-family="sans-serif" font-size="14" lengthAdjust="spacing" textLength="289" x="1561.4172" y="743.0301">W6: Intro to Data Visualization with Python</text><line style="stroke:#FF0000;stroke-width:1.5;" x1="1852.168" x2="1816.9669" y1="728.2671" y2="763.4682"/><ellipse cx="1825.0817" cy="862.9775" rx="110.5817" ry="25.4775" style="stroke:#FF0000;stroke-width:1.5;fill:none;"/><text fill="#FF0000" font-family="sans-serif" font-size="14" font-style="italic" lengthAdjust="spacing" textLength="121" x="1757.1617" y="858.3428">«Taha Bouhsine»</text><text fill="#FF0000" font-family="sans-serif" font-size="14" lengthAdjust="spacing" textLength="144" x="1745.6617" y="874.6397">W7: EDA with Python</text><line style="stroke:#FF0000;stroke-width:1.5;" x1="1926.8495" x2="1900.0948" y1="854.096" y2="880.8507"/><ellipse cx="492.0016" cy="740.0003" rx="125.5016" ry="27.5003" style="stroke:#FF0000;stroke-width:1.5;fill:none;"/><text fill="#FF0000" font-family="sans-serif" font-size="14" font-style="italic" lengthAdjust="spacing" textLength="173" x="404.7516" y="735.5994">«Ayoub Bouihrouchane»</text><text fill="#FF0000" font-family="sans-serif" font-size="14" lengthAdjust="spacing" textLength="164" x="409.2516" y="751.8963">W8: Intro to TensorFlow</text><line style="stroke:#FF0000;stroke-width:1.5;" x1="607.5001" x2="579.0319" y1="730.4137" y2="758.8819"/><ellipse cx="166.1806" cy="740.1574" rx="117.6806" ry="26.6574" style="stroke:#FF0000;stroke-width:1.5;fill:none;"/><text fill="#FF0000" font-family="sans-serif" font-size="14" font-style="italic" lengthAdjust="spacing" textLength="157" x="87.4306" y="735.7565">«El Bachir Outidrarine»</text><text fill="#FF0000" font-family="sans-serif" font-size="14" lengthAdjust="spacing" textLength="146" x="92.9306" y="752.0534">W9: OOP with Python</text><line style="stroke:#FF0000;stroke-width:1.5;" x1="274.4815" x2="246.6233" y1="730.8646" y2="758.7228"/><ellipse cx="756.9287" cy="740.1061" rx="96.4287" ry="26.6061" style="stroke:#FF0000;stroke-width:1.5;fill:none;"/><text fill="#FF0000" font-family="sans-serif" font-size="14" font-style="italic" lengthAdjust="spacing" textLength="127" x="692.9287" y="735.7052">«Said Elhachemy»</text><text fill="#FF0000" font-family="sans-serif" font-size="14" lengthAdjust="spacing" textLength="117" x="697.9287" y="752.0021">W10: NN with JAX</text><ellipse cx="165.8827" cy="492.3765" rx="159.8827" ry="34.3765" style="stroke:#FF0000;stroke-width:1.5;fill:none;"/><text fill="#FF0000" font-family="sans-serif" font-size="14" font-style="italic" lengthAdjust="spacing" textLength="157" x="87.3827" y="478.9263">«El Bachir Outidrarine»</text><text fill="#FF0000" font-family="sans-serif" font-size="14" lengthAdjust="spacing" textLength="291" x="20.3827" y="495.2232">W11: Functional Programming with Python</text><line style="stroke:#FF0000;stroke-width:1.5;" x1="313.022" x2="277.6263" y1="480.3929" y2="515.7886"/><ellipse cx="1118.2096" cy="255.0419" rx="123.2096" ry="27.0419" style="stroke:#FF8C00;stroke-width:1.5;fill:none;"/><text fill="#FF8C00" font-family="sans-serif" font-size="14" font-style="italic" lengthAdjust="spacing" textLength="153" x="1034.5807" y="250.5685">«El Mahjoub Abakrim»</text><text fill="#FF8C00" font-family="sans-serif" font-size="14" lengthAdjust="spacing" textLength="171" x="1025.5807" y="266.8654">M1: Linear algebra for ML</text><ellipse cx="2087.9399" cy="370.0505" rx="116.4399" ry="26.5505" style="stroke:#FF8C00;stroke-width:1.5;fill:none;"/><text fill="#FF8C00" font-family="sans-serif" font-size="14" font-style="italic" lengthAdjust="spacing" textLength="153" x="2010.4399" y="365.6496">«El Mahjoub Abakrim»</text><text fill="#FF8C00" font-family="sans-serif" font-size="14" lengthAdjust="spacing" textLength="145" x="2014.4399" y="381.9465">M2: Probability for ML</text><ellipse cx="2086.0408" cy="492.5486" rx="113.5408" ry="26.5486" style="stroke:#FF8C00;stroke-width:1.5;fill:none;"/><text fill="#FF8C00" font-family="sans-serif" font-size="14" font-style="italic" lengthAdjust="spacing" textLength="153" x="2009.5408" y="488.347">«El Mahjoub Abakrim»</text><text fill="#FF8C00" font-family="sans-serif" font-size="14" lengthAdjust="spacing" textLength="137" x="2017.5408" y="504.6439">M3: Statistics for ML</text><ellipse cx="473.8854" cy="492.409" rx="112.8854" ry="26.409" style="stroke:#FF8C00;stroke-width:1.5;fill:none;"/><text fill="#FF8C00" font-family="sans-serif" font-size="14" font-style="italic" lengthAdjust="spacing" textLength="153" x="397.3854" y="488.4013">«El Mahjoub Abakrim»</text><text fill="#FF8C00" font-family="sans-serif" font-size="14" lengthAdjust="spacing" textLength="133" x="407.3854" y="504.6982">M5: Calculus for ML</text><ellipse cx="1734.9116" cy="492.3823" rx="129.9116" ry="28.3823" style="stroke:#FF8C00;stroke-width:1.5;fill:none;"/><text fill="#FF8C00" font-family="sans-serif" font-size="14" font-style="italic" lengthAdjust="spacing" textLength="153" x="1652.3624" y="485.9">«El Mahjoub Abakrim»</text><text fill="#FF8C00" font-family="sans-serif" font-size="14" lengthAdjust="spacing" textLength="204" x="1626.8624" y="502.1969">M4: Information Theory for ML</text><ellipse cx="1205.1065" cy="983.2213" rx="144.1065" ry="31.2213" style="stroke:#191970;stroke-width:1.5;fill:none;"/><text fill="#191970" font-family="sans-serif" font-size="14" font-style="italic" lengthAdjust="spacing" textLength="144" x="1129.4295" y="972.1988">«Chaimae Elmejgari»</text><text fill="#191970" font-family="sans-serif" font-size="14" lengthAdjust="spacing" textLength="257" x="1072.9295" y="988.4957">A1: Sklearn Classification Assignment</text><line style="stroke:#191970;stroke-width:1.5;" x1="1337.7271" x2="1305.5108" y1="972.3376" y2="1004.5539"/><a href="http://GDSCUIZ.github.io" target="_top" title="http://GDSCUIZ.github.io" xlink:actuate="onRequest" xlink:href="http://GDSCUIZ.github.io" xlink:show="new" xlink:title="http://GDSCUIZ.github.io" xlink:type="simple"><path d="M1108.5,1074 L1108.5,1099.1328 A0,0 0 0 0 1108.5,1099.1328 L1301.5,1099.1328 A0,0 0 0 0 1301.5,1099.1328 L1301.5,1084 L1291.5,1074 L1209,1074 L1205,1014.18 L1201,1074 L1108.5,1074 A0,0 0 0 0 1108.5,1074 " fill="#FBFB77" filter="url(#f1e868rv0f2glx)" style="stroke:#A80036;stroke-width:1.0;"/><path d="M1291.5,1074 L1291.5,1084 L1301.5,1084 L1291.5,1074 " fill="#FBFB77" style="stroke:#A80036;stroke-width:1.0;"/><text fill="#000000" font-family="sans-serif" font-size="13" lengthAdjust="spacing" textLength="172" x="1114.5" y="1091.0669">Heart Disease UCI Dataset</text></a><ellipse cx="1524.9539" cy="982.9908" rx="140.4539" ry="30.4908" style="stroke:#191970;stroke-width:1.5;fill:none;"/><text fill="#191970" font-family="sans-serif" font-size="14" font-style="italic" lengthAdjust="spacing" textLength="144" x="1448.0472" y="973.0026">«Chaimae Elmejgari»</text><text fill="#191970" font-family="sans-serif" font-size="14" lengthAdjust="spacing" textLength="247" x="1396.5472" y="989.2995">A2: Sklearn Regression Assignment</text><line style="stroke:#191970;stroke-width:1.5;" x1="1654.213" x2="1622.7326" y1="972.3617" y2="1003.842"/><a href="http://GDSCUIZ.github.io" target="_top" title="http://GDSCUIZ.github.io" xlink:actuate="onRequest" xlink:href="http://GDSCUIZ.github.io" xlink:show="new" xlink:title="http://GDSCUIZ.github.io" xlink:type="simple"><path d="M1443.5,1074 L1443.5,1099.1328 A0,0 0 0 0 1443.5,1099.1328 L1606.5,1099.1328 A0,0 0 0 0 1606.5,1099.1328 L1606.5,1084 L1596.5,1074 L1529,1074 L1525,1013.63 L1521,1074 L1443.5,1074 A0,0 0 0 0 1443.5,1074 " fill="#FBFB77" filter="url(#f1e868rv0f2glx)" style="stroke:#A80036;stroke-width:1.0;"/><path d="M1596.5,1074 L1596.5,1084 L1606.5,1084 L1596.5,1074 " fill="#FBFB77" style="stroke:#A80036;stroke-width:1.0;"/><text fill="#000000" font-family="sans-serif" font-size="13" lengthAdjust="spacing" textLength="142" x="1449.5" y="1091.0669">House Pricing Dataset</text></a><ellipse cx="1872.1144" cy="982.9229" rx="90.1144" ry="20.4229" style="stroke:#191970;stroke-width:1.5;fill:none;"/><text fill="#191970" font-family="sans-serif" font-size="14" lengthAdjust="spacing" textLength="142" x="1801.1144" y="985.7696">A3: EDA Assignment</text><line style="stroke:#191970;stroke-width:1.5;" x1="1955.0464" x2="1933.7006" y1="975.8035" y2="997.1492"/><a href="http://GDSCUIZ.github.io" target="_top" title="http://GDSCUIZ.github.io" xlink:actuate="onRequest" xlink:href="http://GDSCUIZ.github.io" xlink:show="new" xlink:title="http://GDSCUIZ.github.io" xlink:type="simple"><path d="M1788,1074 L1788,1099.1328 A0,0 0 0 0 1788,1099.1328 L1956,1099.1328 A0,0 0 0 0 1956,1099.1328 L1956,1084 L1946,1074 L1876,1074 L1872,1003.57 L1868,1074 L1788,1074 A0,0 0 0 0 1788,1074 " fill="#FBFB77" filter="url(#f1e868rv0f2glx)" style="stroke:#A80036;stroke-width:1.0;"/><path d="M1946,1074 L1946,1084 L1956,1084 L1946,1074 " fill="#FBFB77" style="stroke:#A80036;stroke-width:1.0;"/><text fill="#000000" font-family="sans-serif" font-size="13" lengthAdjust="spacing" textLength="147" x="1794" y="1091.0669">EDA on Titanic Dataset</text></a><ellipse cx="491.9756" cy="863.0951" rx="130.9756" ry="28.5951" style="stroke:#191970;stroke-width:1.5;fill:none;"/><text fill="#191970" font-family="sans-serif" font-size="14" font-style="italic" lengthAdjust="spacing" textLength="173" x="398.8877" y="858.3279">«Ayoub Bouihrouchane»</text><text fill="#191970" font-family="sans-serif" font-size="14" lengthAdjust="spacing" textLength="194" x="388.3877" y="874.6248">A4: DNN Regression with TF</text><line style="stroke:#191970;stroke-width:1.5;" x1="612.5118" x2="582.9411" y1="853.1269" y2="882.6976"/><a href="http://GDSCUIZ.github.io" target="_top" title="http://GDSCUIZ.github.io" xlink:actuate="onRequest" xlink:href="http://GDSCUIZ.github.io" xlink:show="new" xlink:title="http://GDSCUIZ.github.io" xlink:type="simple"><path d="M383.5,970.5 L383.5,995.6328 A0,0 0 0 0 383.5,995.6328 L600.5,995.6328 A0,0 0 0 0 600.5,995.6328 L600.5,980.5 L590.5,970.5 L496,970.5 L492,891.67 L488,970.5 L383.5,970.5 A0,0 0 0 0 383.5,970.5 " fill="#FBFB77" filter="url(#f1e868rv0f2glx)" style="stroke:#A80036;stroke-width:1.0;"/><path d="M590.5,970.5 L590.5,980.5 L600.5,980.5 L590.5,970.5 " fill="#FBFB77" style="stroke:#A80036;stroke-width:1.0;"/><text fill="#000000" font-family="sans-serif" font-size="13" lengthAdjust="spacing" textLength="196" x="389.5" y="987.5669">Regression using DNNs with TF</text></a><ellipse cx="192.9892" cy="862.9978" rx="132.9892" ry="28.9978" style="stroke:#191970;stroke-width:1.5;fill:none;"/><text fill="#191970" font-family="sans-serif" font-size="14" font-style="italic" lengthAdjust="spacing" textLength="173" x="100.2106" y="857.5856">«Ayoub Bouihrouchane»</text><text fill="#191970" font-family="sans-serif" font-size="14" lengthAdjust="spacing" textLength="204" x="84.7106" y="873.8825">A5: DNN Classification with TF</text><line style="stroke:#191970;stroke-width:1.5;" x1="315.3786" x2="285.4022" y1="852.8892" y2="882.8656"/><a href="http://GDSCUIZ.github.io" target="_top" title="http://GDSCUIZ.github.io" xlink:actuate="onRequest" xlink:href="http://GDSCUIZ.github.io" xlink:show="new" xlink:title="http://GDSCUIZ.github.io" xlink:type="simple"><path d="M78,970.5 L78,995.6328 A0,0 0 0 0 78,995.6328 L308,995.6328 A0,0 0 0 0 308,995.6328 L308,980.5 L298,970.5 L197,970.5 L193,892.26 L189,970.5 L78,970.5 A0,0 0 0 0 78,970.5 " fill="#FBFB77" filter="url(#f1e868rv0f2glx)" style="stroke:#A80036;stroke-width:1.0;"/><path d="M298,970.5 L298,980.5 L308,980.5 L298,970.5 " fill="#FBFB77" style="stroke:#A80036;stroke-width:1.0;"/><text fill="#000000" font-family="sans-serif" font-size="13" lengthAdjust="spacing" textLength="209" x="84" y="987.5669">Classification using DNNs with TF</text></a><ellipse cx="781.0694" cy="862.9139" rx="122.5694" ry="26.9139" style="stroke:#191970;stroke-width:1.5;fill:none;"/><text fill="#191970" font-family="sans-serif" font-size="14" font-style="italic" lengthAdjust="spacing" textLength="127" x="711.2842" y="856.2923">«Said Elhachemy»</text><text fill="#191970" font-family="sans-serif" font-size="14" lengthAdjust="spacing" textLength="187" x="681.2842" y="872.5892">A6: NN Regression with JAX</text><line style="stroke:#191970;stroke-width:1.5;" x1="893.8695" x2="865.9918" y1="853.5317" y2="881.4093"/><a href="http://GDSCUIZ.github.io" target="_top" title="http://GDSCUIZ.github.io" xlink:actuate="onRequest" xlink:href="http://GDSCUIZ.github.io" xlink:show="new" xlink:title="http://GDSCUIZ.github.io" xlink:type="simple"><path d="M666,970.5 L666,995.6328 A0,0 0 0 0 666,995.6328 L896,995.6328 A0,0 0 0 0 896,995.6328 L896,980.5 L886,970.5 L785,970.5 L781,890.19 L777,970.5 L666,970.5 A0,0 0 0 0 666,970.5 " fill="#FBFB77" filter="url(#f1e868rv0f2glx)" style="stroke:#A80036;stroke-width:1.0;"/><path d="M886,970.5 L886,980.5 L896,980.5 L886,970.5 " fill="#FBFB77" style="stroke:#A80036;stroke-width:1.0;"/><text fill="#000000" font-family="sans-serif" font-size="13" lengthAdjust="spacing" textLength="209" x="672" y="987.5669">Classification using DNNs with TF</text></a><ellipse cx="795.0799" cy="142.2511" rx="57.0799" ry="14.7511" style="stroke:#A80036;stroke-width:1.5;fill:none;"/><text fill="#000000" font-family="sans-serif" font-size="14" lengthAdjust="spacing" textLength="63" x="760.5799" y="145.9987">Required</text><line style="stroke:#A80036;stroke-width:1.5;" x1="847.6103" x2="831.5975" y1="137.1089" y2="153.1217"/><ellipse cx="940.1007" cy="142.715" rx="52.6007" ry="14.715" style="stroke:#A80036;stroke-width:1.5;fill:none;"/><text fill="#000000" font-family="sans-serif" font-size="14" lengthAdjust="spacing" textLength="57" x="908.6007" y="146.4626">Optional</text><!--MD5=[4539802c5b5ff878d82227ed0da0a12b]
link M1 to W3--><path d="M1118,282.21 C1118,298.4 1118,319.3 1118,336.53 " fill="none" id="M1-to-W3" style="stroke:#A80036;stroke-width:1.0;"/><polygon fill="#A80036" points="1118,341.75,1122,332.75,1118,336.75,1114,332.75,1118,341.75" style="stroke:#A80036;stroke-width:1.0;"/><!--MD5=[bf75434361b431fedbb68b84966ff6dc]
link M2 to M3--><path d="M2087.58,396.55 C2087.26,415.33 2086.84,440.91 2086.51,460.8 " fill="none" id="M2-to-M3" style="stroke:#A80036;stroke-width:1.0;"/><polygon fill="#A80036" points="2086.42,465.98,2090.5737,457.0499,2086.5057,460.9807,2082.5749,456.9128,2086.42,465.98" style="stroke:#A80036;stroke-width:1.0;"/><!--MD5=[332361d0d33fb722ee63f974163c734a]
link M3 to E6--><path d="M2052.41,517.9 C2023.84,538.64 1982.93,568.35 1953.76,589.53 " fill="none" id="M3-to-E6" style="stroke:#A80036;stroke-width:1.0;"/><polygon fill="#A80036" points="1949.55,592.59,1959.1804,590.5274,1953.5924,589.6474,1954.4724,584.0594,1949.55,592.59" style="stroke:#A80036;stroke-width:1.0;"/><!--MD5=[94463cc52e7580a6aa8e0892543004cb]
link M4 to E6--><path d="M1774.26,519.67 C1805.39,540.43 1848.65,569.27 1879.57,589.88 " fill="none" id="M4-to-E6" style="stroke:#A80036;stroke-width:1.0;"/><polygon fill="#A80036" points="1884.04,592.86,1878.7901,584.527,1879.8863,590.0766,1874.3367,591.1728,1884.04,592.86" style="stroke:#A80036;stroke-width:1.0;"/><!--MD5=[a3c19f3fdbe6b6d43ba03dbea8f4ea5b]
link M5 to E7--><path d="M482.39,519.08 C488.51,537.75 496.86,563.22 503.44,583.29 " fill="none" id="M5-to-E7" style="stroke:#A80036;stroke-width:1.0;"/><polygon fill="#A80036" points="505.07,588.26,506.0718,578.4622,503.5146,583.5081,498.4687,580.9509,505.07,588.26" style="stroke:#A80036;stroke-width:1.0;"/><!--MD5=[eafd6081afc775571d539063ef63995e]
link E0 to E1--><path d="M1137,57.23 C1137,73.4 1137,94.61 1137,111.7 " fill="none" id="E0-to-E1" style="stroke:#A80036;stroke-width:1.0;"/><polygon fill="#A80036" points="1137,116.86,1141,107.86,1137,111.86,1133,107.86,1137,116.86" style="stroke:#A80036;stroke-width:1.0;"/><!--MD5=[bd9212629c40eea5af01faf0184da8d5]
link E1 to W2--><path d="M1081.01,164.54 C1031.14,183.29 958.22,210.69 906.26,230.22 " fill="none" id="E1-to-W2" style="stroke:#A80036;stroke-width:1.0;"/><polygon fill="#A80036" points="901.3,232.09,911.1315,232.6752,905.9816,230.3344,908.3225,225.1846,901.3,232.09" style="stroke:#A80036;stroke-width:1.0;"/><!--MD5=[1f1cd8e6dd4c1b2ca2aaccc9b9bcea6e]
link E1 to E2--><path d="M1192.99,164.54 C1243.83,183.65 1318.62,211.76 1370.74,231.35 " fill="none" id="E1-to-E2" style="stroke:#A80036;stroke-width:1.0;"/><polygon fill="#A80036" points="1375.72,233.22,1368.6975,226.3146,1371.0384,231.4644,1365.8885,233.8052,1375.72,233.22" style="stroke:#A80036;stroke-width:1.0;"/><!--MD5=[dcad52bbbca2fe8adc741ce38b45dc12]
link E2 to E5--><path d="M1416.45,281.2 C1391.62,324.19 1341.11,411.65 1313.71,459.11 " fill="none" id="E2-to-E5" style="stroke:#A80036;stroke-width:1.0;"/><polygon fill="#A80036" points="1311.13,463.57,1319.095,457.777,1313.6307,459.2403,1312.1674,453.7759,1311.13,463.57" style="stroke:#A80036;stroke-width:1.0;"/><!--MD5=[e1278bad07730aba396118a76bcefa42]
link E2 to W4--><path d="M1443.8,281.55 C1468.82,330.68 1527.03,441.08 1587,527 C1600.63,546.53 1617.57,567.01 1631.8,583.35 " fill="none" id="E2-to-W4" style="stroke:#A80036;stroke-width:1.0;"/><polygon fill="#A80036" points="1635.35,587.41,1632.4363,578.002,1632.0585,583.6462,1626.4143,583.2684,1635.35,587.41" style="stroke:#A80036;stroke-width:1.0;"/><!--MD5=[e3e28c1befcf002155aa15e1416b4315]
link E2 to E6--><path d="M1511.75,269.33 C1614.1,290.61 1788.56,342.31 1883,458 C1912.76,494.46 1918.53,550.9 1918.99,585.39 " fill="none" id="E2-to-E6" style="stroke:#A80036;stroke-width:1.0;"/><polygon fill="#A80036" points="1919.01,590.73,1922.9585,581.7073,1918.9814,585.7301,1914.9586,581.753,1919.01,590.73" style="stroke:#A80036;stroke-width:1.0;"/><!--MD5=[4931de25dcb70cd4585e7722db9b3a49]
link E3 to E7--><path d="M606.08,396.48 C613.57,428.37 622.02,484.02 604,527 C594.16,550.49 574.7,570.89 556.39,586.16 " fill="none" id="E3-to-E7" style="stroke:#A80036;stroke-width:1.0;"/><polygon fill="#A80036" points="552.26,589.54,561.7627,586.952,556.1349,586.38,556.7068,580.7522,552.26,589.54" style="stroke:#A80036;stroke-width:1.0;"/><!--MD5=[1215d52114495cf35c63de9a53fffc82]
link E4 to E7--><path d="M811.57,394.97 C771.12,425.74 698.6,480.71 636,527 C608.85,547.07 578.08,569.4 554.23,586.6 " fill="none" id="E4-to-E7" style="stroke:#A80036;stroke-width:1.0;"/><polygon fill="#A80036" points="550.16,589.53,559.7986,587.5058,554.2141,586.6036,555.1163,581.0191,550.16,589.53" style="stroke:#A80036;stroke-width:1.0;"/><!--MD5=[3a9b96bfbf6b6ad89c494e81751bda47]
link E5 to E7--><path d="M1183.48,508.32 C1056.48,525.57 842.88,555.7 660,587 C644.2,589.7 627.47,592.77 611.21,595.87 " fill="none" id="E5-to-E7" style="stroke:#A80036;stroke-width:1.0;"/><polygon fill="#A80036" points="606.17,596.83,615.7625,599.0625,611.0804,595.8879,614.2551,591.2058,606.17,596.83" style="stroke:#A80036;stroke-width:1.0;"/><!--MD5=[9120cf2e5df3bff93db8f754bbbc09b4]
link E5 to E6--><path d="M1401.69,509.99 C1506.81,526.89 1671.71,555.13 1813,587 C1825.77,589.88 1839.32,593.29 1852.29,596.73 " fill="none" id="E5-to-E6" style="stroke:#A80036;stroke-width:1.0;"/><polygon fill="#A80036" points="1857.43,598.1,1849.7794,591.8978,1852.6019,596.8001,1847.6996,599.6227,1857.43,598.1" style="stroke:#A80036;stroke-width:1.0;"/><!--MD5=[eaef156f3cd26fb09680b4726e423ecd]
link E5 to E5_1--><path d="M1250.3,519.97 C1215.65,540.5 1167.87,568.79 1133.31,589.26 " fill="none" id="E5-to-E5_1" style="stroke:#A80036;stroke-width:1.0;"/><polygon fill="#A80036" points="1128.74,591.97,1138.5229,590.8319,1133.0438,589.4249,1134.4507,583.9458,1128.74,591.97" style="stroke:#A80036;stroke-width:1.0;"/><!--MD5=[d0dc24fee2dc8f962968ad55317b5fa5]
link E5 to E5_2--><path d="M1303.26,521.49 C1309,540.95 1316.63,566.81 1322.44,586.49 " fill="none" id="E5-to-E5_2" style="stroke:#A80036;stroke-width:1.0;"/><polygon fill="#A80036" points="1323.87,591.35,1325.1632,581.5864,1322.4569,586.5539,1317.4894,583.8475,1323.87,591.35" style="stroke:#A80036;stroke-width:1.0;"/><!--MD5=[78e5ab5e5a88bc842e043d3721ef22a1]
link E5 to E5_3--><path d="M1358.05,518.04 C1387.68,533.14 1420.13,555.69 1437,587 C1458.09,626.14 1438.07,677.7 1421.04,709.58 " fill="none" id="E5-to-E5_3" style="stroke:#A80036;stroke-width:1.0;"/><polygon fill="#A80036" points="1418.55,714.14,1426.3794,708.1651,1420.9503,709.7538,1419.3615,704.3246,1418.55,714.14" style="stroke:#A80036;stroke-width:1.0;"/><!--MD5=[1486efffb1e6671ca120f881dfc47b10]
link E5 to E5_4--><path d="M1185.14,508.92 C1096.25,523.91 981.34,549.88 953,587 C924.69,624.09 955.05,677.94 979.28,710.59 " fill="none" id="E5-to-E5_4" style="stroke:#A80036;stroke-width:1.0;"/><polygon fill="#A80036" points="982.5,714.86,980.2781,705.265,979.4909,710.8669,973.8891,710.0796,982.5,714.86" style="stroke:#A80036;stroke-width:1.0;"/><!--MD5=[772fd7353b85fcd7ba9781333a809f64]
link E5_1 to W1--><path d="M1102.06,642.55 C1111.18,660.2 1123.55,684.44 1134,706 C1154.44,748.17 1176.91,797.33 1191.22,829.02 " fill="none" id="E5_1-to-W1" style="stroke:#A80036;stroke-width:1.0;"/><polygon fill="#A80036" points="1193.44,833.95,1193.3829,824.1013,1191.3828,829.3928,1186.0913,827.3928,1193.44,833.95" style="stroke:#A80036;stroke-width:1.0;"/><!--MD5=[3ed41ca9e4a0342bf659649a2d7520a8]
link E5_2 to W1--><path d="M1315.3,641.46 C1304.06,659.01 1288.89,683.58 1277,706 C1255.04,747.43 1233.21,796.96 1219.68,828.92 " fill="none" id="E5_2-to-W1" style="stroke:#A80036;stroke-width:1.0;"/><polygon fill="#A80036" points="1217.58,833.9,1224.7665,827.1655,1219.5254,829.294,1217.3969,824.0528,1217.58,833.9" style="stroke:#A80036;stroke-width:1.0;"/><!--MD5=[1c20aaf2cd583bc89bf1591f0a44de04]
link E5_3 to W1--><path d="M1364.55,764.62 C1332.83,784.1 1287.67,811.83 1253.66,832.73 " fill="none" id="E5_3-to-W1" style="stroke:#A80036;stroke-width:1.0;"/><polygon fill="#A80036" points="1249.15,835.5,1258.9093,834.1752,1253.4044,832.8731,1254.7064,827.3682,1249.15,835.5" style="stroke:#A80036;stroke-width:1.0;"/><!--MD5=[55ce9eb575be619a41e32fcf1ab5438f]
link E5_4 to W1--><path d="M1041.66,764.04 C1074.36,783.53 1121.4,811.57 1156.78,832.66 " fill="none" id="E5_4-to-W1" style="stroke:#A80036;stroke-width:1.0;"/><polygon fill="#A80036" points="1161.48,835.46,1155.8205,827.3996,1157.1925,832.8875,1151.7046,834.2595,1161.48,835.46" style="stroke:#A80036;stroke-width:1.0;"/><!--MD5=[aad082d993e6b8cee70c7930f5a8138a]
link E6 to A3--><path d="M1928.73,641.93 C1948.69,691.05 1986.56,804.54 1953,892 C1942.64,919 1920.01,942.98 1901.3,959.38 " fill="none" id="E6-to-A3" style="stroke:#A80036;stroke-width:1.0;"/><polygon fill="#A80036" points="1897.13,962.97,1906.555,960.1119,1900.9132,959.7008,1901.3243,954.0589,1897.13,962.97" style="stroke:#A80036;stroke-width:1.0;"/><!--MD5=[afa1024e8ff7de6306129b3a11e360a6]
link E6 to W7--><path d="M1915.03,642.18 C1910.63,673.73 1900.8,729.58 1882,774 C1873.04,795.17 1859.05,816.87 1847.17,833.43 " fill="none" id="E6-to-W7" style="stroke:#A80036;stroke-width:1.0;"/><polygon fill="#A80036" points="1844.2,837.52,1852.7306,832.5976,1847.1426,833.4776,1846.2626,827.8896,1844.2,837.52" style="stroke:#A80036;stroke-width:1.0;"/><!--MD5=[8d8b3bc6a7e801dd3cc94a5872e3c70f]
link E6 to W6--><path d="M1879.61,639.5 C1847.5,657.9 1801.2,684.44 1764.48,705.48 " fill="none" id="E6-to-W6" style="stroke:#A80036;stroke-width:1.0;"/><polygon fill="#A80036" points="1760.05,708.02,1769.8466,707.0069,1764.3859,705.5301,1765.8627,700.0694,1760.05,708.02" style="stroke:#A80036;stroke-width:1.0;"/><!--MD5=[1b93dcc689145246fcf276e79ea23317]
link E7 to W8--><path d="M509.06,644.77 C505.73,663.19 501.31,687.58 497.81,706.93 " fill="none" id="E7-to-W8" style="stroke:#A80036;stroke-width:1.0;"/><polygon fill="#A80036" points="496.85,712.24,502.3788,704.0894,497.7344,707.3188,494.505,702.6744,496.85,712.24" style="stroke:#A80036;stroke-width:1.0;"/><!--MD5=[c23aa90e91c7f6a40a1dd01c1f3910ec]
link E7 to W10--><path d="M563.76,642.38 C605.69,663.35 665.39,693.19 707.3,714.15 " fill="none" id="E7-to-W10" style="stroke:#A80036;stroke-width:1.0;"/><polygon fill="#A80036" points="711.81,716.41,705.5393,708.8154,707.335,714.1797,701.9707,715.9754,711.81,716.41" style="stroke:#A80036;stroke-width:1.0;"/><!--MD5=[814694ad6708beace6ccb2c72ccbdc90]
link W1 to A1--><path d="M1205.76,892.26 C1205.62,908.58 1205.45,929.24 1205.3,946.62 " fill="none" id="W1-to-A1" style="stroke:#A80036;stroke-width:1.0;"/><polygon fill="#A80036" points="1205.26,951.9,1209.337,942.9346,1205.3029,946.9002,1201.3373,942.866,1205.26,951.9" style="stroke:#A80036;stroke-width:1.0;"/><!--MD5=[c17e47e3fec12eb76e7ade644c982c08]
link W1 to A2--><path d="M1271.71,888.31 C1323.85,907.59 1396.73,934.55 1450.93,954.6 " fill="none" id="W1-to-A2" style="stroke:#A80036;stroke-width:1.0;"/><polygon fill="#A80036" points="1455.79,956.4,1448.7491,949.5134,1451.1037,954.6569,1445.9601,957.0115,1455.79,956.4" style="stroke:#A80036;stroke-width:1.0;"/><!--MD5=[196843ca9cb2c2a88bb8126c92104eda]
link W2 to E4--><path d="M843,281.64 C843,298.52 843,320.7 843,338.48 " fill="none" id="W2-to-E4" style="stroke:#A80036;stroke-width:1.0;"/><polygon fill="#A80036" points="843,343.85,847,334.85,843,338.85,839,334.85,843,343.85" style="stroke:#A80036;stroke-width:1.0;"/><!--MD5=[4382496858e9648dc40658832bfff3cc]
link W2 to E3--><path d="M793.33,279 C752.14,298.08 693.73,325.13 651.72,344.58 " fill="none" id="W2-to-E3" style="stroke:#A80036;stroke-width:1.0;"/><polygon fill="#A80036" points="646.94,346.8,656.7878,346.6544,651.4785,344.702,653.431,339.3928,646.94,346.8" style="stroke:#A80036;stroke-width:1.0;"/><!--MD5=[0236886ed49789c9a3d47bba49c12e47]
link W2 to W3--><path d="M897.66,278.46 C942.94,297.07 1007.33,323.52 1054.81,343.04 " fill="none" id="W2-to-W3" style="stroke:#A80036;stroke-width:1.0;"/><polygon fill="#A80036" points="1059.64,345.02,1052.8332,337.9019,1055.0145,343.1213,1049.7952,345.3027,1059.64,345.02" style="stroke:#A80036;stroke-width:1.0;"/><!--MD5=[8303754fdf1c5658650736a053438f4f]
link W2 to W11--><path d="M754.51,271.95 C680.94,286.45 574.11,310.4 484,342 C391.94,374.28 290.81,424.57 227.86,457.77 " fill="none" id="W2-to-W11" style="stroke:#A80036;stroke-width:1.0;"/><polygon fill="#A80036" points="223.4,460.13,233.2249,459.4439,227.8165,457.786,229.4745,452.3775,223.4,460.13" style="stroke:#A80036;stroke-width:1.0;"/><!--MD5=[1e6c469c19b15a6f27e64e489a0c264c]
link W3 to W4--><path d="M1222.14,386.47 C1288.63,399.25 1375.15,421.39 1445,458 C1486.89,479.96 1488.15,498.65 1526,527 C1553.78,547.81 1586.27,569.19 1612.42,585.73 " fill="none" id="W3-to-W4" style="stroke:#A80036;stroke-width:1.0;"/><polygon fill="#A80036" points="1616.89,588.55,1611.3978,580.3747,1612.6564,585.8897,1607.1414,587.1484,1616.89,588.55" style="stroke:#A80036;stroke-width:1.0;"/><!--MD5=[5657d537ed350c6c373d77174933bfdd]
link W3 to W5--><path d="M1081.19,396.93 C1014.97,443.6 876.4,541.24 809.18,588.6 " fill="none" id="W3-to-W5" style="stroke:#A80036;stroke-width:1.0;"/><polygon fill="#A80036" points="804.86,591.64,814.5189,589.7151,808.944,588.7555,809.9037,583.1806,804.86,591.64" style="stroke:#A80036;stroke-width:1.0;"/><!--MD5=[75df6429b8904b544b8b21eab9c10104]
link W4 to W6--><path d="M1671.55,645.99 C1677.63,662.4 1685.35,683.24 1691.94,701.03 " fill="none" id="W4-to-W6" style="stroke:#A80036;stroke-width:1.0;"/><polygon fill="#A80036" points="1693.76,705.96,1694.3715,696.1301,1692.0169,701.2737,1686.8734,698.9191,1693.76,705.96" style="stroke:#A80036;stroke-width:1.0;"/><!--MD5=[6803e6296375c70b7e04cce72af6c481]
link W5 to W10--><path d="M768.03,643.27 C765.84,662.28 762.85,688.21 760.54,708.3 " fill="none" id="W5-to-W10" style="stroke:#A80036;stroke-width:1.0;"/><polygon fill="#A80036" points="759.96,713.27,764.9616,704.7856,760.531,708.3027,757.0139,703.8721,759.96,713.27" style="stroke:#A80036;stroke-width:1.0;"/><!--MD5=[3d2b07e4e19ddc01105b8d17a08f04fe]
link W6 to W7--><path d="M1737.89,773.43 C1756.45,792.3 1779.62,815.86 1797.4,833.93 " fill="none" id="W6-to-W7" style="stroke:#A80036;stroke-width:1.0;"/><polygon fill="#A80036" points="1801.33,837.93,1797.8502,828.7164,1797.816,834.3731,1792.1592,834.3388,1801.33,837.93" style="stroke:#A80036;stroke-width:1.0;"/><!--MD5=[4cceb7990325eb89a0df03a046bb9268]
link W7 to A3--><path d="M1834.74,888.45 C1842.8,908.7 1854.21,937.33 1862.27,957.57 " fill="none" id="W7-to-A3" style="stroke:#A80036;stroke-width:1.0;"/><polygon fill="#A80036" points="1864.14,962.27,1864.5375,952.4292,1862.2954,957.6227,1857.1018,955.3806,1864.14,962.27" style="stroke:#A80036;stroke-width:1.0;"/><!--MD5=[7b8e80f2724c2e3be42c3754e35e1c27]
link W8 to A4--><path d="M492,767.55 C492,785.61 492,809.64 492,828.94 " fill="none" id="W8-to-A4" style="stroke:#A80036;stroke-width:1.0;"/><polygon fill="#A80036" points="492,834.25,496,825.25,492,829.25,488,825.25,492,834.25" style="stroke:#A80036;stroke-width:1.0;"/><!--MD5=[e098774e67f208008bc54a5994c42664]
link W8 to A5--><path d="M434,764.47 C383.8,784.79 311.24,814.15 258.87,835.34 " fill="none" id="W8-to-A5" style="stroke:#A80036;stroke-width:1.0;"/><polygon fill="#A80036" points="254.18,837.24,264.0237,837.5593,258.8125,835.3585,261.0133,830.1473,254.18,837.24" style="stroke:#A80036;stroke-width:1.0;"/><!--MD5=[475a6b0babc82591ea60090ab944e638]
link W11 to W9--><path d="M166,527.12 C166,574.92 166,661.83 166,708.09 " fill="none" id="W11-to-W9" style="stroke:#A80036;stroke-width:1.0;"/><polygon fill="#A80036" points="166,713.26,170,704.26,166,708.26,162,704.26,166,713.26" style="stroke:#A80036;stroke-width:1.0;"/><!--MD5=[5cff1f163ed91e9c16f4162c53e67082]
link W10 to A6--><path d="M762.09,766.66 C765.82,785.46 770.9,811.07 774.85,831.02 " fill="none" id="W10-to-A6" style="stroke:#A80036;stroke-width:1.0;"/><polygon fill="#A80036" points="775.83,835.96,778.0034,826.354,774.8577,831.0555,770.1562,827.9097,775.83,835.96" style="stroke:#A80036;stroke-width:1.0;"/><!--MD5=[0f2435f98601becdcbcb19efae9347aa]
link E: Event to W: Workshop--><!--MD5=[c7e01f4319e1858fb7eabf2731f6e35b]
link W: Workshop to M: Math--><!--MD5=[41d9513d6a270d3d1ab707bb5fb29dff]
link E: Event to A: Assignment--><!--MD5=[7a9b2ecb8bcc53ccdfc9a5ad337eaf47]
link A: Assignment to Required--><!--MD5=[a9f007f9487967e577345f66b8e0e46c]
link Required to Optional--><!--MD5=[6721f4a7f89f5b01a249331bf80f5bea]
@startuml "MLStart"

skinparam usecase {
BackgroundColor transparent
shadowing false
}

(E: Event)
(W: Workshop) #line:red;text:red
(M: Math) #line:darkorange;text:darkorange
(A: Assignment) #line:MidnightBlue;text:MidnightBlue

(E0: 30DaysOfML Init)/ as E0 <<Taha Bouhsine>>
(E1: AI First + ML 101)/ as E1 <<Taha Bouhsine>>

(E2: Intro to Data)/ as E2 <<Noura Bentaher>>
(E3: Intro to Colab) as E3 <<Said Elhachemy>>
(E4: Python in Kaggle) as E4 << Lahcen Oussayd >>
(E5: Supervised Machine Learning)/ as E5 <<Taha Bouhsine>>
(E5_1: Linear Regression)/ as E5_1 <<Lahcen Ousayd>>
(E5_2: SVM)/ as E5_2 <<Lahcen Ousayd>>
(E5_3: Decision Tree)/ as E5_3 <<Lahcen Ousayd>>
(E5_4: Random Forest)/ as E5_4 <<Oumaima Kaissi>>
(E6: Intro to EDA)/ as E6 <<Souad Saidi>>
(E7: Intro to Deep Learning)/ as E7 << Ayoub Bouihrouchane >>




(W1: Supervised ML with sklearn)/ as W1 << Chaimae Elmejgari>> #line:red;text:red 
(W2: Intro to Python)/ as W2 <<El Bachir Outidrarine>> #line:red;text:red
(W3: Linear Algebra with Numpy)/ as W3 <<Said Elhachemy>> #line:red;text:red
(W4: Data Preparation with Pandas)/ as W4 <<Oumaima Kaissi>> #line:red;text:red
(W5: Intro to JAX)/ as W5 <<Said Elhachemy>> #line:red;text:red
(W6: Intro to Data Visualization with Python)/ as W6 <<Souad Saidi>> #line:red;text:red
(W7: EDA with Python)/ as W7 <<Taha Bouhsine>> #line:red;text:red
(W8: Intro to TensorFlow)/ as W8 << Ayoub Bouihrouchane >> #line:red;text:red 
(W9: OOP with Python)/ as W9 << El Bachir Outidrarine>>#line:red;text:red
(W10: NN with JAX) as W10 <<Said Elhachemy>> #line:red;text:red
(W11: Functional Programming with Python)/ as W11 <<El Bachir Outidrarine>> #line:red;text:red


(M1: Linear algebra for ML) as M1 << El Mahjoub Abakrim >> #line:darkorange;text:darkorange
(M2: Probability for ML) as M2 << El Mahjoub Abakrim >> #line:darkorange;text:darkorange
(M3: Statistics for ML) as M3 << El Mahjoub Abakrim >> #line:darkorange;text:darkorange
(M5: Calculus for ML) as M5 << El Mahjoub Abakrim >> #line:darkorange;text:darkorange 
(M4: Information Theory for ML) as M4 << El Mahjoub Abakrim >> #line:darkorange;text:darkorange

(A1: Sklearn Classification Assignment)/ as A1 <<Chaimae Elmejgari>> #line:MidnightBlue;text:MidnightBlue
note bottom [[http://GDSCUIZ.github.io]]
Heart Disease UCI Dataset
end note

(A2: Sklearn Regression Assignment)/ as A2 <<Chaimae Elmejgari>> #line:MidnightBlue;text:MidnightBlue
note bottom [[http://GDSCUIZ.github.io]]
House Pricing Dataset
end note

(A3: EDA Assignment)/ as A3 #line:MidnightBlue;text:MidnightBlue
note bottom [[http://GDSCUIZ.github.io]]
EDA on Titanic Dataset
end note

(A4: DNN Regression with TF)/ as A4 <<Ayoub Bouihrouchane>> #line:MidnightBlue;text:MidnightBlue
note bottom [[http://GDSCUIZ.github.io]]
Regression using DNNs with TF
end note

(A5: DNN Classification with TF)/ as A5 <<Ayoub Bouihrouchane>> #line:MidnightBlue;text:MidnightBlue
note bottom [[http://GDSCUIZ.github.io]]
Classification using DNNs with TF
end note

(A6: NN Regression with JAX)/ as A6 <<Said Elhachemy>> #line:MidnightBlue;text:MidnightBlue
note bottom [[http://GDSCUIZ.github.io]]
Classification using DNNs with TF
end note

M1 - -> W3

M2 - -> M3

M3 - -> E6
M4 - -> E6

M5 - -> E7

E0 - -> E1

E1 - -> W2
E1 - -> E2

E2 - - -> E5
E2 - -> W4
E2 - - -> E6

E3 - -> E7

E4 - -> E7

E5 - -> E7
E5 - -> E6
E5 - -> E5_1
E5 - -> E5_2
E5 - - -> E5_3
E5 - - -> E5_4
E5_1 - -> W1
E5_2 - -> W1
E5_3 - -> W1
E5_4 - -> W1


E6 - -> A3
E6 - -> W7
E6 - -> W6

E7 - -> W8
E7 - -> W10


W1 - -> A1
W1 - -> A2

W2 - -> E4
W2 - -> E3
W2 - -> W3
W2 - - -> W11

W3 - - -> W4
W3 - -> W5

W4 - -> W6

W5 - -> W10

W6 - -> W7

W7 - -> A3

W8 - -> A4
W8 - -> A5

W11 - - -> W9

W10 - -> A6

(Required)/
(Optional)
@enduml

PlantUML version 1.2022.0(Tue Jan 11 17:16:42 WEST 2022)
(GPL source distribution)
Java Runtime: OpenJDK Runtime Environment
JVM: OpenJDK 64-Bit Server VM
Default Encoding: UTF-8
Language: en
Country: US
--></g></svg>