<?xml version="1.0" encoding="UTF-8" standalone="no"?><svg xmlns="http://www.w3.org/2000/svg" xmlns:xlink="http://www.w3.org/1999/xlink" contentScriptType="application/ecmascript" contentStyleType="text/css" height="1109px" preserveAspectRatio="none" style="width:2205px;height:1109px;background:#FFFFFF;" version="1.1" viewBox="0 0 2205 1109" width="2205px" zoomAndPan="magnify"><defs><filter height="300%" id="f1iq42s1pobv50" width="300%" x="-1" y="-1"><feGaussianBlur result="blurOut" stdDeviation="2.0"/><feColorMatrix in="blurOut" result="blurOut2" type="matrix" values="0 0 0 0 0 0 0 0 0 0 0 0 0 0 0 0 0 0 .4 0"/><feOffset dx="4.0" dy="4.0" in="blurOut2" result="blurOut3"/><feBlend in="SourceGraphic" in2="blurOut3" mode="normal"/></filter></defs><g><ellipse cx="640.1007" cy="31.715" rx="52.6007" ry="14.715" style="stroke:#A80036;stroke-width:1.5;fill:none;"/><text fill="#000000" font-family="sans-serif" font-size="14" lengthAdjust="spacing" textLength="57" x="608.6007" y="35.4626">E: Event</text><ellipse cx="797.1952" cy="31.339" rx="69.6952" ry="16.339" style="stroke:#FF0000;stroke-width:1.5;fill:none;"/><text fill="#FF0000" font-family="sans-serif" font-size="14" lengthAdjust="spacing" textLength="92" x="748.1952" y="35.0866">W: Workshop</text><ellipse cx="953.1079" cy="31.7016" rx="51.1079" ry="14.7016" style="stroke:#FF8C00;stroke-width:1.5;fill:none;"/><text fill="#FF8C00" font-family="sans-serif" font-size="14" lengthAdjust="spacing" textLength="55" x="922.6079" y="35.4492">M: Math</text><ellipse cx="640.1868" cy="142.4374" rx="72.6868" ry="16.9374" style="stroke:#191970;stroke-width:1.5;fill:none;"/><text fill="#191970" font-family="sans-serif" font-size="14" lengthAdjust="spacing" textLength="100" x="587.1868" y="146.1849">A: Assignment</text><ellipse cx="1147.1199" cy="31.6669" rx="106.6199" ry="25.6669" style="stroke:#A80036;stroke-width:1.5;fill:none;"/><text fill="#000000" font-family="sans-serif" font-size="14" font-style="italic" lengthAdjust="spacing" textLength="121" x="1079.6199" y="27.266">«Taha Bouhsine»</text><text fill="#000000" font-family="sans-serif" font-size="14" lengthAdjust="spacing" textLength="137" x="1071.6199" y="43.5629">E0: 30DaysOfML Init</text><line style="stroke:#A80036;stroke-width:1.5;" x1="1245.2418" x2="1217.9457" y1="22.7194" y2="50.0154"/><ellipse cx="1146.9446" cy="142.5288" rx="109.4446" ry="25.5288" style="stroke:#A80036;stroke-width:1.5;fill:none;"/><text fill="#000000" font-family="sans-serif" font-size="14" font-style="italic" lengthAdjust="spacing" textLength="121" x="1079.0576" y="137.9734">«Taha Bouhsine»</text><text fill="#000000" font-family="sans-serif" font-size="14" lengthAdjust="spacing" textLength="142" x="1068.5576" y="154.2702">E1: AI First + ML 101</text><line style="stroke:#A80036;stroke-width:1.5;" x1="1247.6661" x2="1220.7624" y1="133.6294" y2="160.5331"/><ellipse cx="1441.8701" cy="255.521" rx="95.3701" ry="26.521" style="stroke:#A80036;stroke-width:1.5;fill:none;"/><text fill="#000000" font-family="sans-serif" font-size="14" font-style="italic" lengthAdjust="spacing" textLength="128" x="1377.8701" y="251.3576">«Noura Bentaher»</text><text fill="#000000" font-family="sans-serif" font-size="14" lengthAdjust="spacing" textLength="112" x="1385.8701" y="267.6545">E2: Intro to Data</text><line style="stroke:#A80036;stroke-width:1.5;" x1="1529.6388" x2="1500.2309" y1="246.2758" y2="275.6837"/><ellipse cx="615.0406" cy="371.0224" rx="97.5406" ry="26.5224" style="stroke:#A80036;stroke-width:1.5;fill:none;"/><text fill="#000000" font-family="sans-serif" font-size="14" font-style="italic" lengthAdjust="spacing" textLength="127" x="550.5406" y="366.6215">«Said Elhachemy»</text><text fill="#000000" font-family="sans-serif" font-size="14" lengthAdjust="spacing" textLength="119" x="554.5406" y="382.9184">E3: Intro to Colab</text><ellipse cx="855.153" cy="371.1496" rx="107.653" ry="25.1496" style="stroke:#A80036;stroke-width:1.5;fill:none;"/><text fill="#000000" font-family="sans-serif" font-size="14" font-style="italic" lengthAdjust="spacing" textLength="109" x="793.4105" y="366.0624">«Salma Saaiou»</text><text fill="#000000" font-family="sans-serif" font-size="14" lengthAdjust="spacing" textLength="142" x="776.9105" y="382.3593">E4: Python in Kaggle</text><ellipse cx="1306.216" cy="493.5432" rx="133.216" ry="29.0432" style="stroke:#A80036;stroke-width:1.5;fill:none;"/><text fill="#000000" font-family="sans-serif" font-size="14" font-style="italic" lengthAdjust="spacing" textLength="124" x="1239.073" y="484.0259">«Oumaima Kaissi»</text><text fill="#000000" font-family="sans-serif" font-size="14" lengthAdjust="spacing" textLength="229" x="1186.573" y="500.3228">E5: Supervised Machine Learning</text><line style="stroke:#A80036;stroke-width:1.5;" x1="1428.8142" x2="1398.792" y1="483.4187" y2="513.4409"/><ellipse cx="1091.9553" cy="617.4911" rx="117.9553" ry="25.9911" style="stroke:#A80036;stroke-width:1.5;fill:none;"/><text fill="#000000" font-family="sans-serif" font-size="14" font-style="italic" lengthAdjust="spacing" textLength="124" x="1023.025" y="611.8887">«Oumaima Kaissi»</text><text fill="#000000" font-family="sans-serif" font-size="14" lengthAdjust="spacing" textLength="167" x="1001.525" y="628.1855">E5_1: Linear Regression</text><line style="stroke:#A80036;stroke-width:1.5;" x1="1200.5091" x2="1173.5607" y1="608.4306" y2="635.379"/><ellipse cx="1333.1551" cy="617.2518" rx="87.6551" ry="25.2518" style="stroke:#A80036;stroke-width:1.5;fill:none;"/><text fill="#000000" font-family="sans-serif" font-size="14" font-style="italic" lengthAdjust="spacing" textLength="124" x="1271.1551" y="614.8976">«Oumaima Kaissi»</text><text fill="#000000" font-family="sans-serif" font-size="14" lengthAdjust="spacing" textLength="73" x="1296.6551" y="631.1945">E5_2: SVM</text><line style="stroke:#A80036;stroke-width:1.5;" x1="1413.8237" x2="1385.5358" y1="608.449" y2="636.737"/><ellipse cx="1405.2352" cy="741.2153" rx="108.2352" ry="25.7153" style="stroke:#A80036;stroke-width:1.5;fill:none;"/><text fill="#000000" font-family="sans-serif" font-size="14" font-style="italic" lengthAdjust="spacing" textLength="124" x="1336.4852" y="736.8144">«Oumaima Kaissi»</text><text fill="#000000" font-family="sans-serif" font-size="14" lengthAdjust="spacing" textLength="139" x="1328.9852" y="753.1113">E5_3: Decision Tree</text><line style="stroke:#A80036;stroke-width:1.5;" x1="1504.8435" x2="1477.5995" y1="732.2509" y2="759.495"/><ellipse cx="1005.8965" cy="740.9505" rx="113.8965" ry="25.4505" style="stroke:#A80036;stroke-width:1.5;fill:none;"/><text fill="#000000" font-family="sans-serif" font-size="14" font-style="italic" lengthAdjust="spacing" textLength="124" x="936.3567" y="736.2593">«Oumaima Kaissi»</text><text fill="#000000" font-family="sans-serif" font-size="14" lengthAdjust="spacing" textLength="149" x="923.8567" y="752.5561">E5_4: Random Forest</text><line style="stroke:#A80036;stroke-width:1.5;" x1="1110.715" x2="1084.2216" y1="732.0785" y2="758.5719"/><ellipse cx="1919.1051" cy="617.6554" rx="87.1051" ry="25.6554" style="stroke:#A80036;stroke-width:1.5;fill:none;"/><text fill="#000000" font-family="sans-serif" font-size="14" font-style="italic" lengthAdjust="spacing" textLength="98" x="1864.3551" y="613.2545">«Souad Saidi»</text><text fill="#000000" font-family="sans-serif" font-size="14" lengthAdjust="spacing" textLength="109" x="1858.8551" y="629.5514">E6: Intro to EDA</text><line style="stroke:#A80036;stroke-width:1.5;" x1="1999.2676" x2="1970.3436" y1="608.7119" y2="637.6359"/><ellipse cx="517.064" cy="617.6128" rx="128.564" ry="28.1128" style="stroke:#A80036;stroke-width:1.5;fill:none;"/><text fill="#000000" font-family="sans-serif" font-size="14" font-style="italic" lengthAdjust="spacing" textLength="173" x="425.564" y="613.2119">«Ayoub Bouihrouchane»</text><text fill="#000000" font-family="sans-serif" font-size="14" lengthAdjust="spacing" textLength="181" x="421.564" y="629.5088">E7: Intro to Deep Learning</text><line style="stroke:#A80036;stroke-width:1.5;" x1="635.3809" x2="606.2959" y1="607.8127" y2="636.8977"/><ellipse cx="1208.9269" cy="863.7854" rx="131.9269" ry="28.7854" style="stroke:#FF0000;stroke-width:1.5;fill:none;"/><text fill="#FF0000" font-family="sans-serif" font-size="14" font-style="italic" lengthAdjust="spacing" textLength="144" x="1131.3204" y="855.9916">«Chaimae Elmejgari»</text><text fill="#FF0000" font-family="sans-serif" font-size="14" lengthAdjust="spacing" textLength="217" x="1094.8204" y="872.2885">W1: Supervised ML with sklearn</text><line style="stroke:#FF0000;stroke-width:1.5;" x1="1330.3387" x2="1300.5762" y1="853.7508" y2="883.5132"/><ellipse cx="853.0009" cy="255.2518" rx="115.0009" ry="26.2518" style="stroke:#FF0000;stroke-width:1.5;fill:none;"/><text fill="#FF0000" font-family="sans-serif" font-size="14" font-style="italic" lengthAdjust="spacing" textLength="157" x="774.5009" y="251.4638">«El Bachir Outidrarine»</text><text fill="#FF0000" font-family="sans-serif" font-size="14" lengthAdjust="spacing" textLength="132" x="787.0009" y="267.7607">W2: Intro to Python</text><line style="stroke:#FF0000;stroke-width:1.5;" x1="958.8358" x2="931.341" y1="246.1004" y2="273.5952"/><ellipse cx="1127.2207" cy="371.1441" rx="128.7207" ry="28.1441" style="stroke:#FF0000;stroke-width:1.5;fill:none;"/><text fill="#FF0000" font-family="sans-serif" font-size="14" font-style="italic" lengthAdjust="spacing" textLength="127" x="1058.1407" y="362.9328">«Said Elhachemy»</text><text fill="#FF0000" font-family="sans-serif" font-size="14" lengthAdjust="spacing" textLength="212" x="1015.6407" y="379.2297">W3: Linear Algebra with Numpy</text><line style="stroke:#FF0000;stroke-width:1.5;" x1="1245.6818" x2="1216.5652" y1="361.3331" y2="390.4497"/><ellipse cx="1661.9146" cy="617.2829" rx="134.4146" ry="29.2829" style="stroke:#FF0000;stroke-width:1.5;fill:none;"/><text fill="#FF0000" font-family="sans-serif" font-size="14" font-style="italic" lengthAdjust="spacing" textLength="124" x="1594.8621" y="607.4756">«Oumaima Kaissi»</text><text fill="#FF0000" font-family="sans-serif" font-size="14" lengthAdjust="spacing" textLength="233" x="1540.3621" y="623.7725">W4: Data Preparation with Pandas</text><line style="stroke:#FF0000;stroke-width:1.5;" x1="1785.6157" x2="1755.3521" y1="607.0749" y2="637.3385"/><ellipse cx="774.1797" cy="617.2724" rx="93.6797" ry="26.2724" style="stroke:#FF0000;stroke-width:1.5;fill:none;"/><text fill="#FF0000" font-family="sans-serif" font-size="14" font-style="italic" lengthAdjust="spacing" textLength="127" x="710.6797" y="613.4555">«Said Elhachemy»</text><text fill="#FF0000" font-family="sans-serif" font-size="14" lengthAdjust="spacing" textLength="105" x="721.6797" y="629.7524">W5: Intro to JAX</text><line style="stroke:#FF0000;stroke-width:1.5;" x1="860.3926" x2="831.189" y1="608.1138" y2="637.3175"/><ellipse cx="1706.9172" cy="741.1834" rx="158.9172" ry="34.1834" style="stroke:#FF0000;stroke-width:1.5;fill:none;"/><text fill="#FF0000" font-family="sans-serif" font-size="14" font-style="italic" lengthAdjust="spacing" textLength="98" x="1657.9172" y="727.7332">«Souad Saidi»</text><text fill="#FF0000" font-family="sans-serif" font-size="14" lengthAdjust="spacing" textLength="289" x="1562.4172" y="744.0301">W6: Intro to Data Visualization with Python</text><line style="stroke:#FF0000;stroke-width:1.5;" x1="1853.168" x2="1817.9669" y1="729.2671" y2="764.4682"/><ellipse cx="1828.8717" cy="863.8068" rx="107.3717" ry="24.8068" style="stroke:#FF0000;stroke-width:1.5;fill:none;"/><text fill="#FF0000" font-family="sans-serif" font-size="14" font-style="italic" lengthAdjust="spacing" textLength="98" x="1772.713" y="858.2226">«Souad Saidi»</text><text fill="#FF0000" font-family="sans-serif" font-size="14" lengthAdjust="spacing" textLength="144" x="1749.713" y="874.5195">W7: EDA with Python</text><line style="stroke:#FF0000;stroke-width:1.5;" x1="1927.6854" x2="1901.6143" y1="855.1592" y2="881.2303"/><ellipse cx="492.0016" cy="741.0003" rx="125.5016" ry="27.5003" style="stroke:#FF0000;stroke-width:1.5;fill:none;"/><text fill="#FF0000" font-family="sans-serif" font-size="14" font-style="italic" lengthAdjust="spacing" textLength="173" x="404.7516" y="736.5994">«Ayoub Bouihrouchane»</text><text fill="#FF0000" font-family="sans-serif" font-size="14" lengthAdjust="spacing" textLength="164" x="409.2516" y="752.8963">W8: Intro to TensorFlow</text><line style="stroke:#FF0000;stroke-width:1.5;" x1="607.5001" x2="579.0319" y1="731.4137" y2="759.8819"/><ellipse cx="166.1806" cy="741.1574" rx="117.6806" ry="26.6574" style="stroke:#FF0000;stroke-width:1.5;fill:none;"/><text fill="#FF0000" font-family="sans-serif" font-size="14" font-style="italic" lengthAdjust="spacing" textLength="157" x="87.4306" y="736.7565">«El Bachir Outidrarine»</text><text fill="#FF0000" font-family="sans-serif" font-size="14" lengthAdjust="spacing" textLength="146" x="92.9306" y="753.0534">W9: OOP with Python</text><line style="stroke:#FF0000;stroke-width:1.5;" x1="274.4815" x2="246.6233" y1="731.8646" y2="759.7228"/><ellipse cx="759.9287" cy="741.1061" rx="96.4287" ry="26.6061" style="stroke:#FF0000;stroke-width:1.5;fill:none;"/><text fill="#FF0000" font-family="sans-serif" font-size="14" font-style="italic" lengthAdjust="spacing" textLength="127" x="695.9287" y="736.7052">«Said Elhachemy»</text><text fill="#FF0000" font-family="sans-serif" font-size="14" lengthAdjust="spacing" textLength="117" x="700.9287" y="753.0021">W10: NN with JAX</text><ellipse cx="165.8827" cy="493.3765" rx="159.8827" ry="34.3765" style="stroke:#FF0000;stroke-width:1.5;fill:none;"/><text fill="#FF0000" font-family="sans-serif" font-size="14" font-style="italic" lengthAdjust="spacing" textLength="157" x="87.3827" y="479.9263">«El Bachir Outidrarine»</text><text fill="#FF0000" font-family="sans-serif" font-size="14" lengthAdjust="spacing" textLength="291" x="20.3827" y="496.2232">W11: Functional Programming with Python</text><line style="stroke:#FF0000;stroke-width:1.5;" x1="313.022" x2="277.6263" y1="481.3929" y2="516.7886"/><ellipse cx="1127.9685" cy="255.3937" rx="124.9685" ry="27.3937" style="stroke:#FF8C00;stroke-width:1.5;fill:none;"/><text fill="#FF8C00" font-family="sans-serif" font-size="14" font-style="italic" lengthAdjust="spacing" textLength="163" x="1041.4685" y="250.9928">«Nouhayla Ait Oussaid»</text><text fill="#FF8C00" font-family="sans-serif" font-size="14" lengthAdjust="spacing" textLength="171" x="1037.4685" y="267.2897">M1: Linear algebra for ML</text><ellipse cx="2085.9145" cy="370.9224" rx="113.4145" ry="25.9224" style="stroke:#FF8C00;stroke-width:1.5;fill:none;"/><text fill="#FF8C00" font-family="sans-serif" font-size="14" font-style="italic" lengthAdjust="spacing" textLength="135" x="2012.9145" y="366.5216">«Zaineb El Kharazi»</text><text fill="#FF8C00" font-family="sans-serif" font-size="14" lengthAdjust="spacing" textLength="145" x="2007.9145" y="382.8184">M2: Probability for ML</text><ellipse cx="2083.1032" cy="493.382" rx="107.6032" ry="25.882" style="stroke:#FF8C00;stroke-width:1.5;fill:none;"/><text fill="#FF8C00" font-family="sans-serif" font-size="14" font-style="italic" lengthAdjust="spacing" textLength="127" x="2014.1032" y="488.9811">«Said Elhachemy»</text><text fill="#FF8C00" font-family="sans-serif" font-size="14" lengthAdjust="spacing" textLength="137" x="2009.1032" y="505.278">M3: Statistics for ML</text><ellipse cx="480.0835" cy="493.6167" rx="118.5835" ry="26.1167" style="stroke:#FF8C00;stroke-width:1.5;fill:none;"/><text fill="#FF8C00" font-family="sans-serif" font-size="14" font-style="italic" lengthAdjust="spacing" textLength="163" x="398.5835" y="490.0217">«Nouhayla Ait Oussaid»</text><text fill="#FF8C00" font-family="sans-serif" font-size="14" lengthAdjust="spacing" textLength="133" x="413.5835" y="506.3186">M5: Calculus for ML</text><ellipse cx="1740.816" cy="493.3632" rx="124.816" ry="27.3632" style="stroke:#FF8C00;stroke-width:1.5;fill:none;"/><text fill="#FF8C00" font-family="sans-serif" font-size="14" font-style="italic" lengthAdjust="spacing" textLength="109" x="1680.6761" y="484.973">«Yasin Eljakani»</text><text fill="#FF8C00" font-family="sans-serif" font-size="14" lengthAdjust="spacing" textLength="204" x="1633.1761" y="501.2699">M4: Information Theory for ML</text><ellipse cx="1209.1065" cy="984.2213" rx="144.1065" ry="31.2213" style="stroke:#191970;stroke-width:1.5;fill:none;"/><text fill="#191970" font-family="sans-serif" font-size="14" font-style="italic" lengthAdjust="spacing" textLength="144" x="1133.4295" y="973.1988">«Chaimae Elmejgari»</text><text fill="#191970" font-family="sans-serif" font-size="14" lengthAdjust="spacing" textLength="257" x="1076.9295" y="989.4957">A1: Sklearn Classification Assignment</text><line style="stroke:#191970;stroke-width:1.5;" x1="1341.7271" x2="1309.5108" y1="973.3376" y2="1005.5539"/><a href="http://GDSCUIZ.github.io" target="_top" title="http://GDSCUIZ.github.io" xlink:actuate="onRequest" xlink:href="http://GDSCUIZ.github.io" xlink:show="new" xlink:title="http://GDSCUIZ.github.io" xlink:type="simple"><path d="M1112.5,1075 L1112.5,1100.1328 A0,0 0 0 0 1112.5,1100.1328 L1305.5,1100.1328 A0,0 0 0 0 1305.5,1100.1328 L1305.5,1085 L1295.5,1075 L1213,1075 L1209,1015.18 L1205,1075 L1112.5,1075 A0,0 0 0 0 1112.5,1075 " fill="#FBFB77" filter="url(#f1iq42s1pobv50)" style="stroke:#A80036;stroke-width:1.0;"/><path d="M1295.5,1075 L1295.5,1085 L1305.5,1085 L1295.5,1075 " fill="#FBFB77" style="stroke:#A80036;stroke-width:1.0;"/><text fill="#000000" font-family="sans-serif" font-size="13" lengthAdjust="spacing" textLength="172" x="1118.5" y="1092.0669">Heart Disease UCI Dataset</text></a><ellipse cx="1528.9539" cy="983.9908" rx="140.4539" ry="30.4908" style="stroke:#191970;stroke-width:1.5;fill:none;"/><text fill="#191970" font-family="sans-serif" font-size="14" font-style="italic" lengthAdjust="spacing" textLength="144" x="1452.0472" y="974.0026">«Chaimae Elmejgari»</text><text fill="#191970" font-family="sans-serif" font-size="14" lengthAdjust="spacing" textLength="247" x="1400.5472" y="990.2995">A2: Sklearn Regression Assignment</text><line style="stroke:#191970;stroke-width:1.5;" x1="1658.213" x2="1626.7326" y1="973.3617" y2="1004.842"/><a href="http://GDSCUIZ.github.io" target="_top" title="http://GDSCUIZ.github.io" xlink:actuate="onRequest" xlink:href="http://GDSCUIZ.github.io" xlink:show="new" xlink:title="http://GDSCUIZ.github.io" xlink:type="simple"><path d="M1447.5,1075 L1447.5,1100.1328 A0,0 0 0 0 1447.5,1100.1328 L1610.5,1100.1328 A0,0 0 0 0 1610.5,1100.1328 L1610.5,1085 L1600.5,1075 L1533,1075 L1529,1014.63 L1525,1075 L1447.5,1075 A0,0 0 0 0 1447.5,1075 " fill="#FBFB77" filter="url(#f1iq42s1pobv50)" style="stroke:#A80036;stroke-width:1.0;"/><path d="M1600.5,1075 L1600.5,1085 L1610.5,1085 L1600.5,1075 " fill="#FBFB77" style="stroke:#A80036;stroke-width:1.0;"/><text fill="#000000" font-family="sans-serif" font-size="13" lengthAdjust="spacing" textLength="142" x="1453.5" y="1092.0669">House Pricing Dataset</text></a><ellipse cx="1875.1144" cy="983.9229" rx="90.1144" ry="20.4229" style="stroke:#191970;stroke-width:1.5;fill:none;"/><text fill="#191970" font-family="sans-serif" font-size="14" lengthAdjust="spacing" textLength="142" x="1804.1144" y="986.7696">A3: EDA Assignment</text><line style="stroke:#191970;stroke-width:1.5;" x1="1958.0464" x2="1936.7006" y1="976.8035" y2="998.1492"/><a href="http://GDSCUIZ.github.io" target="_top" title="http://GDSCUIZ.github.io" xlink:actuate="onRequest" xlink:href="http://GDSCUIZ.github.io" xlink:show="new" xlink:title="http://GDSCUIZ.github.io" xlink:type="simple"><path d="M1791,1075 L1791,1100.1328 A0,0 0 0 0 1791,1100.1328 L1959,1100.1328 A0,0 0 0 0 1959,1100.1328 L1959,1085 L1949,1075 L1879,1075 L1875,1004.57 L1871,1075 L1791,1075 A0,0 0 0 0 1791,1075 " fill="#FBFB77" filter="url(#f1iq42s1pobv50)" style="stroke:#A80036;stroke-width:1.0;"/><path d="M1949,1075 L1949,1085 L1959,1085 L1949,1075 " fill="#FBFB77" style="stroke:#A80036;stroke-width:1.0;"/><text fill="#000000" font-family="sans-serif" font-size="13" lengthAdjust="spacing" textLength="147" x="1797" y="1092.0669">EDA on Titanic Dataset</text></a><ellipse cx="491.9756" cy="864.0951" rx="130.9756" ry="28.5951" style="stroke:#191970;stroke-width:1.5;fill:none;"/><text fill="#191970" font-family="sans-serif" font-size="14" font-style="italic" lengthAdjust="spacing" textLength="173" x="398.8877" y="859.3279">«Ayoub Bouihrouchane»</text><text fill="#191970" font-family="sans-serif" font-size="14" lengthAdjust="spacing" textLength="194" x="388.3877" y="875.6248">A4: DNN Regression with TF</text><line style="stroke:#191970;stroke-width:1.5;" x1="612.5118" x2="582.9411" y1="854.1269" y2="883.6976"/><a href="http://GDSCUIZ.github.io" target="_top" title="http://GDSCUIZ.github.io" xlink:actuate="onRequest" xlink:href="http://GDSCUIZ.github.io" xlink:show="new" xlink:title="http://GDSCUIZ.github.io" xlink:type="simple"><path d="M383.5,971.5 L383.5,996.6328 A0,0 0 0 0 383.5,996.6328 L600.5,996.6328 A0,0 0 0 0 600.5,996.6328 L600.5,981.5 L590.5,971.5 L496,971.5 L492,892.67 L488,971.5 L383.5,971.5 A0,0 0 0 0 383.5,971.5 " fill="#FBFB77" filter="url(#f1iq42s1pobv50)" style="stroke:#A80036;stroke-width:1.0;"/><path d="M590.5,971.5 L590.5,981.5 L600.5,981.5 L590.5,971.5 " fill="#FBFB77" style="stroke:#A80036;stroke-width:1.0;"/><text fill="#000000" font-family="sans-serif" font-size="13" lengthAdjust="spacing" textLength="196" x="389.5" y="988.5669">Regression using DNNs with TF</text></a><ellipse cx="192.9892" cy="863.9978" rx="132.9892" ry="28.9978" style="stroke:#191970;stroke-width:1.5;fill:none;"/><text fill="#191970" font-family="sans-serif" font-size="14" font-style="italic" lengthAdjust="spacing" textLength="173" x="100.2106" y="858.5856">«Ayoub Bouihrouchane»</text><text fill="#191970" font-family="sans-serif" font-size="14" lengthAdjust="spacing" textLength="204" x="84.7106" y="874.8825">A5: DNN Classification with TF</text><line style="stroke:#191970;stroke-width:1.5;" x1="315.3786" x2="285.4022" y1="853.8892" y2="883.8656"/><a href="http://GDSCUIZ.github.io" target="_top" title="http://GDSCUIZ.github.io" xlink:actuate="onRequest" xlink:href="http://GDSCUIZ.github.io" xlink:show="new" xlink:title="http://GDSCUIZ.github.io" xlink:type="simple"><path d="M78,971.5 L78,996.6328 A0,0 0 0 0 78,996.6328 L308,996.6328 A0,0 0 0 0 308,996.6328 L308,981.5 L298,971.5 L197,971.5 L193,893.26 L189,971.5 L78,971.5 A0,0 0 0 0 78,971.5 " fill="#FBFB77" filter="url(#f1iq42s1pobv50)" style="stroke:#A80036;stroke-width:1.0;"/><path d="M298,971.5 L298,981.5 L308,981.5 L298,971.5 " fill="#FBFB77" style="stroke:#A80036;stroke-width:1.0;"/><text fill="#000000" font-family="sans-serif" font-size="13" lengthAdjust="spacing" textLength="209" x="84" y="988.5669">Classification using DNNs with TF</text></a><ellipse cx="781.0694" cy="863.9139" rx="122.5694" ry="26.9139" style="stroke:#191970;stroke-width:1.5;fill:none;"/><text fill="#191970" font-family="sans-serif" font-size="14" font-style="italic" lengthAdjust="spacing" textLength="127" x="711.2842" y="857.2923">«Said Elhachemy»</text><text fill="#191970" font-family="sans-serif" font-size="14" lengthAdjust="spacing" textLength="187" x="681.2842" y="873.5892">A6: NN Regression with JAX</text><line style="stroke:#191970;stroke-width:1.5;" x1="893.8695" x2="865.9918" y1="854.5317" y2="882.4093"/><a href="http://GDSCUIZ.github.io" target="_top" title="http://GDSCUIZ.github.io" xlink:actuate="onRequest" xlink:href="http://GDSCUIZ.github.io" xlink:show="new" xlink:title="http://GDSCUIZ.github.io" xlink:type="simple"><path d="M666,971.5 L666,996.6328 A0,0 0 0 0 666,996.6328 L896,996.6328 A0,0 0 0 0 896,996.6328 L896,981.5 L886,971.5 L785,971.5 L781,891.19 L777,971.5 L666,971.5 A0,0 0 0 0 666,971.5 " fill="#FBFB77" filter="url(#f1iq42s1pobv50)" style="stroke:#A80036;stroke-width:1.0;"/><path d="M886,971.5 L886,981.5 L896,981.5 L886,971.5 " fill="#FBFB77" style="stroke:#A80036;stroke-width:1.0;"/><text fill="#000000" font-family="sans-serif" font-size="13" lengthAdjust="spacing" textLength="209" x="672" y="988.5669">Classification using DNNs with TF</text></a><ellipse cx="805.0799" cy="142.2511" rx="57.0799" ry="14.7511" style="stroke:#A80036;stroke-width:1.5;fill:none;"/><text fill="#000000" font-family="sans-serif" font-size="14" lengthAdjust="spacing" textLength="63" x="770.5799" y="145.9987">Required</text><line style="stroke:#A80036;stroke-width:1.5;" x1="857.6103" x2="841.5975" y1="137.1089" y2="153.1217"/><ellipse cx="950.1007" cy="142.715" rx="52.6007" ry="14.715" style="stroke:#A80036;stroke-width:1.5;fill:none;"/><text fill="#000000" font-family="sans-serif" font-size="14" lengthAdjust="spacing" textLength="57" x="918.6007" y="146.4626">Optional</text><!--MD5=[4539802c5b5ff878d82227ed0da0a12b]
link M1 to W3--><path d="M1127.77,283.11 C1127.62,299.38 1127.44,320.31 1127.29,337.55 " fill="none" id="M1-to-W3" style="stroke:#A80036;stroke-width:1.0;"/><polygon fill="#A80036" points="1127.24,342.77,1131.317,333.8046,1127.2829,337.7702,1123.3173,333.736,1127.24,342.77" style="stroke:#A80036;stroke-width:1.0;"/><!--MD5=[bf75434361b431fedbb68b84966ff6dc]
link M2 to M3--><path d="M2085.37,397.26 C2084.9,416.14 2084.26,442.03 2083.76,462.05 " fill="none" id="M2-to-M3" style="stroke:#A80036;stroke-width:1.0;"/><polygon fill="#A80036" points="2083.63,467.27,2087.86,458.3758,2083.7585,462.2717,2079.8627,458.1702,2083.63,467.27" style="stroke:#A80036;stroke-width:1.0;"/><!--MD5=[332361d0d33fb722ee63f974163c734a]
link M3 to E6--><path d="M2050.6,518.6 C2022.75,539.32 1982.68,569.13 1954.08,590.41 " fill="none" id="M3-to-E6" style="stroke:#A80036;stroke-width:1.0;"/><polygon fill="#A80036" points="1949.95,593.48,1959.5587,591.3184,1953.962,590.496,1954.7843,584.8993,1949.95,593.48" style="stroke:#A80036;stroke-width:1.0;"/><!--MD5=[94463cc52e7580a6aa8e0892543004cb]
link M4 to E6--><path d="M1777.88,519.78 C1808.16,540.53 1850.87,569.81 1881.36,590.7 " fill="none" id="M4-to-E6" style="stroke:#A80036;stroke-width:1.0;"/><polygon fill="#A80036" points="1885.77,593.72,1880.6062,585.3334,1881.6452,590.894,1876.0846,591.9331,1885.77,593.72" style="stroke:#A80036;stroke-width:1.0;"/><!--MD5=[a3c19f3fdbe6b6d43ba03dbea8f4ea5b]
link M5 to E7--><path d="M487.58,519.48 C493.27,538.25 501.11,564.1 507.26,584.4 " fill="none" id="M5-to-E7" style="stroke:#A80036;stroke-width:1.0;"/><polygon fill="#A80036" points="508.79,589.43,510.0218,579.6585,507.3467,584.6428,502.3623,581.9677,508.79,589.43" style="stroke:#A80036;stroke-width:1.0;"/><!--MD5=[eafd6081afc775571d539063ef63995e]
link E0 to E1--><path d="M1147,57.23 C1147,73.4 1147,94.61 1147,111.7 " fill="none" id="E0-to-E1" style="stroke:#A80036;stroke-width:1.0;"/><polygon fill="#A80036" points="1147,116.86,1151,107.86,1147,111.86,1143,107.86,1147,116.86" style="stroke:#A80036;stroke-width:1.0;"/><!--MD5=[bd9212629c40eea5af01faf0184da8d5]
link E1 to W2--><path d="M1091.36,164.51 C1041.44,183.35 968.25,210.99 916.16,230.65 " fill="none" id="E1-to-W2" style="stroke:#A80036;stroke-width:1.0;"/><polygon fill="#A80036" points="911.18,232.53,921.0135,233.079,915.8552,230.7572,918.177,225.5988,911.18,232.53" style="stroke:#A80036;stroke-width:1.0;"/><!--MD5=[1f1cd8e6dd4c1b2ca2aaccc9b9bcea6e]
link E1 to E2--><path d="M1202.83,164.51 C1254.07,183.79 1329.76,212.27 1382.21,232 " fill="none" id="E1-to-E2" style="stroke:#A80036;stroke-width:1.0;"/><polygon fill="#A80036" points="1386.89,233.77,1379.8745,226.8575,1382.2101,232.0097,1377.058,234.3453,1386.89,233.77" style="stroke:#A80036;stroke-width:1.0;"/><!--MD5=[dcad52bbbca2fe8adc741ce38b45dc12]
link E2 to E5--><path d="M1427.45,281.76 C1402.62,324.84 1352.11,412.48 1324.71,460.04 " fill="none" id="E2-to-E5" style="stroke:#A80036;stroke-width:1.0;"/><polygon fill="#A80036" points="1322.13,464.52,1330.095,458.727,1324.6307,460.1903,1323.1674,454.7259,1322.13,464.52" style="stroke:#A80036;stroke-width:1.0;"/><!--MD5=[e1278bad07730aba396118a76bcefa42]
link E2 to W4--><path d="M1455.72,282.05 C1482.1,330.75 1542.31,439.84 1599,528 C1611.22,547.01 1625.81,567.62 1637.87,584.16 " fill="none" id="E2-to-W4" style="stroke:#A80036;stroke-width:1.0;"/><polygon fill="#A80036" points="1640.88,588.27,1638.7952,578.6443,1637.9281,584.2344,1632.3381,583.3673,1640.88,588.27" style="stroke:#A80036;stroke-width:1.0;"/><!--MD5=[e3e28c1befcf002155aa15e1416b4315]
link E2 to E6--><path d="M1521.01,270.46 C1621.14,292.44 1791.79,344.96 1884,459 C1913.59,495.6 1919.42,552 1919.92,586.44 " fill="none" id="E2-to-E6" style="stroke:#A80036;stroke-width:1.0;"/><polygon fill="#A80036" points="1919.96,591.78,1923.8827,582.746,1919.9171,586.7802,1915.883,582.8146,1919.96,591.78" style="stroke:#A80036;stroke-width:1.0;"/><!--MD5=[4931de25dcb70cd4585e7722db9b3a49]
link E3 to E7--><path d="M621.4,397.63 C628.03,429.67 635.02,485.48 616,528 C605.1,552.36 583.81,572.79 563.76,587.86 " fill="none" id="E3-to-E7" style="stroke:#A80036;stroke-width:1.0;"/><polygon fill="#A80036" points="559.51,590.99,569.1286,588.8726,563.5356,588.0245,564.3837,582.4316,559.51,590.99" style="stroke:#A80036;stroke-width:1.0;"/><!--MD5=[1215d52114495cf35c63de9a53fffc82]
link E4 to E7--><path d="M825.38,395.28 C785.72,426.26 712.92,482.42 649,528 C620.12,548.59 586.95,570.82 561.09,587.85 " fill="none" id="E4-to-E7" style="stroke:#A80036;stroke-width:1.0;"/><polygon fill="#A80036" points="556.68,590.75,566.4001,589.1628,560.8621,588.0095,562.0154,582.4715,556.68,590.75" style="stroke:#A80036;stroke-width:1.0;"/><!--MD5=[3a9b96bfbf6b6ad89c494e81751bda47]
link E5 to E7--><path d="M1193.94,509.12 C1065.44,526.28 848.58,556.41 663,588 C647.08,590.71 630.23,593.8 613.84,596.91 " fill="none" id="E5-to-E7" style="stroke:#A80036;stroke-width:1.0;"/><polygon fill="#A80036" points="608.78,597.88,618.3725,600.1125,613.6904,596.9379,616.8651,592.2558,608.78,597.88" style="stroke:#A80036;stroke-width:1.0;"/><!--MD5=[9120cf2e5df3bff93db8f754bbbc09b4]
link E5 to E6--><path d="M1411.6,511.31 C1514.71,528.34 1675.84,556.59 1814,588 C1826.76,590.9 1840.31,594.32 1853.28,597.76 " fill="none" id="E5-to-E6" style="stroke:#A80036;stroke-width:1.0;"/><polygon fill="#A80036" points="1858.42,599.14,1850.7648,592.9434,1853.591,597.8437,1848.6907,600.6699,1858.42,599.14" style="stroke:#A80036;stroke-width:1.0;"/><!--MD5=[eaef156f3cd26fb09680b4726e423ecd]
link E5 to E5_1--><path d="M1259.83,520.82 C1223.73,541.4 1173.79,569.87 1137.79,590.39 " fill="none" id="E5-to-E5_1" style="stroke:#A80036;stroke-width:1.0;"/><polygon fill="#A80036" points="1133.03,593.11,1142.8305,592.1351,1137.3756,590.637,1138.8737,585.1821,1133.03,593.11" style="stroke:#A80036;stroke-width:1.0;"/><!--MD5=[d0dc24fee2dc8f962968ad55317b5fa5]
link E5 to E5_2--><path d="M1312.19,522.49 C1316.45,541.73 1322.1,567.25 1326.44,586.84 " fill="none" id="E5-to-E5_2" style="stroke:#A80036;stroke-width:1.0;"/><polygon fill="#A80036" points="1327.57,591.95,1329.5434,582.3009,1326.496,587.0667,1321.7301,584.0193,1327.57,591.95" style="stroke:#A80036;stroke-width:1.0;"/><!--MD5=[78e5ab5e5a88bc842e043d3721ef22a1]
link E5 to E5_3--><path d="M1364.04,519.71 C1391.8,535.09 1422.33,557.69 1438,588 C1458.45,627.55 1438.87,679.21 1422.34,710.97 " fill="none" id="E5-to-E5_3" style="stroke:#A80036;stroke-width:1.0;"/><polygon fill="#A80036" points="1419.92,715.51,1427.6725,709.4355,1422.264,711.0935,1420.6061,705.6851,1419.92,715.51" style="stroke:#A80036;stroke-width:1.0;"/><!--MD5=[1486efffb1e6671ca120f881dfc47b10]
link E5 to E5_4--><path d="M1210.76,513.74 C1112.63,534.53 971.8,567.42 956,588 C927.58,625.01 957.98,678.88 982.24,711.56 " fill="none" id="E5-to-E5_4" style="stroke:#A80036;stroke-width:1.0;"/><polygon fill="#A80036" points="985.47,715.83,983.2316,706.2389,982.454,711.842,976.8509,711.0645,985.47,715.83" style="stroke:#A80036;stroke-width:1.0;"/><!--MD5=[772fd7353b85fcd7ba9781333a809f64]
link E5_1 to W1--><path d="M1105.06,643.55 C1114.18,661.2 1126.55,685.44 1137,707 C1157.44,749.17 1179.91,798.33 1194.22,830.02 " fill="none" id="E5_1-to-W1" style="stroke:#A80036;stroke-width:1.0;"/><polygon fill="#A80036" points="1196.44,834.95,1196.3829,825.1013,1194.3828,830.3928,1189.0913,828.3928,1196.44,834.95" style="stroke:#A80036;stroke-width:1.0;"/><!--MD5=[3ed41ca9e4a0342bf659649a2d7520a8]
link E5_2 to W1--><path d="M1317.02,642.81 C1305.79,660.33 1290.74,684.71 1279,707 C1257.2,748.38 1235.72,797.92 1222.42,829.9 " fill="none" id="E5_2-to-W1" style="stroke:#A80036;stroke-width:1.0;"/><polygon fill="#A80036" points="1220.36,834.88,1227.496,828.092,1222.2709,830.2596,1220.1033,825.0345,1220.36,834.88" style="stroke:#A80036;stroke-width:1.0;"/><!--MD5=[1c20aaf2cd583bc89bf1591f0a44de04]
link E5_3 to W1--><path d="M1367.67,765.04 C1336.1,784.53 1290.68,812.57 1256.52,833.66 " fill="none" id="E5_3-to-W1" style="stroke:#A80036;stroke-width:1.0;"/><polygon fill="#A80036" points="1251.99,836.46,1261.7493,835.1352,1256.2444,833.8331,1257.5464,828.3282,1251.99,836.46" style="stroke:#A80036;stroke-width:1.0;"/><!--MD5=[55ce9eb575be619a41e32fcf1ab5438f]
link E5_4 to W1--><path d="M1044.66,765.04 C1077.36,784.53 1124.4,812.57 1159.78,833.66 " fill="none" id="E5_4-to-W1" style="stroke:#A80036;stroke-width:1.0;"/><polygon fill="#A80036" points="1164.48,836.46,1158.8205,828.3996,1160.1925,833.8875,1154.7046,835.2595,1164.48,836.46" style="stroke:#A80036;stroke-width:1.0;"/><!--MD5=[aad082d993e6b8cee70c7930f5a8138a]
link E6 to A3--><path d="M1929.64,642.9 C1949.43,691.95 1987.02,805.33 1954,893 C1943.85,919.95 1921.55,944.09 1903.23,960.56 " fill="none" id="E6-to-A3" style="stroke:#A80036;stroke-width:1.0;"/><polygon fill="#A80036" points="1899.14,964.17,1908.5298,961.1982,1902.8833,960.8553,1903.2262,955.2088,1899.14,964.17" style="stroke:#A80036;stroke-width:1.0;"/><!--MD5=[afa1024e8ff7de6306129b3a11e360a6]
link E6 to W7--><path d="M1915.86,643.11 C1911.28,674.58 1901.26,730.36 1883,775 C1874.3,796.26 1860.78,818.28 1849.45,834.98 " fill="none" id="E6-to-W7" style="stroke:#A80036;stroke-width:1.0;"/><polygon fill="#A80036" points="1846.62,839.11,1855.0066,833.9462,1849.446,834.9852,1848.4069,829.4246,1846.62,839.11" style="stroke:#A80036;stroke-width:1.0;"/><!--MD5=[8d8b3bc6a7e801dd3cc94a5872e3c70f]
link E6 to W6--><path d="M1880.61,640.5 C1848.5,658.9 1802.2,685.44 1765.48,706.48 " fill="none" id="E6-to-W6" style="stroke:#A80036;stroke-width:1.0;"/><polygon fill="#A80036" points="1761.05,709.02,1770.8466,708.0069,1765.3859,706.5301,1766.8627,701.0694,1761.05,709.02" style="stroke:#A80036;stroke-width:1.0;"/><!--MD5=[1b93dcc689145246fcf276e79ea23317]
link E7 to W8--><path d="M511.39,645.77 C507.6,664.19 502.58,688.58 498.6,707.93 " fill="none" id="E7-to-W8" style="stroke:#A80036;stroke-width:1.0;"/><polygon fill="#A80036" points="497.51,713.24,503.2513,705.2376,498.5235,708.3438,495.4173,703.616,497.51,713.24" style="stroke:#A80036;stroke-width:1.0;"/><!--MD5=[c23aa90e91c7f6a40a1dd01c1f3910ec]
link E7 to W10--><path d="M566.76,643.38 C608.69,664.35 668.39,694.19 710.3,715.15 " fill="none" id="E7-to-W10" style="stroke:#A80036;stroke-width:1.0;"/><polygon fill="#A80036" points="714.81,717.41,708.5393,709.8154,710.335,715.1797,704.9707,716.9754,714.81,717.41" style="stroke:#A80036;stroke-width:1.0;"/><!--MD5=[814694ad6708beace6ccb2c72ccbdc90]
link W1 to A1--><path d="M1209,893.26 C1209,909.58 1209,930.24 1209,947.62 " fill="none" id="W1-to-A1" style="stroke:#A80036;stroke-width:1.0;"/><polygon fill="#A80036" points="1209,952.9,1213,943.9,1209,947.9,1205,943.9,1209,952.9" style="stroke:#A80036;stroke-width:1.0;"/><!--MD5=[c17e47e3fec12eb76e7ade644c982c08]
link W1 to A2--><path d="M1274.92,889.31 C1327.22,908.59 1400.33,935.55 1454.7,955.6 " fill="none" id="W1-to-A2" style="stroke:#A80036;stroke-width:1.0;"/><polygon fill="#A80036" points="1459.57,957.4,1452.5291,950.5134,1454.8837,955.6569,1449.7401,958.0115,1459.57,957.4" style="stroke:#A80036;stroke-width:1.0;"/><!--MD5=[196843ca9cb2c2a88bb8126c92104eda]
link W2 to E4--><path d="M853.45,282.25 C853.76,299.56 854.16,322.42 854.48,340.46 " fill="none" id="W2-to-E4" style="stroke:#A80036;stroke-width:1.0;"/><polygon fill="#A80036" points="854.58,345.9,858.4251,336.8328,854.4943,340.9007,850.4263,336.9699,854.58,345.9" style="stroke:#A80036;stroke-width:1.0;"/><!--MD5=[4382496858e9648dc40658832bfff3cc]
link W2 to E3--><path d="M804.55,279.61 C764.45,298.73 707.64,325.82 666.68,345.36 " fill="none" id="W2-to-E3" style="stroke:#A80036;stroke-width:1.0;"/><polygon fill="#A80036" points="661.76,347.7,671.6051,347.4287,666.2714,345.5442,668.1559,340.2105,661.76,347.7" style="stroke:#A80036;stroke-width:1.0;"/><!--MD5=[0236886ed49789c9a3d47bba49c12e47]
link W2 to W3--><path d="M907.13,278.92 C952.22,297.6 1016.48,324.22 1063.89,343.86 " fill="none" id="W2-to-W3" style="stroke:#A80036;stroke-width:1.0;"/><polygon fill="#A80036" points="1068.72,345.86,1061.9398,338.7166,1064.1017,343.944,1058.8742,346.1059,1068.72,345.86" style="stroke:#A80036;stroke-width:1.0;"/><!--MD5=[8303754fdf1c5658650736a053438f4f]
link W2 to W11--><path d="M766.51,273.13 C694.27,288.11 589.07,312.43 500,343 C403.91,375.98 297.54,426.09 231.23,459.06 " fill="none" id="W2-to-W11" style="stroke:#A80036;stroke-width:1.0;"/><polygon fill="#A80036" points="226.52,461.41,236.3593,460.9754,230.995,459.1797,232.7907,453.8154,226.52,461.41" style="stroke:#A80036;stroke-width:1.0;"/><!--MD5=[1e6c469c19b15a6f27e64e489a0c264c]
link W3 to W4--><path d="M1231.77,387.37 C1298.67,400.1 1385.72,422.23 1456,459 C1497.9,480.92 1499.66,498.97 1537,528 C1563.1,548.29 1593.32,569.74 1617.51,586.44 " fill="none" id="W3-to-W4" style="stroke:#A80036;stroke-width:1.0;"/><polygon fill="#A80036" points="1621.65,589.29,1616.5059,580.8913,1617.5319,586.4543,1611.9688,587.4803,1621.65,589.29" style="stroke:#A80036;stroke-width:1.0;"/><!--MD5=[5657d537ed350c6c373d77174933bfdd]
link W3 to W5--><path d="M1089.56,397.93 C1022.1,444.66 880.85,542.49 812.58,589.78 " fill="none" id="W3-to-W5" style="stroke:#A80036;stroke-width:1.0;"/><polygon fill="#A80036" points="808.19,592.82,817.8639,590.9719,812.2968,589.968,813.3007,584.401,808.19,592.82" style="stroke:#A80036;stroke-width:1.0;"/><!--MD5=[75df6429b8904b544b8b21eab9c10104]
link W4 to W6--><path d="M1672.55,646.99 C1678.63,663.4 1686.35,684.24 1692.94,702.03 " fill="none" id="W4-to-W6" style="stroke:#A80036;stroke-width:1.0;"/><polygon fill="#A80036" points="1694.76,706.96,1695.3715,697.1301,1693.0169,702.2737,1687.8734,699.9191,1694.76,706.96" style="stroke:#A80036;stroke-width:1.0;"/><!--MD5=[6803e6296375c70b7e04cce72af6c481]
link W5 to W10--><path d="M771.03,644.27 C768.84,663.28 765.85,689.21 763.54,709.3 " fill="none" id="W5-to-W10" style="stroke:#A80036;stroke-width:1.0;"/><polygon fill="#A80036" points="762.96,714.27,767.9616,705.7856,763.531,709.3027,760.0139,704.8721,762.96,714.27" style="stroke:#A80036;stroke-width:1.0;"/><!--MD5=[3d2b07e4e19ddc01105b8d17a08f04fe]
link W6 to W7--><path d="M1739.69,774.43 C1759.02,793.59 1783.21,817.58 1801.53,835.76 " fill="none" id="W6-to-W7" style="stroke:#A80036;stroke-width:1.0;"/><polygon fill="#A80036" points="1805.12,839.32,1801.5288,830.1492,1801.5631,835.806,1795.9064,835.8402,1805.12,839.32" style="stroke:#A80036;stroke-width:1.0;"/><!--MD5=[4cceb7990325eb89a0df03a046bb9268]
link W7 to A3--><path d="M1838.42,889.16 C1846.35,909.51 1857.64,938.48 1865.58,958.83 " fill="none" id="W7-to-A3" style="stroke:#A80036;stroke-width:1.0;"/><polygon fill="#A80036" points="1867.42,963.55,1867.854,953.7107,1865.5926,958.8959,1860.4074,956.6345,1867.42,963.55" style="stroke:#A80036;stroke-width:1.0;"/><!--MD5=[7b8e80f2724c2e3be42c3754e35e1c27]
link W8 to A4--><path d="M492,768.55 C492,786.61 492,810.64 492,829.94 " fill="none" id="W8-to-A4" style="stroke:#A80036;stroke-width:1.0;"/><polygon fill="#A80036" points="492,835.25,496,826.25,492,830.25,488,826.25,492,835.25" style="stroke:#A80036;stroke-width:1.0;"/><!--MD5=[e098774e67f208008bc54a5994c42664]
link W8 to A5--><path d="M434,765.47 C383.8,785.79 311.24,815.15 258.87,836.34 " fill="none" id="W8-to-A5" style="stroke:#A80036;stroke-width:1.0;"/><polygon fill="#A80036" points="254.18,838.24,264.0237,838.5593,258.8125,836.3585,261.0133,831.1473,254.18,838.24" style="stroke:#A80036;stroke-width:1.0;"/><!--MD5=[475a6b0babc82591ea60090ab944e638]
link W11 to W9--><path d="M166,528.12 C166,575.92 166,662.83 166,709.09 " fill="none" id="W11-to-W9" style="stroke:#A80036;stroke-width:1.0;"/><polygon fill="#A80036" points="166,714.26,170,705.26,166,709.26,162,705.26,166,714.26" style="stroke:#A80036;stroke-width:1.0;"/><!--MD5=[5cff1f163ed91e9c16f4162c53e67082]
link W10 to A6--><path d="M764.45,767.66 C767.72,786.46 772.16,812.07 775.62,832.02 " fill="none" id="W10-to-A6" style="stroke:#A80036;stroke-width:1.0;"/><polygon fill="#A80036" points="776.48,836.96,778.8788,827.4077,775.6233,832.0339,770.9971,828.7785,776.48,836.96" style="stroke:#A80036;stroke-width:1.0;"/><!--MD5=[0f2435f98601becdcbcb19efae9347aa]
link E: Event to W: Workshop--><!--MD5=[c7e01f4319e1858fb7eabf2731f6e35b]
link W: Workshop to M: Math--><!--MD5=[41d9513d6a270d3d1ab707bb5fb29dff]
link E: Event to A: Assignment--><!--MD5=[7a9b2ecb8bcc53ccdfc9a5ad337eaf47]
link A: Assignment to Required--><!--MD5=[a9f007f9487967e577345f66b8e0e46c]
link Required to Optional--><!--MD5=[d2cc7898241f62236595d6b80b3f0fe0]
@startuml "MLStart"

skinparam usecase {
BackgroundColor transparent
shadowing false
}

(E: Event)
(W: Workshop) #line:red;text:red
(M: Math) #line:darkorange;text:darkorange
(A: Assignment) #line:MidnightBlue;text:MidnightBlue

(E0: 30DaysOfML Init)/ as E0 <<Taha Bouhsine>>
(E1: AI First + ML 101)/ as E1 <<Taha Bouhsine>>

(E2: Intro to Data)/ as E2 <<Noura Bentaher>>
(E3: Intro to Colab) as E3 <<Said Elhachemy>>
(E4: Python in Kaggle) as E4 << Salma Saaiou >>
(E5: Supervised Machine Learning)/ as E5 <<Oumaima Kaissi>>
(E5_1: Linear Regression)/ as E5_1 <<Oumaima Kaissi>>
(E5_2: SVM)/ as E5_2 <<Oumaima Kaissi>>
(E5_3: Decision Tree)/ as E5_3 <<Oumaima Kaissi>>
(E5_4: Random Forest)/ as E5_4 <<Oumaima Kaissi>>
(E6: Intro to EDA)/ as E6 <<Souad Saidi>>
(E7: Intro to Deep Learning)/ as E7 << Ayoub Bouihrouchane >>




(W1: Supervised ML with sklearn)/ as W1 << Chaimae Elmejgari>> #line:red;text:red 
(W2: Intro to Python)/ as W2 <<El Bachir Outidrarine>> #line:red;text:red
(W3: Linear Algebra with Numpy)/ as W3 <<Said Elhachemy>> #line:red;text:red
(W4: Data Preparation with Pandas)/ as W4 <<Oumaima Kaissi>> #line:red;text:red
(W5: Intro to JAX)/ as W5 <<Said Elhachemy>> #line:red;text:red
(W6: Intro to Data Visualization with Python)/ as W6 <<Souad Saidi>> #line:red;text:red
(W7: EDA with Python)/ as W7 <<Souad Saidi>> #line:red;text:red
(W8: Intro to TensorFlow)/ as W8 << Ayoub Bouihrouchane >> #line:red;text:red 
(W9: OOP with Python)/ as W9 << El Bachir Outidrarine>>#line:red;text:red
(W10: NN with JAX) as W10 <<Said Elhachemy>> #line:red;text:red
(W11: Functional Programming with Python)/ as W11 <<El Bachir Outidrarine>> #line:red;text:red


(M1: Linear algebra for ML) as M1 << Nouhayla Ait Oussaid >> #line:darkorange;text:darkorange
(M2: Probability for ML) as M2 << Zaineb El Kharazi >> #line:darkorange;text:darkorange
(M3: Statistics for ML) as M3 << Said Elhachemy >> #line:darkorange;text:darkorange
(M5: Calculus for ML) as M5 << Nouhayla Ait Oussaid >> #line:darkorange;text:darkorange 
(M4: Information Theory for ML) as M4 << Yasin Eljakani >> #line:darkorange;text:darkorange

(A1: Sklearn Classification Assignment)/ as A1 <<Chaimae Elmejgari>> #line:MidnightBlue;text:MidnightBlue
note bottom [[http://GDSCUIZ.github.io]]
Heart Disease UCI Dataset
end note

(A2: Sklearn Regression Assignment)/ as A2 <<Chaimae Elmejgari>> #line:MidnightBlue;text:MidnightBlue
note bottom [[http://GDSCUIZ.github.io]]
House Pricing Dataset
end note

(A3: EDA Assignment)/ as A3 #line:MidnightBlue;text:MidnightBlue
note bottom [[http://GDSCUIZ.github.io]]
EDA on Titanic Dataset
end note

(A4: DNN Regression with TF)/ as A4 <<Ayoub Bouihrouchane>> #line:MidnightBlue;text:MidnightBlue
note bottom [[http://GDSCUIZ.github.io]]
Regression using DNNs with TF
end note

(A5: DNN Classification with TF)/ as A5 <<Ayoub Bouihrouchane>> #line:MidnightBlue;text:MidnightBlue
note bottom [[http://GDSCUIZ.github.io]]
Classification using DNNs with TF
end note

(A6: NN Regression with JAX)/ as A6 <<Said Elhachemy>> #line:MidnightBlue;text:MidnightBlue
note bottom [[http://GDSCUIZ.github.io]]
Classification using DNNs with TF
end note

M1 - -> W3

M2 - -> M3

M3 - -> E6
M4 - -> E6

M5 - -> E7

E0 - -> E1

E1 - -> W2
E1 - -> E2

E2 - - -> E5
E2 - -> W4
E2 - - -> E6

E3 - -> E7

E4 - -> E7

E5 - -> E7
E5 - -> E6
E5 - -> E5_1
E5 - -> E5_2
E5 - - -> E5_3
E5 - - -> E5_4
E5_1 - -> W1
E5_2 - -> W1
E5_3 - -> W1
E5_4 - -> W1


E6 - -> A3
E6 - -> W7
E6 - -> W6

E7 - -> W8
E7 - -> W10


W1 - -> A1
W1 - -> A2

W2 - -> E4
W2 - -> E3
W2 - -> W3
W2 - - -> W11

W3 - - -> W4
W3 - -> W5

W4 - -> W6

W5 - -> W10

W6 - -> W7

W7 - -> A3

W8 - -> A4
W8 - -> A5

W11 - - -> W9

W10 - -> A6

(Required)/
(Optional)
@enduml

PlantUML version 1.2022.0(Tue Jan 11 17:16:42 WEST 2022)
(GPL source distribution)
Java Runtime: OpenJDK Runtime Environment
JVM: OpenJDK 64-Bit Server VM
Default Encoding: UTF-8
Language: en
Country: US
--></g></svg>