<?xml version="1.0" encoding="UTF-8" standalone="no"?><svg xmlns="http://www.w3.org/2000/svg" xmlns:xlink="http://www.w3.org/1999/xlink" contentScriptType="application/ecmascript" contentStyleType="text/css" height="980px" preserveAspectRatio="none" style="width:3584px;height:980px;background:#FFFFFF;" version="1.1" viewBox="0 0 3584 980" width="3584px" zoomAndPan="magnify"><defs><filter height="300%" id="f1ah5cmba45gfm" width="300%" x="-1" y="-1"><feGaussianBlur result="blurOut" stdDeviation="2.0"/><feColorMatrix in="blurOut" result="blurOut2" type="matrix" values="0 0 0 0 0 0 0 0 0 0 0 0 0 0 0 0 0 0 .4 0"/><feOffset dx="4.0" dy="4.0" in="blurOut2" result="blurOut3"/><feBlend in="SourceGraphic" in2="blurOut3" mode="normal"/></filter></defs><g><ellipse cx="3214.6007" cy="87.235" rx="52.6007" ry="14.715" style="stroke:#A80036;stroke-width:1.5;fill:none;"/><text fill="#000000" font-family="sans-serif" font-size="14" lengthAdjust="spacing" textLength="57" x="3183.1007" y="90.9826">E: Event</text><ellipse cx="3371.6952" cy="86.859" rx="69.6952" ry="16.339" style="stroke:#FF0000;stroke-width:1.5;fill:none;"/><text fill="#FF0000" font-family="sans-serif" font-size="14" lengthAdjust="spacing" textLength="92" x="3322.6952" y="90.6066">W: Workshop</text><ellipse cx="3527.6079" cy="87.2216" rx="51.1079" ry="14.7016" style="stroke:#FF8C00;stroke-width:1.5;fill:none;"/><text fill="#FF8C00" font-family="sans-serif" font-size="14" lengthAdjust="spacing" textLength="55" x="3497.1079" y="90.9692">M: Math</text><ellipse cx="3214.6868" cy="211.4574" rx="72.6868" ry="16.9374" style="stroke:#191970;stroke-width:1.5;fill:none;"/><text fill="#191970" font-family="sans-serif" font-size="14" lengthAdjust="spacing" textLength="100" x="3161.6868" y="215.2049">A: Assignment</text><ellipse cx="3379.5799" cy="211.2711" rx="57.0799" ry="14.7511" style="stroke:#A80036;stroke-width:1.5;fill:none;"/><text fill="#000000" font-family="sans-serif" font-size="14" lengthAdjust="spacing" textLength="63" x="3345.0799" y="215.0187">Required</text><line style="stroke:#A80036;stroke-width:1.5;" x1="3432.1103" x2="3416.0975" y1="206.1289" y2="222.1417"/><ellipse cx="3524.6007" cy="211.735" rx="52.6007" ry="14.715" style="stroke:#A80036;stroke-width:1.5;fill:none;"/><text fill="#000000" font-family="sans-serif" font-size="14" lengthAdjust="spacing" textLength="57" x="3493.1007" y="215.4826">Optional</text><ellipse cx="1896.3333" cy="87.2655" rx="56.3333" ry="14.7455" style="stroke:#A80036;stroke-width:1.5;fill:none;"/><text fill="#000000" font-family="sans-serif" font-size="14" lengthAdjust="spacing" textLength="62" x="1862.3333" y="91.0131">MLReady</text><ellipse cx="844.5927" cy="211.5994" rx="98.5927" ry="26.0794" style="stroke:#A80036;stroke-width:1.5;fill:none;"/><text fill="#000000" font-family="sans-serif" font-size="14" font-style="italic" lengthAdjust="spacing" textLength="120" x="780.8427" y="207.1986">«Taha bouhsine»</text><text fill="#000000" font-family="sans-serif" font-size="14" lengthAdjust="spacing" textLength="123" x="779.3427" y="223.4954">NLP1: Intro to NLP</text><line style="stroke:#A80036;stroke-width:1.5;" x1="935.3272" x2="906.8252" y1="202.5082" y2="231.0101"/><ellipse cx="444.7224" cy="345.0645" rx="118.2224" ry="26.0445" style="stroke:#A80036;stroke-width:1.5;fill:none;"/><text fill="#000000" font-family="sans-serif" font-size="14" font-style="italic" lengthAdjust="spacing" textLength="120" x="377.9789" y="339.0768">«Taha bouhsine»</text><text fill="#000000" font-family="sans-serif" font-size="14" lengthAdjust="spacing" textLength="171" x="352.4789" y="355.3737">NLP2: Word Embeddings</text><line style="stroke:#A80036;stroke-width:1.5;" x1="553.5219" x2="526.5197" y1="335.9854" y2="362.9876"/><ellipse cx="725.3631" cy="344.8926" rx="127.3631" ry="27.8726" style="stroke:#FF0000;stroke-width:1.5;fill:none;"/><text fill="#FF0000" font-family="sans-serif" font-size="14" lengthAdjust="spacing" textLength="223" x="613.8631" y="347.7393">WNLP1: Text Preparation with TF</text><line style="stroke:#FF0000;stroke-width:1.5;" x1="842.5748" x2="813.7317" y1="335.1762" y2="364.0193"/><ellipse cx="178.6669" cy="474.0534" rx="140.6669" ry="30.5334" style="stroke:#FF0000;stroke-width:1.5;fill:none;"/><text fill="#FF0000" font-family="sans-serif" font-size="14" lengthAdjust="spacing" textLength="251" x="53.1669" y="476.9001">WNLP2: Sentimental Analysis with TF</text><line style="stroke:#FF0000;stroke-width:1.5;" x1="308.122" x2="276.5988" y1="463.4094" y2="494.9327"/><ellipse cx="458.5751" cy="474.235" rx="104.0751" ry="23.215" style="stroke:#FF0000;stroke-width:1.5;fill:none;"/><text fill="#FF0000" font-family="sans-serif" font-size="14" lengthAdjust="spacing" textLength="173" x="372.0751" y="477.0817">WNLP3: Seq2Seq with TF</text><line style="stroke:#FF0000;stroke-width:1.5;" x1="554.355" x2="530.2008" y1="466.1423" y2="490.2965"/><ellipse cx="737.3004" cy="474.0801" rx="113.3004" ry="25.0601" style="stroke:#191970;stroke-width:1.5;fill:none;"/><text fill="#191970" font-family="sans-serif" font-size="14" lengthAdjust="spacing" textLength="193" x="640.8004" y="476.9268">A7: Text Preparation with TF</text><line style="stroke:#191970;stroke-width:1.5;" x1="841.5702" x2="815.5591" y1="465.3441" y2="491.3553"/><a href="http://GDSCUIZ.github.io" target="_top" title="http://GDSCUIZ.github.io" xlink:actuate="onRequest" xlink:href="http://GDSCUIZ.github.io" xlink:show="new" xlink:title="http://GDSCUIZ.github.io" xlink:type="simple"><path d="M607,588.52 L607,613.6528 A0,0 0 0 0 607,613.6528 L888,613.6528 A0,0 0 0 0 888,613.6528 L888,598.52 L878,588.52 L750.57,588.52 L739.43,499.12 L742.57,588.52 L607,588.52 A0,0 0 0 0 607,588.52 " fill="#FBFB77" filter="url(#f1ah5cmba45gfm)" style="stroke:#A80036;stroke-width:1.0;"/><path d="M878,588.52 L878,598.52 L888,598.52 L878,588.52 " fill="#FBFB77" style="stroke:#A80036;stroke-width:1.0;"/><text fill="#000000" font-family="sans-serif" font-size="13" lengthAdjust="spacing" textLength="260" x="613" y="605.5869">Text Preparation of IMDB Dataset with TF</text></a><ellipse cx="157.4187" cy="601.2037" rx="126.4187" ry="27.6837" style="stroke:#191970;stroke-width:1.5;fill:none;"/><text fill="#191970" font-family="sans-serif" font-size="14" lengthAdjust="spacing" textLength="221" x="46.9187" y="604.0504">A8: Sentimental Analysis with TF</text><line style="stroke:#191970;stroke-width:1.5;" x1="273.7613" x2="245.1084" y1="591.5532" y2="620.2061"/><a href="http://GDSCUIZ.github.io" target="_top" title="http://GDSCUIZ.github.io" xlink:actuate="onRequest" xlink:href="http://GDSCUIZ.github.io" xlink:show="new" xlink:title="http://GDSCUIZ.github.io" xlink:type="simple"><path d="M6,719.02 L6,744.1528 A0,0 0 0 0 6,744.1528 L309,744.1528 A0,0 0 0 0 309,744.1528 L309,729.02 L299,719.02 L161.5,719.02 L157.5,628.65 L153.5,719.02 L6,719.02 A0,0 0 0 0 6,719.02 " fill="#FBFB77" filter="url(#f1ah5cmba45gfm)" style="stroke:#A80036;stroke-width:1.0;"/><path d="M299,719.02 L299,729.02 L309,729.02 L299,719.02 " fill="#FBFB77" style="stroke:#A80036;stroke-width:1.0;"/><text fill="#000000" font-family="sans-serif" font-size="13" lengthAdjust="spacing" textLength="282" x="12" y="736.0869">Sentimental Analysis with TF Twitter Dataset</text></a><ellipse cx="445.4187" cy="601.2037" rx="126.4187" ry="27.6837" style="stroke:#191970;stroke-width:1.5;fill:none;"/><text fill="#191970" font-family="sans-serif" font-size="14" lengthAdjust="spacing" textLength="221" x="334.9187" y="604.0504">A9: Sentimental Analysis with TF</text><line style="stroke:#191970;stroke-width:1.5;" x1="561.7613" x2="533.1084" y1="591.5532" y2="620.2061"/><a href="http://GDSCUIZ.github.io" target="_top" title="http://GDSCUIZ.github.io" xlink:actuate="onRequest" xlink:href="http://GDSCUIZ.github.io" xlink:show="new" xlink:title="http://GDSCUIZ.github.io" xlink:type="simple"><path d="M346.5,719.02 L346.5,744.1528 A0,0 0 0 0 346.5,744.1528 L544.5,744.1528 A0,0 0 0 0 544.5,744.1528 L544.5,729.02 L534.5,719.02 L449.5,719.02 L445.5,628.65 L441.5,719.02 L346.5,719.02 A0,0 0 0 0 346.5,719.02 " fill="#FBFB77" filter="url(#f1ah5cmba45gfm)" style="stroke:#A80036;stroke-width:1.0;"/><path d="M534.5,719.02 L534.5,729.02 L544.5,729.02 L534.5,719.02 " fill="#FBFB77" style="stroke:#A80036;stroke-width:1.0;"/><text fill="#000000" font-family="sans-serif" font-size="13" lengthAdjust="spacing" textLength="177" x="352.5" y="736.0869">Seq2Seq translation with TF</text></a><ellipse cx="1470.2537" cy="344.7707" rx="126.7537" ry="27.7507" style="stroke:#A80036;stroke-width:1.5;fill:none;"/><text fill="#000000" font-family="sans-serif" font-size="14" font-style="italic" lengthAdjust="spacing" textLength="128" x="1400.4531" y="337.1296">«Noura Bentaher»</text><text fill="#000000" font-family="sans-serif" font-size="14" lengthAdjust="spacing" textLength="204" x="1362.4531" y="353.4264">CV1: Intro to Computer Vision</text><line style="stroke:#A80036;stroke-width:1.5;" x1="1586.9046" x2="1558.1842" y1="335.0968" y2="363.8172"/><ellipse cx="1405.5918" cy="474.2384" rx="129.0918" ry="28.2184" style="stroke:#A80036;stroke-width:1.5;fill:none;"/><text fill="#000000" font-family="sans-serif" font-size="14" font-style="italic" lengthAdjust="spacing" textLength="128" x="1336.0288" y="466.0018">«Noura Bentaher»</text><text fill="#000000" font-family="sans-serif" font-size="14" lengthAdjust="spacing" textLength="213" x="1293.5288" y="482.2987">CV2: Intro to Image Processing</text><line style="stroke:#A80036;stroke-width:1.5;" x1="1524.3944" x2="1495.2031" y1="464.4014" y2="493.5928"/><ellipse cx="1399.6129" cy="601.0426" rx="130.6129" ry="28.5226" style="stroke:#A80036;stroke-width:1.5;fill:none;"/><text fill="#000000" font-family="sans-serif" font-size="14" font-style="italic" lengthAdjust="spacing" textLength="98" x="1345.6081" y="590.715">«Souad Saidi»</text><text fill="#000000" font-family="sans-serif" font-size="14" lengthAdjust="spacing" textLength="227" x="1281.1081" y="607.0119">CV3: Feature Extraction Methods</text><ellipse cx="1082.5781" cy="473.8356" rx="154.5781" ry="33.3156" style="stroke:#FF0000;stroke-width:1.5;fill:none;"/><text fill="#FF0000" font-family="sans-serif" font-size="14" lengthAdjust="spacing" textLength="280" x="942.5781" y="476.6823">WCV1: Image Classifiation with TF Dense</text><line style="stroke:#FF0000;stroke-width:1.5;" x1="1224.8357" x2="1190.5091" y1="462.2218" y2="496.5484"/><ellipse cx="1712.4302" cy="600.806" rx="146.9302" ry="31.786" style="stroke:#FF0000;stroke-width:1.5;fill:none;"/><text fill="#FF0000" font-family="sans-serif" font-size="14" font-style="italic" lengthAdjust="spacing" textLength="130" x="1646.4503" y="588.0197">«Yassine ELjakani»</text><text fill="#FF0000" font-family="sans-serif" font-size="14" lengthAdjust="spacing" textLength="264" x="1579.4503" y="604.3166">WCV2: CNN Image Classifiation with TF</text><line style="stroke:#FF0000;stroke-width:1.5;" x1="1847.6494" x2="1814.8641" y1="589.7254" y2="622.5108"/><ellipse cx="1078.5416" cy="601.0283" rx="155.5416" ry="33.5083" style="stroke:#FF0000;stroke-width:1.5;fill:none;"/><text fill="#FF0000" font-family="sans-serif" font-size="14" font-style="italic" lengthAdjust="spacing" textLength="130" x="1013.5416" y="587.5781">«Yassine ELjakani»</text><text fill="#FF0000" font-family="sans-serif" font-size="14" lengthAdjust="spacing" textLength="282" x="937.5416" y="603.875">WCV3: Image Data Augmentation with TF</text><line style="stroke:#FF0000;stroke-width:1.5;" x1="1221.6858" x2="1187.165" y1="589.3473" y2="623.8681"/><ellipse cx="1078.3356" cy="731.4871" rx="127.8356" ry="27.9671" style="stroke:#191970;stroke-width:1.5;fill:none;"/><text fill="#191970" font-family="sans-serif" font-size="14" lengthAdjust="spacing" textLength="224" x="966.3356" y="734.3338">A10: Image Classification with TF</text><line style="stroke:#191970;stroke-width:1.5;" x1="1195.9821" x2="1167.0439" y1="721.7378" y2="750.6761"/><a href="http://GDSCUIZ.github.io" target="_top" title="http://GDSCUIZ.github.io" xlink:actuate="onRequest" xlink:href="http://GDSCUIZ.github.io" xlink:show="new" xlink:title="http://GDSCUIZ.github.io" xlink:type="simple"><path d="M960.5,845.02 L960.5,870.1528 A0,0 0 0 0 960.5,870.1528 L1196.5,870.1528 A0,0 0 0 0 1196.5,870.1528 L1196.5,855.02 L1186.5,845.02 L1082.5,845.02 L1078.5,759.73 L1074.5,845.02 L960.5,845.02 A0,0 0 0 0 960.5,845.02 " fill="#FBFB77" filter="url(#f1ah5cmba45gfm)" style="stroke:#A80036;stroke-width:1.0;"/><path d="M1186.5,845.02 L1186.5,855.02 L1196.5,855.02 L1186.5,845.02 " fill="#FBFB77" style="stroke:#A80036;stroke-width:1.0;"/><text fill="#000000" font-family="sans-serif" font-size="13" lengthAdjust="spacing" textLength="215" x="966.5" y="862.0869">DNN on MNIST Handwritten Digits</text></a><ellipse cx="1573.5139" cy="731.7228" rx="144.0139" ry="31.2028" style="stroke:#191970;stroke-width:1.5;fill:none;"/><text fill="#191970" font-family="sans-serif" font-size="14" lengthAdjust="spacing" textLength="258" x="1444.5139" y="734.5695">A11: CNN Image Classification with TF</text><line style="stroke:#191970;stroke-width:1.5;" x1="1706.0493" x2="1673.8516" y1="720.8455" y2="753.0432"/><a href="http://GDSCUIZ.github.io" target="_top" title="http://GDSCUIZ.github.io" xlink:actuate="onRequest" xlink:href="http://GDSCUIZ.github.io" xlink:show="new" xlink:title="http://GDSCUIZ.github.io" xlink:type="simple"><path d="M1490,845.02 L1490,870.1528 A0,0 0 0 0 1490,870.1528 L1657,870.1528 A0,0 0 0 0 1657,870.1528 L1657,855.02 L1647,845.02 L1577.5,845.02 L1573.5,762.54 L1569.5,845.02 L1490,845.02 A0,0 0 0 0 1490,845.02 " fill="#FBFB77" filter="url(#f1ah5cmba45gfm)" style="stroke:#A80036;stroke-width:1.0;"/><path d="M1647,845.02 L1647,855.02 L1657,855.02 L1647,845.02 " fill="#FBFB77" style="stroke:#A80036;stroke-width:1.0;"/><text fill="#000000" font-family="sans-serif" font-size="13" lengthAdjust="spacing" textLength="146" x="1496" y="862.0869">CNN on Fashion MNIST</text></a><ellipse cx="2938.5904" cy="211.6381" rx="168.5904" ry="36.1181" style="stroke:#A80036;stroke-width:1.5;fill:none;"/><text fill="#000000" font-family="sans-serif" font-size="14" lengthAdjust="spacing" textLength="309" x="2784.0904" y="214.4848">TAB1: Feature Engineering with Tabular Data</text><line style="stroke:#A80036;stroke-width:1.5;" x1="3093.7434" x2="3056.5925" y1="199.0473" y2="236.1982"/><ellipse cx="2795.7003" cy="344.9601" rx="165.2003" ry="35.4401" style="stroke:#A80036;stroke-width:1.5;fill:none;"/><text fill="#000000" font-family="sans-serif" font-size="14" font-style="italic" lengthAdjust="spacing" textLength="94" x="2748.7003" y="331.5099">«souad saidi»</text><text fill="#000000" font-family="sans-serif" font-size="14" lengthAdjust="spacing" textLength="302" x="2644.7003" y="347.8067">TAB2: Advanced EDA and Data Visualization</text><line style="stroke:#A80036;stroke-width:1.5;" x1="2947.7334" x2="2911.2658" y1="332.6057" y2="369.0732"/><ellipse cx="3082.5998" cy="345.24" rx="86.5998" ry="19.72" style="stroke:#A80036;stroke-width:1.5;fill:none;"/><text fill="#000000" font-family="sans-serif" font-size="14" lengthAdjust="spacing" textLength="134" x="3015.5998" y="348.0866">TAB3: Intro to D3.js</text><ellipse cx="3275.6781" cy="345.1556" rx="71.1781" ry="16.6356" style="stroke:#A80036;stroke-width:1.5;fill:none;"/><text fill="#000000" font-family="sans-serif" font-size="14" lengthAdjust="spacing" textLength="96" x="3224.6781" y="348.9032">TAB4: TabNet</text><ellipse cx="3044.4752" cy="474.015" rx="125.4752" ry="27.495" style="stroke:#FF0000;stroke-width:1.5;fill:none;"/><text fill="#FF0000" font-family="sans-serif" font-size="14" lengthAdjust="spacing" textLength="219" x="2934.9752" y="476.8617">WTAB1: EDA on Kaggle Dataset</text><line style="stroke:#FF0000;stroke-width:1.5;" x1="3159.9495" x2="3131.4866" y1="464.4303" y2="492.8931"/><ellipse cx="3044.4476" cy="600.9095" rx="134.9476" ry="29.3895" style="stroke:#191970;stroke-width:1.5;fill:none;"/><text fill="#191970" font-family="sans-serif" font-size="14" lengthAdjust="spacing" textLength="239" x="2924.9476" y="603.7562">A12: EDA and Feature Engineering</text><line style="stroke:#191970;stroke-width:1.5;" x1="3168.6393" x2="3138.2684" y1="590.6643" y2="621.0353"/><a href="http://GDSCUIZ.github.io" target="_top" title="http://GDSCUIZ.github.io" xlink:actuate="onRequest" xlink:href="http://GDSCUIZ.github.io" xlink:show="new" xlink:title="http://GDSCUIZ.github.io" xlink:type="simple"><path d="M2983,719.02 L2983,744.1528 A0,0 0 0 0 2983,744.1528 L3106,744.1528 A0,0 0 0 0 3106,744.1528 L3106,729.02 L3096,719.02 L3048.5,719.02 L3044.5,630.54 L3040.5,719.02 L2983,719.02 A0,0 0 0 0 2983,719.02 " fill="#FBFB77" filter="url(#f1ah5cmba45gfm)" style="stroke:#A80036;stroke-width:1.0;"/><path d="M3096,719.02 L3096,729.02 L3106,729.02 L3096,719.02 " fill="#FBFB77" style="stroke:#A80036;stroke-width:1.0;"/><text fill="#000000" font-family="sans-serif" font-size="13" lengthAdjust="spacing" textLength="102" x="2989" y="736.0869">EDA on Dataset</text></a><ellipse cx="1896.3417" cy="211.2883" rx="176.8417" ry="37.7683" style="stroke:#A80036;stroke-width:1.5;fill:none;"/><text fill="#000000" font-family="sans-serif" font-size="14" lengthAdjust="spacing" textLength="326" x="1733.3417" y="214.135">TS1: Intro to Signal Processing and Time Series</text><line style="stroke:#A80036;stroke-width:1.5;" x1="2059.0883" x2="2020.274" y1="198.1223" y2="236.9366"/><ellipse cx="2070.3277" cy="600.8855" rx="137.3277" ry="29.8655" style="stroke:#A80036;stroke-width:1.5;fill:none;"/><text fill="#000000" font-family="sans-serif" font-size="14" lengthAdjust="spacing" textLength="244" x="1948.3277" y="603.7322">TS2: Deep Learning on Time Series</text><line style="stroke:#A80036;stroke-width:1.5;" x1="2196.7098" x2="2165.8593" y1="590.4744" y2="621.3249"/><ellipse cx="1892.712" cy="731.3624" rx="139.712" ry="30.3424" style="stroke:#FF0000;stroke-width:1.5;fill:none;"/><text fill="#FF0000" font-family="sans-serif" font-size="14" lengthAdjust="spacing" textLength="249" x="1768.212" y="734.2091">WTS1: Time Series Data Preparation</text><line style="stroke:#FF0000;stroke-width:1.5;" x1="2021.2884" x2="1989.9575" y1="720.785" y2="752.1159"/><ellipse cx="2209.6004" cy="731.3401" rx="142.1004" ry="30.8201" style="stroke:#FF0000;stroke-width:1.5;fill:none;"/><text fill="#FF0000" font-family="sans-serif" font-size="14" lengthAdjust="spacing" textLength="254" x="2082.6004" y="734.1868">WTS2: Time Series Focasting with TF</text><line style="stroke:#FF0000;stroke-width:1.5;" x1="2340.3748" x2="2308.5627" y1="720.5962" y2="752.4083"/><ellipse cx="2559.4703" cy="731.4141" rx="172.4703" ry="36.8941" style="stroke:#FF0000;stroke-width:1.5;fill:none;"/><text fill="#FF0000" font-family="sans-serif" font-size="14" lengthAdjust="spacing" textLength="317" x="2400.9703" y="734.2607">WTS3: Time Series Anomaly Detection with TF</text><line style="stroke:#FF0000;stroke-width:1.5;" x1="2718.1939" x2="2680.2609" y1="718.5528" y2="756.4858"/><ellipse cx="1892.5217" cy="857.6243" rx="133.5217" ry="29.1043" style="stroke:#191970;stroke-width:1.5;fill:none;"/><text fill="#191970" font-family="sans-serif" font-size="14" lengthAdjust="spacing" textLength="236" x="1774.5217" y="860.471">A13: Time Series Data Preparation</text><line style="stroke:#191970;stroke-width:1.5;" x1="2015.4012" x2="1985.3175" y1="847.4786" y2="877.5623"/><a href="http://GDSCUIZ.github.io" target="_top" title="http://GDSCUIZ.github.io" xlink:actuate="onRequest" xlink:href="http://GDSCUIZ.github.io" xlink:show="new" xlink:title="http://GDSCUIZ.github.io" xlink:type="simple"><path d="M1734,946.52 L1734,971.6528 A0,0 0 0 0 1734,971.6528 L2051,971.6528 A0,0 0 0 0 2051,971.6528 L2051,956.52 L2041,946.52 L1896.5,946.52 L1892.5,886.77 L1888.5,946.52 L1734,946.52 A0,0 0 0 0 1734,946.52 " fill="#FBFB77" filter="url(#f1ah5cmba45gfm)" style="stroke:#A80036;stroke-width:1.0;"/><path d="M2041,946.52 L2041,956.52 L2051,956.52 L2041,946.52 " fill="#FBFB77" style="stroke:#A80036;stroke-width:1.0;"/><text fill="#000000" font-family="sans-serif" font-size="13" lengthAdjust="spacing" textLength="296" x="1740" y="963.5869">Time Series Data Preparation on Stock Market</text></a><ellipse cx="2209.6147" cy="857.6429" rx="98.6147" ry="22.1229" style="stroke:#191970;stroke-width:1.5;fill:none;"/><text fill="#191970" font-family="sans-serif" font-size="14" lengthAdjust="spacing" textLength="161" x="2129.1147" y="860.4896">A14: Forcasting with TF</text><line style="stroke:#191970;stroke-width:1.5;" x1="2300.3694" x2="2277.314" y1="849.9309" y2="872.9863"/><a href="http://GDSCUIZ.github.io" target="_top" title="http://GDSCUIZ.github.io" xlink:actuate="onRequest" xlink:href="http://GDSCUIZ.github.io" xlink:show="new" xlink:title="http://GDSCUIZ.github.io" xlink:type="simple"><path d="M2122,946.52 L2122,971.6528 A0,0 0 0 0 2122,971.6528 L2297,971.6528 A0,0 0 0 0 2297,971.6528 L2297,956.52 L2287,946.52 L2213.5,946.52 L2209.5,879.62 L2205.5,946.52 L2122,946.52 A0,0 0 0 0 2122,946.52 " fill="#FBFB77" filter="url(#f1ah5cmba45gfm)" style="stroke:#A80036;stroke-width:1.0;"/><path d="M2287,946.52 L2287,956.52 L2297,956.52 L2287,946.52 " fill="#FBFB77" style="stroke:#A80036;stroke-width:1.0;"/><text fill="#000000" font-family="sans-serif" font-size="13" lengthAdjust="spacing" textLength="154" x="2128" y="963.5869">Stock Market Forcasting</text></a><ellipse cx="2559.3592" cy="857.3918" rx="84.8592" ry="19.3718" style="stroke:#191970;stroke-width:1.5;fill:none;"/><text fill="#191970" font-family="sans-serif" font-size="14" lengthAdjust="spacing" textLength="130" x="2494.3592" y="860.2385">A15: Time Series A</text><line style="stroke:#191970;stroke-width:1.5;" x1="2637.4547" x2="2617.1655" y1="850.6388" y2="870.9281"/><a href="http://GDSCUIZ.github.io" target="_top" title="http://GDSCUIZ.github.io" xlink:actuate="onRequest" xlink:href="http://GDSCUIZ.github.io" xlink:show="new" xlink:title="http://GDSCUIZ.github.io" xlink:type="simple"><path d="M2486,946.52 L2486,971.6528 A0,0 0 0 0 2486,971.6528 L2633,971.6528 A0,0 0 0 0 2633,971.6528 L2633,956.52 L2623,946.52 L2563.5,946.52 L2559.5,877.24 L2555.5,946.52 L2486,946.52 A0,0 0 0 0 2486,946.52 " fill="#FBFB77" filter="url(#f1ah5cmba45gfm)" style="stroke:#A80036;stroke-width:1.0;"/><path d="M2623,946.52 L2623,956.52 L2633,956.52 L2623,946.52 " fill="#FBFB77" style="stroke:#A80036;stroke-width:1.0;"/><text fill="#000000" font-family="sans-serif" font-size="13" lengthAdjust="spacing" textLength="122" x="2492" y="963.5869">Anomaly Detection</text></a><ellipse cx="963.4948" cy="344.919" rx="74.9948" ry="17.399" style="stroke:#A80036;stroke-width:1.5;fill:none;"/><text fill="#000000" font-family="sans-serif" font-size="14" lengthAdjust="spacing" textLength="106" x="907.4948" y="348.6665">E8: Text Mining</text><ellipse cx="2264.3658" cy="344.7932" rx="81.8658" ry="18.7732" style="stroke:#A80036;stroke-width:1.5;fill:none;"/><text fill="#000000" font-family="sans-serif" font-size="14" lengthAdjust="spacing" textLength="123" x="2201.8805" y="347.9663">E9: Beyond DNNs</text><line style="stroke:#A80036;stroke-width:1.5;" x1="2339.7065" x2="2320.0188" y1="338.2488" y2="357.9365"/><ellipse cx="2070.2717" cy="474.0743" rx="120.7717" ry="26.5543" style="stroke:#A80036;stroke-width:1.5;fill:none;"/><text fill="#000000" font-family="sans-serif" font-size="14" lengthAdjust="spacing" textLength="209" x="1965.7717" y="476.921">E10: Recurent Neural Netowrk</text><line style="stroke:#A80036;stroke-width:1.5;" x1="2181.4174" x2="2153.9018" y1="464.8175" y2="492.3331"/><ellipse cx="1706.4475" cy="474.2095" rx="136.4475" ry="29.6895" style="stroke:#A80036;stroke-width:1.5;fill:none;"/><text fill="#000000" font-family="sans-serif" font-size="14" font-style="italic" lengthAdjust="spacing" textLength="130" x="1636.4592" y="464.282">«Yassine ELjakani»</text><text fill="#000000" font-family="sans-serif" font-size="14" lengthAdjust="spacing" textLength="238" x="1582.4592" y="480.5789">E11: Convolutional Neural Network</text><line style="stroke:#A80036;stroke-width:1.5;" x1="1832.0195" x2="1801.3464" y1="463.8597" y2="494.5329"/><ellipse cx="2310.495" cy="474.219" rx="83.995" ry="19.199" style="stroke:#A80036;stroke-width:1.5;fill:none;"/><text fill="#000000" font-family="sans-serif" font-size="14" lengthAdjust="spacing" textLength="128" x="2246.2335" y="477.1556">E12: Transformers</text><ellipse cx="2549.4423" cy="474.0085" rx="120.4423" ry="26.4885" style="stroke:#A80036;stroke-width:1.5;fill:none;"/><text fill="#000000" font-family="sans-serif" font-size="14" font-style="italic" lengthAdjust="spacing" textLength="172" x="2463.4423" y="470.8095">«Ayoub bouihrouchane»</text><text fill="#000000" font-family="sans-serif" font-size="14" lengthAdjust="spacing" textLength="134" x="2482.4423" y="487.1063">E13: AutoEncoders</text><ellipse cx="2794.3754" cy="474.0145" rx="89.3754" ry="24.9945" style="stroke:#A80036;stroke-width:1.5;fill:none;"/><text fill="#000000" font-family="sans-serif" font-size="14" font-style="italic" lengthAdjust="spacing" textLength="128" x="2730.3754" y="472.0408">«Noura Bentaher»</text><text fill="#000000" font-family="sans-serif" font-size="14" lengthAdjust="spacing" textLength="66" x="2761.3754" y="488.3377">E14: GAN</text><ellipse cx="2328.4708" cy="87.1318" rx="102.9708" ry="26.6118" style="stroke:#A80036;stroke-width:1.5;fill:none;"/><text fill="#000000" font-family="sans-serif" font-size="14" font-style="italic" lengthAdjust="spacing" textLength="136" x="2259.9708" y="82.7309">«Chaïma Elmejgari»</text><text fill="#000000" font-family="sans-serif" font-size="14" lengthAdjust="spacing" textLength="126" x="2264.9708" y="99.0278">E15: TensorBoard</text><line style="stroke:#A80036;stroke-width:1.5;" x1="2423.2344" x2="2394.3461" y1="77.8549" y2="106.7432"/><ellipse cx="2089.5195" cy="87.0114" rx="101.0195" ry="26.4914" style="stroke:#A80036;stroke-width:1.5;fill:none;"/><text fill="#000000" font-family="sans-serif" font-size="14" font-style="italic" lengthAdjust="spacing" textLength="136" x="2021.5195" y="82.8891">«Chaïma Elmejgari»</text><text fill="#000000" font-family="sans-serif" font-size="14" lengthAdjust="spacing" textLength="119" x="2030.0195" y="99.186">E16: TF Datasets</text><line style="stroke:#A80036;stroke-width:1.5;" x1="2182.4874" x2="2153.6078" y1="77.7765" y2="106.6561"/><!--MD5=[4da61e0db12380e112d5181378224d91]
link ML to NLP1--><path d="M1846.47,93.85 C1681.78,113.02 1154.79,174.39 938.5,199.57 " fill="none" id="ML-to-NLP1" style="stroke:#A80036;stroke-width:1.0;"/><polygon fill="#A80036" points="933.45,200.16,942.8489,203.103,938.4171,199.5874,941.9327,195.1557,933.45,200.16" style="stroke:#A80036;stroke-width:1.0;"/><!--MD5=[94c7cac321f0ce5f867bb6d1ff680d32]
link ML to TAB1--><path d="M1925.23,99.66 C1938.75,104.69 1955.24,110.17 1970.5,113.52 C2245.23,173.76 2572.13,196.67 2767.09,205.33 " fill="none" id="ML-to-TAB1" style="stroke:#A80036;stroke-width:1.0;"/><polygon fill="#A80036" points="2772.24,205.56,2763.4195,201.1783,2767.2446,205.3459,2763.077,209.171,2772.24,205.56" style="stroke:#A80036;stroke-width:1.0;"/><!--MD5=[a4fce31f30c178ee033b414dc0a2758d]
link ML to TS1--><path d="M1896.5,101.6 C1896.5,117.58 1896.5,144.9 1896.5,168.18 " fill="none" id="ML-to-TS1" style="stroke:#A80036;stroke-width:1.0;"/><polygon fill="#A80036" points="1896.5,173.39,1900.5,164.39,1896.5,168.39,1892.5,164.39,1896.5,173.39" style="stroke:#A80036;stroke-width:1.0;"/><!--MD5=[1bb58127fd043446bc12d2e6ca18ab74]
link ML to CV1--><path d="M1865.41,99.18 C1826.04,113.87 1756.69,141.59 1701.5,173.52 C1627.58,216.29 1549.14,278.18 1505.34,314.44 " fill="none" id="ML-to-CV1" style="stroke:#A80036;stroke-width:1.0;"/><polygon fill="#A80036" points="1501.46,317.65,1510.9357,314.9647,1505.3023,314.4505,1505.8165,308.817,1501.46,317.65" style="stroke:#A80036;stroke-width:1.0;"/><!--MD5=[fde1929e71a51e99b66ae1f72f3c23b4]
link ML to E16--><path d="M1953.04,87.02 C1963.1,87.02 1973.17,87.02 1983.23,87.02 " fill="none" id="ML-to-E16" style="stroke:#A80036;stroke-width:1.0;"/><polygon fill="#A80036" points="1988.49,87.02,1979.49,83.02,1983.49,87.02,1979.49,91.02,1988.49,87.02" style="stroke:#A80036;stroke-width:1.0;"/><!--MD5=[b5cf92e8b6f7c9c232e82ba0d74e6a19]
link ML to E15--><path d="M1912.68,73.1 C1929.99,59.21 1958.9,38.78 1988,30.52 C2074.37,6 2101.9,13.24 2190,30.52 C2220.35,36.47 2252.43,49.11 2278.07,60.93 " fill="none" id="ML-to-E15" style="stroke:#A80036;stroke-width:1.0;"/><polygon fill="#A80036" points="2282.78,63.13,2276.3172,55.6982,2278.2494,61.0148,2272.9328,62.9471,2282.78,63.13" style="stroke:#A80036;stroke-width:1.0;"/><!--MD5=[88b22310f69861c867ef4145a35eb2e9]
link ML to E9--><path d="M1926.1,99.55 C1973.07,118.09 2062.23,154.38 2090.5,173.52 C2155.28,217.38 2217.29,286.88 2246.71,322.06 " fill="none" id="ML-to-E9" style="stroke:#A80036;stroke-width:1.0;"/><polygon fill="#A80036" points="2250.14,326.18,2247.4928,316.6936,2246.956,322.3249,2241.3246,321.788,2250.14,326.18" style="stroke:#A80036;stroke-width:1.0;"/><!--MD5=[2714f046dabe24c0ca7ef9cb0569b7aa]
link CV1 to CV2--><path d="M1456.72,372.95 C1446.46,392.99 1432.43,420.4 1421.65,441.46 " fill="none" id="CV1-to-CV2" style="stroke:#A80036;stroke-width:1.0;"/><polygon fill="#A80036" points="1419.26,446.13,1426.9184,439.9374,1421.5361,441.6781,1419.7954,436.2957,1419.26,446.13" style="stroke:#A80036;stroke-width:1.0;"/><!--MD5=[2628dea5eadde0b57987f6010d74096b]
link CV1 to E11--><path d="M1517.13,371.11 C1556.14,392.1 1611.82,422.07 1652.71,444.08 " fill="none" id="CV1-to-E11" style="stroke:#A80036;stroke-width:1.0;"/><polygon fill="#A80036" points="1657.12,446.45,1651.0952,438.6589,1652.7186,444.0778,1647.2996,445.7012,1657.12,446.45" style="stroke:#A80036;stroke-width:1.0;"/><!--MD5=[344a009c961c52d29109a8e631bba6b1]
link CV1 to WCV1--><path d="M1401.58,368.58 C1337.25,389.64 1240.93,421.16 1170.95,444.07 " fill="none" id="CV1-to-WCV1" style="stroke:#A80036;stroke-width:1.0;"/><polygon fill="#A80036" points="1165.96,445.7,1175.7578,446.7018,1170.7119,444.1446,1173.2691,439.0987,1165.96,445.7" style="stroke:#A80036;stroke-width:1.0;"/><!--MD5=[fffaea14ac2ba792c891fa57ad7ad4d8]
link CV2 to CV3--><path d="M1404.2,502.14 C1403.28,521.34 1402.04,547.17 1401.06,567.48 " fill="none" id="CV2-to-CV3" style="stroke:#A80036;stroke-width:1.0;"/><polygon fill="#A80036" points="1400.82,572.52,1405.2519,563.7247,1401.0626,567.5259,1397.2613,563.3365,1400.82,572.52" style="stroke:#A80036;stroke-width:1.0;"/><!--MD5=[7d0eab2f0a7187b8066c8099d476ccbd]
link CV2 to WCV2--><path d="M1464.33,498.97 C1514.44,519.38 1586.63,548.77 1640.25,570.6 " fill="none" id="CV2-to-WCV2" style="stroke:#A80036;stroke-width:1.0;"/><polygon fill="#A80036" points="1645.05,572.56,1638.2244,565.46,1640.4195,570.6735,1635.206,572.8687,1645.05,572.56" style="stroke:#A80036;stroke-width:1.0;"/><!--MD5=[0c749ab6768dbfbd1e8d50a8a00a1707]
link WCV3 to A10--><path d="M1078.5,634.78 C1078.5,654.22 1078.5,678.77 1078.5,698.14 " fill="none" id="WCV3-to-A10" style="stroke:#A80036;stroke-width:1.0;"/><polygon fill="#A80036" points="1078.5,703.46,1082.5,694.46,1078.5,698.46,1074.5,694.46,1078.5,703.46" style="stroke:#A80036;stroke-width:1.0;"/><!--MD5=[b80e60b0fcb03ffe558bd57f7d4e537b]
link WCV1 to WCV3--><path d="M1081.46,507.54 C1080.93,524.19 1080.27,544.56 1079.72,561.94 " fill="none" id="WCV1-to-WCV3" style="stroke:#A80036;stroke-width:1.0;"/><polygon fill="#A80036" points="1079.55,567.23,1083.8307,558.3601,1079.7071,562.2325,1075.8347,558.1088,1079.55,567.23" style="stroke:#A80036;stroke-width:1.0;"/><!--MD5=[c03a3e1b14c7513646a5cc9e10ef98a0]
link WCV2 to A11--><path d="M1679.56,632.47 C1658.31,652.12 1630.69,677.65 1608.96,697.74 " fill="none" id="WCV2-to-A11" style="stroke:#A80036;stroke-width:1.0;"/><polygon fill="#A80036" points="1605.25,701.17,1614.5712,697.9896,1608.9185,697.7727,1609.1355,692.12,1605.25,701.17" style="stroke:#A80036;stroke-width:1.0;"/><!--MD5=[adc93857b0473cf6bb1e04a00b320b33]
link NLP1 to NLP2--><path d="M784.62,232.21 C711.89,256.11 589.5,296.35 513.07,321.48 " fill="none" id="NLP1-to-NLP2" style="stroke:#A80036;stroke-width:1.0;"/><polygon fill="#A80036" points="508.1,323.11,517.8987,324.103,512.8505,321.5503,515.4032,316.5022,508.1,323.11" style="stroke:#A80036;stroke-width:1.0;"/><!--MD5=[f0201ca297c8b69a9f1897cc63f1bc60]
link NLP1 to E8--><path d="M866.6,236.95 C889.22,261.94 923.97,300.34 945.13,323.72 " fill="none" id="NLP1-to-E8" style="stroke:#A80036;stroke-width:1.0;"/><polygon fill="#A80036" points="948.66,327.62,945.5747,318.2669,945.3002,323.9171,939.65,323.6426,948.66,327.62" style="stroke:#A80036;stroke-width:1.0;"/><!--MD5=[dd93fb7e3510d94db403163a4238a125]
link NLP1 to WNLP1--><path d="M822.4,236.95 C802.83,258.57 774.18,290.23 753.11,313.51 " fill="none" id="NLP1-to-WNLP1" style="stroke:#A80036;stroke-width:1.0;"/><polygon fill="#A80036" points="749.53,317.47,758.54,313.4926,752.8898,313.7671,752.6153,308.1169,749.53,317.47" style="stroke:#A80036;stroke-width:1.0;"/><!--MD5=[9a28fbace0d5462c76e257df50bfc7b4]
link NLP2 to WNLP2--><path d="M396.64,368.87 C352.73,389.83 287.47,420.99 239.77,443.77 " fill="none" id="NLP2-to-WNLP2" style="stroke:#A80036;stroke-width:1.0;"/><polygon fill="#A80036" points="235.21,445.94,245.0551,445.6687,239.7214,443.7842,241.6059,438.4505,235.21,445.94" style="stroke:#A80036;stroke-width:1.0;"/><!--MD5=[6c2af2b37ba5cbbda9f3b5554250d0a0]
link NLP2 to WNLP3--><path d="M447.27,371.11 C449.64,392.66 453.06,423.66 455.5,445.81 " fill="none" id="NLP2-to-WNLP3" style="stroke:#A80036;stroke-width:1.0;"/><polygon fill="#A80036" points="456.07,450.95,459.0694,441.569,455.5272,445.9795,451.1167,442.4374,456.07,450.95" style="stroke:#A80036;stroke-width:1.0;"/><!--MD5=[f2de0fe17b5c7f5433789fbfa9a9e16d]
link WNLP1 to A7--><path d="M728.07,373.26 C730.03,393.96 732.72,422.38 734.72,443.59 " fill="none" id="WNLP1-to-A7" style="stroke:#A80036;stroke-width:1.0;"/><polygon fill="#A80036" points="735.21,448.82,738.345,439.4834,734.7393,443.8422,730.3805,440.2365,735.21,448.82" style="stroke:#A80036;stroke-width:1.0;"/><!--MD5=[e620ffb9cb85286360d590b25b86e7b8]
link WNLP1 to WNLP2--><path d="M640.98,366.07 C620.84,370.83 599.41,375.87 579.5,380.52 C476.87,404.48 359.37,431.54 278.22,450.17 " fill="none" id="WNLP1-to-WNLP2" style="stroke:#A80036;stroke-width:1.0;"/><polygon fill="#A80036" points="272.92,451.39,282.5841,453.2886,277.7948,450.2782,280.8052,445.4889,272.92,451.39" style="stroke:#A80036;stroke-width:1.0;"/><!--MD5=[90712493368d1b7f230313371793c7cc]
link WNLP1 to WNLP3--><path d="M673.7,370.66 C625.03,393.81 552.8,428.16 505.69,450.57 " fill="none" id="WNLP1-to-WNLP3" style="stroke:#A80036;stroke-width:1.0;"/><polygon fill="#A80036" points="500.92,452.84,510.7658,452.5941,505.4369,450.6959,507.3352,445.367,500.92,452.84" style="stroke:#A80036;stroke-width:1.0;"/><!--MD5=[8bdd5de839b15eeca8671987e01544d3]
link WNLP2 to A8--><path d="M173.52,504.64 C170.33,523.65 166.18,548.32 162.91,567.82 " fill="none" id="WNLP2-to-A8" style="stroke:#A80036;stroke-width:1.0;"/><polygon fill="#A80036" points="162.01,573.17,167.4429,564.9551,162.8366,568.2388,159.553,563.6326,162.01,573.17" style="stroke:#A80036;stroke-width:1.0;"/><!--MD5=[63394466f497b96d70d17ea2bdfa83e1]
link WNLP3 to A9--><path d="M456.21,497.08 C454.15,516.81 451.12,545.95 448.81,568.2 " fill="none" id="WNLP3-to-A9" style="stroke:#A80036;stroke-width:1.0;"/><polygon fill="#A80036" points="448.27,573.41,453.1724,564.8679,448.783,568.4364,445.2146,564.0471,448.27,573.41" style="stroke:#A80036;stroke-width:1.0;"/><!--MD5=[fa2f6f26d228afad458873fe66bb97ea]
link TAB1 to TAB2--><path d="M2901.3,246.73 C2881.36,265.07 2856.75,287.7 2836.28,306.52 " fill="none" id="TAB1-to-TAB2" style="stroke:#A80036;stroke-width:1.0;"/><polygon fill="#A80036" points="2832.51,309.98,2841.844,306.8373,2836.1922,306.5975,2836.432,300.9457,2832.51,309.98" style="stroke:#A80036;stroke-width:1.0;"/><!--MD5=[e26e2c716b1aa805a9002921cb359c4a]
link TAB1 to TAB3--><path d="M2975.96,246.73 C3002.11,270.61 3036.23,301.77 3058.73,322.31 " fill="none" id="TAB1-to-TAB3" style="stroke:#A80036;stroke-width:1.0;"/><polygon fill="#A80036" points="3062.51,325.77,3058.5516,316.7516,3058.8142,322.4024,3053.1634,322.6649,3062.51,325.77" style="stroke:#A80036;stroke-width:1.0;"/><!--MD5=[b6de3fdbc903fd109d0f8413f109345b]
link TAB1 to TAB4--><path d="M3017.51,243.35 C3086.25,270.17 3182.98,307.92 3236.33,328.74 " fill="none" id="TAB1-to-TAB4" style="stroke:#A80036;stroke-width:1.0;"/><polygon fill="#A80036" points="3241.04,330.57,3234.1059,323.5759,3236.3811,328.755,3231.2019,331.0302,3241.04,330.57" style="stroke:#A80036;stroke-width:1.0;"/><!--MD5=[67561a667a19d38e47766fd98595faff]
link TAB2 to WTAB1--><path d="M2858.01,377.9 C2899.26,398.94 2952.71,426.2 2991.8,446.14 " fill="none" id="TAB2-to-WTAB1" style="stroke:#A80036;stroke-width:1.0;"/><polygon fill="#A80036" points="2996.5,448.54,2990.3074,440.8816,2992.0481,446.2639,2986.6657,448.0046,2996.5,448.54" style="stroke:#A80036;stroke-width:1.0;"/><!--MD5=[3b9ba92ce39911ac4777f67cef0c9505]
link WTAB1 to A12--><path d="M3044.5,501.53 C3044.5,520.42 3044.5,545.98 3044.5,566.32 " fill="none" id="WTAB1-to-A12" style="stroke:#A80036;stroke-width:1.0;"/><polygon fill="#A80036" points="3044.5,571.37,3048.5,562.37,3044.5,566.37,3040.5,562.37,3044.5,571.37" style="stroke:#A80036;stroke-width:1.0;"/><!--MD5=[5af2a8e7dfbd267dbe144d25cf4cba2a]
link TS1 to TS2--><path d="M1891.51,249.73 C1885.5,309 1881.69,426.44 1931.5,507.52 C1948.57,535.3 1977.48,556.53 2004.52,571.6 " fill="none" id="TS1-to-TS2" style="stroke:#A80036;stroke-width:1.0;"/><polygon fill="#A80036" points="2009.19,574.15,2003.2151,566.3206,2004.8038,571.7497,1999.3746,573.3385,2009.19,574.15" style="stroke:#A80036;stroke-width:1.0;"/><!--MD5=[56a3ca566ae32581657e125a21c6c951]
link TS2 to WTS1--><path d="M2031.88,629.9 C2003.71,650.23 1965.51,677.81 1936.23,698.95 " fill="none" id="TS2-to-WTS1" style="stroke:#A80036;stroke-width:1.0;"/><polygon fill="#A80036" points="1931.97,702.03,1941.6086,700.0058,1936.0241,699.1036,1936.9263,693.5191,1931.97,702.03" style="stroke:#A80036;stroke-width:1.0;"/><!--MD5=[90bf99e37d19962d0b51aa1628ace8a6]
link TS2 to WTS3--><path d="M2156.24,624.55 C2237.15,645.81 2358.95,677.82 2447.51,701.09 " fill="none" id="TS2-to-WTS3" style="stroke:#A80036;stroke-width:1.0;"/><polygon fill="#A80036" points="2452.49,702.4,2444.8052,696.2401,2447.6548,701.1268,2442.7681,703.9764,2452.49,702.4" style="stroke:#A80036;stroke-width:1.0;"/><!--MD5=[816a138a40635f2818cdf88d09f9b784]
link WTS1 to A13--><path d="M1892.5,762.22 C1892.5,780.56 1892.5,804.13 1892.5,823.11 " fill="none" id="WTS1-to-A13" style="stroke:#A80036;stroke-width:1.0;"/><polygon fill="#A80036" points="1892.5,828.34,1896.5,819.34,1892.5,823.34,1888.5,819.34,1892.5,828.34" style="stroke:#A80036;stroke-width:1.0;"/><!--MD5=[7387ce1c84f82ca02c626ee44ba68b23]
link WTS2 to A14--><path d="M2209.5,762.54 C2209.5,783.2 2209.5,810.38 2209.5,830.2 " fill="none" id="WTS2-to-A14" style="stroke:#A80036;stroke-width:1.0;"/><polygon fill="#A80036" points="2209.5,835.32,2213.5,826.32,2209.5,830.32,2205.5,826.32,2209.5,835.32" style="stroke:#A80036;stroke-width:1.0;"/><!--MD5=[ea4f476c2773c6d4dc87989d3eae1b42]
link WTS3 to A15--><path d="M2559.5,768.72 C2559.5,789.19 2559.5,814.23 2559.5,832.32 " fill="none" id="WTS3-to-A15" style="stroke:#A80036;stroke-width:1.0;"/><polygon fill="#A80036" points="2559.5,837.7,2563.5,828.7,2559.5,832.7,2555.5,828.7,2559.5,837.7" style="stroke:#A80036;stroke-width:1.0;"/><!--MD5=[61eb44586212e09289c50c512bad41ef]
link TS2 to WTS2--><path d="M2101.35,630.54 C2122.82,650.39 2151.51,676.91 2173.95,697.65 " fill="none" id="TS2-to-WTS2" style="stroke:#A80036;stroke-width:1.0;"/><polygon fill="#A80036" points="2177.77,701.19,2173.8845,692.14,2174.1015,697.7927,2168.4488,698.0096,2177.77,701.19" style="stroke:#A80036;stroke-width:1.0;"/><!--MD5=[35e5f1cbde42fa304a029880aa2bc7f2]
link E9 to E10--><path d="M2238.34,363.15 C2206.04,384.29 2150.69,420.52 2112.44,445.57 " fill="none" id="E9-to-E10" style="stroke:#A80036;stroke-width:1.0;"/><polygon fill="#A80036" points="2107.86,448.56,2117.5839,446.9961,2112.0486,445.8295,2113.2151,440.2943,2107.86,448.56" style="stroke:#A80036;stroke-width:1.0;"/><!--MD5=[526783dfcde15884571727dc3bbf2987]
link E9 to E11--><path d="M2208.18,358.84 C2113.3,380.43 1920.48,424.32 1803.47,450.95 " fill="none" id="E9-to-E11" style="stroke:#A80036;stroke-width:1.0;"/><polygon fill="#A80036" points="1798.3,452.13,1807.9653,454.0225,1803.1741,451.0151,1806.1815,446.2239,1798.3,452.13" style="stroke:#A80036;stroke-width:1.0;"/><!--MD5=[01e7fb777ede19d6dea0886c93193d5b]
link E9 to E12--><path d="M2271.09,364.22 C2279.29,386.85 2293.29,425.51 2302.21,450.13 " fill="none" id="E9-to-E12" style="stroke:#A80036;stroke-width:1.0;"/><polygon fill="#A80036" points="2303.92,454.86,2304.6203,445.0361,2302.2193,450.1581,2297.0973,447.7572,2303.92,454.86" style="stroke:#A80036;stroke-width:1.0;"/><!--MD5=[376cfa6451bccd7a32491f6934dd85b8]
link E9 to E13--><path d="M2300.6,362.1 C2349.11,383.72 2435.85,422.38 2493.04,447.86 " fill="none" id="E9-to-E13" style="stroke:#A80036;stroke-width:1.0;"/><polygon fill="#A80036" points="2497.79,449.98,2491.2136,442.6485,2493.2275,447.9347,2487.9412,449.9485,2497.79,449.98" style="stroke:#A80036;stroke-width:1.0;"/><!--MD5=[a1b670ebc151d08c00312062bddfc35e]
link E9 to E14--><path d="M2324.74,357.99 C2407.09,374.7 2559.24,406.77 2687.5,440.52 C2702.09,444.36 2717.68,448.86 2732.33,453.27 " fill="none" id="E9-to-E14" style="stroke:#A80036;stroke-width:1.0;"/><polygon fill="#A80036" points="2737.25,454.77,2729.7877,448.3423,2732.4628,453.3267,2727.4785,456.0018,2737.25,454.77" style="stroke:#A80036;stroke-width:1.0;"/><!--MD5=[c55ba674f67c85206cb455db9f745de7]
link E10 to TS2--><path d="M2070.5,500.62 C2070.5,519.45 2070.5,545.25 2070.5,565.84 " fill="none" id="E10-to-TS2" style="stroke:#A80036;stroke-width:1.0;"/><polygon fill="#A80036" points="2070.5,570.96,2074.5,561.96,2070.5,565.96,2066.5,561.96,2070.5,570.96" style="stroke:#A80036;stroke-width:1.0;"/><!--MD5=[313c173b8556f265fdc1220f47bb1c63]
link E11 to WCV2--><path d="M1707.88,503.7 C1708.73,521.49 1709.84,544.51 1710.75,563.58 " fill="none" id="E11-to-WCV2" style="stroke:#A80036;stroke-width:1.0;"/><polygon fill="#A80036" points="1711,568.85,1714.5574,559.666,1710.7567,563.8559,1706.5669,560.0553,1711,568.85" style="stroke:#A80036;stroke-width:1.0;"/><!--MD5=[0f2435f98601becdcbcb19efae9347aa]
link E: Event to W: Workshop--><!--MD5=[c7e01f4319e1858fb7eabf2731f6e35b]
link W: Workshop to M: Math--><!--MD5=[41d9513d6a270d3d1ab707bb5fb29dff]
link E: Event to A: Assignment--><!--MD5=[7a9b2ecb8bcc53ccdfc9a5ad337eaf47]
link A: Assignment to Required--><!--MD5=[a9f007f9487967e577345f66b8e0e46c]
link Required to Optional--><!--MD5=[2eaf5bca34852a51198fc80c27d99aec]
@startuml "MLReady"

skinparam usecase {
BackgroundColor transparent
shadowing false
}

(E: Event)
(W: Workshop) #line:red;text:red
(M: Math) #line:darkorange;text:darkorange
(A: Assignment) #line:MidnightBlue;text:MidnightBlue
(Required)/
(Optional)

(MLReady) as ML


(NLP1: Intro to NLP)/ as NLP1 <<Taha bouhsine>>
(NLP2: Word Embeddings)/ as NLP2 <<Taha bouhsine>>
(WNLP1: Text Preparation with TF)/ as WNLP1 #line:red;text:red
(WNLP2: Sentimental Analysis with TF)/ as WNLP2 #line:red;text:red
(WNLP3: Seq2Seq with TF)/ as WNLP3 #line:red;text:red

(A7: Text Preparation with TF)/ as A7 #line:MidnightBlue;text:MidnightBlue
note bottom [[http://GDSCUIZ.github.io]]
Text Preparation of IMDB Dataset with TF
end note

(A8: Sentimental Analysis with TF)/ as A8 #line:MidnightBlue;text:MidnightBlue
note bottom [[http://GDSCUIZ.github.io]]
Sentimental Analysis with TF Twitter Dataset
end note

(A9: Sentimental Analysis with TF)/ as A9 #line:MidnightBlue;text:MidnightBlue
note bottom [[http://GDSCUIZ.github.io]]
Seq2Seq translation with TF
end note


(CV1: Intro to Computer Vision)/ as CV1 <<Noura Bentaher>>
(CV2: Intro to Image Processing)/ as CV2 <<Noura Bentaher>>
(CV3: Feature Extraction Methods) as CV3 <<Souad Saidi>>
(WCV1: Image Classifiation with TF Dense)/ as WCV1 #line:red;text:red 
(WCV2: CNN Image Classifiation with TF)/ as WCV2 <<Yassine ELjakani>> #line:red;text:red 
(WCV3: Image Data Augmentation with TF)/ as WCV3 <<Yassine ELjakani>> #line:red;text:red

(A10: Image Classification with TF)/ as A10 #line:MidnightBlue;text:MidnightBlue
note bottom [[http://GDSCUIZ.github.io]]
DNN on MNIST Handwritten Digits
end note

(A11: CNN Image Classification with TF)/ as A11 #line:MidnightBlue;text:MidnightBlue
note bottom [[http://GDSCUIZ.github.io]]
CNN on Fashion MNIST
end note



(TAB1: Feature Engineering with Tabular Data)/ as TAB1 
(TAB2: Advanced EDA and Data Visualization)/ as TAB2 <<souad saidi>>
(TAB3: Intro to D3.js) as TAB3
(TAB4: TabNet) as TAB4 
(WTAB1: EDA on Kaggle Dataset)/ as WTAB1 #line:red;text:red


(A12: EDA and Feature Engineering)/ as A12 #line:MidnightBlue;text:MidnightBlue
note bottom [[http://GDSCUIZ.github.io]]
EDA on Dataset
end note



(TS1: Intro to Signal Processing and Time Series)/ as TS1
(TS2: Deep Learning on Time Series)/ as TS2
(WTS1: Time Series Data Preparation)/ as WTS1 #line:red;text:red
(WTS2: Time Series Focasting with TF)/ as WTS2 #line:red;text:red
(WTS3: Time Series Anomaly Detection with TF)/ as WTS3 #line:red;text:red

(A13: Time Series Data Preparation)/ as A13 #line:MidnightBlue;text:MidnightBlue
note bottom [[http://GDSCUIZ.github.io]]
Time Series Data Preparation on Stock Market
end note

(A14: Forcasting with TF)/ as A14 #line:MidnightBlue;text:MidnightBlue
note bottom [[http://GDSCUIZ.github.io]]
Stock Market Forcasting
end note

(A15: Time Series A)/ as A15 #line:MidnightBlue;text:MidnightBlue
note bottom [[http://GDSCUIZ.github.io]]
Anomaly Detection 
end note





(E8: Text Mining) as E8 
(E9: Beyond DNNs)/ as E9
(E10: Recurent Neural Netowrk)/ as E10
(E11: Convolutional Neural Network)/ as E11 <<Yassine ELjakani>>
(E12: Transformers) as E12
(E13: AutoEncoders) as E13 <<Ayoub bouihrouchane>>
(E14: GAN) as E14 <<Noura Bentaher>>

(E15: TensorBoard)/ as E15 <<Chaïma Elmejgari>>
(E16: TF Datasets)/ as E16 <<Chaïma Elmejgari>>

ML - -> NLP1
ML - -> TAB1
ML - -> TS1
ML - -> CV1
ML -> E16
ML -> E15
ML - - -> E9


CV1 - -> CV2
CV1 - -> E11
CV1 - -> WCV1


CV2 - -> CV3
CV2 - -> WCV2

WCV3 - -> A10
WCV1 - -> WCV3

WCV2 - -> A11

NLP1 - -> NLP2
NLP1 - -> E8
NLP1 - -> WNLP1

NLP2 - -> WNLP2
NLP2 - -> WNLP3

WNLP1 - -> A7
WNLP1 - -> WNLP2
WNLP1 - -> WNLP3

WNLP2 - -> A8
WNLP3 - -> A9

TAB1 - -> TAB2
TAB1 - -> TAB3
TAB1 - -> TAB4
TAB2 - -> WTAB1

WTAB1 - -> A12


TS1 - -> TS2

TS2 - -> WTS1
TS2 - -> WTS3

WTS1 - -> A13
WTS2 - -> A14
WTS3 - -> A15

TS2 - -> WTS2

E9 - -> E10
E9 - -> E11
E9 - -> E12
E9 - -> E13
E9 - -> E14

E10 - -> TS2

E11 - -> WCV2

@enduml

PlantUML version 1.2022.0(Tue Jan 11 17:16:42 WEST 2022)
(GPL source distribution)
Java Runtime: OpenJDK Runtime Environment
JVM: OpenJDK 64-Bit Server VM
Default Encoding: UTF-8
Language: en
Country: US
--></g></svg>