<?xml version="1.0" encoding="UTF-8" standalone="no"?><svg xmlns="http://www.w3.org/2000/svg" xmlns:xlink="http://www.w3.org/1999/xlink" contentScriptType="application/ecmascript" contentStyleType="text/css" height="959px" preserveAspectRatio="none" style="width:3550px;height:959px;background:#FFFFFF;" version="1.1" viewBox="0 0 3550 959" width="3550px" zoomAndPan="magnify"><defs><filter height="300%" id="f1fb67ka64nfmf" width="300%" x="-1" y="-1"><feGaussianBlur result="blurOut" stdDeviation="2.0"/><feColorMatrix in="blurOut" result="blurOut2" type="matrix" values="0 0 0 0 0 0 0 0 0 0 0 0 0 0 0 0 0 0 .4 0"/><feOffset dx="4.0" dy="4.0" in="blurOut2" result="blurOut3"/><feBlend in="SourceGraphic" in2="blurOut3" mode="normal"/></filter></defs><g><ellipse cx="3180.6007" cy="74.045" rx="52.6007" ry="14.715" style="stroke:#A80036;stroke-width:1.5;fill:none;"/><text fill="#000000" font-family="sans-serif" font-size="14" lengthAdjust="spacing" textLength="57" x="3149.1007" y="77.7926">E: Event</text><ellipse cx="3337.6952" cy="73.669" rx="69.6952" ry="16.339" style="stroke:#FF0000;stroke-width:1.5;fill:none;"/><text fill="#FF0000" font-family="sans-serif" font-size="14" lengthAdjust="spacing" textLength="92" x="3288.6952" y="77.4166">W: Workshop</text><ellipse cx="3493.6079" cy="74.0316" rx="51.1079" ry="14.7016" style="stroke:#FF8C00;stroke-width:1.5;fill:none;"/><text fill="#FF8C00" font-family="sans-serif" font-size="14" lengthAdjust="spacing" textLength="55" x="3463.1079" y="77.7792">M: Math</text><ellipse cx="3180.6868" cy="190.7674" rx="72.6868" ry="16.9374" style="stroke:#191970;stroke-width:1.5;fill:none;"/><text fill="#191970" font-family="sans-serif" font-size="14" lengthAdjust="spacing" textLength="100" x="3127.6868" y="194.5149">A: Assignment</text><ellipse cx="3345.5799" cy="190.5811" rx="57.0799" ry="14.7511" style="stroke:#A80036;stroke-width:1.5;fill:none;"/><text fill="#000000" font-family="sans-serif" font-size="14" lengthAdjust="spacing" textLength="63" x="3311.0799" y="194.3287">Required</text><line style="stroke:#A80036;stroke-width:1.5;" x1="3398.1103" x2="3382.0975" y1="185.4389" y2="201.4517"/><ellipse cx="3490.6007" cy="191.045" rx="52.6007" ry="14.715" style="stroke:#A80036;stroke-width:1.5;fill:none;"/><text fill="#000000" font-family="sans-serif" font-size="14" lengthAdjust="spacing" textLength="57" x="3459.1007" y="194.7926">Optional</text><ellipse cx="1896.6224" cy="74.0023" rx="48.1224" ry="14.6723" style="stroke:#A80036;stroke-width:1.5;fill:none;"/><text fill="#000000" font-family="sans-serif" font-size="14" lengthAdjust="spacing" textLength="51" x="1868.1224" y="77.7498">MLStart</text><ellipse cx="872.5927" cy="190.9094" rx="98.5927" ry="26.0794" style="stroke:#A80036;stroke-width:1.5;fill:none;"/><text fill="#000000" font-family="sans-serif" font-size="14" font-style="italic" lengthAdjust="spacing" textLength="120" x="808.8427" y="186.5086">«Taha bouhsine»</text><text fill="#000000" font-family="sans-serif" font-size="14" lengthAdjust="spacing" textLength="123" x="807.3427" y="202.8054">NLP1: Intro to NLP</text><line style="stroke:#A80036;stroke-width:1.5;" x1="963.3272" x2="934.8252" y1="181.8182" y2="210.3201"/><ellipse cx="451.7224" cy="324.3745" rx="118.2224" ry="26.0445" style="stroke:#A80036;stroke-width:1.5;fill:none;"/><text fill="#000000" font-family="sans-serif" font-size="14" font-style="italic" lengthAdjust="spacing" textLength="120" x="384.9789" y="318.3868">«Taha bouhsine»</text><text fill="#000000" font-family="sans-serif" font-size="14" lengthAdjust="spacing" textLength="171" x="359.4789" y="334.6837">NLP2: Word Embeddings</text><line style="stroke:#A80036;stroke-width:1.5;" x1="560.5219" x2="533.5197" y1="315.2954" y2="342.2976"/><ellipse cx="732.3631" cy="324.2026" rx="127.3631" ry="27.8726" style="stroke:#FF0000;stroke-width:1.5;fill:none;"/><text fill="#FF0000" font-family="sans-serif" font-size="14" lengthAdjust="spacing" textLength="223" x="620.8631" y="327.0493">WNLP1: Text Preparation with TF</text><line style="stroke:#FF0000;stroke-width:1.5;" x1="849.5748" x2="820.7317" y1="314.4862" y2="343.3293"/><ellipse cx="190.6669" cy="453.3634" rx="140.6669" ry="30.5334" style="stroke:#FF0000;stroke-width:1.5;fill:none;"/><text fill="#FF0000" font-family="sans-serif" font-size="14" lengthAdjust="spacing" textLength="251" x="65.1669" y="456.2101">WNLP2: Sentimental Analysis with TF</text><line style="stroke:#FF0000;stroke-width:1.5;" x1="320.122" x2="288.5988" y1="442.7194" y2="474.2427"/><ellipse cx="470.5751" cy="453.545" rx="104.0751" ry="23.215" style="stroke:#FF0000;stroke-width:1.5;fill:none;"/><text fill="#FF0000" font-family="sans-serif" font-size="14" lengthAdjust="spacing" textLength="173" x="384.0751" y="456.3917">WNLP3: Seq2Seq with TF</text><line style="stroke:#FF0000;stroke-width:1.5;" x1="566.355" x2="542.2008" y1="445.4523" y2="469.6065"/><ellipse cx="742.3004" cy="453.3901" rx="113.3004" ry="25.0601" style="stroke:#191970;stroke-width:1.5;fill:none;"/><text fill="#191970" font-family="sans-serif" font-size="14" lengthAdjust="spacing" textLength="193" x="645.8004" y="456.2368">A7: Text Preparation with TF</text><line style="stroke:#191970;stroke-width:1.5;" x1="846.5702" x2="820.5591" y1="444.6541" y2="470.6653"/><a href="http://GDSCUIZ.github.io" target="_top" title="http://GDSCUIZ.github.io" xlink:actuate="onRequest" xlink:href="http://GDSCUIZ.github.io" xlink:show="new" xlink:title="http://GDSCUIZ.github.io" xlink:type="simple"><path d="M607,567.83 L607,592.9628 A0,0 0 0 0 607,592.9628 L888,592.9628 A0,0 0 0 0 888,592.9628 L888,577.83 L878,567.83 L751.04,567.83 L743.46,478.43 L743.04,567.83 L607,567.83 A0,0 0 0 0 607,567.83 " fill="#FBFB77" filter="url(#f1fb67ka64nfmf)" style="stroke:#A80036;stroke-width:1.0;"/><path d="M878,567.83 L878,577.83 L888,577.83 L878,567.83 " fill="#FBFB77" style="stroke:#A80036;stroke-width:1.0;"/><text fill="#000000" font-family="sans-serif" font-size="13" lengthAdjust="spacing" textLength="260" x="613" y="584.8969">Text Preparation of IMDB Dataset with TF</text></a><ellipse cx="157.4187" cy="580.5137" rx="126.4187" ry="27.6837" style="stroke:#191970;stroke-width:1.5;fill:none;"/><text fill="#191970" font-family="sans-serif" font-size="14" lengthAdjust="spacing" textLength="221" x="46.9187" y="583.3604">A8: Sentimental Analysis with TF</text><line style="stroke:#191970;stroke-width:1.5;" x1="273.7613" x2="245.1084" y1="570.8632" y2="599.5161"/><a href="http://GDSCUIZ.github.io" target="_top" title="http://GDSCUIZ.github.io" xlink:actuate="onRequest" xlink:href="http://GDSCUIZ.github.io" xlink:show="new" xlink:title="http://GDSCUIZ.github.io" xlink:type="simple"><path d="M6,698.33 L6,723.4628 A0,0 0 0 0 6,723.4628 L309,723.4628 A0,0 0 0 0 309,723.4628 L309,708.33 L299,698.33 L161.5,698.33 L157.5,607.96 L153.5,698.33 L6,698.33 A0,0 0 0 0 6,698.33 " fill="#FBFB77" filter="url(#f1fb67ka64nfmf)" style="stroke:#A80036;stroke-width:1.0;"/><path d="M299,698.33 L299,708.33 L309,708.33 L299,698.33 " fill="#FBFB77" style="stroke:#A80036;stroke-width:1.0;"/><text fill="#000000" font-family="sans-serif" font-size="13" lengthAdjust="spacing" textLength="282" x="12" y="715.3969">Sentimental Analysis with TF Twitter Dataset</text></a><ellipse cx="445.4187" cy="580.5137" rx="126.4187" ry="27.6837" style="stroke:#191970;stroke-width:1.5;fill:none;"/><text fill="#191970" font-family="sans-serif" font-size="14" lengthAdjust="spacing" textLength="221" x="334.9187" y="583.3604">A9: Sentimental Analysis with TF</text><line style="stroke:#191970;stroke-width:1.5;" x1="561.7613" x2="533.1084" y1="570.8632" y2="599.5161"/><a href="http://GDSCUIZ.github.io" target="_top" title="http://GDSCUIZ.github.io" xlink:actuate="onRequest" xlink:href="http://GDSCUIZ.github.io" xlink:show="new" xlink:title="http://GDSCUIZ.github.io" xlink:type="simple"><path d="M346.5,698.33 L346.5,723.4628 A0,0 0 0 0 346.5,723.4628 L544.5,723.4628 A0,0 0 0 0 544.5,723.4628 L544.5,708.33 L534.5,698.33 L449.5,698.33 L445.5,607.96 L441.5,698.33 L346.5,698.33 A0,0 0 0 0 346.5,698.33 " fill="#FBFB77" filter="url(#f1fb67ka64nfmf)" style="stroke:#A80036;stroke-width:1.0;"/><path d="M534.5,698.33 L534.5,708.33 L544.5,708.33 L534.5,698.33 " fill="#FBFB77" style="stroke:#A80036;stroke-width:1.0;"/><text fill="#000000" font-family="sans-serif" font-size="13" lengthAdjust="spacing" textLength="177" x="352.5" y="715.3969">Seq2Seq translation with TF</text></a><ellipse cx="1470.2537" cy="324.0807" rx="126.7537" ry="27.7507" style="stroke:#A80036;stroke-width:1.5;fill:none;"/><text fill="#000000" font-family="sans-serif" font-size="14" font-style="italic" lengthAdjust="spacing" textLength="128" x="1400.4531" y="316.4396">«Noura Bentaher»</text><text fill="#000000" font-family="sans-serif" font-size="14" lengthAdjust="spacing" textLength="204" x="1362.4531" y="332.7364">CV1: Intro to Computer Vision</text><line style="stroke:#A80036;stroke-width:1.5;" x1="1586.9046" x2="1558.1842" y1="314.4068" y2="343.1272"/><ellipse cx="1405.5918" cy="453.5484" rx="129.0918" ry="28.2184" style="stroke:#A80036;stroke-width:1.5;fill:none;"/><text fill="#000000" font-family="sans-serif" font-size="14" font-style="italic" lengthAdjust="spacing" textLength="128" x="1336.0288" y="445.3118">«Noura Bentaher»</text><text fill="#000000" font-family="sans-serif" font-size="14" lengthAdjust="spacing" textLength="213" x="1293.5288" y="461.6087">CV2: Intro to Image Processing</text><line style="stroke:#A80036;stroke-width:1.5;" x1="1524.3944" x2="1495.2031" y1="443.7114" y2="472.9028"/><ellipse cx="1399.6129" cy="580.3526" rx="130.6129" ry="28.5226" style="stroke:#A80036;stroke-width:1.5;fill:none;"/><text fill="#000000" font-family="sans-serif" font-size="14" font-style="italic" lengthAdjust="spacing" textLength="98" x="1345.6081" y="570.025">«Souad Saidi»</text><text fill="#000000" font-family="sans-serif" font-size="14" lengthAdjust="spacing" textLength="227" x="1281.1081" y="586.3219">CV3: Feature Extraction Methods</text><ellipse cx="1082.5781" cy="453.1456" rx="154.5781" ry="33.3156" style="stroke:#FF0000;stroke-width:1.5;fill:none;"/><text fill="#FF0000" font-family="sans-serif" font-size="14" lengthAdjust="spacing" textLength="280" x="942.5781" y="455.9923">WCV1: Image Classifiation with TF Dense</text><line style="stroke:#FF0000;stroke-width:1.5;" x1="1224.8357" x2="1190.5091" y1="441.5318" y2="475.8584"/><ellipse cx="1712.4302" cy="580.116" rx="146.9302" ry="31.786" style="stroke:#FF0000;stroke-width:1.5;fill:none;"/><text fill="#FF0000" font-family="sans-serif" font-size="14" font-style="italic" lengthAdjust="spacing" textLength="130" x="1646.4503" y="567.3297">«Yassine ELjakani»</text><text fill="#FF0000" font-family="sans-serif" font-size="14" lengthAdjust="spacing" textLength="264" x="1579.4503" y="583.6266">WCV2: CNN Image Classifiation with TF</text><line style="stroke:#FF0000;stroke-width:1.5;" x1="1847.6494" x2="1814.8641" y1="569.0354" y2="601.8208"/><ellipse cx="1078.5416" cy="580.3383" rx="155.5416" ry="33.5083" style="stroke:#FF0000;stroke-width:1.5;fill:none;"/><text fill="#FF0000" font-family="sans-serif" font-size="14" font-style="italic" lengthAdjust="spacing" textLength="130" x="1013.5416" y="566.8881">«Yassine ELjakani»</text><text fill="#FF0000" font-family="sans-serif" font-size="14" lengthAdjust="spacing" textLength="282" x="937.5416" y="583.185">WCV3: Image Data Augmentation with TF</text><line style="stroke:#FF0000;stroke-width:1.5;" x1="1221.6858" x2="1187.165" y1="568.6573" y2="603.1781"/><ellipse cx="1078.3356" cy="710.7971" rx="127.8356" ry="27.9671" style="stroke:#191970;stroke-width:1.5;fill:none;"/><text fill="#191970" font-family="sans-serif" font-size="14" lengthAdjust="spacing" textLength="224" x="966.3356" y="713.6438">A10: Image Classification with TF</text><line style="stroke:#191970;stroke-width:1.5;" x1="1195.9821" x2="1167.0439" y1="701.0478" y2="729.9861"/><a href="http://GDSCUIZ.github.io" target="_top" title="http://GDSCUIZ.github.io" xlink:actuate="onRequest" xlink:href="http://GDSCUIZ.github.io" xlink:show="new" xlink:title="http://GDSCUIZ.github.io" xlink:type="simple"><path d="M960.5,824.33 L960.5,849.4628 A0,0 0 0 0 960.5,849.4628 L1196.5,849.4628 A0,0 0 0 0 1196.5,849.4628 L1196.5,834.33 L1186.5,824.33 L1082.5,824.33 L1078.5,739.04 L1074.5,824.33 L960.5,824.33 A0,0 0 0 0 960.5,824.33 " fill="#FBFB77" filter="url(#f1fb67ka64nfmf)" style="stroke:#A80036;stroke-width:1.0;"/><path d="M1186.5,824.33 L1186.5,834.33 L1196.5,834.33 L1186.5,824.33 " fill="#FBFB77" style="stroke:#A80036;stroke-width:1.0;"/><text fill="#000000" font-family="sans-serif" font-size="13" lengthAdjust="spacing" textLength="215" x="966.5" y="841.3969">DNN on MNIST Handwritten Digits</text></a><ellipse cx="1573.5139" cy="711.0328" rx="144.0139" ry="31.2028" style="stroke:#191970;stroke-width:1.5;fill:none;"/><text fill="#191970" font-family="sans-serif" font-size="14" lengthAdjust="spacing" textLength="258" x="1444.5139" y="713.8795">A11: CNN Image Classification with TF</text><line style="stroke:#191970;stroke-width:1.5;" x1="1706.0493" x2="1673.8516" y1="700.1555" y2="732.3532"/><a href="http://GDSCUIZ.github.io" target="_top" title="http://GDSCUIZ.github.io" xlink:actuate="onRequest" xlink:href="http://GDSCUIZ.github.io" xlink:show="new" xlink:title="http://GDSCUIZ.github.io" xlink:type="simple"><path d="M1490,824.33 L1490,849.4628 A0,0 0 0 0 1490,849.4628 L1657,849.4628 A0,0 0 0 0 1657,849.4628 L1657,834.33 L1647,824.33 L1577.5,824.33 L1573.5,741.85 L1569.5,824.33 L1490,824.33 A0,0 0 0 0 1490,824.33 " fill="#FBFB77" filter="url(#f1fb67ka64nfmf)" style="stroke:#A80036;stroke-width:1.0;"/><path d="M1647,824.33 L1647,834.33 L1657,834.33 L1647,824.33 " fill="#FBFB77" style="stroke:#A80036;stroke-width:1.0;"/><text fill="#000000" font-family="sans-serif" font-size="13" lengthAdjust="spacing" textLength="146" x="1496" y="841.3969">CNN on Fashion MNIST</text></a><ellipse cx="2904.5904" cy="190.9481" rx="168.5904" ry="36.1181" style="stroke:#A80036;stroke-width:1.5;fill:none;"/><text fill="#000000" font-family="sans-serif" font-size="14" lengthAdjust="spacing" textLength="309" x="2750.0904" y="193.7948">TAB1: Feature Engineering with Tabular Data</text><line style="stroke:#A80036;stroke-width:1.5;" x1="3059.7434" x2="3022.5925" y1="178.3573" y2="215.5082"/><ellipse cx="2761.7003" cy="324.2701" rx="165.2003" ry="35.4401" style="stroke:#A80036;stroke-width:1.5;fill:none;"/><text fill="#000000" font-family="sans-serif" font-size="14" font-style="italic" lengthAdjust="spacing" textLength="94" x="2714.7003" y="310.8199">«souad saidi»</text><text fill="#000000" font-family="sans-serif" font-size="14" lengthAdjust="spacing" textLength="302" x="2610.7003" y="327.1167">TAB2: Advanced EDA and Data Visualization</text><line style="stroke:#A80036;stroke-width:1.5;" x1="2913.7334" x2="2877.2658" y1="311.9157" y2="348.3832"/><ellipse cx="3048.5998" cy="324.55" rx="86.5998" ry="19.72" style="stroke:#A80036;stroke-width:1.5;fill:none;"/><text fill="#000000" font-family="sans-serif" font-size="14" lengthAdjust="spacing" textLength="134" x="2981.5998" y="327.3966">TAB3: Intro to D3.js</text><ellipse cx="3241.6781" cy="324.4656" rx="71.1781" ry="16.6356" style="stroke:#A80036;stroke-width:1.5;fill:none;"/><text fill="#000000" font-family="sans-serif" font-size="14" lengthAdjust="spacing" textLength="96" x="3190.6781" y="328.2132">TAB4: TabNet</text><ellipse cx="2977.4752" cy="453.325" rx="125.4752" ry="27.495" style="stroke:#FF0000;stroke-width:1.5;fill:none;"/><text fill="#FF0000" font-family="sans-serif" font-size="14" lengthAdjust="spacing" textLength="219" x="2867.9752" y="456.1717">WTAB1: EDA on Kaggle Dataset</text><line style="stroke:#FF0000;stroke-width:1.5;" x1="3092.9495" x2="3064.4866" y1="443.7403" y2="472.2031"/><ellipse cx="2977.4476" cy="580.2195" rx="134.9476" ry="29.3895" style="stroke:#191970;stroke-width:1.5;fill:none;"/><text fill="#191970" font-family="sans-serif" font-size="14" lengthAdjust="spacing" textLength="239" x="2857.9476" y="583.0662">A12: EDA and Feature Engineering</text><line style="stroke:#191970;stroke-width:1.5;" x1="3101.6393" x2="3071.2684" y1="569.9743" y2="600.3453"/><a href="http://GDSCUIZ.github.io" target="_top" title="http://GDSCUIZ.github.io" xlink:actuate="onRequest" xlink:href="http://GDSCUIZ.github.io" xlink:show="new" xlink:title="http://GDSCUIZ.github.io" xlink:type="simple"><path d="M2916,698.33 L2916,723.4628 A0,0 0 0 0 2916,723.4628 L3039,723.4628 A0,0 0 0 0 3039,723.4628 L3039,708.33 L3029,698.33 L2981.5,698.33 L2977.5,609.85 L2973.5,698.33 L2916,698.33 A0,0 0 0 0 2916,698.33 " fill="#FBFB77" filter="url(#f1fb67ka64nfmf)" style="stroke:#A80036;stroke-width:1.0;"/><path d="M3029,698.33 L3029,708.33 L3039,708.33 L3029,698.33 " fill="#FBFB77" style="stroke:#A80036;stroke-width:1.0;"/><text fill="#000000" font-family="sans-serif" font-size="13" lengthAdjust="spacing" textLength="102" x="2922" y="715.3969">EDA on Dataset</text></a><ellipse cx="1896.3417" cy="190.5983" rx="176.8417" ry="37.7683" style="stroke:#A80036;stroke-width:1.5;fill:none;"/><text fill="#000000" font-family="sans-serif" font-size="14" lengthAdjust="spacing" textLength="326" x="1733.3417" y="193.445">TS1: Intro to Signal Processing and Time Series</text><line style="stroke:#A80036;stroke-width:1.5;" x1="2059.0883" x2="2020.274" y1="177.4323" y2="216.2466"/><ellipse cx="2070.3277" cy="580.1955" rx="137.3277" ry="29.8655" style="stroke:#A80036;stroke-width:1.5;fill:none;"/><text fill="#000000" font-family="sans-serif" font-size="14" lengthAdjust="spacing" textLength="244" x="1948.3277" y="583.0422">TS2: Deep Learning on Time Series</text><line style="stroke:#A80036;stroke-width:1.5;" x1="2196.7098" x2="2165.8593" y1="569.7844" y2="600.6349"/><ellipse cx="1892.712" cy="710.6724" rx="139.712" ry="30.3424" style="stroke:#FF0000;stroke-width:1.5;fill:none;"/><text fill="#FF0000" font-family="sans-serif" font-size="14" lengthAdjust="spacing" textLength="249" x="1768.212" y="713.5191">WTS1: Time Series Data Preparation</text><line style="stroke:#FF0000;stroke-width:1.5;" x1="2021.2884" x2="1989.9575" y1="700.095" y2="731.4259"/><ellipse cx="2209.6004" cy="710.6501" rx="142.1004" ry="30.8201" style="stroke:#FF0000;stroke-width:1.5;fill:none;"/><text fill="#FF0000" font-family="sans-serif" font-size="14" lengthAdjust="spacing" textLength="254" x="2082.6004" y="713.4968">WTS2: Time Series Focasting with TF</text><line style="stroke:#FF0000;stroke-width:1.5;" x1="2340.3748" x2="2308.5627" y1="699.9062" y2="731.7183"/><ellipse cx="2559.4703" cy="710.7241" rx="172.4703" ry="36.8941" style="stroke:#FF0000;stroke-width:1.5;fill:none;"/><text fill="#FF0000" font-family="sans-serif" font-size="14" lengthAdjust="spacing" textLength="317" x="2400.9703" y="713.5707">WTS3: Time Series Anomaly Detection with TF</text><line style="stroke:#FF0000;stroke-width:1.5;" x1="2718.1939" x2="2680.2609" y1="697.8628" y2="735.7958"/><ellipse cx="1892.5217" cy="836.9343" rx="133.5217" ry="29.1043" style="stroke:#191970;stroke-width:1.5;fill:none;"/><text fill="#191970" font-family="sans-serif" font-size="14" lengthAdjust="spacing" textLength="236" x="1774.5217" y="839.781">A13: Time Series Data Preparation</text><line style="stroke:#191970;stroke-width:1.5;" x1="2015.4012" x2="1985.3175" y1="826.7886" y2="856.8723"/><a href="http://GDSCUIZ.github.io" target="_top" title="http://GDSCUIZ.github.io" xlink:actuate="onRequest" xlink:href="http://GDSCUIZ.github.io" xlink:show="new" xlink:title="http://GDSCUIZ.github.io" xlink:type="simple"><path d="M1734,925.83 L1734,950.9628 A0,0 0 0 0 1734,950.9628 L2051,950.9628 A0,0 0 0 0 2051,950.9628 L2051,935.83 L2041,925.83 L1896.5,925.83 L1892.5,866.08 L1888.5,925.83 L1734,925.83 A0,0 0 0 0 1734,925.83 " fill="#FBFB77" filter="url(#f1fb67ka64nfmf)" style="stroke:#A80036;stroke-width:1.0;"/><path d="M2041,925.83 L2041,935.83 L2051,935.83 L2041,925.83 " fill="#FBFB77" style="stroke:#A80036;stroke-width:1.0;"/><text fill="#000000" font-family="sans-serif" font-size="13" lengthAdjust="spacing" textLength="296" x="1740" y="942.8969">Time Series Data Preparation on Stock Market</text></a><ellipse cx="2209.6147" cy="836.9529" rx="98.6147" ry="22.1229" style="stroke:#191970;stroke-width:1.5;fill:none;"/><text fill="#191970" font-family="sans-serif" font-size="14" lengthAdjust="spacing" textLength="161" x="2129.1147" y="839.7996">A14: Forcasting with TF</text><line style="stroke:#191970;stroke-width:1.5;" x1="2300.3694" x2="2277.314" y1="829.2409" y2="852.2963"/><a href="http://GDSCUIZ.github.io" target="_top" title="http://GDSCUIZ.github.io" xlink:actuate="onRequest" xlink:href="http://GDSCUIZ.github.io" xlink:show="new" xlink:title="http://GDSCUIZ.github.io" xlink:type="simple"><path d="M2122,925.83 L2122,950.9628 A0,0 0 0 0 2122,950.9628 L2297,950.9628 A0,0 0 0 0 2297,950.9628 L2297,935.83 L2287,925.83 L2213.5,925.83 L2209.5,858.93 L2205.5,925.83 L2122,925.83 A0,0 0 0 0 2122,925.83 " fill="#FBFB77" filter="url(#f1fb67ka64nfmf)" style="stroke:#A80036;stroke-width:1.0;"/><path d="M2287,925.83 L2287,935.83 L2297,935.83 L2287,925.83 " fill="#FBFB77" style="stroke:#A80036;stroke-width:1.0;"/><text fill="#000000" font-family="sans-serif" font-size="13" lengthAdjust="spacing" textLength="154" x="2128" y="942.8969">Stock Market Forcasting</text></a><ellipse cx="2559.3592" cy="836.7018" rx="84.8592" ry="19.3718" style="stroke:#191970;stroke-width:1.5;fill:none;"/><text fill="#191970" font-family="sans-serif" font-size="14" lengthAdjust="spacing" textLength="130" x="2494.3592" y="839.5485">A15: Time Series A</text><line style="stroke:#191970;stroke-width:1.5;" x1="2637.4547" x2="2617.1655" y1="829.9488" y2="850.2381"/><a href="http://GDSCUIZ.github.io" target="_top" title="http://GDSCUIZ.github.io" xlink:actuate="onRequest" xlink:href="http://GDSCUIZ.github.io" xlink:show="new" xlink:title="http://GDSCUIZ.github.io" xlink:type="simple"><path d="M2486,925.83 L2486,950.9628 A0,0 0 0 0 2486,950.9628 L2633,950.9628 A0,0 0 0 0 2633,950.9628 L2633,935.83 L2623,925.83 L2563.5,925.83 L2559.5,856.55 L2555.5,925.83 L2486,925.83 A0,0 0 0 0 2486,925.83 " fill="#FBFB77" filter="url(#f1fb67ka64nfmf)" style="stroke:#A80036;stroke-width:1.0;"/><path d="M2623,925.83 L2623,935.83 L2633,935.83 L2623,925.83 " fill="#FBFB77" style="stroke:#A80036;stroke-width:1.0;"/><text fill="#000000" font-family="sans-serif" font-size="13" lengthAdjust="spacing" textLength="122" x="2492" y="942.8969">Anomaly Detection</text></a><ellipse cx="1012.3513" cy="324.1003" rx="116.8513" ry="25.7703" style="stroke:#A80036;stroke-width:1.5;fill:none;"/><text fill="#000000" font-family="sans-serif" font-size="14" font-style="italic" lengthAdjust="spacing" textLength="172" x="926.3513" y="321.9758">«Ayoub bouihrouchane»</text><text fill="#000000" font-family="sans-serif" font-size="14" lengthAdjust="spacing" textLength="106" x="959.3513" y="338.2727">E8: Text Mining</text><ellipse cx="2264.3658" cy="324.1032" rx="81.8658" ry="18.7732" style="stroke:#A80036;stroke-width:1.5;fill:none;"/><text fill="#000000" font-family="sans-serif" font-size="14" lengthAdjust="spacing" textLength="123" x="2201.8805" y="327.2763">E9: Beyond DNNs</text><line style="stroke:#A80036;stroke-width:1.5;" x1="2339.7065" x2="2320.0188" y1="317.5588" y2="337.2465"/><ellipse cx="2070.2717" cy="453.3843" rx="120.7717" ry="26.5543" style="stroke:#A80036;stroke-width:1.5;fill:none;"/><text fill="#000000" font-family="sans-serif" font-size="14" lengthAdjust="spacing" textLength="209" x="1965.7717" y="456.231">E10: Recurent Neural Netowrk</text><line style="stroke:#A80036;stroke-width:1.5;" x1="2181.4174" x2="2153.9018" y1="444.1275" y2="471.6431"/><ellipse cx="1706.4475" cy="453.5195" rx="136.4475" ry="29.6895" style="stroke:#A80036;stroke-width:1.5;fill:none;"/><text fill="#000000" font-family="sans-serif" font-size="14" font-style="italic" lengthAdjust="spacing" textLength="130" x="1636.4592" y="443.592">«Yassine ELjakani»</text><text fill="#000000" font-family="sans-serif" font-size="14" lengthAdjust="spacing" textLength="238" x="1582.4592" y="459.8889">E11: Convolutional Neural Network</text><line style="stroke:#A80036;stroke-width:1.5;" x1="1832.0195" x2="1801.3464" y1="443.1697" y2="473.8429"/><ellipse cx="2310.495" cy="453.529" rx="83.995" ry="19.199" style="stroke:#A80036;stroke-width:1.5;fill:none;"/><text fill="#000000" font-family="sans-serif" font-size="14" lengthAdjust="spacing" textLength="128" x="2246.2335" y="456.4656">E12: Transformers</text><ellipse cx="2516.5998" cy="453.55" rx="86.5998" ry="19.72" style="stroke:#A80036;stroke-width:1.5;fill:none;"/><text fill="#000000" font-family="sans-serif" font-size="14" lengthAdjust="spacing" textLength="134" x="2449.5998" y="456.3966">E13: AutoEncoders</text><ellipse cx="2727.3754" cy="453.3245" rx="89.3754" ry="24.9945" style="stroke:#A80036;stroke-width:1.5;fill:none;"/><text fill="#000000" font-family="sans-serif" font-size="14" font-style="italic" lengthAdjust="spacing" textLength="128" x="2663.3754" y="451.3508">«Noura Bentaher»</text><text fill="#000000" font-family="sans-serif" font-size="14" lengthAdjust="spacing" textLength="66" x="2694.3754" y="467.6477">E14: GAN</text><ellipse cx="2257.6379" cy="73.8576" rx="83.1379" ry="19.0276" style="stroke:#A80036;stroke-width:1.5;fill:none;"/><text fill="#000000" font-family="sans-serif" font-size="14" lengthAdjust="spacing" textLength="126" x="2194.0914" y="76.8894">E15: TensorBoard</text><line style="stroke:#A80036;stroke-width:1.5;" x1="2334.1493" x2="2314.206" y1="67.2246" y2="87.1679"/><ellipse cx="2059.6963" cy="73.7693" rx="80.1963" ry="18.4393" style="stroke:#A80036;stroke-width:1.5;fill:none;"/><text fill="#000000" font-family="sans-serif" font-size="14" lengthAdjust="spacing" textLength="119" x="1998.6039" y="77.1279">E16: TF Datasets</text><line style="stroke:#A80036;stroke-width:1.5;" x1="2133.5006" x2="2114.1483" y1="67.3413" y2="86.6936"/><!--MD5=[4da61e0db12380e112d5181378224d91]
link ML to NLP1--><path d="M1852.5,79.77 C1698.48,97.07 1181.38,155.14 966.93,179.23 " fill="none" id="ML-to-NLP1" style="stroke:#A80036;stroke-width:1.0;"/><polygon fill="#A80036" points="961.92,179.79,971.3095,182.7628,966.8889,179.2331,970.4185,174.8125,961.92,179.79" style="stroke:#A80036;stroke-width:1.0;"/><!--MD5=[94c7cac321f0ce5f867bb6d1ff680d32]
link ML to TAB1--><path d="M1928.32,84.79 C1938.8,87.76 1950.57,90.77 1961.5,92.83 C2230.22,143.49 2547.35,169.25 2736.86,181.09 " fill="none" id="ML-to-TAB1" style="stroke:#A80036;stroke-width:1.0;"/><polygon fill="#A80036" points="2741.87,181.4,2733.1395,176.8417,2736.8799,181.0854,2732.6362,184.8259,2741.87,181.4" style="stroke:#A80036;stroke-width:1.0;"/><!--MD5=[a4fce31f30c178ee033b414dc0a2758d]
link ML to TS1--><path d="M1896.5,88.47 C1896.5,102.95 1896.5,126.57 1896.5,147.36 " fill="none" id="ML-to-TS1" style="stroke:#A80036;stroke-width:1.0;"/><polygon fill="#A80036" points="1896.5,152.58,1900.5,143.58,1896.5,147.58,1892.5,143.58,1896.5,152.58" style="stroke:#A80036;stroke-width:1.0;"/><!--MD5=[1bb58127fd043446bc12d2e6ca18ab74]
link ML to CV1--><path d="M1864.64,84.77 C1825.08,97.74 1756.13,122.4 1701.5,152.83 C1626.68,194.5 1548.24,257.04 1504.74,293.66 " fill="none" id="ML-to-CV1" style="stroke:#A80036;stroke-width:1.0;"/><polygon fill="#A80036" points="1500.9,296.91,1510.3589,294.1659,1504.7223,293.6867,1505.2016,288.0502,1500.9,296.91" style="stroke:#A80036;stroke-width:1.0;"/><!--MD5=[fde1929e71a51e99b66ae1f72f3c23b4]
link ML to E16--><path d="M1944.57,73.83 C1954.38,73.83 1964.2,73.83 1974.01,73.83 " fill="none" id="ML-to-E16" style="stroke:#A80036;stroke-width:1.0;"/><polygon fill="#A80036" points="1979.14,73.83,1970.14,69.83,1974.14,73.83,1970.14,77.83,1979.14,73.83" style="stroke:#A80036;stroke-width:1.0;"/><!--MD5=[b5cf92e8b6f7c9c232e82ba0d74e6a19]
link ML to E15--><path d="M1913.26,60.16 C1929.11,48.19 1954.1,31.67 1979,24.83 C2047.57,6 2069.25,10.98 2139,24.83 C2167.34,30.46 2197.39,42.97 2220.15,53.94 " fill="none" id="ML-to-E15" style="stroke:#A80036;stroke-width:1.0;"/><polygon fill="#A80036" points="2224.89,56.26,2218.542,48.7298,2220.3925,54.0755,2215.0468,55.9259,2224.89,56.26" style="stroke:#A80036;stroke-width:1.0;"/><!--MD5=[88b22310f69861c867ef4145a35eb2e9]
link ML to E9--><path d="M1930.69,84.11 C1971.05,96.03 2039.14,119.27 2090.5,152.83 C2156.16,195.73 2218.01,265.96 2247.1,301.4 " fill="none" id="ML-to-E9" style="stroke:#A80036;stroke-width:1.0;"/><polygon fill="#A80036" points="2250.49,305.55,2247.902,296.0473,2247.33,301.6751,2241.7022,301.1032,2250.49,305.55" style="stroke:#A80036;stroke-width:1.0;"/><!--MD5=[2714f046dabe24c0ca7ef9cb0569b7aa]
link CV1 to CV2--><path d="M1456.72,352.26 C1446.46,372.3 1432.43,399.71 1421.65,420.77 " fill="none" id="CV1-to-CV2" style="stroke:#A80036;stroke-width:1.0;"/><polygon fill="#A80036" points="1419.26,425.44,1426.9184,419.2474,1421.5361,420.9881,1419.7954,415.6057,1419.26,425.44" style="stroke:#A80036;stroke-width:1.0;"/><!--MD5=[2628dea5eadde0b57987f6010d74096b]
link CV1 to E11--><path d="M1517.13,350.42 C1556.14,371.41 1611.82,401.38 1652.71,423.39 " fill="none" id="CV1-to-E11" style="stroke:#A80036;stroke-width:1.0;"/><polygon fill="#A80036" points="1657.12,425.76,1651.0952,417.9689,1652.7186,423.3878,1647.2996,425.0112,1657.12,425.76" style="stroke:#A80036;stroke-width:1.0;"/><!--MD5=[344a009c961c52d29109a8e631bba6b1]
link CV1 to WCV1--><path d="M1401.58,347.89 C1337.25,368.95 1240.93,400.47 1170.95,423.38 " fill="none" id="CV1-to-WCV1" style="stroke:#A80036;stroke-width:1.0;"/><polygon fill="#A80036" points="1165.96,425.01,1175.7578,426.0118,1170.7119,423.4546,1173.2691,418.4087,1165.96,425.01" style="stroke:#A80036;stroke-width:1.0;"/><!--MD5=[fffaea14ac2ba792c891fa57ad7ad4d8]
link CV2 to CV3--><path d="M1404.2,481.45 C1403.28,500.65 1402.04,526.48 1401.06,546.79 " fill="none" id="CV2-to-CV3" style="stroke:#A80036;stroke-width:1.0;"/><polygon fill="#A80036" points="1400.82,551.83,1405.2519,543.0347,1401.0626,546.8359,1397.2613,542.6465,1400.82,551.83" style="stroke:#A80036;stroke-width:1.0;"/><!--MD5=[7d0eab2f0a7187b8066c8099d476ccbd]
link CV2 to WCV2--><path d="M1464.33,478.28 C1514.44,498.69 1586.63,528.08 1640.25,549.91 " fill="none" id="CV2-to-WCV2" style="stroke:#A80036;stroke-width:1.0;"/><polygon fill="#A80036" points="1645.05,551.87,1638.2244,544.77,1640.4195,549.9835,1635.206,552.1787,1645.05,551.87" style="stroke:#A80036;stroke-width:1.0;"/><!--MD5=[0c749ab6768dbfbd1e8d50a8a00a1707]
link WCV3 to A10--><path d="M1078.5,614.09 C1078.5,633.53 1078.5,658.08 1078.5,677.45 " fill="none" id="WCV3-to-A10" style="stroke:#A80036;stroke-width:1.0;"/><polygon fill="#A80036" points="1078.5,682.77,1082.5,673.77,1078.5,677.77,1074.5,673.77,1078.5,682.77" style="stroke:#A80036;stroke-width:1.0;"/><!--MD5=[b80e60b0fcb03ffe558bd57f7d4e537b]
link WCV1 to WCV3--><path d="M1081.46,486.85 C1080.93,503.5 1080.27,523.87 1079.72,541.25 " fill="none" id="WCV1-to-WCV3" style="stroke:#A80036;stroke-width:1.0;"/><polygon fill="#A80036" points="1079.55,546.54,1083.8307,537.6701,1079.7071,541.5425,1075.8347,537.4188,1079.55,546.54" style="stroke:#A80036;stroke-width:1.0;"/><!--MD5=[c03a3e1b14c7513646a5cc9e10ef98a0]
link WCV2 to A11--><path d="M1679.56,611.78 C1658.31,631.43 1630.69,656.96 1608.96,677.05 " fill="none" id="WCV2-to-A11" style="stroke:#A80036;stroke-width:1.0;"/><polygon fill="#A80036" points="1605.25,680.48,1614.5712,677.2996,1608.9185,677.0827,1609.1355,671.43,1605.25,680.48" style="stroke:#A80036;stroke-width:1.0;"/><!--MD5=[adc93857b0473cf6bb1e04a00b320b33]
link NLP1 to NLP2--><path d="M810.38,211.23 C733.72,235.18 603.65,275.8 522.94,301.02 " fill="none" id="NLP1-to-NLP2" style="stroke:#A80036;stroke-width:1.0;"/><polygon fill="#A80036" points="517.7,302.65,527.4823,303.7935,522.4739,301.1635,525.1039,296.1552,517.7,302.65" style="stroke:#A80036;stroke-width:1.0;"/><!--MD5=[f0201ca297c8b69a9f1897cc63f1bc60]
link NLP1 to E8--><path d="M898.18,215.95 C922.01,238.33 957.47,271.64 982.57,295.22 " fill="none" id="NLP1-to-E8" style="stroke:#A80036;stroke-width:1.0;"/><polygon fill="#A80036" points="986.51,298.92,982.6787,289.8469,982.8619,295.5008,977.208,295.6839,986.51,298.92" style="stroke:#A80036;stroke-width:1.0;"/><!--MD5=[dd93fb7e3510d94db403163a4238a125]
link NLP1 to WNLP1--><path d="M846.82,215.95 C823.74,237.63 789.75,269.56 764.82,292.97 " fill="none" id="NLP1-to-WNLP1" style="stroke:#A80036;stroke-width:1.0;"/><polygon fill="#A80036" points="760.9,296.65,770.1953,293.3945,764.541,293.2232,764.7123,287.5689,760.9,296.65" style="stroke:#A80036;stroke-width:1.0;"/><!--MD5=[9a28fbace0d5462c76e257df50bfc7b4]
link NLP2 to WNLP2--><path d="M404.23,348.33 C361.34,369.2 297.87,400.09 251.23,422.78 " fill="none" id="NLP2-to-WNLP2" style="stroke:#A80036;stroke-width:1.0;"/><polygon fill="#A80036" points="246.48,425.09,256.3218,424.7183,250.9692,422.8883,252.7991,417.5356,246.48,425.09" style="stroke:#A80036;stroke-width:1.0;"/><!--MD5=[6c2af2b37ba5cbbda9f3b5554250d0a0]
link NLP2 to WNLP3--><path d="M455.25,350.42 C458.48,371.97 463.12,402.97 466.43,425.12 " fill="none" id="NLP2-to-WNLP3" style="stroke:#A80036;stroke-width:1.0;"/><polygon fill="#A80036" points="467.2,430.26,469.8448,420.7729,466.4709,425.3134,461.9303,421.9395,467.2,430.26" style="stroke:#A80036;stroke-width:1.0;"/><!--MD5=[f2de0fe17b5c7f5433789fbfa9a9e16d]
link WNLP1 to A7--><path d="M734.65,352.57 C736.27,373.27 738.51,401.69 740.18,422.9 " fill="none" id="WNLP1-to-A7" style="stroke:#A80036;stroke-width:1.0;"/><polygon fill="#A80036" points="740.59,428.13,743.8839,418.8483,740.2043,423.1449,735.9077,419.4653,740.59,428.13" style="stroke:#A80036;stroke-width:1.0;"/><!--MD5=[e620ffb9cb85286360d590b25b86e7b8]
link WNLP1 to WNLP2--><path d="M647.97,345.34 C627.83,350.1 606.4,355.15 586.5,359.83 C485.28,383.61 369.47,410.64 289.35,429.31 " fill="none" id="WNLP1-to-WNLP2" style="stroke:#A80036;stroke-width:1.0;"/><polygon fill="#A80036" points="284.13,430.53,293.8057,432.3686,288.9978,429.388,291.9785,424.5801,284.13,430.53" style="stroke:#A80036;stroke-width:1.0;"/><!--MD5=[90712493368d1b7f230313371793c7cc]
link WNLP1 to WNLP3--><path d="M681.36,350.12 C633.56,373.29 562.82,407.58 516.69,429.94 " fill="none" id="WNLP1-to-WNLP3" style="stroke:#A80036;stroke-width:1.0;"/><polygon fill="#A80036" points="512.03,432.2,521.8732,431.8659,516.5275,430.0155,518.378,424.6698,512.03,432.2" style="stroke:#A80036;stroke-width:1.0;"/><!--MD5=[8bdd5de839b15eeca8671987e01544d3]
link WNLP2 to A8--><path d="M182.68,483.95 C177.62,503.12 171.04,528.06 165.87,547.62 " fill="none" id="WNLP2-to-A8" style="stroke:#A80036;stroke-width:1.0;"/><polygon fill="#A80036" points="164.59,552.48,170.7655,544.8077,165.873,547.6474,163.0333,542.7549,164.59,552.48" style="stroke:#A80036;stroke-width:1.0;"/><!--MD5=[63394466f497b96d70d17ea2bdfa83e1]
link WNLP3 to A9--><path d="M466.09,476.39 C462.13,496.2 456.27,525.5 451.81,547.79 " fill="none" id="WNLP3-to-A9" style="stroke:#A80036;stroke-width:1.0;"/><polygon fill="#A80036" points="450.82,552.72,456.5164,544.6856,451.8061,547.8182,448.6735,543.1079,450.82,552.72" style="stroke:#A80036;stroke-width:1.0;"/><!--MD5=[fa2f6f26d228afad458873fe66bb97ea]
link TAB1 to TAB2--><path d="M2867.3,226.04 C2847.36,244.38 2822.75,267.01 2802.28,285.83 " fill="none" id="TAB1-to-TAB2" style="stroke:#A80036;stroke-width:1.0;"/><polygon fill="#A80036" points="2798.51,289.29,2807.844,286.1473,2802.1922,285.9075,2802.432,280.2557,2798.51,289.29" style="stroke:#A80036;stroke-width:1.0;"/><!--MD5=[e26e2c716b1aa805a9002921cb359c4a]
link TAB1 to TAB3--><path d="M2941.96,226.04 C2968.11,249.92 3002.23,281.08 3024.73,301.62 " fill="none" id="TAB1-to-TAB3" style="stroke:#A80036;stroke-width:1.0;"/><polygon fill="#A80036" points="3028.51,305.08,3024.5516,296.0616,3024.8142,301.7124,3019.1634,301.9749,3028.51,305.08" style="stroke:#A80036;stroke-width:1.0;"/><!--MD5=[b6de3fdbc903fd109d0f8413f109345b]
link TAB1 to TAB4--><path d="M2983.51,222.66 C3052.25,249.48 3148.98,287.23 3202.33,308.05 " fill="none" id="TAB1-to-TAB4" style="stroke:#A80036;stroke-width:1.0;"/><polygon fill="#A80036" points="3207.04,309.88,3200.1059,302.8859,3202.3811,308.065,3197.2019,310.3402,3207.04,309.88" style="stroke:#A80036;stroke-width:1.0;"/><!--MD5=[67561a667a19d38e47766fd98595faff]
link TAB2 to WTAB1--><path d="M2816.84,357.87 C2852.01,378.55 2897.05,405.03 2930.48,424.68 " fill="none" id="TAB2-to-WTAB1" style="stroke:#A80036;stroke-width:1.0;"/><polygon fill="#A80036" points="2934.91,427.29,2929.1795,419.2799,2930.6,424.7555,2925.1243,426.176,2934.91,427.29" style="stroke:#A80036;stroke-width:1.0;"/><!--MD5=[3b9ba92ce39911ac4777f67cef0c9505]
link WTAB1 to A12--><path d="M2977.5,480.84 C2977.5,499.73 2977.5,525.29 2977.5,545.63 " fill="none" id="WTAB1-to-A12" style="stroke:#A80036;stroke-width:1.0;"/><polygon fill="#A80036" points="2977.5,550.68,2981.5,541.68,2977.5,545.68,2973.5,541.68,2977.5,550.68" style="stroke:#A80036;stroke-width:1.0;"/><!--MD5=[5af2a8e7dfbd267dbe144d25cf4cba2a]
link TS1 to TS2--><path d="M1891.51,229.04 C1885.5,288.31 1881.69,405.75 1931.5,486.83 C1948.57,514.61 1977.48,535.84 2004.52,550.91 " fill="none" id="TS1-to-TS2" style="stroke:#A80036;stroke-width:1.0;"/><polygon fill="#A80036" points="2009.19,553.46,2003.2151,545.6306,2004.8038,551.0597,1999.3746,552.6485,2009.19,553.46" style="stroke:#A80036;stroke-width:1.0;"/><!--MD5=[56a3ca566ae32581657e125a21c6c951]
link TS2 to WTS1--><path d="M2031.88,609.21 C2003.71,629.54 1965.51,657.12 1936.23,678.26 " fill="none" id="TS2-to-WTS1" style="stroke:#A80036;stroke-width:1.0;"/><polygon fill="#A80036" points="1931.97,681.34,1941.6086,679.3158,1936.0241,678.4136,1936.9263,672.8291,1931.97,681.34" style="stroke:#A80036;stroke-width:1.0;"/><!--MD5=[90bf99e37d19962d0b51aa1628ace8a6]
link TS2 to WTS3--><path d="M2156.24,603.86 C2237.15,625.12 2358.95,657.13 2447.51,680.4 " fill="none" id="TS2-to-WTS3" style="stroke:#A80036;stroke-width:1.0;"/><polygon fill="#A80036" points="2452.49,681.71,2444.8052,675.5501,2447.6548,680.4368,2442.7681,683.2864,2452.49,681.71" style="stroke:#A80036;stroke-width:1.0;"/><!--MD5=[816a138a40635f2818cdf88d09f9b784]
link WTS1 to A13--><path d="M1892.5,741.53 C1892.5,759.87 1892.5,783.44 1892.5,802.42 " fill="none" id="WTS1-to-A13" style="stroke:#A80036;stroke-width:1.0;"/><polygon fill="#A80036" points="1892.5,807.65,1896.5,798.65,1892.5,802.65,1888.5,798.65,1892.5,807.65" style="stroke:#A80036;stroke-width:1.0;"/><!--MD5=[7387ce1c84f82ca02c626ee44ba68b23]
link WTS2 to A14--><path d="M2209.5,741.85 C2209.5,762.51 2209.5,789.69 2209.5,809.51 " fill="none" id="WTS2-to-A14" style="stroke:#A80036;stroke-width:1.0;"/><polygon fill="#A80036" points="2209.5,814.63,2213.5,805.63,2209.5,809.63,2205.5,805.63,2209.5,814.63" style="stroke:#A80036;stroke-width:1.0;"/><!--MD5=[ea4f476c2773c6d4dc87989d3eae1b42]
link WTS3 to A15--><path d="M2559.5,748.03 C2559.5,768.5 2559.5,793.54 2559.5,811.63 " fill="none" id="WTS3-to-A15" style="stroke:#A80036;stroke-width:1.0;"/><polygon fill="#A80036" points="2559.5,817.01,2563.5,808.01,2559.5,812.01,2555.5,808.01,2559.5,817.01" style="stroke:#A80036;stroke-width:1.0;"/><!--MD5=[61eb44586212e09289c50c512bad41ef]
link TS2 to WTS2--><path d="M2101.35,609.85 C2122.82,629.7 2151.51,656.22 2173.95,676.96 " fill="none" id="TS2-to-WTS2" style="stroke:#A80036;stroke-width:1.0;"/><polygon fill="#A80036" points="2177.77,680.5,2173.8845,671.45,2174.1015,677.1027,2168.4488,677.3196,2177.77,680.5" style="stroke:#A80036;stroke-width:1.0;"/><!--MD5=[35e5f1cbde42fa304a029880aa2bc7f2]
link E9 to E10--><path d="M2238.34,342.46 C2206.04,363.6 2150.69,399.83 2112.44,424.88 " fill="none" id="E9-to-E10" style="stroke:#A80036;stroke-width:1.0;"/><polygon fill="#A80036" points="2107.86,427.87,2117.5839,426.3061,2112.0486,425.1395,2113.2151,419.6043,2107.86,427.87" style="stroke:#A80036;stroke-width:1.0;"/><!--MD5=[526783dfcde15884571727dc3bbf2987]
link E9 to E11--><path d="M2208.18,338.15 C2113.3,359.74 1920.48,403.63 1803.47,430.26 " fill="none" id="E9-to-E11" style="stroke:#A80036;stroke-width:1.0;"/><polygon fill="#A80036" points="1798.3,431.44,1807.9653,433.3325,1803.1741,430.3251,1806.1815,425.5339,1798.3,431.44" style="stroke:#A80036;stroke-width:1.0;"/><!--MD5=[01e7fb777ede19d6dea0886c93193d5b]
link E9 to E12--><path d="M2271.09,343.53 C2279.29,366.16 2293.29,404.82 2302.21,429.44 " fill="none" id="E9-to-E12" style="stroke:#A80036;stroke-width:1.0;"/><polygon fill="#A80036" points="2303.92,434.17,2304.6203,424.3461,2302.2193,429.4681,2297.0973,427.0672,2303.92,434.17" style="stroke:#A80036;stroke-width:1.0;"/><!--MD5=[376cfa6451bccd7a32491f6934dd85b8]
link E9 to E13--><path d="M2297.19,341.8 C2343.63,365.21 2428.56,408.01 2477.99,432.92 " fill="none" id="E9-to-E13" style="stroke:#A80036;stroke-width:1.0;"/><polygon fill="#A80036" points="2482.67,435.28,2476.448,427.6454,2478.2094,433.0211,2472.8337,434.7825,2482.67,435.28" style="stroke:#A80036;stroke-width:1.0;"/><!--MD5=[a1b670ebc151d08c00312062bddfc35e]
link E9 to E14--><path d="M2317.74,338.83 C2387.48,356.67 2513.48,389.38 2620.5,419.83 C2634.76,423.89 2650.03,428.42 2664.45,432.77 " fill="none" id="E9-to-E14" style="stroke:#A80036;stroke-width:1.0;"/><polygon fill="#A80036" points="2669.3,434.24,2661.8377,427.8123,2664.5128,432.7967,2659.5285,435.4718,2669.3,434.24" style="stroke:#A80036;stroke-width:1.0;"/><!--MD5=[c55ba674f67c85206cb455db9f745de7]
link E10 to TS2--><path d="M2070.5,479.93 C2070.5,498.76 2070.5,524.56 2070.5,545.15 " fill="none" id="E10-to-TS2" style="stroke:#A80036;stroke-width:1.0;"/><polygon fill="#A80036" points="2070.5,550.27,2074.5,541.27,2070.5,545.27,2066.5,541.27,2070.5,550.27" style="stroke:#A80036;stroke-width:1.0;"/><!--MD5=[313c173b8556f265fdc1220f47bb1c63]
link E11 to WCV2--><path d="M1707.88,483.01 C1708.73,500.8 1709.84,523.82 1710.75,542.89 " fill="none" id="E11-to-WCV2" style="stroke:#A80036;stroke-width:1.0;"/><polygon fill="#A80036" points="1711,548.16,1714.5574,538.976,1710.7567,543.1659,1706.5669,539.3653,1711,548.16" style="stroke:#A80036;stroke-width:1.0;"/><!--MD5=[0f2435f98601becdcbcb19efae9347aa]
link E: Event to W: Workshop--><!--MD5=[c7e01f4319e1858fb7eabf2731f6e35b]
link W: Workshop to M: Math--><!--MD5=[41d9513d6a270d3d1ab707bb5fb29dff]
link E: Event to A: Assignment--><!--MD5=[7a9b2ecb8bcc53ccdfc9a5ad337eaf47]
link A: Assignment to Required--><!--MD5=[a9f007f9487967e577345f66b8e0e46c]
link Required to Optional--><!--MD5=[1a984101eddf0f7c5dd91f21f8d14c58]
@startuml "MLReady"

skinparam usecase {
BackgroundColor transparent
shadowing false
}

(E: Event)
(W: Workshop) #line:red;text:red
(M: Math) #line:darkorange;text:darkorange
(A: Assignment) #line:MidnightBlue;text:MidnightBlue
(Required)/
(Optional)

(MLStart) as ML


(NLP1: Intro to NLP)/ as NLP1 <<Taha bouhsine>>
(NLP2: Word Embeddings)/ as NLP2 <<Taha bouhsine>>
(WNLP1: Text Preparation with TF)/ as WNLP1 #line:red;text:red
(WNLP2: Sentimental Analysis with TF)/ as WNLP2 #line:red;text:red
(WNLP3: Seq2Seq with TF)/ as WNLP3 #line:red;text:red

(A7: Text Preparation with TF)/ as A7 #line:MidnightBlue;text:MidnightBlue
note bottom [[http://GDSCUIZ.github.io]]
Text Preparation of IMDB Dataset with TF
end note

(A8: Sentimental Analysis with TF)/ as A8 #line:MidnightBlue;text:MidnightBlue
note bottom [[http://GDSCUIZ.github.io]]
Sentimental Analysis with TF Twitter Dataset
end note

(A9: Sentimental Analysis with TF)/ as A9 #line:MidnightBlue;text:MidnightBlue
note bottom [[http://GDSCUIZ.github.io]]
Seq2Seq translation with TF
end note


(CV1: Intro to Computer Vision)/ as CV1 <<Noura Bentaher>>
(CV2: Intro to Image Processing)/ as CV2 <<Noura Bentaher>>
(CV3: Feature Extraction Methods) as CV3 <<Souad Saidi>>
(WCV1: Image Classifiation with TF Dense)/ as WCV1 #line:red;text:red 
(WCV2: CNN Image Classifiation with TF)/ as WCV2 <<Yassine ELjakani>> #line:red;text:red 
(WCV3: Image Data Augmentation with TF)/ as WCV3 <<Yassine ELjakani>> #line:red;text:red

(A10: Image Classification with TF)/ as A10 #line:MidnightBlue;text:MidnightBlue
note bottom [[http://GDSCUIZ.github.io]]
DNN on MNIST Handwritten Digits
end note

(A11: CNN Image Classification with TF)/ as A11 #line:MidnightBlue;text:MidnightBlue
note bottom [[http://GDSCUIZ.github.io]]
CNN on Fashion MNIST
end note



(TAB1: Feature Engineering with Tabular Data)/ as TAB1 
(TAB2: Advanced EDA and Data Visualization)/ as TAB2 <<souad saidi>>
(TAB3: Intro to D3.js) as TAB3
(TAB4: TabNet) as TAB4 
(WTAB1: EDA on Kaggle Dataset)/ as WTAB1 #line:red;text:red


(A12: EDA and Feature Engineering)/ as A12 #line:MidnightBlue;text:MidnightBlue
note bottom [[http://GDSCUIZ.github.io]]
EDA on Dataset
end note



(TS1: Intro to Signal Processing and Time Series)/ as TS1
(TS2: Deep Learning on Time Series)/ as TS2
(WTS1: Time Series Data Preparation)/ as WTS1 #line:red;text:red
(WTS2: Time Series Focasting with TF)/ as WTS2 #line:red;text:red
(WTS3: Time Series Anomaly Detection with TF)/ as WTS3 #line:red;text:red

(A13: Time Series Data Preparation)/ as A13 #line:MidnightBlue;text:MidnightBlue
note bottom [[http://GDSCUIZ.github.io]]
Time Series Data Preparation on Stock Market
end note

(A14: Forcasting with TF)/ as A14 #line:MidnightBlue;text:MidnightBlue
note bottom [[http://GDSCUIZ.github.io]]
Stock Market Forcasting
end note

(A15: Time Series A)/ as A15 #line:MidnightBlue;text:MidnightBlue
note bottom [[http://GDSCUIZ.github.io]]
Anomaly Detection 
end note





(E8: Text Mining) as E8 <<Ayoub bouihrouchane>>
(E9: Beyond DNNs)/ as E9
(E10: Recurent Neural Netowrk)/ as E10
(E11: Convolutional Neural Network)/ as E11 <<Yassine ELjakani>>
(E12: Transformers) as E12
(E13: AutoEncoders) as E13
(E14: GAN) as E14 <<Noura Bentaher>>

(E15: TensorBoard)/ as E15
(E16: TF Datasets)/ as E16

ML - -> NLP1
ML - -> TAB1
ML - -> TS1
ML - -> CV1
ML -> E16
ML -> E15
ML - - -> E9


CV1 - -> CV2
CV1 - -> E11
CV1 - -> WCV1


CV2 - -> CV3
CV2 - -> WCV2

WCV3 - -> A10
WCV1 - -> WCV3

WCV2 - -> A11

NLP1 - -> NLP2
NLP1 - -> E8
NLP1 - -> WNLP1

NLP2 - -> WNLP2
NLP2 - -> WNLP3

WNLP1 - -> A7
WNLP1 - -> WNLP2
WNLP1 - -> WNLP3

WNLP2 - -> A8
WNLP3 - -> A9

TAB1 - -> TAB2
TAB1 - -> TAB3
TAB1 - -> TAB4
TAB2 - -> WTAB1

WTAB1 - -> A12


TS1 - -> TS2

TS2 - -> WTS1
TS2 - -> WTS3

WTS1 - -> A13
WTS2 - -> A14
WTS3 - -> A15

TS2 - -> WTS2

E9 - -> E10
E9 - -> E11
E9 - -> E12
E9 - -> E13
E9 - -> E14

E10 - -> TS2

E11 - -> WCV2

@enduml

PlantUML version 1.2022.0(Tue Jan 11 17:16:42 WEST 2022)
(GPL source distribution)
Java Runtime: OpenJDK Runtime Environment
JVM: OpenJDK 64-Bit Server VM
Default Encoding: UTF-8
Language: en
Country: US
--></g></svg>