<?xml version="1.0" encoding="UTF-8" standalone="no"?><svg xmlns="http://www.w3.org/2000/svg" xmlns:xlink="http://www.w3.org/1999/xlink" contentScriptType="application/ecmascript" contentStyleType="text/css" height="1108px" preserveAspectRatio="none" style="width:2242px;height:1108px;background:#FFFFFF;" version="1.1" viewBox="0 0 2242 1108" width="2242px" zoomAndPan="magnify"><defs><filter height="300%" id="f1jv5wfk8i0a8b" width="300%" x="-1" y="-1"><feGaussianBlur result="blurOut" stdDeviation="2.0"/><feColorMatrix in="blurOut" result="blurOut2" type="matrix" values="0 0 0 0 0 0 0 0 0 0 0 0 0 0 0 0 0 0 .4 0"/><feOffset dx="4.0" dy="4.0" in="blurOut2" result="blurOut3"/><feBlend in="SourceGraphic" in2="blurOut3" mode="normal"/></filter></defs><g><ellipse cx="598.1007" cy="31.715" rx="52.6007" ry="14.715" style="stroke:#A80036;stroke-width:1.5;fill:none;"/><text fill="#000000" font-family="sans-serif" font-size="14" lengthAdjust="spacing" textLength="57" x="566.6007" y="35.4626">E: Event</text><ellipse cx="755.1952" cy="31.339" rx="69.6952" ry="16.339" style="stroke:#FF0000;stroke-width:1.5;fill:none;"/><text fill="#FF0000" font-family="sans-serif" font-size="14" lengthAdjust="spacing" textLength="92" x="706.1952" y="35.0866">W: Workshop</text><ellipse cx="911.1079" cy="31.7016" rx="51.1079" ry="14.7016" style="stroke:#FF8C00;stroke-width:1.5;fill:none;"/><text fill="#FF8C00" font-family="sans-serif" font-size="14" lengthAdjust="spacing" textLength="55" x="880.6079" y="35.4492">M: Math</text><ellipse cx="598.1868" cy="142.4374" rx="72.6868" ry="16.9374" style="stroke:#191970;stroke-width:1.5;fill:none;"/><text fill="#191970" font-family="sans-serif" font-size="14" lengthAdjust="spacing" textLength="100" x="545.1868" y="146.1849">A: Assignment</text><ellipse cx="1105.1199" cy="31.6669" rx="106.6199" ry="25.6669" style="stroke:#A80036;stroke-width:1.5;fill:none;"/><text fill="#000000" font-family="sans-serif" font-size="14" font-style="italic" lengthAdjust="spacing" textLength="121" x="1037.6199" y="27.266">«Taha Bouhsine»</text><text fill="#000000" font-family="sans-serif" font-size="14" lengthAdjust="spacing" textLength="137" x="1029.6199" y="43.5629">E0: 30DaysOfML Init</text><line style="stroke:#A80036;stroke-width:1.5;" x1="1203.2418" x2="1175.9457" y1="22.7194" y2="50.0154"/><ellipse cx="1104.9446" cy="142.5288" rx="109.4446" ry="25.5288" style="stroke:#A80036;stroke-width:1.5;fill:none;"/><text fill="#000000" font-family="sans-serif" font-size="14" font-style="italic" lengthAdjust="spacing" textLength="121" x="1037.0576" y="137.9734">«Taha Bouhsine»</text><text fill="#000000" font-family="sans-serif" font-size="14" lengthAdjust="spacing" textLength="142" x="1026.5576" y="154.2702">E1: AI First + ML 101</text><line style="stroke:#A80036;stroke-width:1.5;" x1="1205.6661" x2="1178.7624" y1="133.6294" y2="160.5331"/><ellipse cx="1431.1231" cy="255.0577" rx="92.6231" ry="26.5577" style="stroke:#A80036;stroke-width:1.5;fill:none;"/><text fill="#000000" font-family="sans-serif" font-size="14" font-style="italic" lengthAdjust="spacing" textLength="121" x="1369.8731" y="250.6568">«Taha Bouhsine»</text><text fill="#000000" font-family="sans-serif" font-size="14" lengthAdjust="spacing" textLength="112" x="1374.3731" y="266.9537">E2: Intro to Data</text><line style="stroke:#A80036;stroke-width:1.5;" x1="1516.3637" x2="1486.6533" y1="245.7997" y2="275.5101"/><ellipse cx="576.0406" cy="370.0224" rx="97.5406" ry="26.5224" style="stroke:#A80036;stroke-width:1.5;fill:none;"/><text fill="#000000" font-family="sans-serif" font-size="14" font-style="italic" lengthAdjust="spacing" textLength="127" x="511.5406" y="365.6215">«Said Elhachemy»</text><text fill="#000000" font-family="sans-serif" font-size="14" lengthAdjust="spacing" textLength="119" x="515.5406" y="381.9184">E3: Intro to Colab</text><ellipse cx="820.2352" cy="369.9077" rx="111.2352" ry="25.9077" style="stroke:#A80036;stroke-width:1.5;fill:none;"/><text fill="#000000" font-family="sans-serif" font-size="14" font-style="italic" lengthAdjust="spacing" textLength="132" x="748.7352" y="365.5069">«Lahcen Oussayd»</text><text fill="#000000" font-family="sans-serif" font-size="14" lengthAdjust="spacing" textLength="142" x="743.7352" y="381.8037">E4: Python in Kaggle</text><ellipse cx="1286.9577" cy="492.4915" rx="132.9577" ry="28.9915" style="stroke:#A80036;stroke-width:1.5;fill:none;"/><text fill="#000000" font-family="sans-serif" font-size="14" font-style="italic" lengthAdjust="spacing" textLength="121" x="1221.3378" y="482.8536">«Taha Bouhsine»</text><text fill="#000000" font-family="sans-serif" font-size="14" lengthAdjust="spacing" textLength="229" x="1167.3378" y="499.1505">E5: Supervised Machine Learning</text><line style="stroke:#A80036;stroke-width:1.5;" x1="1409.3182" x2="1379.3481" y1="482.3851" y2="512.3552"/><ellipse cx="1143.8371" cy="616.6674" rx="101.3371" ry="22.6674" style="stroke:#A80036;stroke-width:1.5;fill:none;"/><text fill="#000000" font-family="sans-serif" font-size="14" lengthAdjust="spacing" textLength="167" x="1060.3371" y="619.5141">E5_1: Linear Regression</text><line style="stroke:#A80036;stroke-width:1.5;" x1="1237.0971" x2="1213.4939" y1="608.7656" y2="632.3687"/><ellipse cx="1344.0625" cy="616.5125" rx="63.0625" ry="15.0125" style="stroke:#A80036;stroke-width:1.5;fill:none;"/><text fill="#000000" font-family="sans-serif" font-size="14" lengthAdjust="spacing" textLength="73" x="1304.5625" y="620.2601">E5_2: SVM</text><line style="stroke:#A80036;stroke-width:1.5;" x1="1402.0986" x2="1386.1846" y1="611.2791" y2="627.1932"/><ellipse cx="1356.7915" cy="740.1583" rx="88.7915" ry="20.1583" style="stroke:#A80036;stroke-width:1.5;fill:none;"/><text fill="#000000" font-family="sans-serif" font-size="14" lengthAdjust="spacing" textLength="139" x="1287.2915" y="743.005">E5_3: Decision Tree</text><line style="stroke:#A80036;stroke-width:1.5;" x1="1438.5059" x2="1417.4261" y1="733.1311" y2="754.2109"/><ellipse cx="1594.8965" cy="739.9505" rx="113.8965" ry="25.4505" style="stroke:#A80036;stroke-width:1.5;fill:none;"/><text fill="#000000" font-family="sans-serif" font-size="14" font-style="italic" lengthAdjust="spacing" textLength="124" x="1525.3567" y="735.2593">«Oumaima Kaissi»</text><text fill="#000000" font-family="sans-serif" font-size="14" lengthAdjust="spacing" textLength="149" x="1512.8567" y="751.5561">E5_4: Random Forest</text><line style="stroke:#A80036;stroke-width:1.5;" x1="1699.715" x2="1673.2216" y1="731.0785" y2="757.5719"/><ellipse cx="1761.9566" cy="616.6928" rx="90.9566" ry="26.6928" style="stroke:#A80036;stroke-width:1.5;fill:none;"/><text fill="#000000" font-family="sans-serif" font-size="14" font-style="italic" lengthAdjust="spacing" textLength="121" x="1701.4566" y="612.292">«Taha Bouhsine»</text><text fill="#000000" font-family="sans-serif" font-size="14" lengthAdjust="spacing" textLength="109" x="1707.4566" y="628.5888">E6: Intro to EDA</text><line style="stroke:#A80036;stroke-width:1.5;" x1="1845.6635" x2="1815.6012" y1="607.3877" y2="637.45"/><ellipse cx="657.064" cy="616.6128" rx="128.564" ry="28.1128" style="stroke:#A80036;stroke-width:1.5;fill:none;"/><text fill="#000000" font-family="sans-serif" font-size="14" font-style="italic" lengthAdjust="spacing" textLength="173" x="565.564" y="612.2119">«Ayoub Bouihrouchane»</text><text fill="#000000" font-family="sans-serif" font-size="14" lengthAdjust="spacing" textLength="181" x="561.564" y="628.5088">E7: Intro to Deep Learning</text><line style="stroke:#A80036;stroke-width:1.5;" x1="775.3809" x2="746.2959" y1="606.8127" y2="635.8977"/><ellipse cx="1250.9269" cy="862.7854" rx="131.9269" ry="28.7854" style="stroke:#FF0000;stroke-width:1.5;fill:none;"/><text fill="#FF0000" font-family="sans-serif" font-size="14" font-style="italic" lengthAdjust="spacing" textLength="144" x="1173.3204" y="854.9916">«Chaimae Elmejgari»</text><text fill="#FF0000" font-family="sans-serif" font-size="14" lengthAdjust="spacing" textLength="217" x="1136.8204" y="871.2885">W1: Supervised ML with sklearn</text><line style="stroke:#FF0000;stroke-width:1.5;" x1="1372.3387" x2="1342.5762" y1="852.7508" y2="882.5132"/><ellipse cx="820.228" cy="255.0456" rx="85.728" ry="19.5456" style="stroke:#FF0000;stroke-width:1.5;fill:none;"/><text fill="#FF0000" font-family="sans-serif" font-size="14" lengthAdjust="spacing" textLength="132" x="754.228" y="257.8923">W2: Intro to Python</text><line style="stroke:#FF0000;stroke-width:1.5;" x1="899.1232" x2="878.6593" y1="248.232" y2="268.6959"/><ellipse cx="1095.2207" cy="370.1441" rx="128.7207" ry="28.1441" style="stroke:#FF0000;stroke-width:1.5;fill:none;"/><text fill="#FF0000" font-family="sans-serif" font-size="14" font-style="italic" lengthAdjust="spacing" textLength="127" x="1026.1407" y="361.9328">«Said Elhachemy»</text><text fill="#FF0000" font-family="sans-serif" font-size="14" lengthAdjust="spacing" textLength="212" x="983.6407" y="378.2297">W3: Linear Algebra with Numpy</text><line style="stroke:#FF0000;stroke-width:1.5;" x1="1213.6818" x2="1184.5652" y1="360.3331" y2="389.4497"/><ellipse cx="2101.9146" cy="616.2829" rx="134.4146" ry="29.2829" style="stroke:#FF0000;stroke-width:1.5;fill:none;"/><text fill="#FF0000" font-family="sans-serif" font-size="14" font-style="italic" lengthAdjust="spacing" textLength="124" x="2034.8621" y="606.4756">«Oumaima Kaissi»</text><text fill="#FF0000" font-family="sans-serif" font-size="14" lengthAdjust="spacing" textLength="233" x="1980.3621" y="622.7725">W4: Data Preparation with Pandas</text><line style="stroke:#FF0000;stroke-width:1.5;" x1="2225.6157" x2="2195.3521" y1="606.0749" y2="636.3385"/><ellipse cx="914.1797" cy="616.2724" rx="93.6797" ry="26.2724" style="stroke:#FF0000;stroke-width:1.5;fill:none;"/><text fill="#FF0000" font-family="sans-serif" font-size="14" font-style="italic" lengthAdjust="spacing" textLength="127" x="850.6797" y="612.4555">«Said Elhachemy»</text><text fill="#FF0000" font-family="sans-serif" font-size="14" lengthAdjust="spacing" textLength="105" x="861.6797" y="628.7524">W5: Intro to JAX</text><line style="stroke:#FF0000;stroke-width:1.5;" x1="1000.3926" x2="971.189" y1="607.1138" y2="636.3175"/><ellipse cx="2044.9172" cy="740.1834" rx="158.9172" ry="34.1834" style="stroke:#FF0000;stroke-width:1.5;fill:none;"/><text fill="#FF0000" font-family="sans-serif" font-size="14" font-style="italic" lengthAdjust="spacing" textLength="98" x="1995.9172" y="726.7332">«Souad Saidi»</text><text fill="#FF0000" font-family="sans-serif" font-size="14" lengthAdjust="spacing" textLength="289" x="1900.4172" y="743.0301">W6: Intro to Data Visualization with Python</text><line style="stroke:#FF0000;stroke-width:1.5;" x1="2191.168" x2="2155.9669" y1="728.2671" y2="763.4682"/><ellipse cx="1926.0817" cy="862.9775" rx="110.5817" ry="25.4775" style="stroke:#FF0000;stroke-width:1.5;fill:none;"/><text fill="#FF0000" font-family="sans-serif" font-size="14" font-style="italic" lengthAdjust="spacing" textLength="121" x="1858.1617" y="858.3428">«Taha Bouhsine»</text><text fill="#FF0000" font-family="sans-serif" font-size="14" lengthAdjust="spacing" textLength="144" x="1846.6617" y="874.6397">W7: EDA with Python</text><line style="stroke:#FF0000;stroke-width:1.5;" x1="2027.8495" x2="2001.0948" y1="854.096" y2="880.8507"/><ellipse cx="438.0016" cy="740.0003" rx="125.5016" ry="27.5003" style="stroke:#FF0000;stroke-width:1.5;fill:none;"/><text fill="#FF0000" font-family="sans-serif" font-size="14" font-style="italic" lengthAdjust="spacing" textLength="173" x="350.7516" y="735.5994">«Ayoub Bouihrouchane»</text><text fill="#FF0000" font-family="sans-serif" font-size="14" lengthAdjust="spacing" textLength="164" x="355.2516" y="751.8963">W8: Intro to TensorFlow</text><line style="stroke:#FF0000;stroke-width:1.5;" x1="553.5001" x2="525.0319" y1="730.4137" y2="758.8819"/><ellipse cx="183.8872" cy="739.7774" rx="91.8872" ry="20.7774" style="stroke:#FF0000;stroke-width:1.5;fill:none;"/><text fill="#FF0000" font-family="sans-serif" font-size="14" lengthAdjust="spacing" textLength="146" x="110.8872" y="742.6241">W9: OOP with Python</text><line style="stroke:#FF0000;stroke-width:1.5;" x1="268.4505" x2="246.7483" y1="732.5344" y2="754.2366"/><ellipse cx="913.9287" cy="740.1061" rx="96.4287" ry="26.6061" style="stroke:#FF0000;stroke-width:1.5;fill:none;"/><text fill="#FF0000" font-family="sans-serif" font-size="14" font-style="italic" lengthAdjust="spacing" textLength="127" x="849.9287" y="735.7052">«Said Elhachemy»</text><text fill="#FF0000" font-family="sans-serif" font-size="14" lengthAdjust="spacing" textLength="117" x="854.9287" y="752.0021">W10: NN with JAX</text><ellipse cx="183.8827" cy="492.3765" rx="159.8827" ry="34.3765" style="stroke:#FF0000;stroke-width:1.5;fill:none;"/><text fill="#FF0000" font-family="sans-serif" font-size="14" lengthAdjust="spacing" textLength="291" x="38.3827" y="495.2232">W11: Functional Programming with Python</text><line style="stroke:#FF0000;stroke-width:1.5;" x1="331.022" x2="295.6263" y1="480.3929" y2="515.7886"/><ellipse cx="690.9996" cy="740.0999" rx="90.9996" ry="20.5999" style="stroke:#FF0000;stroke-width:1.5;fill:none;"/><text fill="#FF0000" font-family="sans-serif" font-size="14" lengthAdjust="spacing" textLength="144" x="618.9996" y="742.9466">W12: NN with Numpy</text><line style="stroke:#FF0000;stroke-width:1.5;" x1="774.7461" x2="753.2224" y1="732.9188" y2="754.4425"/><ellipse cx="1095.2096" cy="255.0419" rx="123.2096" ry="27.0419" style="stroke:#FF8C00;stroke-width:1.5;fill:none;"/><text fill="#FF8C00" font-family="sans-serif" font-size="14" font-style="italic" lengthAdjust="spacing" textLength="153" x="1011.5807" y="250.5685">«El Mahjoub Abakrim»</text><text fill="#FF8C00" font-family="sans-serif" font-size="14" lengthAdjust="spacing" textLength="171" x="1002.5807" y="266.8654">M1: Linear algebra for ML</text><ellipse cx="1642.9399" cy="370.0505" rx="116.4399" ry="26.5505" style="stroke:#FF8C00;stroke-width:1.5;fill:none;"/><text fill="#FF8C00" font-family="sans-serif" font-size="14" font-style="italic" lengthAdjust="spacing" textLength="153" x="1565.4399" y="365.6496">«El Mahjoub Abakrim»</text><text fill="#FF8C00" font-family="sans-serif" font-size="14" lengthAdjust="spacing" textLength="145" x="1569.4399" y="381.9465">M2: Probability for ML</text><ellipse cx="1640.0408" cy="492.5486" rx="113.5408" ry="26.5486" style="stroke:#FF8C00;stroke-width:1.5;fill:none;"/><text fill="#FF8C00" font-family="sans-serif" font-size="14" font-style="italic" lengthAdjust="spacing" textLength="153" x="1563.5408" y="488.347">«El Mahjoub Abakrim»</text><text fill="#FF8C00" font-family="sans-serif" font-size="14" lengthAdjust="spacing" textLength="137" x="1571.5408" y="504.6439">M3: Statistics for ML</text><ellipse cx="491.8854" cy="492.409" rx="112.8854" ry="26.409" style="stroke:#FF8C00;stroke-width:1.5;fill:none;"/><text fill="#FF8C00" font-family="sans-serif" font-size="14" font-style="italic" lengthAdjust="spacing" textLength="153" x="415.3854" y="488.4013">«El Mahjoub Abakrim»</text><text fill="#FF8C00" font-family="sans-serif" font-size="14" lengthAdjust="spacing" textLength="133" x="425.3854" y="504.6982">M5: Calculus for ML</text><ellipse cx="1918.9116" cy="492.3823" rx="129.9116" ry="28.3823" style="stroke:#FF8C00;stroke-width:1.5;fill:none;"/><text fill="#FF8C00" font-family="sans-serif" font-size="14" font-style="italic" lengthAdjust="spacing" textLength="153" x="1836.3624" y="485.9">«El Mahjoub Abakrim»</text><text fill="#FF8C00" font-family="sans-serif" font-size="14" lengthAdjust="spacing" textLength="204" x="1810.8624" y="502.1969">M4: Information Theory for ML</text><ellipse cx="1232.1065" cy="983.2213" rx="144.1065" ry="31.2213" style="stroke:#191970;stroke-width:1.5;fill:none;"/><text fill="#191970" font-family="sans-serif" font-size="14" font-style="italic" lengthAdjust="spacing" textLength="144" x="1156.4295" y="972.1988">«Chaimae Elmejgari»</text><text fill="#191970" font-family="sans-serif" font-size="14" lengthAdjust="spacing" textLength="257" x="1099.9295" y="988.4957">A1: Sklearn Classification Assignment</text><line style="stroke:#191970;stroke-width:1.5;" x1="1364.7271" x2="1332.5108" y1="972.3376" y2="1004.5539"/><a href="http://GDSCUIZ.github.io" target="_top" title="http://GDSCUIZ.github.io" xlink:actuate="onRequest" xlink:href="http://GDSCUIZ.github.io" xlink:show="new" xlink:title="http://GDSCUIZ.github.io" xlink:type="simple"><path d="M1135.5,1074 L1135.5,1099.1328 A0,0 0 0 0 1135.5,1099.1328 L1328.5,1099.1328 A0,0 0 0 0 1328.5,1099.1328 L1328.5,1084 L1318.5,1074 L1236,1074 L1232,1014.18 L1228,1074 L1135.5,1074 A0,0 0 0 0 1135.5,1074 " fill="#FBFB77" filter="url(#f1jv5wfk8i0a8b)" style="stroke:#A80036;stroke-width:1.0;"/><path d="M1318.5,1074 L1318.5,1084 L1328.5,1084 L1318.5,1074 " fill="#FBFB77" style="stroke:#A80036;stroke-width:1.0;"/><text fill="#000000" font-family="sans-serif" font-size="13" lengthAdjust="spacing" textLength="172" x="1141.5" y="1091.0669">Heart Disease UCI Dataset</text></a><ellipse cx="1551.9539" cy="982.9908" rx="140.4539" ry="30.4908" style="stroke:#191970;stroke-width:1.5;fill:none;"/><text fill="#191970" font-family="sans-serif" font-size="14" font-style="italic" lengthAdjust="spacing" textLength="144" x="1475.0472" y="973.0026">«Chaimae Elmejgari»</text><text fill="#191970" font-family="sans-serif" font-size="14" lengthAdjust="spacing" textLength="247" x="1423.5472" y="989.2995">A2: Sklearn Regression Assignment</text><line style="stroke:#191970;stroke-width:1.5;" x1="1681.213" x2="1649.7326" y1="972.3617" y2="1003.842"/><a href="http://GDSCUIZ.github.io" target="_top" title="http://GDSCUIZ.github.io" xlink:actuate="onRequest" xlink:href="http://GDSCUIZ.github.io" xlink:show="new" xlink:title="http://GDSCUIZ.github.io" xlink:type="simple"><path d="M1470.5,1074 L1470.5,1099.1328 A0,0 0 0 0 1470.5,1099.1328 L1633.5,1099.1328 A0,0 0 0 0 1633.5,1099.1328 L1633.5,1084 L1623.5,1074 L1556,1074 L1552,1013.63 L1548,1074 L1470.5,1074 A0,0 0 0 0 1470.5,1074 " fill="#FBFB77" filter="url(#f1jv5wfk8i0a8b)" style="stroke:#A80036;stroke-width:1.0;"/><path d="M1623.5,1074 L1623.5,1084 L1633.5,1084 L1623.5,1074 " fill="#FBFB77" style="stroke:#A80036;stroke-width:1.0;"/><text fill="#000000" font-family="sans-serif" font-size="13" lengthAdjust="spacing" textLength="142" x="1476.5" y="1091.0669">House Pricing Dataset</text></a><ellipse cx="1890.1144" cy="982.9229" rx="90.1144" ry="20.4229" style="stroke:#191970;stroke-width:1.5;fill:none;"/><text fill="#191970" font-family="sans-serif" font-size="14" lengthAdjust="spacing" textLength="142" x="1819.1144" y="985.7696">A3: EDA Assignment</text><line style="stroke:#191970;stroke-width:1.5;" x1="1973.0464" x2="1951.7006" y1="975.8035" y2="997.1492"/><a href="http://GDSCUIZ.github.io" target="_top" title="http://GDSCUIZ.github.io" xlink:actuate="onRequest" xlink:href="http://GDSCUIZ.github.io" xlink:show="new" xlink:title="http://GDSCUIZ.github.io" xlink:type="simple"><path d="M1806,1074 L1806,1099.1328 A0,0 0 0 0 1806,1099.1328 L1974,1099.1328 A0,0 0 0 0 1974,1099.1328 L1974,1084 L1964,1074 L1894,1074 L1890,1003.57 L1886,1074 L1806,1074 A0,0 0 0 0 1806,1074 " fill="#FBFB77" filter="url(#f1jv5wfk8i0a8b)" style="stroke:#A80036;stroke-width:1.0;"/><path d="M1964,1074 L1964,1084 L1974,1084 L1964,1074 " fill="#FBFB77" style="stroke:#A80036;stroke-width:1.0;"/><text fill="#000000" font-family="sans-serif" font-size="13" lengthAdjust="spacing" textLength="147" x="1812" y="1091.0669">EDA on Titanic Dataset</text></a><ellipse cx="437.9756" cy="863.0951" rx="130.9756" ry="28.5951" style="stroke:#191970;stroke-width:1.5;fill:none;"/><text fill="#191970" font-family="sans-serif" font-size="14" font-style="italic" lengthAdjust="spacing" textLength="173" x="344.8877" y="858.3279">«Ayoub Bouihrouchane»</text><text fill="#191970" font-family="sans-serif" font-size="14" lengthAdjust="spacing" textLength="194" x="334.3877" y="874.6248">A4: DNN Regression with TF</text><line style="stroke:#191970;stroke-width:1.5;" x1="558.5118" x2="528.9411" y1="853.1269" y2="882.6976"/><a href="http://GDSCUIZ.github.io" target="_top" title="http://GDSCUIZ.github.io" xlink:actuate="onRequest" xlink:href="http://GDSCUIZ.github.io" xlink:show="new" xlink:title="http://GDSCUIZ.github.io" xlink:type="simple"><path d="M329.5,970.5 L329.5,995.6328 A0,0 0 0 0 329.5,995.6328 L546.5,995.6328 A0,0 0 0 0 546.5,995.6328 L546.5,980.5 L536.5,970.5 L442,970.5 L438,891.67 L434,970.5 L329.5,970.5 A0,0 0 0 0 329.5,970.5 " fill="#FBFB77" filter="url(#f1jv5wfk8i0a8b)" style="stroke:#A80036;stroke-width:1.0;"/><path d="M536.5,970.5 L536.5,980.5 L546.5,980.5 L536.5,970.5 " fill="#FBFB77" style="stroke:#A80036;stroke-width:1.0;"/><text fill="#000000" font-family="sans-serif" font-size="13" lengthAdjust="spacing" textLength="196" x="335.5" y="987.5669">Regression using DNNs with TF</text></a><ellipse cx="138.9892" cy="862.9978" rx="132.9892" ry="28.9978" style="stroke:#191970;stroke-width:1.5;fill:none;"/><text fill="#191970" font-family="sans-serif" font-size="14" font-style="italic" lengthAdjust="spacing" textLength="173" x="46.2106" y="857.5856">«Ayoub Bouihrouchane»</text><text fill="#191970" font-family="sans-serif" font-size="14" lengthAdjust="spacing" textLength="204" x="30.7106" y="873.8825">A5: DNN Classification with TF</text><line style="stroke:#191970;stroke-width:1.5;" x1="261.3786" x2="231.4022" y1="852.8892" y2="882.8656"/><a href="http://GDSCUIZ.github.io" target="_top" title="http://GDSCUIZ.github.io" xlink:actuate="onRequest" xlink:href="http://GDSCUIZ.github.io" xlink:show="new" xlink:title="http://GDSCUIZ.github.io" xlink:type="simple"><path d="M24,970.5 L24,995.6328 A0,0 0 0 0 24,995.6328 L254,995.6328 A0,0 0 0 0 254,995.6328 L254,980.5 L244,970.5 L143,970.5 L139,892.26 L135,970.5 L24,970.5 A0,0 0 0 0 24,970.5 " fill="#FBFB77" filter="url(#f1jv5wfk8i0a8b)" style="stroke:#A80036;stroke-width:1.0;"/><path d="M244,970.5 L244,980.5 L254,980.5 L244,970.5 " fill="#FBFB77" style="stroke:#A80036;stroke-width:1.0;"/><text fill="#000000" font-family="sans-serif" font-size="13" lengthAdjust="spacing" textLength="209" x="30" y="987.5669">Classification using DNNs with TF</text></a><ellipse cx="733.7566" cy="862.7513" rx="129.2566" ry="28.2513" style="stroke:#191970;stroke-width:1.5;fill:none;"/><text fill="#191970" font-family="sans-serif" font-size="14" font-style="italic" lengthAdjust="spacing" textLength="127" x="664.7276" y="854.4051">«Said Elhachemy»</text><text fill="#191970" font-family="sans-serif" font-size="14" lengthAdjust="spacing" textLength="214" x="621.2276" y="870.702">A6: NN Regression with Numpy</text><line style="stroke:#191970;stroke-width:1.5;" x1="852.7108" x2="823.4863" y1="852.9029" y2="882.1274"/><a href="http://GDSCUIZ.github.io" target="_top" title="http://GDSCUIZ.github.io" xlink:actuate="onRequest" xlink:href="http://GDSCUIZ.github.io" xlink:show="new" xlink:title="http://GDSCUIZ.github.io" xlink:type="simple"><path d="M619,970.5 L619,995.6328 A0,0 0 0 0 619,995.6328 L849,995.6328 A0,0 0 0 0 849,995.6328 L849,980.5 L839,970.5 L738,970.5 L734,891.67 L730,970.5 L619,970.5 A0,0 0 0 0 619,970.5 " fill="#FBFB77" filter="url(#f1jv5wfk8i0a8b)" style="stroke:#A80036;stroke-width:1.0;"/><path d="M839,970.5 L839,980.5 L849,980.5 L839,970.5 " fill="#FBFB77" style="stroke:#A80036;stroke-width:1.0;"/><text fill="#000000" font-family="sans-serif" font-size="13" lengthAdjust="spacing" textLength="209" x="625" y="987.5669">Classification using DNNs with TF</text></a><ellipse cx="763.0799" cy="142.2511" rx="57.0799" ry="14.7511" style="stroke:#A80036;stroke-width:1.5;fill:none;"/><text fill="#000000" font-family="sans-serif" font-size="14" lengthAdjust="spacing" textLength="63" x="728.5799" y="145.9987">Required</text><line style="stroke:#A80036;stroke-width:1.5;" x1="815.6103" x2="799.5975" y1="137.1089" y2="153.1217"/><ellipse cx="908.1007" cy="142.715" rx="52.6007" ry="14.715" style="stroke:#A80036;stroke-width:1.5;fill:none;"/><text fill="#000000" font-family="sans-serif" font-size="14" lengthAdjust="spacing" textLength="57" x="876.6007" y="146.4626">Optional</text><!--MD5=[4539802c5b5ff878d82227ed0da0a12b]
link M1 to W3--><path d="M1095,282.21 C1095,298.4 1095,319.3 1095,336.53 " fill="none" id="M1-to-W3" style="stroke:#A80036;stroke-width:1.0;"/><polygon fill="#A80036" points="1095,341.75,1099,332.75,1095,336.75,1091,332.75,1095,341.75" style="stroke:#A80036;stroke-width:1.0;"/><!--MD5=[bf75434361b431fedbb68b84966ff6dc]
link M2 to M3--><path d="M1642.36,396.55 C1641.9,415.33 1641.26,440.91 1640.76,460.8 " fill="none" id="M2-to-M3" style="stroke:#A80036;stroke-width:1.0;"/><polygon fill="#A80036" points="1640.64,465.98,1644.87,457.0858,1640.7685,460.9817,1636.8727,456.8802,1640.64,465.98" style="stroke:#A80036;stroke-width:1.0;"/><!--MD5=[332361d0d33fb722ee63f974163c734a]
link M3 to E6--><path d="M1664.98,518.48 C1684.93,538.43 1712.89,566.39 1733.67,587.17 " fill="none" id="M3-to-E6" style="stroke:#A80036;stroke-width:1.0;"/><polygon fill="#A80036" points="1737.47,590.97,1733.9345,581.7776,1733.9345,587.4345,1728.2776,587.4345,1737.47,590.97" style="stroke:#A80036;stroke-width:1.0;"/><!--MD5=[94463cc52e7580a6aa8e0892543004cb]
link M4 to E6--><path d="M1884.55,520.27 C1858.58,540.45 1823.12,568.01 1797.02,588.29 " fill="none" id="M4-to-E6" style="stroke:#A80036;stroke-width:1.0;"/><polygon fill="#A80036" points="1792.92,591.48,1802.4781,589.1048,1796.8645,588.4073,1797.5619,582.7936,1792.92,591.48" style="stroke:#A80036;stroke-width:1.0;"/><!--MD5=[a3c19f3fdbe6b6d43ba03dbea8f4ea5b]
link M5 to E7--><path d="M524.99,517.9 C551.71,537.65 589.41,565.52 617.68,586.43 " fill="none" id="M5-to-E7" style="stroke:#A80036;stroke-width:1.0;"/><polygon fill="#A80036" points="621.78,589.46,616.926,580.8904,617.7612,586.4852,612.1663,587.3205,621.78,589.46" style="stroke:#A80036;stroke-width:1.0;"/><!--MD5=[eafd6081afc775571d539063ef63995e]
link E0 to E1--><path d="M1105,57.23 C1105,73.4 1105,94.61 1105,111.7 " fill="none" id="E0-to-E1" style="stroke:#A80036;stroke-width:1.0;"/><polygon fill="#A80036" points="1105,116.86,1109,107.86,1105,111.86,1101,107.86,1105,116.86" style="stroke:#A80036;stroke-width:1.0;"/><!--MD5=[bd9212629c40eea5af01faf0184da8d5]
link E1 to W2--><path d="M1050.39,164.67 C996.99,185.38 916.59,216.55 866.26,236.06 " fill="none" id="E1-to-W2" style="stroke:#A80036;stroke-width:1.0;"/><polygon fill="#A80036" points="861.49,237.92,871.3268,238.4064,866.1538,236.1174,868.4427,230.9444,861.49,237.92" style="stroke:#A80036;stroke-width:1.0;"/><!--MD5=[1f1cd8e6dd4c1b2ca2aaccc9b9bcea6e]
link E1 to E2--><path d="M1165.17,163.9 C1222.79,183.43 1309.39,212.78 1367.95,232.63 " fill="none" id="E1-to-E2" style="stroke:#A80036;stroke-width:1.0;"/><polygon fill="#A80036" points="1372.82,234.28,1365.595,227.5868,1368.0881,232.6646,1363.0103,235.1578,1372.82,234.28" style="stroke:#A80036;stroke-width:1.0;"/><!--MD5=[dcad52bbbca2fe8adc741ce38b45dc12]
link E2 to E5--><path d="M1415.59,281.2 C1389.3,324.19 1335.83,411.65 1306.81,459.11 " fill="none" id="E2-to-E5" style="stroke:#A80036;stroke-width:1.0;"/><polygon fill="#A80036" points="1304.08,463.57,1312.1763,457.962,1306.6797,459.299,1305.3427,453.8024,1304.08,463.57" style="stroke:#A80036;stroke-width:1.0;"/><!--MD5=[e1278bad07730aba396118a76bcefa42]
link E2 to W4--><path d="M1512.33,267.65 C1676.95,293.11 2039.96,359.44 2110,458 C2135.7,494.16 2125.66,547.64 2114.83,582.03 " fill="none" id="E2-to-W4" style="stroke:#A80036;stroke-width:1.0;"/><polygon fill="#A80036" points="2113.23,586.96,2119.8114,579.633,2114.7725,582.2039,2112.2017,577.165,2113.23,586.96" style="stroke:#A80036;stroke-width:1.0;"/><!--MD5=[e3e28c1befcf002155aa15e1416b4315]
link E2 to E6--><path d="M1430.97,281.78 C1432.32,334.83 1442.91,457.09 1509,527 C1551.66,572.13 1618.59,594.25 1672.9,605.1 " fill="none" id="E2-to-E6" style="stroke:#A80036;stroke-width:1.0;"/><polygon fill="#A80036" points="1678.11,606.11,1670.0407,600.4632,1673.2022,605.1541,1668.5113,608.3156,1678.11,606.11" style="stroke:#A80036;stroke-width:1.0;"/><!--MD5=[4931de25dcb70cd4585e7722db9b3a49]
link E3 to E7--><path d="M591.78,396.43 C601.68,413.34 614.04,436.35 622,458 C637.47,500.05 647.27,551.03 652.45,583.38 " fill="none" id="E3-to-E7" style="stroke:#A80036;stroke-width:1.0;"/><polygon fill="#A80036" points="653.24,588.4,655.7775,578.8836,652.4551,583.462,647.8767,580.1396,653.24,588.4" style="stroke:#A80036;stroke-width:1.0;"/><!--MD5=[1215d52114495cf35c63de9a53fffc82]
link E4 to E7--><path d="M803.47,395.79 C773.62,440.57 710.76,534.87 677.94,584.09 " fill="none" id="E4-to-E7" style="stroke:#A80036;stroke-width:1.0;"/><polygon fill="#A80036" points="675.05,588.42,683.3705,583.1503,677.8235,584.2597,676.7141,578.7127,675.05,588.42" style="stroke:#A80036;stroke-width:1.0;"/><!--MD5=[3a9b96bfbf6b6ad89c494e81751bda47]
link E5 to E7--><path d="M1189.19,512.34 C1091.42,531.18 936.79,561.02 803,587 C787.61,589.99 771.3,593.16 755.38,596.27 " fill="none" id="E5-to-E7" style="stroke:#A80036;stroke-width:1.0;"/><polygon fill="#A80036" points="750.46,597.23,760.0587,599.4356,755.3678,596.2741,758.5293,591.5832,750.46,597.23" style="stroke:#A80036;stroke-width:1.0;"/><!--MD5=[9120cf2e5df3bff93db8f754bbbc09b4]
link E5 to E6--><path d="M1370.83,515.03 C1461.57,538.34 1604.77,575.12 1690.42,597.12 " fill="none" id="E5-to-E6" style="stroke:#A80036;stroke-width:1.0;"/><polygon fill="#A80036" points="1695.47,598.41,1687.7468,592.2983,1690.6269,597.1671,1685.7582,600.0472,1695.47,598.41" style="stroke:#A80036;stroke-width:1.0;"/><!--MD5=[eaef156f3cd26fb09680b4726e423ecd]
link E5 to E5_1--><path d="M1254.91,520.88 C1230.31,541.87 1196.66,570.57 1172.9,590.85 " fill="none" id="E5-to-E5_1" style="stroke:#A80036;stroke-width:1.0;"/><polygon fill="#A80036" points="1168.88,594.28,1178.3165,591.4599,1172.6763,591.026,1173.1101,585.3859,1168.88,594.28" style="stroke:#A80036;stroke-width:1.0;"/><!--MD5=[d0dc24fee2dc8f962968ad55317b5fa5]
link E5 to E5_2--><path d="M1300.08,521.49 C1310.85,544.54 1325.83,576.6 1335.21,596.69 " fill="none" id="E5-to-E5_2" style="stroke:#A80036;stroke-width:1.0;"/><polygon fill="#A80036" points="1337.36,601.28,1337.1771,591.4328,1335.2448,596.7494,1329.9282,594.8172,1337.36,601.28" style="stroke:#A80036;stroke-width:1.0;"/><!--MD5=[78e5ab5e5a88bc842e043d3721ef22a1]
link E5 to E5_3--><path d="M1347.54,518.38 C1376.23,533.62 1407.73,556.19 1424,587 C1447.59,631.66 1407.54,686.35 1379.89,716.45 " fill="none" id="E5-to-E5_3" style="stroke:#A80036;stroke-width:1.0;"/><polygon fill="#A80036" points="1376.25,720.35,1385.3156,716.501,1379.6621,716.6952,1379.4679,711.0417,1376.25,720.35" style="stroke:#A80036;stroke-width:1.0;"/><!--MD5=[1486efffb1e6671ca120f881dfc47b10]
link E5 to E5_4--><path d="M1342.33,518.97 C1376.21,535.87 1419.53,559.88 1454,587 C1501.38,624.28 1547.11,677.84 1573.08,710.42 " fill="none" id="E5-to-E5_4" style="stroke:#A80036;stroke-width:1.0;"/><polygon fill="#A80036" points="1576.45,714.68,1573.9767,705.1467,1573.337,710.7673,1567.7164,710.1276,1576.45,714.68" style="stroke:#A80036;stroke-width:1.0;"/><!--MD5=[772fd7353b85fcd7ba9781333a809f64]
link E5_1 to W1--><path d="M1153.5,639.2 C1172.32,682.22 1214.48,778.56 1236.69,829.3 " fill="none" id="E5_1-to-W1" style="stroke:#A80036;stroke-width:1.0;"/><polygon fill="#A80036" points="1238.77,834.06,1238.8015,824.2112,1236.7539,829.4845,1231.4806,827.4369,1238.77,834.06" style="stroke:#A80036;stroke-width:1.0;"/><!--MD5=[3ed41ca9e4a0342bf659649a2d7520a8]
link E5_2 to W1--><path d="M1321.53,630.77 C1298.64,645.75 1264.49,672.46 1250,706 C1232.92,745.53 1237.44,796.13 1243.32,828.81 " fill="none" id="E5_2-to-W1" style="stroke:#A80036;stroke-width:1.0;"/><polygon fill="#A80036" points="1244.27,833.89,1246.5294,824.3038,1243.3417,828.9769,1238.6685,825.7892,1244.27,833.89" style="stroke:#A80036;stroke-width:1.0;"/><!--MD5=[1c20aaf2cd583bc89bf1591f0a44de04]
link E5_3 to W1--><path d="M1340.44,759.91 C1323.92,778.76 1298.27,808.05 1278.66,830.43 " fill="none" id="E5_3-to-W1" style="stroke:#A80036;stroke-width:1.0;"/><polygon fill="#A80036" points="1275.32,834.24,1284.2557,830.0984,1278.6115,830.4762,1278.2337,824.832,1275.32,834.24" style="stroke:#A80036;stroke-width:1.0;"/><!--MD5=[55ce9eb575be619a41e32fcf1ab5438f]
link E5_4 to W1--><path d="M1535.47,761.94 C1476.72,782.61 1386.78,814.24 1323.8,836.39 " fill="none" id="E5_4-to-W1" style="stroke:#A80036;stroke-width:1.0;"/><polygon fill="#A80036" points="1318.94,838.1,1328.7564,838.8983,1323.6586,836.4463,1326.1106,831.3485,1318.94,838.1" style="stroke:#A80036;stroke-width:1.0;"/><!--MD5=[aad082d993e6b8cee70c7930f5a8138a]
link E6 to A3--><path d="M1759.98,643.33 C1757.14,693.96 1756.32,808.59 1798,892 C1811.86,919.73 1837.72,943.84 1858.5,960.11 " fill="none" id="E6-to-A3" style="stroke:#A80036;stroke-width:1.0;"/><polygon fill="#A80036" points="1862.59,963.26,1857.8937,954.6029,1858.6263,960.2121,1853.0171,960.9448,1862.59,963.26" style="stroke:#A80036;stroke-width:1.0;"/><!--MD5=[afa1024e8ff7de6306129b3a11e360a6]
link E6 to W7--><path d="M1778.93,642.74 C1809.68,688.58 1874.48,785.19 1906.81,833.39 " fill="none" id="E6-to-W7" style="stroke:#A80036;stroke-width:1.0;"/><polygon fill="#A80036" points="1909.65,837.62,1907.9474,827.9194,1906.86,833.4708,1901.3087,832.3834,1909.65,837.62" style="stroke:#A80036;stroke-width:1.0;"/><!--MD5=[8d8b3bc6a7e801dd3cc94a5872e3c70f]
link E6 to W6--><path d="M1811.62,638.8 C1855.69,657.72 1920.72,685.64 1970.95,707.21 " fill="none" id="E6-to-W6" style="stroke:#A80036;stroke-width:1.0;"/><polygon fill="#A80036" points="1975.76,709.27,1969.0823,702.0306,1971.1695,707.2884,1965.9117,709.3755,1975.76,709.27" style="stroke:#A80036;stroke-width:1.0;"/><!--MD5=[1b93dcc689145246fcf276e79ea23317]
link E7 to W8--><path d="M611.36,642.82 C575.1,662.94 524.48,691.02 487.3,711.65 " fill="none" id="E7-to-W8" style="stroke:#A80036;stroke-width:1.0;"/><polygon fill="#A80036" points="482.83,714.13,492.64,713.2558,487.2008,711.7018,488.7548,706.2626,482.83,714.13" style="stroke:#A80036;stroke-width:1.0;"/><!--MD5=[c23aa90e91c7f6a40a1dd01c1f3910ec]
link E7 to W10--><path d="M709.32,642.23 C753.92,663.32 817.7,693.47 862.16,714.49 " fill="none" id="E7-to-W10" style="stroke:#A80036;stroke-width:1.0;"/><polygon fill="#A80036" points="866.94,716.75,860.4964,709.3015,862.4149,714.6231,857.0933,716.5416,866.94,716.75" style="stroke:#A80036;stroke-width:1.0;"/><!--MD5=[d9c70627b1590f4ad51290afff24cf75]
link E7 to W12--><path d="M664.55,644.46 C670.88,667.12 679.79,698.96 685.48,719.28 " fill="none" id="E7-W12" style="stroke:#A80036;stroke-width:1.0;"/><!--MD5=[814694ad6708beace6ccb2c72ccbdc90]
link W1 to A1--><path d="M1246.45,892.26 C1243.82,908.58 1240.5,929.24 1237.7,946.62 " fill="none" id="W1-to-A1" style="stroke:#A80036;stroke-width:1.0;"/><polygon fill="#A80036" points="1236.85,951.9,1242.2366,943.6547,1237.6489,946.9642,1234.3393,942.3765,1236.85,951.9" style="stroke:#A80036;stroke-width:1.0;"/><!--MD5=[c17e47e3fec12eb76e7ade644c982c08]
link W1 to A2--><path d="M1313.73,888.59 C1362.47,907.7 1430.08,934.21 1480.84,954.1 " fill="none" id="W1-to-A2" style="stroke:#A80036;stroke-width:1.0;"/><polygon fill="#A80036" points="1485.7,956.01,1478.7845,948.9974,1481.0459,954.1826,1475.8607,956.444,1485.7,956.01" style="stroke:#A80036;stroke-width:1.0;"/><!--MD5=[196843ca9cb2c2a88bb8126c92104eda]
link W2 to E4--><path d="M820,274.66 C820,292.11 820,318.48 820,338.9 " fill="none" id="W2-to-E4" style="stroke:#A80036;stroke-width:1.0;"/><polygon fill="#A80036" points="820,343.96,824,334.96,820,338.96,816,334.96,820,343.96" style="stroke:#A80036;stroke-width:1.0;"/><!--MD5=[4382496858e9648dc40658832bfff3cc]
link W2 to E3--><path d="M783.73,272.8 C742.66,291.82 675.38,322.98 628.56,344.66 " fill="none" id="W2-to-E3" style="stroke:#A80036;stroke-width:1.0;"/><polygon fill="#A80036" points="623.81,346.86,633.6578,346.7144,628.3485,344.762,630.301,339.4528,623.81,346.86" style="stroke:#A80036;stroke-width:1.0;"/><!--MD5=[0236886ed49789c9a3d47bba49c12e47]
link W2 to W3--><path d="M859.69,272.31 C904.74,290.82 978.83,321.26 1031.84,343.05 " fill="none" id="W2-to-W3" style="stroke:#A80036;stroke-width:1.0;"/><polygon fill="#A80036" points="1036.58,344.99,1029.7809,337.8645,1031.9566,343.0863,1026.7349,345.262,1036.58,344.99" style="stroke:#A80036;stroke-width:1.0;"/><!--MD5=[8303754fdf1c5658650736a053438f4f]
link W2 to W11--><path d="M751.93,266.86 C678.54,279.81 559.03,304.54 461,342 C379.82,373.02 292.61,423.19 238.18,456.75 " fill="none" id="W2-to-W11" style="stroke:#A80036;stroke-width:1.0;"/><polygon fill="#A80036" points="233.67,459.54,243.4293,458.2152,237.9244,456.9131,239.2264,451.4082,233.67,459.54" style="stroke:#A80036;stroke-width:1.0;"/><!--MD5=[1e6c469c19b15a6f27e64e489a0c264c]
link W3 to W4--><path d="M1215.27,379.91 C1471.88,399.18 2051.16,444.09 2067,458 C2101.8,488.57 2106.25,545.36 2105.03,581.75 " fill="none" id="W3-to-W4" style="stroke:#A80036;stroke-width:1.0;"/><polygon fill="#A80036" points="2104.81,586.96,2109.1917,578.1395,2105.0241,581.9646,2101.199,577.797,2104.81,586.96" style="stroke:#A80036;stroke-width:1.0;"/><!--MD5=[5657d537ed350c6c373d77174933bfdd]
link W3 to W5--><path d="M1074.94,398.1 C1040.63,444.45 970.98,538.54 935.62,586.29 " fill="none" id="W3-to-W5" style="stroke:#A80036;stroke-width:1.0;"/><polygon fill="#A80036" points="932.52,590.48,941.1007,585.6457,935.504,586.468,934.6816,580.8713,932.52,590.48" style="stroke:#A80036;stroke-width:1.0;"/><!--MD5=[75df6429b8904b544b8b21eab9c10104]
link W4 to W6--><path d="M2088.64,645.99 C2080.94,662.4 2071.16,683.24 2062.81,701.03 " fill="none" id="W4-to-W6" style="stroke:#A80036;stroke-width:1.0;"/><polygon fill="#A80036" points="2060.5,705.96,2067.9485,699.5164,2062.6269,701.4349,2060.7084,696.1133,2060.5,705.96" style="stroke:#A80036;stroke-width:1.0;"/><!--MD5=[6803e6296375c70b7e04cce72af6c481]
link W5 to W10--><path d="M914,643.27 C914,662.19 914,687.99 914,708.04 " fill="none" id="W5-to-W10" style="stroke:#A80036;stroke-width:1.0;"/><polygon fill="#A80036" points="914,713.27,918,704.27,914,708.27,910,704.27,914,713.27" style="stroke:#A80036;stroke-width:1.0;"/><!--MD5=[3d2b07e4e19ddc01105b8d17a08f04fe]
link W6 to W7--><path d="M2013.11,773.43 C1994.55,792.3 1971.38,815.86 1953.6,833.93 " fill="none" id="W6-to-W7" style="stroke:#A80036;stroke-width:1.0;"/><polygon fill="#A80036" points="1949.67,837.93,1958.8408,834.3388,1953.184,834.3731,1953.1498,828.7164,1949.67,837.93" style="stroke:#A80036;stroke-width:1.0;"/><!--MD5=[4cceb7990325eb89a0df03a046bb9268]
link W7 to A3--><path d="M1918.54,888.45 C1912.39,908.61 1903.7,937.09 1897.53,957.32 " fill="none" id="W7-to-A3" style="stroke:#A80036;stroke-width:1.0;"/><polygon fill="#A80036" points="1896.02,962.27,1902.468,954.8253,1897.4764,957.4868,1894.8149,952.4951,1896.02,962.27" style="stroke:#A80036;stroke-width:1.0;"/><!--MD5=[7b8e80f2724c2e3be42c3754e35e1c27]
link W8 to A4--><path d="M438,767.55 C438,785.61 438,809.64 438,828.94 " fill="none" id="W8-to-A4" style="stroke:#A80036;stroke-width:1.0;"/><polygon fill="#A80036" points="438,834.25,442,825.25,438,829.25,434,825.25,438,834.25" style="stroke:#A80036;stroke-width:1.0;"/><!--MD5=[e098774e67f208008bc54a5994c42664]
link W8 to A5--><path d="M380,764.47 C329.8,784.79 257.24,814.15 204.87,835.34 " fill="none" id="W8-to-A5" style="stroke:#A80036;stroke-width:1.0;"/><polygon fill="#A80036" points="200.18,837.24,210.0237,837.5593,204.8125,835.3585,207.0133,830.1473,200.18,837.24" style="stroke:#A80036;stroke-width:1.0;"/><!--MD5=[475a6b0babc82591ea60090ab944e638]
link W11 to W9--><path d="M184,527.12 C184,576.97 184,669.35 184,713.81 " fill="none" id="W11-to-W9" style="stroke:#A80036;stroke-width:1.0;"/><polygon fill="#A80036" points="184,718.99,188,709.99,184,713.99,180,709.99,184,718.99" style="stroke:#A80036;stroke-width:1.0;"/><!--MD5=[0454c53dc23ef8d4d782ec3a02be2600]
link W12 to A6--><path d="M698,760.71 C704.6,779.26 714.59,807.39 722.38,829.31 " fill="none" id="W12-to-A6" style="stroke:#A80036;stroke-width:1.0;"/><polygon fill="#A80036" points="724.11,834.17,724.8632,824.35,722.4347,829.459,717.3256,827.0305,724.11,834.17" style="stroke:#A80036;stroke-width:1.0;"/><!--MD5=[0f2435f98601becdcbcb19efae9347aa]
link E: Event to W: Workshop--><!--MD5=[c7e01f4319e1858fb7eabf2731f6e35b]
link W: Workshop to M: Math--><!--MD5=[41d9513d6a270d3d1ab707bb5fb29dff]
link E: Event to A: Assignment--><!--MD5=[7a9b2ecb8bcc53ccdfc9a5ad337eaf47]
link A: Assignment to Required--><!--MD5=[a9f007f9487967e577345f66b8e0e46c]
link Required to Optional--><!--MD5=[1f1dee97e7f354a57e39ee7a4f21ad86]
@startuml "MLStart"

skinparam usecase {
BackgroundColor transparent
shadowing false
}

(E: Event)
(W: Workshop) #line:red;text:red
(M: Math) #line:darkorange;text:darkorange
(A: Assignment) #line:MidnightBlue;text:MidnightBlue

(E0: 30DaysOfML Init)/ as E0 <<Taha Bouhsine>>
(E1: AI First + ML 101)/ as E1 <<Taha Bouhsine>>

(E2: Intro to Data)/ as E2 <<Taha Bouhsine>>
(E3: Intro to Colab) as E3 <<Said Elhachemy>>
(E4: Python in Kaggle) as E4 << Lahcen Oussayd >>
(E5: Supervised Machine Learning)/ as E5 <<Taha Bouhsine>>
(E5_1: Linear Regression)/ as E5_1
(E5_2: SVM)/ as E5_2
(E5_3: Decision Tree)/ as E5_3
(E5_4: Random Forest)/ as E5_4 <<Oumaima Kaissi>>
(E6: Intro to EDA)/ as E6 <<Taha Bouhsine>>
(E7: Intro to Deep Learning)/ as E7 << Ayoub Bouihrouchane >>




(W1: Supervised ML with sklearn)/ as W1 << Chaimae Elmejgari>> #line:red;text:red 
(W2: Intro to Python)/ as W2 #line:red;text:red
(W3: Linear Algebra with Numpy)/ as W3 <<Said Elhachemy>> #line:red;text:red
(W4: Data Preparation with Pandas)/ as W4 <<Oumaima Kaissi>> #line:red;text:red
(W5: Intro to JAX)/ as W5 <<Said Elhachemy>> #line:red;text:red
(W6: Intro to Data Visualization with Python)/ as W6 <<Souad Saidi>> #line:red;text:red
(W7: EDA with Python)/ as W7 <<Taha Bouhsine>> #line:red;text:red
(W8: Intro to TensorFlow)/ as W8 << Ayoub Bouihrouchane >> #line:red;text:red 
(W9: OOP with Python)/ as W9 #line:red;text:red
(W10: NN with JAX) as W10 <<Said Elhachemy>> #line:red;text:red
(W11: Functional Programming with Python)/ as W11 #line:red;text:red
(W12: NN with Numpy)/ as W12 #line:red;text:red

(M1: Linear algebra for ML) as M1 << El Mahjoub Abakrim >> #line:darkorange;text:darkorange
(M2: Probability for ML) as M2 << El Mahjoub Abakrim >> #line:darkorange;text:darkorange
(M3: Statistics for ML) as M3 << El Mahjoub Abakrim >> #line:darkorange;text:darkorange
(M5: Calculus for ML) as M5 << El Mahjoub Abakrim >> #line:darkorange;text:darkorange 
(M4: Information Theory for ML) as M4 << El Mahjoub Abakrim >> #line:darkorange;text:darkorange

(A1: Sklearn Classification Assignment)/ as A1 <<Chaimae Elmejgari>> #line:MidnightBlue;text:MidnightBlue
note bottom [[http://GDSCUIZ.github.io]]
Heart Disease UCI Dataset
end note

(A2: Sklearn Regression Assignment)/ as A2 <<Chaimae Elmejgari>> #line:MidnightBlue;text:MidnightBlue
note bottom [[http://GDSCUIZ.github.io]]
House Pricing Dataset
end note

(A3: EDA Assignment)/ as A3 #line:MidnightBlue;text:MidnightBlue
note bottom [[http://GDSCUIZ.github.io]]
EDA on Titanic Dataset
end note

(A4: DNN Regression with TF)/ as A4 <<Ayoub Bouihrouchane>> #line:MidnightBlue;text:MidnightBlue
note bottom [[http://GDSCUIZ.github.io]]
Regression using DNNs with TF
end note

(A5: DNN Classification with TF)/ as A5 <<Ayoub Bouihrouchane>> #line:MidnightBlue;text:MidnightBlue
note bottom [[http://GDSCUIZ.github.io]]
Classification using DNNs with TF
end note

(A6: NN Regression with Numpy)/ as A6 <<Said Elhachemy>> #line:MidnightBlue;text:MidnightBlue
note bottom [[http://GDSCUIZ.github.io]]
Classification using DNNs with TF
end note

M1 - -> W3

M2 - -> M3

M3 - -> E6
M4 - -> E6

M5 - -> E7

E0 - -> E1

E1 - -> W2
E1 - -> E2

E2 - - -> E5
E2 - -> W4
E2 - - -> E6

E3 - -> E7

E4 - -> E7

E5 - -> E7
E5 - -> E6
E5 - -> E5_1
E5 - -> E5_2
E5 - - -> E5_3
E5 - - -> E5_4
E5_1 - -> W1
E5_2 - -> W1
E5_3 - -> W1
E5_4 - -> W1


E6 - -> A3
E6 - -> W7
E6 - -> W6

E7 - -> W8
E7 - -> W10
E7 - - W12

W1 - -> A1
W1 - -> A2

W2 - -> E4
W2 - -> E3
W2 - -> W3
W2 - - -> W11

W3 - - -> W4
W3 - -> W5

W4 - -> W6

W5 - -> W10

W6 - -> W7

W7 - -> A3

W8 - -> A4
W8 - -> A5

W11 - - -> W9

W12 - -> A6

(Required)/
(Optional)
@enduml

PlantUML version 1.2022.0(Tue Jan 11 17:16:42 WEST 2022)
(GPL source distribution)
Java Runtime: OpenJDK Runtime Environment
JVM: OpenJDK 64-Bit Server VM
Default Encoding: UTF-8
Language: en
Country: US
--></g></svg>