<?xml version="1.0" encoding="UTF-8" standalone="no"?><svg xmlns="http://www.w3.org/2000/svg" xmlns:xlink="http://www.w3.org/1999/xlink" contentScriptType="application/ecmascript" contentStyleType="text/css" height="1107px" preserveAspectRatio="none" style="width:2224px;height:1107px;background:#FFFFFF;" version="1.1" viewBox="0 0 2224 1107" width="2224px" zoomAndPan="magnify"><defs><filter height="300%" id="f1b7dv93axm0jd" width="300%" x="-1" y="-1"><feGaussianBlur result="blurOut" stdDeviation="2.0"/><feColorMatrix in="blurOut" result="blurOut2" type="matrix" values="0 0 0 0 0 0 0 0 0 0 0 0 0 0 0 0 0 0 .4 0"/><feOffset dx="4.0" dy="4.0" in="blurOut2" result="blurOut3"/><feBlend in="SourceGraphic" in2="blurOut3" mode="normal"/></filter></defs><g><ellipse cx="580.1007" cy="31.715" rx="52.6007" ry="14.715" style="stroke:#A80036;stroke-width:1.5;fill:none;"/><text fill="#000000" font-family="sans-serif" font-size="14" lengthAdjust="spacing" textLength="57" x="548.6007" y="35.4626">E: Event</text><ellipse cx="737.1952" cy="31.339" rx="69.6952" ry="16.339" style="stroke:#FF0000;stroke-width:1.5;fill:none;"/><text fill="#FF0000" font-family="sans-serif" font-size="14" lengthAdjust="spacing" textLength="92" x="688.1952" y="35.0866">W: Workshop</text><ellipse cx="893.1079" cy="31.7016" rx="51.1079" ry="14.7016" style="stroke:#FF8C00;stroke-width:1.5;fill:none;"/><text fill="#FF8C00" font-family="sans-serif" font-size="14" lengthAdjust="spacing" textLength="55" x="862.6079" y="35.4492">M: Math</text><ellipse cx="580.1868" cy="142.4374" rx="72.6868" ry="16.9374" style="stroke:#191970;stroke-width:1.5;fill:none;"/><text fill="#191970" font-family="sans-serif" font-size="14" lengthAdjust="spacing" textLength="100" x="527.1868" y="146.1849">A: Assignment</text><ellipse cx="1087.1199" cy="31.6669" rx="106.6199" ry="25.6669" style="stroke:#A80036;stroke-width:1.5;fill:none;"/><text fill="#000000" font-family="sans-serif" font-size="14" font-style="italic" lengthAdjust="spacing" textLength="121" x="1019.6199" y="27.266">«Taha Bouhsine»</text><text fill="#000000" font-family="sans-serif" font-size="14" lengthAdjust="spacing" textLength="137" x="1011.6199" y="43.5629">E0: 30DaysOfML Init</text><line style="stroke:#A80036;stroke-width:1.5;" x1="1185.2418" x2="1157.9457" y1="22.7194" y2="50.0154"/><ellipse cx="1086.9446" cy="142.5288" rx="109.4446" ry="25.5288" style="stroke:#A80036;stroke-width:1.5;fill:none;"/><text fill="#000000" font-family="sans-serif" font-size="14" font-style="italic" lengthAdjust="spacing" textLength="121" x="1019.0576" y="137.9734">«Taha Bouhsine»</text><text fill="#000000" font-family="sans-serif" font-size="14" lengthAdjust="spacing" textLength="142" x="1008.5576" y="154.2702">E1: AI First + ML 101</text><line style="stroke:#A80036;stroke-width:1.5;" x1="1187.6661" x2="1160.7624" y1="133.6294" y2="160.5331"/><ellipse cx="1413.1231" cy="255.0577" rx="92.6231" ry="26.5577" style="stroke:#A80036;stroke-width:1.5;fill:none;"/><text fill="#000000" font-family="sans-serif" font-size="14" font-style="italic" lengthAdjust="spacing" textLength="121" x="1351.8731" y="250.6568">«Taha Bouhsine»</text><text fill="#000000" font-family="sans-serif" font-size="14" lengthAdjust="spacing" textLength="112" x="1356.3731" y="266.9537">E2: Intro to Data</text><line style="stroke:#A80036;stroke-width:1.5;" x1="1498.3637" x2="1468.6533" y1="245.7997" y2="275.5101"/><ellipse cx="558.0406" cy="370.0224" rx="97.5406" ry="26.5224" style="stroke:#A80036;stroke-width:1.5;fill:none;"/><text fill="#000000" font-family="sans-serif" font-size="14" font-style="italic" lengthAdjust="spacing" textLength="127" x="493.5406" y="365.6215">«Said Elhachemy»</text><text fill="#000000" font-family="sans-serif" font-size="14" lengthAdjust="spacing" textLength="119" x="497.5406" y="381.9184">E3: Intro to Colab</text><ellipse cx="802.2352" cy="369.9077" rx="111.2352" ry="25.9077" style="stroke:#A80036;stroke-width:1.5;fill:none;"/><text fill="#000000" font-family="sans-serif" font-size="14" font-style="italic" lengthAdjust="spacing" textLength="132" x="730.7352" y="365.5069">«Lahcen Oussayd»</text><text fill="#000000" font-family="sans-serif" font-size="14" lengthAdjust="spacing" textLength="142" x="725.7352" y="381.8037">E4: Python in Kaggle</text><ellipse cx="1268.9577" cy="492.4915" rx="132.9577" ry="28.9915" style="stroke:#A80036;stroke-width:1.5;fill:none;"/><text fill="#000000" font-family="sans-serif" font-size="14" font-style="italic" lengthAdjust="spacing" textLength="121" x="1203.3378" y="482.8536">«Taha Bouhsine»</text><text fill="#000000" font-family="sans-serif" font-size="14" lengthAdjust="spacing" textLength="229" x="1149.3378" y="499.1505">E5: Supervised Machine Learning</text><line style="stroke:#A80036;stroke-width:1.5;" x1="1391.3182" x2="1361.3481" y1="482.3851" y2="512.3552"/><ellipse cx="1125.8371" cy="616.6674" rx="101.3371" ry="22.6674" style="stroke:#A80036;stroke-width:1.5;fill:none;"/><text fill="#000000" font-family="sans-serif" font-size="14" lengthAdjust="spacing" textLength="167" x="1042.3371" y="619.5141">E5_1: Linear Regression</text><line style="stroke:#A80036;stroke-width:1.5;" x1="1219.0971" x2="1195.4939" y1="608.7656" y2="632.3687"/><ellipse cx="1326.0625" cy="616.5125" rx="63.0625" ry="15.0125" style="stroke:#A80036;stroke-width:1.5;fill:none;"/><text fill="#000000" font-family="sans-serif" font-size="14" lengthAdjust="spacing" textLength="73" x="1286.5625" y="620.2601">E5_2: SVM</text><line style="stroke:#A80036;stroke-width:1.5;" x1="1384.0986" x2="1368.1846" y1="611.2791" y2="627.1932"/><ellipse cx="1338.7915" cy="740.1583" rx="88.7915" ry="20.1583" style="stroke:#A80036;stroke-width:1.5;fill:none;"/><text fill="#000000" font-family="sans-serif" font-size="14" lengthAdjust="spacing" textLength="139" x="1269.2915" y="743.005">E5_3: Decision Tree</text><line style="stroke:#A80036;stroke-width:1.5;" x1="1420.5059" x2="1399.4261" y1="733.1311" y2="754.2109"/><ellipse cx="1576.8965" cy="739.9505" rx="113.8965" ry="25.4505" style="stroke:#A80036;stroke-width:1.5;fill:none;"/><text fill="#000000" font-family="sans-serif" font-size="14" font-style="italic" lengthAdjust="spacing" textLength="124" x="1507.3567" y="735.2593">«Oumaima Kaissi»</text><text fill="#000000" font-family="sans-serif" font-size="14" lengthAdjust="spacing" textLength="149" x="1494.8567" y="751.5561">E5_4: Random Forest</text><line style="stroke:#A80036;stroke-width:1.5;" x1="1681.715" x2="1655.2216" y1="731.0785" y2="757.5719"/><ellipse cx="1743.9566" cy="616.6928" rx="90.9566" ry="26.6928" style="stroke:#A80036;stroke-width:1.5;fill:none;"/><text fill="#000000" font-family="sans-serif" font-size="14" font-style="italic" lengthAdjust="spacing" textLength="121" x="1683.4566" y="612.292">«Taha Bouhsine»</text><text fill="#000000" font-family="sans-serif" font-size="14" lengthAdjust="spacing" textLength="109" x="1689.4566" y="628.5888">E6: Intro to EDA</text><line style="stroke:#A80036;stroke-width:1.5;" x1="1827.6635" x2="1797.6012" y1="607.3877" y2="637.45"/><ellipse cx="639.064" cy="616.6128" rx="128.564" ry="28.1128" style="stroke:#A80036;stroke-width:1.5;fill:none;"/><text fill="#000000" font-family="sans-serif" font-size="14" font-style="italic" lengthAdjust="spacing" textLength="173" x="547.564" y="612.2119">«Ayoub Bouihrouchane»</text><text fill="#000000" font-family="sans-serif" font-size="14" lengthAdjust="spacing" textLength="181" x="543.564" y="628.5088">E7: Intro to Deep Learning</text><line style="stroke:#A80036;stroke-width:1.5;" x1="757.3809" x2="728.2959" y1="606.8127" y2="635.8977"/><ellipse cx="1230.8776" cy="862.4755" rx="130.3776" ry="28.4755" style="stroke:#FF0000;stroke-width:1.5;fill:none;"/><text fill="#FF0000" font-family="sans-serif" font-size="14" font-style="italic" lengthAdjust="spacing" textLength="130" x="1160.3983" y="854.0519">«Chaimae Majgari»</text><text fill="#FF0000" font-family="sans-serif" font-size="14" lengthAdjust="spacing" textLength="217" x="1116.8983" y="870.3488">W1: Supervised ML with sklearn</text><line style="stroke:#FF0000;stroke-width:1.5;" x1="1350.8635" x2="1321.4132" y1="852.549" y2="881.9993"/><ellipse cx="802.228" cy="255.0456" rx="85.728" ry="19.5456" style="stroke:#FF0000;stroke-width:1.5;fill:none;"/><text fill="#FF0000" font-family="sans-serif" font-size="14" lengthAdjust="spacing" textLength="132" x="736.228" y="257.8923">W2: Intro to Python</text><line style="stroke:#FF0000;stroke-width:1.5;" x1="881.1232" x2="860.6593" y1="248.232" y2="268.6959"/><ellipse cx="1077.2207" cy="370.1441" rx="128.7207" ry="28.1441" style="stroke:#FF0000;stroke-width:1.5;fill:none;"/><text fill="#FF0000" font-family="sans-serif" font-size="14" font-style="italic" lengthAdjust="spacing" textLength="127" x="1008.1407" y="361.9328">«Said Elhachemy»</text><text fill="#FF0000" font-family="sans-serif" font-size="14" lengthAdjust="spacing" textLength="212" x="965.6407" y="378.2297">W3: Linear Algebra with Numpy</text><line style="stroke:#FF0000;stroke-width:1.5;" x1="1195.6818" x2="1166.5652" y1="360.3331" y2="389.4497"/><ellipse cx="2083.9146" cy="616.2829" rx="134.4146" ry="29.2829" style="stroke:#FF0000;stroke-width:1.5;fill:none;"/><text fill="#FF0000" font-family="sans-serif" font-size="14" font-style="italic" lengthAdjust="spacing" textLength="124" x="2016.8621" y="606.4756">«Oumaima Kaissi»</text><text fill="#FF0000" font-family="sans-serif" font-size="14" lengthAdjust="spacing" textLength="233" x="1962.3621" y="622.7725">W4: Data Preparation with Pandas</text><line style="stroke:#FF0000;stroke-width:1.5;" x1="2207.6157" x2="2177.3521" y1="606.0749" y2="636.3385"/><ellipse cx="896.1797" cy="616.2724" rx="93.6797" ry="26.2724" style="stroke:#FF0000;stroke-width:1.5;fill:none;"/><text fill="#FF0000" font-family="sans-serif" font-size="14" font-style="italic" lengthAdjust="spacing" textLength="127" x="832.6797" y="612.4555">«Said Elhachemy»</text><text fill="#FF0000" font-family="sans-serif" font-size="14" lengthAdjust="spacing" textLength="105" x="843.6797" y="628.7524">W5: Intro to JAX</text><line style="stroke:#FF0000;stroke-width:1.5;" x1="982.3926" x2="953.189" y1="607.1138" y2="636.3175"/><ellipse cx="2026.9172" cy="740.1834" rx="158.9172" ry="34.1834" style="stroke:#FF0000;stroke-width:1.5;fill:none;"/><text fill="#FF0000" font-family="sans-serif" font-size="14" font-style="italic" lengthAdjust="spacing" textLength="98" x="1977.9172" y="726.7332">«Souad Saidi»</text><text fill="#FF0000" font-family="sans-serif" font-size="14" lengthAdjust="spacing" textLength="289" x="1882.4172" y="743.0301">W6: Intro to Data Visualization with Python</text><line style="stroke:#FF0000;stroke-width:1.5;" x1="2173.168" x2="2137.9669" y1="728.2671" y2="763.4682"/><ellipse cx="1908.0817" cy="862.4775" rx="110.5817" ry="25.4775" style="stroke:#FF0000;stroke-width:1.5;fill:none;"/><text fill="#FF0000" font-family="sans-serif" font-size="14" font-style="italic" lengthAdjust="spacing" textLength="121" x="1840.1617" y="857.8428">«Taha Bouhsine»</text><text fill="#FF0000" font-family="sans-serif" font-size="14" lengthAdjust="spacing" textLength="144" x="1828.6617" y="874.1397">W7: EDA with Python</text><line style="stroke:#FF0000;stroke-width:1.5;" x1="2009.8495" x2="1983.0948" y1="853.596" y2="880.3507"/><ellipse cx="420.0016" cy="740.0003" rx="125.5016" ry="27.5003" style="stroke:#FF0000;stroke-width:1.5;fill:none;"/><text fill="#FF0000" font-family="sans-serif" font-size="14" font-style="italic" lengthAdjust="spacing" textLength="173" x="332.7516" y="735.5994">«Ayoub Bouihrouchane»</text><text fill="#FF0000" font-family="sans-serif" font-size="14" lengthAdjust="spacing" textLength="164" x="337.2516" y="751.8963">W8: Intro to TensorFlow</text><line style="stroke:#FF0000;stroke-width:1.5;" x1="535.5001" x2="507.0319" y1="730.4137" y2="758.8819"/><ellipse cx="165.8872" cy="739.7774" rx="91.8872" ry="20.7774" style="stroke:#FF0000;stroke-width:1.5;fill:none;"/><text fill="#FF0000" font-family="sans-serif" font-size="14" lengthAdjust="spacing" textLength="146" x="92.8872" y="742.6241">W9: OOP with Python</text><line style="stroke:#FF0000;stroke-width:1.5;" x1="250.4505" x2="228.7483" y1="732.5344" y2="754.2366"/><ellipse cx="895.9287" cy="740.1061" rx="96.4287" ry="26.6061" style="stroke:#FF0000;stroke-width:1.5;fill:none;"/><text fill="#FF0000" font-family="sans-serif" font-size="14" font-style="italic" lengthAdjust="spacing" textLength="127" x="831.9287" y="735.7052">«Said Elhachemy»</text><text fill="#FF0000" font-family="sans-serif" font-size="14" lengthAdjust="spacing" textLength="117" x="836.9287" y="752.0021">W10: NN with JAX</text><ellipse cx="165.8827" cy="492.3765" rx="159.8827" ry="34.3765" style="stroke:#FF0000;stroke-width:1.5;fill:none;"/><text fill="#FF0000" font-family="sans-serif" font-size="14" lengthAdjust="spacing" textLength="291" x="20.3827" y="495.2232">W11: Functional Programming with Python</text><line style="stroke:#FF0000;stroke-width:1.5;" x1="313.022" x2="277.6263" y1="480.3929" y2="515.7886"/><ellipse cx="672.9996" cy="740.0999" rx="90.9996" ry="20.5999" style="stroke:#FF0000;stroke-width:1.5;fill:none;"/><text fill="#FF0000" font-family="sans-serif" font-size="14" lengthAdjust="spacing" textLength="144" x="600.9996" y="742.9466">W12: NN with Numpy</text><line style="stroke:#FF0000;stroke-width:1.5;" x1="756.7461" x2="735.2224" y1="732.9188" y2="754.4425"/><ellipse cx="1077.2096" cy="255.0419" rx="123.2096" ry="27.0419" style="stroke:#FF8C00;stroke-width:1.5;fill:none;"/><text fill="#FF8C00" font-family="sans-serif" font-size="14" font-style="italic" lengthAdjust="spacing" textLength="153" x="993.5807" y="250.5685">«El Mahjoub Abakrim»</text><text fill="#FF8C00" font-family="sans-serif" font-size="14" lengthAdjust="spacing" textLength="171" x="984.5807" y="266.8654">M1: Linear algebra for ML</text><ellipse cx="1624.9399" cy="370.0505" rx="116.4399" ry="26.5505" style="stroke:#FF8C00;stroke-width:1.5;fill:none;"/><text fill="#FF8C00" font-family="sans-serif" font-size="14" font-style="italic" lengthAdjust="spacing" textLength="153" x="1547.4399" y="365.6496">«El Mahjoub Abakrim»</text><text fill="#FF8C00" font-family="sans-serif" font-size="14" lengthAdjust="spacing" textLength="145" x="1551.4399" y="381.9465">M2: Probability for ML</text><ellipse cx="1622.0408" cy="492.5486" rx="113.5408" ry="26.5486" style="stroke:#FF8C00;stroke-width:1.5;fill:none;"/><text fill="#FF8C00" font-family="sans-serif" font-size="14" font-style="italic" lengthAdjust="spacing" textLength="153" x="1545.5408" y="488.347">«El Mahjoub Abakrim»</text><text fill="#FF8C00" font-family="sans-serif" font-size="14" lengthAdjust="spacing" textLength="137" x="1553.5408" y="504.6439">M3: Statistics for ML</text><ellipse cx="473.8854" cy="492.409" rx="112.8854" ry="26.409" style="stroke:#FF8C00;stroke-width:1.5;fill:none;"/><text fill="#FF8C00" font-family="sans-serif" font-size="14" font-style="italic" lengthAdjust="spacing" textLength="153" x="397.3854" y="488.4013">«El Mahjoub Abakrim»</text><text fill="#FF8C00" font-family="sans-serif" font-size="14" lengthAdjust="spacing" textLength="133" x="407.3854" y="504.6982">M5: Calculus for ML</text><ellipse cx="1900.9116" cy="492.3823" rx="129.9116" ry="28.3823" style="stroke:#FF8C00;stroke-width:1.5;fill:none;"/><text fill="#FF8C00" font-family="sans-serif" font-size="14" font-style="italic" lengthAdjust="spacing" textLength="153" x="1818.3624" y="485.9">«El Mahjoub Abakrim»</text><text fill="#FF8C00" font-family="sans-serif" font-size="14" lengthAdjust="spacing" textLength="204" x="1792.8624" y="502.1969">M4: Information Theory for ML</text><ellipse cx="1225.0353" cy="982.1071" rx="143.5353" ry="31.1071" style="stroke:#191970;stroke-width:1.5;fill:none;"/><text fill="#191970" font-family="sans-serif" font-size="14" lengthAdjust="spacing" textLength="257" x="1096.5353" y="984.9537">A1: Sklearn Classification Assignment</text><line style="stroke:#191970;stroke-width:1.5;" x1="1357.1303" x2="1325.029" y1="971.2631" y2="1003.3644"/><a href="http://GDSCUIZ.github.io" target="_top" title="http://GDSCUIZ.github.io" xlink:actuate="onRequest" xlink:href="http://GDSCUIZ.github.io" xlink:show="new" xlink:title="http://GDSCUIZ.github.io" xlink:type="simple"><path d="M1128.5,1073 L1128.5,1098.1328 A0,0 0 0 0 1128.5,1098.1328 L1321.5,1098.1328 A0,0 0 0 0 1321.5,1098.1328 L1321.5,1083 L1311.5,1073 L1229,1073 L1225,1013.18 L1221,1073 L1128.5,1073 A0,0 0 0 0 1128.5,1073 " fill="#FBFB77" filter="url(#f1b7dv93axm0jd)" style="stroke:#A80036;stroke-width:1.0;"/><path d="M1311.5,1073 L1311.5,1083 L1321.5,1083 L1311.5,1073 " fill="#FBFB77" style="stroke:#A80036;stroke-width:1.0;"/><text fill="#000000" font-family="sans-serif" font-size="13" lengthAdjust="spacing" textLength="172" x="1134.5" y="1090.0669">Heart Disease UCI Dataset</text></a><ellipse cx="1542.7578" cy="982.1516" rx="138.7578" ry="30.1516" style="stroke:#191970;stroke-width:1.5;fill:none;"/><text fill="#191970" font-family="sans-serif" font-size="14" lengthAdjust="spacing" textLength="247" x="1419.2578" y="984.9982">A2: Sklearn Regression Assignment</text><line style="stroke:#191970;stroke-width:1.5;" x1="1670.456" x2="1639.3174" y1="971.6407" y2="1002.7793"/><a href="http://GDSCUIZ.github.io" target="_top" title="http://GDSCUIZ.github.io" xlink:actuate="onRequest" xlink:href="http://GDSCUIZ.github.io" xlink:show="new" xlink:title="http://GDSCUIZ.github.io" xlink:type="simple"><path d="M1461.5,1073 L1461.5,1098.1328 A0,0 0 0 0 1461.5,1098.1328 L1624.5,1098.1328 A0,0 0 0 0 1624.5,1098.1328 L1624.5,1083 L1614.5,1073 L1547,1073 L1543,1012.09 L1539,1073 L1461.5,1073 A0,0 0 0 0 1461.5,1073 " fill="#FBFB77" filter="url(#f1b7dv93axm0jd)" style="stroke:#A80036;stroke-width:1.0;"/><path d="M1614.5,1073 L1614.5,1083 L1624.5,1083 L1614.5,1073 " fill="#FBFB77" style="stroke:#A80036;stroke-width:1.0;"/><text fill="#000000" font-family="sans-serif" font-size="13" lengthAdjust="spacing" textLength="142" x="1467.5" y="1090.0669">House Pricing Dataset</text></a><ellipse cx="1874.1144" cy="981.9229" rx="90.1144" ry="20.4229" style="stroke:#191970;stroke-width:1.5;fill:none;"/><text fill="#191970" font-family="sans-serif" font-size="14" lengthAdjust="spacing" textLength="142" x="1803.1144" y="984.7696">A3: EDA Assignment</text><line style="stroke:#191970;stroke-width:1.5;" x1="1957.0464" x2="1935.7006" y1="974.8035" y2="996.1492"/><a href="http://GDSCUIZ.github.io" target="_top" title="http://GDSCUIZ.github.io" xlink:actuate="onRequest" xlink:href="http://GDSCUIZ.github.io" xlink:show="new" xlink:title="http://GDSCUIZ.github.io" xlink:type="simple"><path d="M1790,1073 L1790,1098.1328 A0,0 0 0 0 1790,1098.1328 L1958,1098.1328 A0,0 0 0 0 1958,1098.1328 L1958,1083 L1948,1073 L1878,1073 L1874,1002.57 L1870,1073 L1790,1073 A0,0 0 0 0 1790,1073 " fill="#FBFB77" filter="url(#f1b7dv93axm0jd)" style="stroke:#A80036;stroke-width:1.0;"/><path d="M1948,1073 L1948,1083 L1958,1083 L1948,1073 " fill="#FBFB77" style="stroke:#A80036;stroke-width:1.0;"/><text fill="#000000" font-family="sans-serif" font-size="13" lengthAdjust="spacing" textLength="147" x="1796" y="1090.0669">EDA on Titanic Dataset</text></a><ellipse cx="419.7652" cy="862.653" rx="113.7652" ry="25.153" style="stroke:#191970;stroke-width:1.5;fill:none;"/><text fill="#191970" font-family="sans-serif" font-size="14" lengthAdjust="spacing" textLength="194" x="322.7652" y="865.4997">A4: DNN Regression with TF</text><line style="stroke:#191970;stroke-width:1.5;" x1="524.4628" x2="498.3581" y1="853.8847" y2="879.9894"/><a href="http://GDSCUIZ.github.io" target="_top" title="http://GDSCUIZ.github.io" xlink:actuate="onRequest" xlink:href="http://GDSCUIZ.github.io" xlink:show="new" xlink:title="http://GDSCUIZ.github.io" xlink:type="simple"><path d="M311.5,969.5 L311.5,994.6328 A0,0 0 0 0 311.5,994.6328 L528.5,994.6328 A0,0 0 0 0 528.5,994.6328 L528.5,979.5 L518.5,969.5 L424,969.5 L420,887.56 L416,969.5 L311.5,969.5 A0,0 0 0 0 311.5,969.5 " fill="#FBFB77" filter="url(#f1b7dv93axm0jd)" style="stroke:#A80036;stroke-width:1.0;"/><path d="M518.5,969.5 L518.5,979.5 L528.5,979.5 L518.5,969.5 " fill="#FBFB77" style="stroke:#A80036;stroke-width:1.0;"/><text fill="#000000" font-family="sans-serif" font-size="13" lengthAdjust="spacing" textLength="196" x="317.5" y="986.5669">Regression using DNNs with TF</text></a><ellipse cx="151.9293" cy="862.5859" rx="118.4293" ry="26.0859" style="stroke:#191970;stroke-width:1.5;fill:none;"/><text fill="#191970" font-family="sans-serif" font-size="14" lengthAdjust="spacing" textLength="204" x="49.9293" y="865.4325">A5: DNN Classification with TF</text><line style="stroke:#191970;stroke-width:1.5;" x1="260.9193" x2="233.8754" y1="853.4923" y2="880.5362"/><a href="http://GDSCUIZ.github.io" target="_top" title="http://GDSCUIZ.github.io" xlink:actuate="onRequest" xlink:href="http://GDSCUIZ.github.io" xlink:show="new" xlink:title="http://GDSCUIZ.github.io" xlink:type="simple"><path d="M37,969.5 L37,994.6328 A0,0 0 0 0 37,994.6328 L267,994.6328 A0,0 0 0 0 267,994.6328 L267,979.5 L257,969.5 L156,969.5 L152,888.71 L148,969.5 L37,969.5 A0,0 0 0 0 37,969.5 " fill="#FBFB77" filter="url(#f1b7dv93axm0jd)" style="stroke:#A80036;stroke-width:1.0;"/><path d="M257,969.5 L257,979.5 L267,979.5 L257,969.5 " fill="#FBFB77" style="stroke:#A80036;stroke-width:1.0;"/><text fill="#000000" font-family="sans-serif" font-size="13" lengthAdjust="spacing" textLength="209" x="43" y="986.5669">Classification using DNNs with TF</text></a><ellipse cx="692.1205" cy="862.5241" rx="123.1205" ry="27.0241" style="stroke:#191970;stroke-width:1.5;fill:none;"/><text fill="#191970" font-family="sans-serif" font-size="14" lengthAdjust="spacing" textLength="214" x="585.1205" y="865.3708">A6: NN Regression with Numpy</text><line style="stroke:#191970;stroke-width:1.5;" x1="805.4277" x2="777.4391" y1="853.1035" y2="881.0921"/><a href="http://GDSCUIZ.github.io" target="_top" title="http://GDSCUIZ.github.io" xlink:actuate="onRequest" xlink:href="http://GDSCUIZ.github.io" xlink:show="new" xlink:title="http://GDSCUIZ.github.io" xlink:type="simple"><path d="M577,969.5 L577,994.6328 A0,0 0 0 0 577,994.6328 L807,994.6328 A0,0 0 0 0 807,994.6328 L807,979.5 L797,969.5 L696,969.5 L692,889.58 L688,969.5 L577,969.5 A0,0 0 0 0 577,969.5 " fill="#FBFB77" filter="url(#f1b7dv93axm0jd)" style="stroke:#A80036;stroke-width:1.0;"/><path d="M797,969.5 L797,979.5 L807,979.5 L797,969.5 " fill="#FBFB77" style="stroke:#A80036;stroke-width:1.0;"/><text fill="#000000" font-family="sans-serif" font-size="13" lengthAdjust="spacing" textLength="209" x="583" y="986.5669">Classification using DNNs with TF</text></a><ellipse cx="745.0799" cy="142.2511" rx="57.0799" ry="14.7511" style="stroke:#A80036;stroke-width:1.5;fill:none;"/><text fill="#000000" font-family="sans-serif" font-size="14" lengthAdjust="spacing" textLength="63" x="710.5799" y="145.9987">Required</text><line style="stroke:#A80036;stroke-width:1.5;" x1="797.6103" x2="781.5975" y1="137.1089" y2="153.1217"/><ellipse cx="890.1007" cy="142.715" rx="52.6007" ry="14.715" style="stroke:#A80036;stroke-width:1.5;fill:none;"/><text fill="#000000" font-family="sans-serif" font-size="14" lengthAdjust="spacing" textLength="57" x="858.6007" y="146.4626">Optional</text><!--MD5=[4539802c5b5ff878d82227ed0da0a12b]
link M1 to W3--><path d="M1077,282.21 C1077,298.4 1077,319.3 1077,336.53 " fill="none" id="M1-to-W3" style="stroke:#A80036;stroke-width:1.0;"/><polygon fill="#A80036" points="1077,341.75,1081,332.75,1077,336.75,1073,332.75,1077,341.75" style="stroke:#A80036;stroke-width:1.0;"/><!--MD5=[bf75434361b431fedbb68b84966ff6dc]
link M2 to M3--><path d="M1624.36,396.55 C1623.9,415.33 1623.26,440.91 1622.76,460.8 " fill="none" id="M2-to-M3" style="stroke:#A80036;stroke-width:1.0;"/><polygon fill="#A80036" points="1622.64,465.98,1626.87,457.0858,1622.7685,460.9817,1618.8727,456.8802,1622.64,465.98" style="stroke:#A80036;stroke-width:1.0;"/><!--MD5=[332361d0d33fb722ee63f974163c734a]
link M3 to E6--><path d="M1646.98,518.48 C1666.93,538.43 1694.89,566.39 1715.67,587.17 " fill="none" id="M3-to-E6" style="stroke:#A80036;stroke-width:1.0;"/><polygon fill="#A80036" points="1719.47,590.97,1715.9345,581.7776,1715.9345,587.4345,1710.2776,587.4345,1719.47,590.97" style="stroke:#A80036;stroke-width:1.0;"/><!--MD5=[94463cc52e7580a6aa8e0892543004cb]
link M4 to E6--><path d="M1866.55,520.27 C1840.58,540.45 1805.12,568.01 1779.02,588.29 " fill="none" id="M4-to-E6" style="stroke:#A80036;stroke-width:1.0;"/><polygon fill="#A80036" points="1774.92,591.48,1784.4781,589.1048,1778.8645,588.4073,1779.5619,582.7936,1774.92,591.48" style="stroke:#A80036;stroke-width:1.0;"/><!--MD5=[a3c19f3fdbe6b6d43ba03dbea8f4ea5b]
link M5 to E7--><path d="M506.99,517.9 C533.71,537.65 571.41,565.52 599.68,586.43 " fill="none" id="M5-to-E7" style="stroke:#A80036;stroke-width:1.0;"/><polygon fill="#A80036" points="603.78,589.46,598.926,580.8904,599.7612,586.4852,594.1663,587.3205,603.78,589.46" style="stroke:#A80036;stroke-width:1.0;"/><!--MD5=[eafd6081afc775571d539063ef63995e]
link E0 to E1--><path d="M1087,57.23 C1087,73.4 1087,94.61 1087,111.7 " fill="none" id="E0-to-E1" style="stroke:#A80036;stroke-width:1.0;"/><polygon fill="#A80036" points="1087,116.86,1091,107.86,1087,111.86,1083,107.86,1087,116.86" style="stroke:#A80036;stroke-width:1.0;"/><!--MD5=[bd9212629c40eea5af01faf0184da8d5]
link E1 to W2--><path d="M1032.39,164.67 C978.99,185.38 898.59,216.55 848.26,236.06 " fill="none" id="E1-to-W2" style="stroke:#A80036;stroke-width:1.0;"/><polygon fill="#A80036" points="843.49,237.92,853.3268,238.4064,848.1538,236.1174,850.4427,230.9444,843.49,237.92" style="stroke:#A80036;stroke-width:1.0;"/><!--MD5=[1f1cd8e6dd4c1b2ca2aaccc9b9bcea6e]
link E1 to E2--><path d="M1147.17,163.9 C1204.79,183.43 1291.39,212.78 1349.95,232.63 " fill="none" id="E1-to-E2" style="stroke:#A80036;stroke-width:1.0;"/><polygon fill="#A80036" points="1354.82,234.28,1347.595,227.5868,1350.0881,232.6646,1345.0103,235.1578,1354.82,234.28" style="stroke:#A80036;stroke-width:1.0;"/><!--MD5=[dcad52bbbca2fe8adc741ce38b45dc12]
link E2 to E5--><path d="M1397.59,281.2 C1371.3,324.19 1317.83,411.65 1288.81,459.11 " fill="none" id="E2-to-E5" style="stroke:#A80036;stroke-width:1.0;"/><polygon fill="#A80036" points="1286.08,463.57,1294.1763,457.962,1288.6797,459.299,1287.3427,453.8024,1286.08,463.57" style="stroke:#A80036;stroke-width:1.0;"/><!--MD5=[e1278bad07730aba396118a76bcefa42]
link E2 to W4--><path d="M1494.33,267.65 C1658.95,293.11 2021.96,359.44 2092,458 C2117.7,494.16 2107.66,547.64 2096.83,582.03 " fill="none" id="E2-to-W4" style="stroke:#A80036;stroke-width:1.0;"/><polygon fill="#A80036" points="2095.23,586.96,2101.8114,579.633,2096.7725,582.2039,2094.2017,577.165,2095.23,586.96" style="stroke:#A80036;stroke-width:1.0;"/><!--MD5=[e3e28c1befcf002155aa15e1416b4315]
link E2 to E6--><path d="M1412.97,281.78 C1414.32,334.83 1424.91,457.09 1491,527 C1533.66,572.13 1600.59,594.25 1654.9,605.1 " fill="none" id="E2-to-E6" style="stroke:#A80036;stroke-width:1.0;"/><polygon fill="#A80036" points="1660.11,606.11,1652.0407,600.4632,1655.2022,605.1541,1650.5113,608.3156,1660.11,606.11" style="stroke:#A80036;stroke-width:1.0;"/><!--MD5=[4931de25dcb70cd4585e7722db9b3a49]
link E3 to E7--><path d="M573.78,396.43 C583.68,413.34 596.04,436.35 604,458 C619.47,500.05 629.27,551.03 634.45,583.38 " fill="none" id="E3-to-E7" style="stroke:#A80036;stroke-width:1.0;"/><polygon fill="#A80036" points="635.24,588.4,637.7775,578.8836,634.4551,583.462,629.8767,580.1396,635.24,588.4" style="stroke:#A80036;stroke-width:1.0;"/><!--MD5=[1215d52114495cf35c63de9a53fffc82]
link E4 to E7--><path d="M785.47,395.79 C755.62,440.57 692.76,534.87 659.94,584.09 " fill="none" id="E4-to-E7" style="stroke:#A80036;stroke-width:1.0;"/><polygon fill="#A80036" points="657.05,588.42,665.3705,583.1503,659.8235,584.2597,658.7141,578.7127,657.05,588.42" style="stroke:#A80036;stroke-width:1.0;"/><!--MD5=[3a9b96bfbf6b6ad89c494e81751bda47]
link E5 to E7--><path d="M1171.19,512.34 C1073.42,531.18 918.79,561.02 785,587 C769.61,589.99 753.3,593.16 737.38,596.27 " fill="none" id="E5-to-E7" style="stroke:#A80036;stroke-width:1.0;"/><polygon fill="#A80036" points="732.46,597.23,742.0587,599.4356,737.3678,596.2741,740.5293,591.5832,732.46,597.23" style="stroke:#A80036;stroke-width:1.0;"/><!--MD5=[9120cf2e5df3bff93db8f754bbbc09b4]
link E5 to E6--><path d="M1352.83,515.03 C1443.57,538.34 1586.77,575.12 1672.42,597.12 " fill="none" id="E5-to-E6" style="stroke:#A80036;stroke-width:1.0;"/><polygon fill="#A80036" points="1677.47,598.41,1669.7468,592.2983,1672.6269,597.1671,1667.7582,600.0472,1677.47,598.41" style="stroke:#A80036;stroke-width:1.0;"/><!--MD5=[eaef156f3cd26fb09680b4726e423ecd]
link E5 to E5_1--><path d="M1236.91,520.88 C1212.31,541.87 1178.66,570.57 1154.9,590.85 " fill="none" id="E5-to-E5_1" style="stroke:#A80036;stroke-width:1.0;"/><polygon fill="#A80036" points="1150.88,594.28,1160.3165,591.4599,1154.6763,591.026,1155.1101,585.3859,1150.88,594.28" style="stroke:#A80036;stroke-width:1.0;"/><!--MD5=[d0dc24fee2dc8f962968ad55317b5fa5]
link E5 to E5_2--><path d="M1282.08,521.49 C1292.85,544.54 1307.83,576.6 1317.21,596.69 " fill="none" id="E5-to-E5_2" style="stroke:#A80036;stroke-width:1.0;"/><polygon fill="#A80036" points="1319.36,601.28,1319.1771,591.4328,1317.2448,596.7494,1311.9282,594.8172,1319.36,601.28" style="stroke:#A80036;stroke-width:1.0;"/><!--MD5=[78e5ab5e5a88bc842e043d3721ef22a1]
link E5 to E5_3--><path d="M1329.54,518.38 C1358.23,533.62 1389.73,556.19 1406,587 C1429.59,631.66 1389.54,686.35 1361.89,716.45 " fill="none" id="E5-to-E5_3" style="stroke:#A80036;stroke-width:1.0;"/><polygon fill="#A80036" points="1358.25,720.35,1367.3156,716.501,1361.6621,716.6952,1361.4679,711.0417,1358.25,720.35" style="stroke:#A80036;stroke-width:1.0;"/><!--MD5=[1486efffb1e6671ca120f881dfc47b10]
link E5 to E5_4--><path d="M1324.33,518.97 C1358.21,535.87 1401.53,559.88 1436,587 C1483.38,624.28 1529.11,677.84 1555.08,710.42 " fill="none" id="E5-to-E5_4" style="stroke:#A80036;stroke-width:1.0;"/><polygon fill="#A80036" points="1558.45,714.68,1555.9767,705.1467,1555.337,710.7673,1549.7164,710.1276,1558.45,714.68" style="stroke:#A80036;stroke-width:1.0;"/><!--MD5=[772fd7353b85fcd7ba9781333a809f64]
link E5_1 to W1--><path d="M1135.32,639.15 C1153.84,682.2 1195.38,778.73 1217.13,829.27 " fill="none" id="E5_1-to-W1" style="stroke:#A80036;stroke-width:1.0;"/><polygon fill="#A80036" points="1219.17,834.01,1219.2643,824.1616,1217.1832,829.4217,1211.9231,827.3405,1219.17,834.01" style="stroke:#A80036;stroke-width:1.0;"/><!--MD5=[3ed41ca9e4a0342bf659649a2d7520a8]
link E5_2 to W1--><path d="M1303.58,630.79 C1280.71,645.79 1246.6,672.51 1232,706 C1214.8,745.47 1218.64,796.1 1223.98,828.68 " fill="none" id="E5_2-to-W1" style="stroke:#A80036;stroke-width:1.0;"/><polygon fill="#A80036" points="1224.85,833.75,1227.2757,824.2045,1224.0072,828.8215,1219.3901,825.5531,1224.85,833.75" style="stroke:#A80036;stroke-width:1.0;"/><!--MD5=[1c20aaf2cd583bc89bf1591f0a44de04]
link E5_3 to W1--><path d="M1322.12,759.83 C1305.19,778.73 1278.81,808.16 1258.78,830.5 " fill="none" id="E5_3-to-W1" style="stroke:#A80036;stroke-width:1.0;"/><polygon fill="#A80036" points="1255.37,834.31,1264.3553,830.2771,1258.7069,830.5864,1258.3976,824.938,1255.37,834.31" style="stroke:#A80036;stroke-width:1.0;"/><!--MD5=[55ce9eb575be619a41e32fcf1ab5438f]
link E5_4 to W1--><path d="M1517.13,761.85 C1457.75,782.53 1366.7,814.24 1303.32,836.31 " fill="none" id="E5_4-to-W1" style="stroke:#A80036;stroke-width:1.0;"/><polygon fill="#A80036" points="1298.42,838.02,1308.2343,838.8448,1303.1431,836.3791,1305.6088,831.2879,1298.42,838.02" style="stroke:#A80036;stroke-width:1.0;"/><!--MD5=[aad082d993e6b8cee70c7930f5a8138a]
link E6 to A3--><path d="M1741.92,643.27 C1738.98,693.79 1738,808.12 1780,891 C1794.17,918.96 1820.59,943.05 1841.82,959.25 " fill="none" id="E6-to-A3" style="stroke:#A80036;stroke-width:1.0;"/><polygon fill="#A80036" points="1846,962.39,1841.2,953.79,1842,959.39,1836.4,960.19,1846,962.39" style="stroke:#A80036;stroke-width:1.0;"/><!--MD5=[afa1024e8ff7de6306129b3a11e360a6]
link E6 to W7--><path d="M1760.93,642.69 C1791.68,688.43 1856.48,784.85 1888.81,832.95 " fill="none" id="E6-to-W7" style="stroke:#A80036;stroke-width:1.0;"/><polygon fill="#A80036" points="1891.65,837.17,1889.9628,827.4667,1888.8666,833.0163,1883.317,831.9201,1891.65,837.17" style="stroke:#A80036;stroke-width:1.0;"/><!--MD5=[8d8b3bc6a7e801dd3cc94a5872e3c70f]
link E6 to W6--><path d="M1793.62,638.8 C1837.69,657.72 1902.72,685.64 1952.95,707.21 " fill="none" id="E6-to-W6" style="stroke:#A80036;stroke-width:1.0;"/><polygon fill="#A80036" points="1957.76,709.27,1951.0823,702.0306,1953.1695,707.2884,1947.9117,709.3755,1957.76,709.27" style="stroke:#A80036;stroke-width:1.0;"/><!--MD5=[1b93dcc689145246fcf276e79ea23317]
link E7 to W8--><path d="M593.36,642.82 C557.1,662.94 506.48,691.02 469.3,711.65 " fill="none" id="E7-to-W8" style="stroke:#A80036;stroke-width:1.0;"/><polygon fill="#A80036" points="464.83,714.13,474.64,713.2558,469.2008,711.7018,470.7548,706.2626,464.83,714.13" style="stroke:#A80036;stroke-width:1.0;"/><!--MD5=[c23aa90e91c7f6a40a1dd01c1f3910ec]
link E7 to W10--><path d="M691.32,642.23 C735.92,663.32 799.7,693.47 844.16,714.49 " fill="none" id="E7-to-W10" style="stroke:#A80036;stroke-width:1.0;"/><polygon fill="#A80036" points="848.94,716.75,842.4964,709.3015,844.4149,714.6231,839.0933,716.5416,848.94,716.75" style="stroke:#A80036;stroke-width:1.0;"/><!--MD5=[d9c70627b1590f4ad51290afff24cf75]
link E7 to W12--><path d="M646.55,644.46 C652.88,667.12 661.79,698.96 667.48,719.28 " fill="none" id="E7-W12" style="stroke:#A80036;stroke-width:1.0;"/><!--MD5=[814694ad6708beace6ccb2c72ccbdc90]
link W1 to A1--><path d="M1229.59,891.05 C1228.76,907.28 1227.71,927.98 1226.82,945.43 " fill="none" id="W1-to-A1" style="stroke:#A80036;stroke-width:1.0;"/><polygon fill="#A80036" points="1226.55,950.74,1231.007,941.9573,1226.8068,945.7466,1223.0175,941.5464,1226.55,950.74" style="stroke:#A80036;stroke-width:1.0;"/><!--MD5=[c17e47e3fec12eb76e7ade644c982c08]
link W1 to A2--><path d="M1294.51,887.42 C1345.71,906.7 1417.7,933.81 1471.02,953.89 " fill="none" id="W1-to-A2" style="stroke:#A80036;stroke-width:1.0;"/><polygon fill="#A80036" points="1475.8,955.69,1468.796,948.7658,1471.1231,953.9219,1465.967,956.249,1475.8,955.69" style="stroke:#A80036;stroke-width:1.0;"/><!--MD5=[196843ca9cb2c2a88bb8126c92104eda]
link W2 to E4--><path d="M802,274.66 C802,292.11 802,318.48 802,338.9 " fill="none" id="W2-to-E4" style="stroke:#A80036;stroke-width:1.0;"/><polygon fill="#A80036" points="802,343.96,806,334.96,802,338.96,798,334.96,802,343.96" style="stroke:#A80036;stroke-width:1.0;"/><!--MD5=[4382496858e9648dc40658832bfff3cc]
link W2 to E3--><path d="M765.73,272.8 C724.66,291.82 657.38,322.98 610.56,344.66 " fill="none" id="W2-to-E3" style="stroke:#A80036;stroke-width:1.0;"/><polygon fill="#A80036" points="605.81,346.86,615.6578,346.7144,610.3485,344.762,612.301,339.4528,605.81,346.86" style="stroke:#A80036;stroke-width:1.0;"/><!--MD5=[0236886ed49789c9a3d47bba49c12e47]
link W2 to W3--><path d="M841.69,272.31 C886.74,290.82 960.83,321.26 1013.84,343.05 " fill="none" id="W2-to-W3" style="stroke:#A80036;stroke-width:1.0;"/><polygon fill="#A80036" points="1018.58,344.99,1011.7809,337.8645,1013.9566,343.0863,1008.7349,345.262,1018.58,344.99" style="stroke:#A80036;stroke-width:1.0;"/><!--MD5=[8303754fdf1c5658650736a053438f4f]
link W2 to W11--><path d="M733.93,266.86 C660.54,279.81 541.03,304.54 443,342 C361.82,373.02 274.61,423.19 220.18,456.75 " fill="none" id="W2-to-W11" style="stroke:#A80036;stroke-width:1.0;"/><polygon fill="#A80036" points="215.67,459.54,225.4293,458.2152,219.9244,456.9131,221.2264,451.4082,215.67,459.54" style="stroke:#A80036;stroke-width:1.0;"/><!--MD5=[1e6c469c19b15a6f27e64e489a0c264c]
link W3 to W4--><path d="M1197.27,379.91 C1453.88,399.18 2033.16,444.09 2049,458 C2083.8,488.57 2088.25,545.36 2087.03,581.75 " fill="none" id="W3-to-W4" style="stroke:#A80036;stroke-width:1.0;"/><polygon fill="#A80036" points="2086.81,586.96,2091.1917,578.1395,2087.0241,581.9646,2083.199,577.797,2086.81,586.96" style="stroke:#A80036;stroke-width:1.0;"/><!--MD5=[5657d537ed350c6c373d77174933bfdd]
link W3 to W5--><path d="M1056.94,398.1 C1022.63,444.45 952.98,538.54 917.62,586.29 " fill="none" id="W3-to-W5" style="stroke:#A80036;stroke-width:1.0;"/><polygon fill="#A80036" points="914.52,590.48,923.1007,585.6457,917.504,586.468,916.6816,580.8713,914.52,590.48" style="stroke:#A80036;stroke-width:1.0;"/><!--MD5=[75df6429b8904b544b8b21eab9c10104]
link W4 to W6--><path d="M2070.64,645.99 C2062.94,662.4 2053.16,683.24 2044.81,701.03 " fill="none" id="W4-to-W6" style="stroke:#A80036;stroke-width:1.0;"/><polygon fill="#A80036" points="2042.5,705.96,2049.9485,699.5164,2044.6269,701.4349,2042.7084,696.1133,2042.5,705.96" style="stroke:#A80036;stroke-width:1.0;"/><!--MD5=[6803e6296375c70b7e04cce72af6c481]
link W5 to W10--><path d="M896,643.27 C896,662.19 896,687.99 896,708.04 " fill="none" id="W5-to-W10" style="stroke:#A80036;stroke-width:1.0;"/><polygon fill="#A80036" points="896,713.27,900,704.27,896,708.27,892,704.27,896,713.27" style="stroke:#A80036;stroke-width:1.0;"/><!--MD5=[3d2b07e4e19ddc01105b8d17a08f04fe]
link W6 to W7--><path d="M1994.8,773.61 C1976.37,792.27 1953.48,815.45 1935.83,833.32 " fill="none" id="W6-to-W7" style="stroke:#A80036;stroke-width:1.0;"/><polygon fill="#A80036" points="1931.92,837.28,1941.0908,833.6888,1935.434,833.7231,1935.3998,828.0664,1931.92,837.28" style="stroke:#A80036;stroke-width:1.0;"/><!--MD5=[4cceb7990325eb89a0df03a046bb9268]
link W7 to A3--><path d="M1900.87,888.13 C1895.06,908.23 1886.88,936.49 1881.08,956.54 " fill="none" id="W7-to-A3" style="stroke:#A80036;stroke-width:1.0;"/><polygon fill="#A80036" points="1879.66,961.45,1885.9993,953.9126,1881.0468,956.6462,1878.3132,951.6937,1879.66,961.45" style="stroke:#A80036;stroke-width:1.0;"/><!--MD5=[7b8e80f2724c2e3be42c3754e35e1c27]
link W8 to A4--><path d="M420,767.74 C420,786.84 420,812.52 420,832.17 " fill="none" id="W8-to-A4" style="stroke:#A80036;stroke-width:1.0;"/><polygon fill="#A80036" points="420,837.29,424,828.29,420,832.29,416,828.29,420,837.29" style="stroke:#A80036;stroke-width:1.0;"/><!--MD5=[e098774e67f208008bc54a5994c42664]
link W8 to A5--><path d="M366.73,764.95 C320.54,785.72 253.94,815.67 207.19,836.68 " fill="none" id="W8-to-A5" style="stroke:#A80036;stroke-width:1.0;"/><polygon fill="#A80036" points="202.45,838.82,212.2988,838.7885,207.0125,836.7747,209.0264,831.4885,202.45,838.82" style="stroke:#A80036;stroke-width:1.0;"/><!--MD5=[475a6b0babc82591ea60090ab944e638]
link W11 to W9--><path d="M166,527.12 C166,576.97 166,669.35 166,713.81 " fill="none" id="W11-to-W9" style="stroke:#A80036;stroke-width:1.0;"/><polygon fill="#A80036" points="166,718.99,170,709.99,166,713.99,162,709.99,166,718.99" style="stroke:#A80036;stroke-width:1.0;"/><!--MD5=[0454c53dc23ef8d4d782ec3a02be2600]
link W12 to A6--><path d="M676.09,760.63 C679.05,779.4 683.57,808.01 687.03,829.98 " fill="none" id="W12-to-A6" style="stroke:#A80036;stroke-width:1.0;"/><polygon fill="#A80036" points="687.84,835.12,690.4043,825.6108,687.069,830.1798,682.5,826.8445,687.84,835.12" style="stroke:#A80036;stroke-width:1.0;"/><!--MD5=[0f2435f98601becdcbcb19efae9347aa]
link E: Event to W: Workshop--><!--MD5=[c7e01f4319e1858fb7eabf2731f6e35b]
link W: Workshop to M: Math--><!--MD5=[41d9513d6a270d3d1ab707bb5fb29dff]
link E: Event to A: Assignment--><!--MD5=[7a9b2ecb8bcc53ccdfc9a5ad337eaf47]
link A: Assignment to Required--><!--MD5=[a9f007f9487967e577345f66b8e0e46c]
link Required to Optional--><!--MD5=[abea52c9a00cfe19fa7d0b97e44be243]
@startuml "MLStart"

skinparam usecase {
BackgroundColor transparent
shadowing false
}

(E: Event)
(W: Workshop) #line:red;text:red
(M: Math) #line:darkorange;text:darkorange
(A: Assignment) #line:MidnightBlue;text:MidnightBlue

(E0: 30DaysOfML Init)/ as E0 <<Taha Bouhsine>>
(E1: AI First + ML 101)/ as E1 <<Taha Bouhsine>>

(E2: Intro to Data)/ as E2 <<Taha Bouhsine>>
(E3: Intro to Colab) as E3 <<Said Elhachemy>>
(E4: Python in Kaggle) as E4 << Lahcen Oussayd >>
(E5: Supervised Machine Learning)/ as E5 <<Taha Bouhsine>>
(E5_1: Linear Regression)/ as E5_1
(E5_2: SVM)/ as E5_2
(E5_3: Decision Tree)/ as E5_3
(E5_4: Random Forest)/ as E5_4 <<Oumaima Kaissi>>
(E6: Intro to EDA)/ as E6 <<Taha Bouhsine>>
(E7: Intro to Deep Learning)/ as E7 << Ayoub Bouihrouchane >>




(W1: Supervised ML with sklearn)/ as W1 << Chaimae Majgari>> #line:red;text:red 
(W2: Intro to Python)/ as W2 #line:red;text:red
(W3: Linear Algebra with Numpy)/ as W3 <<Said Elhachemy>> #line:red;text:red
(W4: Data Preparation with Pandas)/ as W4 <<Oumaima Kaissi>> #line:red;text:red
(W5: Intro to JAX)/ as W5 <<Said Elhachemy>> #line:red;text:red
(W6: Intro to Data Visualization with Python)/ as W6 <<Souad Saidi>> #line:red;text:red
(W7: EDA with Python)/ as W7 <<Taha Bouhsine>> #line:red;text:red
(W8: Intro to TensorFlow)/ as W8 << Ayoub Bouihrouchane >> #line:red;text:red 
(W9: OOP with Python)/ as W9 #line:red;text:red
(W10: NN with JAX) as W10 <<Said Elhachemy>> #line:red;text:red
(W11: Functional Programming with Python)/ as W11 #line:red;text:red
(W12: NN with Numpy)/ as W12 #line:red;text:red

(M1: Linear algebra for ML) as M1 << El Mahjoub Abakrim >> #line:darkorange;text:darkorange
(M2: Probability for ML) as M2 << El Mahjoub Abakrim >> #line:darkorange;text:darkorange
(M3: Statistics for ML) as M3 << El Mahjoub Abakrim >> #line:darkorange;text:darkorange
(M5: Calculus for ML) as M5 << El Mahjoub Abakrim >> #line:darkorange;text:darkorange 
(M4: Information Theory for ML) as M4 << El Mahjoub Abakrim >> #line:darkorange;text:darkorange

(A1: Sklearn Classification Assignment)/ as A1 #line:MidnightBlue;text:MidnightBlue
note bottom [[http://GDSCUIZ.github.io]]
Heart Disease UCI Dataset
end note

(A2: Sklearn Regression Assignment)/ as A2 #line:MidnightBlue;text:MidnightBlue
note bottom [[http://GDSCUIZ.github.io]]
House Pricing Dataset
end note

(A3: EDA Assignment)/ as A3 #line:MidnightBlue;text:MidnightBlue
note bottom [[http://GDSCUIZ.github.io]]
EDA on Titanic Dataset
end note

(A4: DNN Regression with TF)/ as A4 #line:MidnightBlue;text:MidnightBlue
note bottom [[http://GDSCUIZ.github.io]]
Regression using DNNs with TF
end note

(A5: DNN Classification with TF)/ as A5 #line:MidnightBlue;text:MidnightBlue
note bottom [[http://GDSCUIZ.github.io]]
Classification using DNNs with TF
end note

(A6: NN Regression with Numpy)/ as A6 #line:MidnightBlue;text:MidnightBlue
note bottom [[http://GDSCUIZ.github.io]]
Classification using DNNs with TF
end note

M1 - -> W3

M2 - -> M3

M3 - -> E6
M4 - -> E6

M5 - -> E7

E0 - -> E1

E1 - -> W2
E1 - -> E2

E2 - - -> E5
E2 - -> W4
E2 - - -> E6

E3 - -> E7

E4 - -> E7

E5 - -> E7
E5 - -> E6
E5 - -> E5_1
E5 - -> E5_2
E5 - - -> E5_3
E5 - - -> E5_4
E5_1 - -> W1
E5_2 - -> W1
E5_3 - -> W1
E5_4 - -> W1


E6 - -> A3
E6 - -> W7
E6 - -> W6

E7 - -> W8
E7 - -> W10
E7 - - W12

W1 - -> A1
W1 - -> A2

W2 - -> E4
W2 - -> E3
W2 - -> W3
W2 - - -> W11

W3 - - -> W4
W3 - -> W5

W4 - -> W6

W5 - -> W10

W6 - -> W7

W7 - -> A3

W8 - -> A4
W8 - -> A5

W11 - - -> W9

W12 - -> A6

(Required)/
(Optional)
@enduml

PlantUML version 1.2022.0(Tue Jan 11 17:16:42 WEST 2022)
(GPL source distribution)
Java Runtime: OpenJDK Runtime Environment
JVM: OpenJDK 64-Bit Server VM
Default Encoding: UTF-8
Language: en
Country: US
--></g></svg>